<?xml version="1.0" standalone="no"?>
<!DOCTYPE svg PUBLIC "-//W3C//DTD SVG 1.1//EN" "http://www.w3.org/Graphics/SVG/1.1/DTD/svg11.dtd" >
<svg xmlns="http://www.w3.org/2000/svg" xmlns:xlink="http://www.w3.org/1999/xlink" version="1.1">
<metadata></metadata>
<defs>
<font id="blackknightflfregular" horiz-adv-x="1003" >
<font-face units-per-em="2048" ascent="1638" descent="-410" />
<missing-glyph horiz-adv-x="460" />
<glyph horiz-adv-x="0" />
<glyph horiz-adv-x="682" />
<glyph horiz-adv-x="507" d="M31 1475l13 -23q13 -22 41 -49t72 -49.5t103 -22.5q51 0 94 22.5t72 49.5t37 38l24 34l-21 -13q-22 -12 -55.5 -25.5t-73.5 -25.5t-77 -12q-47 0 -102.5 19.5t-89 37t-37.5 19.5z" />
<glyph horiz-adv-x="309" d="M0 1323q0 -12 20.5 -34.5t47 -45t51 -39t31.5 -16.5q2 0 22.5 16.5t43 39t41.5 44t19 33.5q0 8 -20 33.5t-45 52.5t-47.5 47.5t-26.5 20.5q-6 0 -28.5 -24t-47 -52.5t-33.5 -40.5z" />
<glyph horiz-adv-x="276" d="M0 1339q0 -63 40 -95t89 -32t89 32t40 95t-40 96t-89 33t-89 -32.5t-40 -96.5zM37 1339q0 47 28.5 71t63.5 24t63.5 -24t28.5 -71t-28.5 -69.5t-63.5 -22.5t-63.5 22.5t-28.5 69.5z" />
<glyph unicode="&#xa;" horiz-adv-x="552" d="M0 1208q2 2 29.5 21.5t70.5 52.5t84 63.5t71 55t30 26.5t-7.5 12.5t-14.5 19.5t-14 14.5t-7 -0.5q0 -8 -26 -38t-60.5 -67t-70.5 -75t-59.5 -60.5t-25.5 -24.5zM240 1208q2 2 29.5 21.5t70.5 52.5t84 63.5t70.5 55t29.5 26.5t-7 12.5t-14 19.5t-14.5 14.5t-7.5 -0.5 q0 -8 -25.5 -38t-60.5 -67t-70.5 -75t-59 -60.5t-25.5 -24.5z" />
<glyph horiz-adv-x="221" d="M8 -111q0 -23 12.5 -43t31 -35.5t36.5 -24.5t31 -9q10 0 26.5 6t33 15t27.5 16.5t11 11.5q0 -2 -16 -2q-20 0 -41 8t-38.5 21.5t-28.5 29t-11 27.5q0 18 10 34.5t22.5 30t17.5 17.5l15 12h-67q-2 0 -13.5 -10t-24.5 -25.5t-23.5 -37t-10.5 -42.5z" />
<glyph horiz-adv-x="466" d="M20 1399q0 -4 32 -18.5t71 -30t71.5 -28.5t34.5 -13t37 24.5t77 53t77 54t35 27.5q0 6 -27 -8t-59.5 -33.5t-59 -36t-28.5 -16.5t-29 15.5t-59.5 35t-60.5 35t-30 15.5q-6 0 -19 -8.5t-26.5 -19.5t-25 -24.5t-11.5 -23.5z" />
<glyph unicode="&#xd;" horiz-adv-x="409" d="M82 854q0 -4 8 -8t19.5 -13.5t19.5 -22.5t8 -36v-524q0 -37 6.5 -71t12.5 -61.5t12 -46t6 -26.5q0 -23 -7 -34t3 -11t48 21.5t80 47t75 48t33 24.5q0 8 -25 6t-37 5q-8 2 -16.5 15t-14.5 33.5t-10 43t-4 45.5v518q0 14 13.5 23.5t13.5 15.5q0 4 -20.5 23.5t-45 42 t-48.5 40t-30 17.5q-8 0 -19 -19.5t-24 -34.5l-36.5 -36.5t-20.5 -24.5z" />
<glyph horiz-adv-x="1013" d="M47 850q0 -4 24.5 -7t65.5 -5v-537q0 -57 16.5 -110.5t42 -95.5t56.5 -66.5t57 -24.5v-22q10 0 13 1l2 1l215 213l10 14q0 12 -10 12q-4 0 -19.5 -12t-34 -25.5t-37 -26t-30.5 -12.5q-8 0 -27.5 18.5t-40 53.5t-36 84t-15.5 113v418q72 -2 150 -3h149v-530 q0 -57 16.5 -110.5t42 -95.5t55 -66.5t56.5 -24.5v-22q10 0 12 1l2 1l215 213l11 14q0 12 -11 12q-4 0 -19 -12t-33.5 -25.5t-37 -26t-30.5 -12.5q-8 0 -28 18.5t-40.5 53.5t-35.5 84t-15 113v418h96q29 -2 47.5 15t28.5 40.5t14 45t4 30.5q0 2 -2 2h-188q2 70 18.5 111.5 t34.5 64t34.5 31t20.5 8.5q14 0 15 12q0 14 -29 14q-23 0 -57.5 -21.5t-70.5 -56t-67 -77.5t-45 -86h-313q2 70 18.5 111.5t35 64t34.5 31t21 8.5q14 0 14 12q0 14 -29 14q-25 0 -59.5 -22.5t-70.5 -58t-67.5 -78.5t-45.5 -86q-12 -10 -31 -27.5t-34 -36t-26.5 -33 t-11.5 -16.5z" />
<glyph horiz-adv-x="872" d="M68 860h69v-225q0 -8 4 -58.5t11.5 -121t15.5 -150.5t17.5 -147.5t16.5 -112.5t13 -45q4 0 17.5 29.5t27.5 80t28.5 115t24 135t11.5 142t-9 133.5l-36 225h24q2 0 16.5 -4t32 -11t17.5 -16q4 6 18 23.5t29.5 39t28 42t12.5 29.5q0 4 -6 4h-193q-8 43 -17.5 100t-9.5 92 q0 59 40 73.5t85 14.5q27 0 45.5 -20.5t29.5 -44t16.5 -44t9.5 -20.5q2 0 8 11.5t13 24.5t15.5 27.5t16.5 20.5q16 12 39.5 26.5t39 23t17.5 10.5l-20 8q-21 8 -47 28q-39 29 -53 58l-15 28l-19 -15q-18 -15 -45.5 -34.5t-57.5 -35t-50 -15.5q-49 0 -81 -32.5t-49 -82 t-24.5 -107.5t-7.5 -112q-20 -16 -44.5 -40.5t-24.5 -49.5zM524 854q0 -4 8.5 -8t19.5 -13.5t19.5 -22.5t8.5 -36v-524q0 -37 6 -71t12 -61.5t12 -46t6 -26.5q0 -23 -7 -34t3 -11t48 21.5t80 47t75 48t33 24.5q0 8 -24.5 6t-37.5 5q-8 2 -16 15t-14 33.5t-10.5 43t-4.5 45.5 v518q0 14 13.5 23.5t13.5 15.5q0 4 -20.5 23.5t-45 42t-48 40t-29.5 17.5q-8 0 -19.5 -19.5t-23.5 -34.5q-16 -16 -37 -36.5t-21 -24.5zM602 1157q14 0 33.5 -16.5t37 -36t31 -35.5t17.5 -16q8 0 23.5 12t34 27.5t38 28t33.5 12.5q2 0 -12.5 20.5t-35 44t-40 44t-27.5 20.5 q-23 0 -47 -16.5t-44.5 -36t-33 -36t-8.5 -16.5z" />
<glyph horiz-adv-x="798" d="M68 860h69v-225q0 -8 4 -58.5t11.5 -121t15.5 -150.5t17.5 -147.5t16.5 -112.5t13 -45q4 0 17.5 29.5t27.5 80t28.5 115t24 135t11.5 142t-9 133.5l-36 225h24q2 0 16.5 -4t32 -11t17.5 -16q4 6 18 23.5t29.5 39t28 42t12.5 29.5q0 4 -6 4h-193q-8 43 -17.5 100t-9.5 92 q0 59 40 73.5t85 14.5q27 0 45.5 -20.5t29.5 -44t16.5 -44t9.5 -20.5q2 0 8 11.5t13 24.5t15.5 27.5t16.5 20.5q16 12 39.5 26.5t39 23t17.5 10.5l-20 8q-21 8 -47 28q-39 29 -53 58l-15 28l-19 -15q-18 -15 -45.5 -34.5t-57.5 -35t-50 -15.5q-49 0 -81 -32.5t-49 -82 t-24.5 -107.5t-7.5 -112q-20 -16 -44.5 -40.5t-24.5 -49.5zM498 856q0 -2 9 -12t21.5 -25.5t21.5 -35t9 -38.5v-587q0 -16 -13.5 -23.5t-13.5 -11.5t19.5 -24.5t44.5 -43t48.5 -41t31.5 -18.5q4 0 23.5 22.5t41 49t39 50t17.5 25.5q0 6 -14.5 -6t-20.5 -12q-4 0 -23.5 20.5 t-19.5 47.5v960q0 10 4 55t23.5 94.5t61.5 88.5t120 39q10 0 6 10t-27 10q-59 0 -120.5 -36t-112.5 -104.5t-83 -169t-32 -227.5q0 -16 -9 -26t-21.5 -16.5t-21.5 -10.5z" />
<glyph horiz-adv-x="1159" d="M-10 53q0 -33 19.5 -54.5t35.5 -30.5t18 -9t-4 5t-15 15.5t-17.5 23.5t-8.5 32q0 94 125 94q51 0 130 -23.5t166 -51t173 -50t152 -22.5q49 0 114.5 27.5t126 74.5t102.5 107.5t42 127.5q0 80 -33 122t-70.5 60.5t-70.5 18.5q-31 0 -29 -4q0 -4 25.5 -7t54.5 -17.5 t53.5 -45t24.5 -88.5q0 -55 -21.5 -97t-54.5 -69.5t-71.5 -41t-71.5 -13.5q-39 0 -100.5 11.5t-124 28t-120 32.5t-91 27.5t-35.5 11.5l26 22q27 23 58.5 54.5t58.5 64.5t27 53v230l98 55q16 10 27.5 16.5t17.5 20.5q12 25 18.5 59.5t7.5 66.5t-1 52.5t-7 11.5 q-4 -12 -21 -26.5t-38 -28.5l-102 -59v280q0 12 16 55.5t52 89.5t89.5 81.5t126.5 35.5q88 0 139.5 -42t51.5 -117q0 -39 -11.5 -67t-29 -45t-37.5 -25.5t-39 -8.5q-41 0 -63.5 13.5t-28.5 25.5t-6 14q10 0 17 11.5t7 23.5t-7 23.5t-25 11.5q-29 0 -33 -22.5t10 -48t47 -48 t78 -22.5q39 0 67.5 15.5t47 42t28 59t9.5 67.5q0 70 -56.5 123t-167.5 53q-80 0 -154.5 -47t-135 -103.5t-100.5 -103.5t-52 -47h-51q-25 0 -25 -12q0 -8 12.5 -12t25.5 -14.5t25.5 -32t12.5 -62.5v-237l-102 -58q-14 -10 -26.5 -17t-16.5 -18q-12 -25 -18.5 -59.5 t-6.5 -65.5t2 -50t4 -13q4 14 31.5 31.5t54.5 33.5l78 46v-121q0 -90 -7 -136.5t-13.5 -56.5t-8.5 -10q-4 2 -28.5 8t-60.5 14.5t-58 8.5q-47 0 -93 -21.5t-83 -55.5t-59.5 -75t-22.5 -80z" />
<glyph horiz-adv-x="534" d="M7 530.5q-1 -30.5 1 -50t4 -13.5q6 14 33 31.5t55 33.5l66 39v-413q0 -16 -13.5 -23.5t-13.5 -11.5t19.5 -24.5t44 -43t48 -41t34.5 -18.5q4 0 22.5 22.5t40 49t38.5 50t17 25.5q0 6 -14 -6t-20 -12q-4 0 -23.5 20.5t-19.5 47.5v473l108 61q16 10 27.5 16.5t19.5 20.5 q12 25 17.5 59.5t7.5 66.5t0 52.5t-6 11.5q-6 -12 -22.5 -26.5t-39.5 -28.5l-112 -63v317q0 10 4 55t23.5 94.5t61.5 88.5t120 39q10 0 6 10t-27 10q-59 0 -120.5 -36t-112 -104.5t-83 -169t-32.5 -227.5v-170l-92 -53q-14 -10 -25.5 -17t-17.5 -18q-12 -25 -17.5 -59.5 t-6.5 -65z" />
<glyph horiz-adv-x="1171" d="M10 92l26 3q25 3 60 7t72 7.5t61 3.5q121 0 213.5 -21.5t154.5 -57.5t94 -84t32 -102l10 23q10 23 26.5 48.5t37 48t39.5 22.5q37 0 93 18.5t110.5 54t92 89t37.5 120.5q0 57 -36.5 105.5t-108.5 48.5q-14 0 -32.5 -4t-35 -16.5t-27.5 -33t-11 -50.5q0 -41 30.5 -67 t71.5 -26q18 0 30.5 13.5t12.5 27.5t-11.5 25.5t-21.5 13.5q-18 2 -28.5 -9t-10.5 -21q0 -4 2 -13l2 -10q-16 0 -34.5 17.5t-18.5 43.5q0 39 23.5 61.5t54.5 22.5q47 0 83 -32.5t36 -100.5q0 -53 -33 -97t-79 -76t-93 -49t-78 -17q-4 0 -25.5 32.5t-60.5 71.5t-95.5 72 t-127.5 33q-43 0 -84 -5.5t-105 -21.5q27 8 66 30.5t86 58.5t99.5 80t101.5 95q41 -23 73.5 -42t67.5 -19q0 18 22.5 39.5t50 40t49.5 30.5l23 13q-47 0 -94 14t-94 31q76 92 125 184t49 176q0 86 -37 144.5t-92 96.5t-120.5 58.5t-122 29.5t-95.5 11t-41 2q-10 0 -15 11.5 t-8 24.5t-5.5 24.5t-4.5 11.5q-6 0 -20 -23.5t-32.5 -58.5t-39 -75t-39.5 -75q-4 -10 -36.5 -26.5t-69.5 -42t-68 -59t-31 -74.5t27 -67t62 -26q47 0 82.5 24t35.5 71q0 25 -18.5 42t-42.5 17q-35 0 -54.5 -17.5t-19.5 -37.5q0 -12 9.5 -22.5t23.5 -10.5t24.5 8t10.5 19 q0 16 -5 17t-5 9q0 2 5 7.5t17 5.5t21.5 -12.5t9.5 -24.5q0 -35 -25.5 -51.5t-64.5 -16.5q-35 0 -50.5 21.5t-15.5 42.5q0 31 27.5 62.5t67.5 56t82 41t71 16.5q23 0 67 -3t96 -12.5t108.5 -24t101.5 -37t74.5 -54t29.5 -72.5q0 -72 -29.5 -143.5t-78.5 -141.5 q-45 20 -85 34.5t-71 14.5q-39 0 -78 -22.5t-69.5 -48t-50.5 -48.5l-19 -22l23 10q24 9 94 9q53 0 95 -10.5t77 -26.5q-43 -51 -89.5 -95.5t-87 -78t-72.5 -56t-50 -30.5q-37 -16 -97.5 -37t-118 -41.5t-99.5 -38t-42 -29.5zM506 1399q0 -4 31.5 -18.5t70.5 -30t73 -28.5 t36 -13t36.5 24.5t76.5 53t77 54t35 27.5q0 6 -26.5 -8t-59.5 -33.5t-60.5 -36t-29.5 -16.5l-26 16q-27 15 -60 34.5t-60.5 35t-29.5 15.5q-6 0 -19.5 -8.5t-28 -19.5t-25.5 -24.5t-11 -23.5z" />
<glyph horiz-adv-x="544" d="M-37 -176q0 -72 24.5 -113t55.5 -60.5t59.5 -23.5t36.5 -4q37 0 63.5 18.5t44 43t26 49t8.5 37.5q0 10 -5 10q-2 0 -7 -21.5t-20.5 -47t-41 -47t-68.5 -21.5q-14 0 -38.5 6t-49 26.5t-42 57.5t-17.5 96q0 39 16.5 69.5t42 54t58 42t65.5 35.5q39 18 96.5 50t109.5 70.5 t90 84t38 92.5q0 53 -50 90t-111.5 60.5t-112.5 34.5l-50 11l340 340l-34 -13q-33 -13 -84 -13q-31 0 -77 9t-87 24.5t-71 36t-30 40.5q0 14 4.5 30.5t-0.5 16.5q-6 0 -22.5 -18.5t-32.5 -43t-29.5 -51t-13.5 -42.5q0 -49 29.5 -76t73 -41t92.5 -17.5t88 -3.5l-307 -307 l25 9q24 10 52 10q12 0 49 -12.5t77 -35t72 -56.5t32 -77q0 -29 -28 -60.5t-64.5 -59t-71.5 -48t-49 -28.5q-80 -47 -117 -102.5t-37 -110.5zM127 1133q0 -4 31.5 -18.5t70.5 -30t73 -29t36 -13.5l18 12q17 11 41.5 28.5t53 38t53 39t41 30.5t16.5 14q0 4 -26.5 -10 t-59.5 -32.5t-59.5 -35t-28.5 -16.5t-28.5 15.5t-58.5 34t-59.5 33.5t-29.5 15q-6 0 -20.5 -7t-27.5 -18.5t-24.5 -24.5t-11.5 -25z" />
<glyph unicode=" "  horiz-adv-x="460" />
<glyph unicode="&#x09;" horiz-adv-x="460" />
<glyph unicode="&#xa0;" horiz-adv-x="460" />
<glyph unicode="!" horiz-adv-x="423" d="M152 84q0 -12 20.5 -34.5t47 -45t51 -39t30.5 -16.5q2 0 21.5 16.5t43 39t43 44t19.5 33.5q0 8 -20.5 33.5t-46 52.5t-48 47.5t-26.5 20.5q-6 0 -27.5 -24t-46.5 -52.5t-34 -39.5zM152 1047q0 -8 10 -59.5t24.5 -124t33 -155.5t34.5 -154t29.5 -117t17.5 -46l11 46 q10 46 24 117t30.5 152.5t30 154.5t22.5 124t9 59t-20.5 34t-46 52.5t-48 47t-26.5 20.5q-6 0 -27.5 -23.5t-46.5 -52t-34 -40.5z" />
<glyph unicode="&#x22;" horiz-adv-x="681" d="M238 1290q0 -4 7 -44t16 -94t19.5 -110.5t16.5 -92.5t6 -38t5 26t12.5 69t16.5 89t16 91t12.5 71.5t5.5 32.5q0 6 -8.5 20.5t-18.5 31t-21.5 28.5t-19.5 12t-19.5 -12t-21.5 -28.5t-17 -31t-7 -20.5zM461 1290q0 -4 7 -44t16.5 -94t19.5 -110.5t16 -92.5t6 -38t5.5 26 t12.5 69t16 89t16.5 91t12.5 71.5t5 32.5q0 6 -7 20.5t-18.5 31t-22.5 28.5t-20 12q-8 0 -19 -12t-21.5 -28.5t-17.5 -31t-7 -20.5z" />
<glyph unicode="#" horiz-adv-x="1153" d="M12 547q31 6 78 10t90 6t74 2h31l-70 -262q2 2 21.5 16.5t46 39t39.5 49.5l5 24q5 25 12 54.5t13 53.5l6 25h211l-71 -262q2 2 21.5 16.5t45 39t37.5 49.5l41 157q4 0 23.5 2t48 4t45.5 2q31 0 68.5 17.5t67.5 39t44 39t2 15.5q-25 -2 -70 -5t-89 -5t-61 -3l-50 -3 l45 176q4 0 23.5 2t48 4t45.5 2q33 0 69.5 17.5t66 39t44 39t2.5 15.5q-25 -2 -70 -5.5t-89 -5.5t-78 -4l-34 -2l68 262q-2 -2 -19.5 -15t-42 -36.5t-36.5 -46.5l-43 -164h-211l67 262q-2 -2 -19 -15t-41 -36.5t-36 -46.5l-45 -164q-4 0 -23.5 -2t-49 -4t-44.5 -2 q-31 0 -66.5 -17.5t-64 -39t-45 -39t-6.5 -15.5q29 4 75 7.5t89 5.5t74 3l32 1l-47 -176q-4 0 -23.5 -2t-49 -4.5t-43.5 -2.5q-31 0 -68 -18t-65.5 -39.5t-44 -39t-5.5 -15.5zM387 668l45 176h211l-45 -176h-211z" />
<glyph unicode="$" horiz-adv-x="667" d="M0 764q0 -37 10 -76t28.5 -69.5t44.5 -50t58 -19.5q14 0 36 15.5t42.5 33.5t34.5 34l14 15l-39 -399q-2 0 -14 5t-27 11l-16 6q-6 0 -11 9.5t-8 20.5t-5.5 20.5t-6.5 9.5q-6 0 -11 -9.5t-10 -19.5t-9.5 -19.5t-10.5 -9.5t-22.5 -9t-32.5 -28.5t-28.5 -48t-12.5 -67.5h14 q25 0 56.5 -17.5t60.5 -38t49 -37.5l21 -18l-23 -225l68 51l18 193q2 2 36 28.5t87 78.5t103.5 117.5t87 145.5t36.5 160q0 43 -9 86t-28.5 79t-53 57.5t-83.5 21.5q-10 0 -36.5 -20.5t-45 -39t-22.5 -20.5l31 321l18 -65q2 2 12.5 17.5t27.5 39t30 39.5q14 14 34.5 30.5 t39 30t29.5 23.5t7 14q-6 6 -37.5 8.5t-58.5 12.5t-55 32l-27 21l23 228l-70 -52l-14 -153l-14 -12q-15 -11 -36.5 -25t-48 -29.5t-49.5 -27.5q-25 -12 -56.5 -31t-59 -43.5t-47 -56t-19.5 -70.5v-209zM199 782v332q0 23 20 23q12 0 34.5 -12.5t39 -23.5t18.5 -14l-39 -393 q-2 0 -10 -3t-23.5 1t-27.5 23l-6 23q-6 24 -6 44zM287 215l45 434l20 -15q19 -16 42.5 -48.5t43 -83.5t19.5 -125q0 -98 -28 -149.5t-52.5 -66t-28.5 -14.5q0 16 -16.5 33t-29.5 25t-15 10z" />
<glyph unicode="%" horiz-adv-x="1294" d="M-4 -10q4 -2 26.5 -7.5t65.5 -1t88 30.5l989 1268q-4 2 -27.5 6t-67.5 0t-89 -31q-2 -4 -54.5 -70.5t-141.5 -180t-192.5 -246.5t-210 -269.5t-192.5 -248t-113 -146.5zM113 889q0 -41 18.5 -74t41 -54.5t41.5 -32.5t24 -11q6 0 4 -5t-2 -12q0 -8 10 -8q12 0 47 31t72 78 t66.5 104.5t29.5 110.5v121q0 37 -16.5 71.5t-37 62t-40 44t-25.5 16.5q-4 0 -4 4q0 6 2 13.5t-6 7.5q-4 0 -39 -14.5t-77 -40t-75.5 -61.5t-33.5 -79v-272zM221 909v348q0 8 5 15.5t16 7.5q14 0 33.5 -14.5t38 -36t31.5 -46t13 -46.5v-226q0 -55 -14 -89t-25 -34 q-10 0 -26.5 12.5t-32.5 31t-27.5 40t-11.5 37.5zM899 197q0 -41 18.5 -74t41 -54.5t42 -32.5t23.5 -11q6 0 4 -5.5t-2 -9.5q0 -8 10 -8q12 0 47 30.5t72 78t66.5 103.5t29.5 110v120q0 37 -16 72t-36.5 62.5t-40 44t-25.5 16.5q-4 0 -5 6q0 6 2.5 12.5t-6.5 6.5 q-4 0 -38.5 -14.5t-76.5 -39t-76 -60.5t-34 -79v-274zM1008 217v348q0 23 20 23q14 0 33.5 -14.5t38 -36t32 -46t13.5 -47.5v-223q0 -57 -14.5 -91t-24.5 -34t-26.5 12.5t-33 31t-27.5 40t-11 37.5z" />
<glyph unicode="&#x26;" horiz-adv-x="1239" d="M0 440q0 -88 28.5 -170t70.5 -144.5t89.5 -100t81.5 -37.5q18 0 59.5 26.5t88.5 64.5t93 78t73.5 64.5t29.5 26.5l22 -35q23 -35 59 -86t78 -111.5t81 -111.5t68.5 -86t42.5 -35q27 0 67.5 27.5t77.5 59.5t61.5 59.5t22.5 27.5q-10 0 -33.5 -9t-52.5 -9q-10 0 -49 46 t-87 109.5t-97.5 131t-79 109.5t-31.5 46l24 21q23 22 52.5 64t53.5 103.5t24 141.5q0 2 8 2q10 0 24.5 1t27.5 4t23 11q18 16 36 50t29 63.5t11 46.5q0 18 -16 0q-18 -20 -60.5 -22.5t-86.5 4t-81.5 14.5t-48.5 8q-16 0 -34.5 -33t-33 -69.5t-18.5 -63.5t11 -14q6 6 23.5 7 t36.5 -1t33 -4l15 -2q0 -104 -10 -167t-23.5 -95.5t-18.5 -36.5l-15 -15l-263 379l28 29t59.5 71t59.5 87t28 75q0 55 -20.5 100.5t-45.5 79t-48.5 52t-29.5 18.5q-37 0 -96.5 -16.5t-116.5 -48t-99 -77.5t-42 -104q0 -41 17.5 -89t38 -89t37.5 -68l17 -26l-43 -16 q-43 -17 -94 -55.5t-94 -102t-43 -158.5zM154 582q0 68 34.5 106.5t65.5 50t35 11.5l309 -482l-22 -14q-23 -14 -58 -30.5t-76 -31t-80 -14.5q-6 0 -39.5 11.5t-70.5 53.5t-67.5 121.5t-30.5 217.5zM305 1130q0 41 17.5 68t35.5 27q27 0 54.5 -31t51 -74t39 -90t15.5 -82 q0 -63 -11 -98t-20.5 -44t-11.5 -9l-27 33q-26 34 -58 85.5t-58.5 108.5t-26.5 106z" />
<glyph unicode="'" horiz-adv-x="442" d="M137 1290q0 -4 7.5 -44t16.5 -94t19 -110.5t16.5 -92.5t6.5 -38t5 26t12 69t15.5 89t15.5 91t12 71.5t5 32.5q0 6 -7 20.5t-17.5 31t-21.5 28.5t-19 12t-19.5 -12t-21.5 -28.5t-17.5 -31t-7.5 -20.5z" />
<glyph unicode="(" horiz-adv-x="497" d="M18 549q0 -152 25 -269.5t53.5 -197.5t53.5 -122l24 -42l160 84l-28 45q-27 45 -61 123t-61.5 181.5t-27.5 221.5q0 199 34.5 356.5t76.5 266.5t77 167l35 58q-2 -2 -37 -34.5t-90 -105.5t-106.5 -175t-89.5 -243.5t-38 -313.5z" />
<glyph unicode=")" horiz-adv-x="497" d="M129 -82q2 2 37 35t90 105.5t106.5 174t89 243.5t37.5 312q0 152 -23.5 270t-53 198.5t-52.5 122.5l-24 42l-162 -86l28 -45q27 -45 61 -122.5t61.5 -181t27.5 -222.5q0 -199 -34.5 -355.5t-76.5 -266t-77 -166.5z" />
<glyph unicode="*" horiz-adv-x="655" d="M84 598q0 -4 11 -7t26.5 -5t30 -4t20.5 -2l168 129l-31 -273q0 -8 13.5 -3t30 15.5t29.5 22.5t13 16l-4 35q-4 35 -10 77t-10 76l-4 34l168 -129q4 0 17 3t28.5 6t21.5 5l16 4l-243 135l250 135q0 2 -11.5 6.5t-27 6.5t-29.5 4t-18 2l-170 -127l30 270q0 8 -13 3 t-28.5 -15t-29 -22.5t-13.5 -16.5l5 -35q4 -35 9 -76t9 -74l4 -34l-168 127q-4 0 -17.5 -2t-28.5 -5t-26.5 -6.5t-11.5 -5.5l246 -135z" />
<glyph unicode="+" d="M82 541q12 8 54 10t83 2h191v-191q0 -41 -2 -82.5t-11 -54.5q10 0 42 21.5t67 51.5t61.5 60.5t26.5 49.5v145h147q18 0 49 26.5t61 61.5t51.5 67t21.5 42q-12 -8 -54.5 -10.5t-83.5 -2.5h-192v193q0 41 2 83t10 54q-10 0 -42 -22.5t-66.5 -52t-61 -60.5t-26.5 -47v-148 h-146q-16 0 -47 -26.5t-60.5 -61.5t-52 -66.5t-22.5 -41.5z" />
<glyph unicode="," horiz-adv-x="423" d="M174 92q4 -2 27.5 -19.5t50.5 -43t27 -43.5q0 -63 -15.5 -118.5t-28 -83.5t-14.5 -32l32 34t69.5 87t69.5 116.5t32 123.5q0 8 -15.5 28.5t-36 42t-40 37t-27.5 15.5q-18 0 -40.5 -23t-42 -49.5t-26.5 -37.5z" />
<glyph unicode="-" d="M82 541q12 8 54 10t83 2h520q18 0 49 26.5t61 61.5t51.5 67t21.5 42q-12 -8 -54.5 -10.5t-83.5 -2.5h-520q-16 0 -47 -26.5t-60.5 -61.5t-52 -66.5t-22.5 -41.5z" />
<glyph unicode="." horiz-adv-x="423" d="M147 84q0 -12 20.5 -34.5t47.5 -45t51.5 -39t30.5 -16.5q2 0 22.5 16.5t43 39t42 44t19.5 33.5q0 8 -20.5 33.5t-45 52.5t-47 47.5t-26.5 20.5q-6 0 -29 -24t-47.5 -52.5t-33.5 -39.5z" />
<glyph unicode="/" horiz-adv-x="1212" d="M0 0q4 -2 26.5 -7t65.5 -1t88 31l989 1267q-4 2 -27.5 6t-67.5 0t-89 -30q-2 -4 -54 -71t-141.5 -180.5t-192.5 -246.5t-209.5 -269.5t-192.5 -248t-113 -146.5z" />
<glyph unicode="0" horiz-adv-x="628" d="M51 287q0 -61 26.5 -109.5t60.5 -80t63.5 -49t36.5 -17.5q6 0 5 -5.5t-2 -12.5t1 -12t14 -5q10 0 39 20.5t64.5 56.5t74.5 84t71 101t52.5 109.5t20.5 107.5v490q0 55 -25 107t-55.5 92t-60 64.5t-40.5 24.5q-4 0 -3 6.5t2 12.5t0 12t-9 6q-4 0 -29.5 -9t-63.5 -26.5 t-80 -43t-79 -57.5t-60.5 -69.5t-23.5 -80.5v-717zM211 317v828q0 12 8 22.5t25 10.5q20 0 49 -20.5t56.5 -52.5t47 -69t19.5 -69v-645q0 -84 -20.5 -134.5t-37.5 -50.5q-14 0 -38.5 18.5t-49 46t-42 59.5t-17.5 56z" />
<glyph unicode="1" horiz-adv-x="370" d="M31 1055q45 16 65.5 8t20.5 -25v-1050q0 -10 -5.5 -24.5t-11.5 -28t-11 -23.5t-3 -10q12 0 44 31.5t64.5 73.5t58.5 84t26 63v1052q0 33 2 48.5t3 22.5t3 9t2 6q0 10 -26.5 -11t-63.5 -57t-77 -76t-64.5 -65.5t-26.5 -27.5z" />
<glyph unicode="2" horiz-adv-x="622" d="M20 0h394q12 0 45 26.5t68.5 60.5t63 66.5t27.5 45.5q-8 0 -26.5 -7.5t-69.5 -7.5h-278q-8 -12 11 18.5t52 90t75 141.5t78 172t60.5 183.5t24.5 175.5q0 49 -24.5 100t-55.5 93t-59.5 68.5t-38.5 26.5q-4 0 -5 7q0 6 2.5 12t1.5 12t-10 6q-6 0 -59 -20.5t-114.5 -58 t-112 -91t-50.5 -116.5v-101l160 101v141q0 12 7.5 22.5t23.5 10.5q20 0 50 -18.5t57.5 -48.5t47 -67.5t19.5 -76.5q0 -170 -26.5 -305.5t-67.5 -241t-88 -181t-88 -127t-68 -79t-27 -33.5z" />
<glyph unicode="3" horiz-adv-x="628" d="M47 287q0 -61 26.5 -109.5t60.5 -80t63.5 -49t35.5 -17.5t5.5 -5.5t-1.5 -12.5t1 -12t14 -5q10 0 38.5 20.5t64.5 54t75 81t70.5 100.5t52 110.5t20.5 112.5q0 111 -30.5 175.5t-67.5 98t-67 43.5l-31 9l31 19q30 20 67 45.5t67.5 53t30.5 46.5q0 47 -24.5 98t-55 93 t-60.5 69.5t-38 27.5q-6 0 -5 6.5t2 12.5t0 12t-9 6q-4 0 -29.5 -9t-63.5 -26.5t-80 -43t-79 -57.5t-60.5 -69.5t-23.5 -80.5v-101l162 101v141q0 12 7 22.5t24 10.5q20 0 49.5 -20.5t57.5 -51.5t47.5 -68t19.5 -71q0 -35 -28 -83t-61.5 -91t-60.5 -74l-28 -31l28 -11 q27 -11 60.5 -49t61.5 -111t28 -195q0 -29 -6.5 -61t-15.5 -59.5t-18 -46t-18 -18.5q-16 0 -40.5 18.5t-49 46t-41 59.5t-16.5 56l2 74z" />
<glyph unicode="4" horiz-adv-x="704" d="M0 483h326v-495q0 -10 -5.5 -24.5t-11.5 -28t-10 -23.5t-2 -10q12 0 44 31.5t63.5 73.5t57 84t25.5 63v329h64q14 0 43 27t55.5 60.5t47 63.5t20.5 36q-8 0 -34 -13.5t-69 -13.5h-127v563q0 33 2.5 48.5t3.5 22.5t3 9t2 6q0 8 -30 -14.5t-71 -69.5q-53 -61 -110.5 -154 t-107.5 -189.5t-91 -185.5t-63.5 -140.5t-24.5 -55.5zM160 643q2 4 17.5 41t41 95.5t49 111.5t41 89t17.5 28v-365h-166z" />
<glyph unicode="5" horiz-adv-x="657" d="M41 287q0 -51 23.5 -97.5t55.5 -82t63.5 -57t47.5 -21.5q4 0 1 -6.5t-3 -14.5q0 -6 6.5 -10t10.5 -4q10 0 61 42t108.5 110.5t103.5 156.5t46 180q0 90 -24.5 151.5t-57 98.5t-65.5 52.5t-49 15.5q-25 0 -49 -19l-23 -18v366h190q35 0 79 29t80 65t57.5 64.5t13.5 28.5 q-6 0 -19.5 -13.5t-48.5 -13.5h-299l-213 -221v-498q0 -31 -6 -39t0 -8q2 0 12.5 19.5t27.5 44t43 44t62 19.5q31 0 54.5 -34.5t41 -86t26 -106.5t8.5 -98q0 -33 -6.5 -66t-15.5 -59.5t-18.5 -44t-17.5 -17.5q-20 0 -46 19.5t-48.5 47t-37.5 59.5t-15 57q0 53 1 62l1 9z" />
<glyph unicode="6" horiz-adv-x="620" d="M33 287q0 -61 26.5 -109.5t59.5 -80t62.5 -49t37.5 -17.5q4 0 4 -6q0 -4 -1 -11.5t2 -12.5t14 -5q10 0 38.5 21.5t64.5 57.5t75 84t70.5 99t52 104.5t20.5 100.5q0 90 -24.5 158.5t-64.5 115.5t-90 70.5t-101 23.5q20 51 63 123t91 141.5t93 128t72 81.5l-35 -17.5 t-69.5 -37t-49.5 -31.5q-80 -88 -154.5 -188.5t-132 -206t-91 -211t-33.5 -201.5v-125zM193 317v129q0 61 4 123t24 121q72 0 124 -77.5t52 -231.5v-59q0 -84 -21.5 -134.5t-35.5 -50.5t-39 18.5t-49.5 46t-41.5 59.5t-17 56z" />
<glyph unicode="7" horiz-adv-x="620" d="M-2 -35l231 168q0 6 8.5 49t26 110.5t41 156t53.5 186.5h70q18 0 47 22.5t56.5 51t47 56.5t19.5 40l-20 -9q-21 -10 -84 -10h-84q53 150 120.5 292.5t147.5 246.5q-2 -2 -15.5 -11t-36 -19.5t-40.5 -10.5q-66 0 -131.5 -2t-122 -5t-98 -7t-58.5 -6q-12 0 -38.5 -33 t-55.5 -76t-50.5 -86t-21.5 -63l20 17q19 17 65 36.5t122 37t189 17.5q14 0 38.5 9.5t42 17.5t19.5 10q-6 -6 -22.5 -37t-41 -79t-54 -111.5t-62.5 -137.5h-117q-14 0 -40 -21.5t-50.5 -50t-43 -56t-18.5 -42.5l7 4q8 5 37.5 10t82.5 5h74q-49 -109 -95 -218.5t-83 -202.5 t-59.5 -159.5t-22.5 -89.5z" />
<glyph unicode="8" horiz-adv-x="628" d="M47 287q0 -61 26.5 -109.5t60.5 -80t63.5 -49t35.5 -17.5t5.5 -5.5t-1.5 -12.5t1 -12t14 -5q10 0 38.5 20.5t64.5 54t75 81t70.5 100.5t52 110.5t20.5 112.5q0 66 -26.5 123t-60 100t-63.5 71t-38 34l29 19q30 18 65 44.5t64.5 53t29.5 45.5q0 47 -24.5 98t-55 93 t-60.5 69.5t-38 27.5q-6 0 -5 6.5t2 12.5t0 12t-9 6q-4 0 -29.5 -9t-63.5 -26.5t-80 -43t-79 -57.5t-60.5 -69.5t-23.5 -80.5v-101q0 -14 10.5 -33.5t25.5 -39t33.5 -40t37.5 -36.5l-36 -45t-35 -51.5t-25.5 -52t-10.5 -46.5v-272zM209 317v392q16 -14 50 -42t68.5 -74 t60.5 -112.5t26 -158.5q0 -29 -6.5 -61t-15.5 -59.5t-18 -46t-18 -18.5q-16 0 -40.5 18.5t-48 46t-41 59.5t-17.5 56zM209 1004v141q0 12 7 22.5t24 10.5q20 0 49.5 -20.5t57.5 -51.5t47.5 -68t19.5 -71q0 -31 -15.5 -64t-44.5 -72q-12 10 -36.5 31t-49 45.5t-42 50 t-17.5 46.5z" />
<glyph unicode="9" horiz-adv-x="628" d="M8 -18q4 2 35 17t70 36.5t49 32.5q80 88 154.5 188t132 205.5t91 211t33.5 201.5v91q0 55 -24.5 107t-55 92t-60.5 64.5t-38 24.5q-6 0 -5 6.5t2 12.5t0 12t-9 6q-4 0 -29.5 -9t-63.5 -26.5t-80 -43t-79 -57.5t-60.5 -69.5t-23.5 -80.5v-181q0 -53 24.5 -117.5t64.5 -120 t90.5 -93t101.5 -37.5q-23 -49 -65 -121t-90 -142.5t-93 -129t-72 -80.5zM209 905v240q0 12 7 22.5t24 10.5q20 0 49.5 -24t57.5 -56.5t47.5 -68.5t19.5 -60v-129q0 -61 -4.5 -123t-24.5 -121q-72 0 -124 78t-52 231z" />
<glyph unicode=":" horiz-adv-x="423" d="M143 84q0 -12 20.5 -34.5t47.5 -45t51.5 -39t30.5 -16.5q2 0 22.5 16.5t43 39t42 44t19.5 33.5q0 8 -20.5 33.5t-45 52.5t-47 47.5t-26.5 20.5q-6 0 -29 -24t-46.5 -52.5t-33.5 -39.5zM143 526q0 -12 20.5 -34.5t47.5 -45t51.5 -39t30.5 -16.5q2 0 22.5 16.5t43 39t42 44 t19.5 33.5q0 8 -20.5 34t-45 52.5t-47 47t-26.5 20.5q-6 0 -29 -23.5t-46.5 -52.5t-33.5 -40z" />
<glyph unicode=";" horiz-adv-x="423" d="M174 92q4 -2 27.5 -19.5t50.5 -43t27 -43.5q0 -63 -15.5 -118.5t-28 -83.5t-14.5 -32l32 34t69.5 87t69.5 116.5t32 123.5q0 8 -15.5 28.5t-36 42t-40 37t-27.5 15.5q-18 0 -40.5 -23t-42 -49.5t-26.5 -37.5zM174 526q0 -12 20.5 -34.5t46 -45t50 -39t31.5 -16.5 q2 0 22.5 16.5t44 39t43 44t19.5 33.5q0 8 -20.5 34t-46.5 52.5t-48.5 47t-26.5 20.5q-6 0 -27.5 -23.5t-46 -52.5t-33.5 -40z" />
<glyph unicode="&#x3c;" horiz-adv-x="610" d="M0 553q0 -4 21.5 -47t53 -105.5t68.5 -133t70 -130t56.5 -99.5t25.5 -38t30.5 22.5t61.5 45t59.5 45t28.5 20.5t-21.5 41t-58.5 101.5t-77 132t-77.5 134t-60 104.5t-24.5 46t24.5 37t62.5 79t80 98t77.5 96.5t57 74t17.5 29.5t-41 -39t-90 -98.5t-113.5 -130 t-111.5 -132t-85 -104.5t-34 -49z" />
<glyph unicode="=" d="M82 369q12 8 54 10t83 2h520q18 0 49 26.5t61 61.5t51.5 68t21.5 43q-12 -10 -54.5 -12.5t-83.5 -2.5h-520q-16 0 -47 -26.5t-60.5 -61.5t-52 -66.5t-22.5 -41.5zM82 719q12 8 54 10t83 2h520q18 0 49 26.5t61 61.5t51.5 68t21.5 43q-12 -10 -54.5 -12.5t-83.5 -2.5h-520 q-16 0 -47 -26.5t-60.5 -61t-52 -66.5t-22.5 -42z" />
<glyph unicode="&#x3e;" horiz-adv-x="602" d="M0 0q4 0 41 39t90 98.5t113.5 130t112 132t85 104.5t33.5 49q0 4 -21.5 47t-53 105.5t-68.5 133t-70 130t-56.5 98.5t-25.5 39q-4 -2 -31.5 -22.5t-60.5 -45t-59.5 -45t-28.5 -20.5t21.5 -41t59.5 -101.5t78 -132t77.5 -134t60.5 -104.5t25 -46q0 -6 -26 -38t-63.5 -78 t-80.5 -98.5t-79 -96.5t-57.5 -73.5t-15.5 -29.5z" />
<glyph unicode="?" horiz-adv-x="645" d="M131 1022q0 -6 5 -1t16.5 15.5t30 19.5t46.5 9q84 0 138.5 -6t86 -25.5t44 -58.5t12.5 -103q0 -51 -45 -101t-99.5 -91t-99.5 -70.5t-45 -40.5q0 -16 14.5 -53t32 -77t31.5 -74.5t14 -47.5l19 17q20 18 44.5 43.5t49.5 53.5t37 50q0 4 -10.5 25.5t-22.5 48.5t-22.5 53.5 t-10.5 42.5q0 8 39 32t87 63.5t87 97t39 135.5q0 63 -21.5 105t-55 68t-74.5 36t-78 10q-33 0 -67 -1t-56 -11q4 8 6 15t0 7q-6 0 -33.5 -28.5t-58.5 -64.5t-43 -50zM193 84q0 -12 20 -34.5t46 -45t50.5 -39t30.5 -16.5q2 0 22.5 16.5t44 39t43 44t19.5 33.5q0 8 -20.5 33.5 t-46 52.5t-48 47.5t-26.5 20.5q-6 0 -27.5 -24t-46.5 -52.5t-34 -39.5z" />
<glyph unicode="@" horiz-adv-x="1372" d="M0 598q2 -158 61.5 -271.5t152.5 -186t210 -106.5t231 -34q61 0 130 22.5t125.5 51t94 55.5t37.5 35l-34 -18q-33 -19 -87.5 -41.5t-124 -41t-141.5 -18.5q-78 0 -177 26.5t-187 90t-148.5 170t-60.5 266.5q0 123 39 219t107.5 163t162.5 100.5t207 33.5t208 -38 t163.5 -106.5t106.5 -163.5t38 -208t-26.5 -165t-59.5 -70.5t-60.5 -15.5t-29.5 3q-37 0 -69.5 23.5t-56.5 54.5t-37 62.5t-13 48.5v266q0 8 3 25.5t30 58.5q0 2 -7.5 4t-19.5 7t-24.5 12.5t-20.5 17.5q-10 14 -17.5 35.5t-17.5 21.5t-34.5 -16.5t-47.5 -32.5 q-12 -10 -36.5 -18.5t-53.5 -20.5t-56.5 -29.5t-45.5 -44.5q-10 -12 -15.5 -39.5t-8.5 -58.5t-4 -60.5t-1 -45.5v-170q0 -33 15.5 -68t35 -62.5t38 -45t22.5 -17.5q6 0 22.5 13.5t34.5 29.5t34.5 32.5l22.5 22.5t12.5 19.5t12.5 28t10 24.5t8 10q2 0 24.5 -27.5t58.5 -60.5 t82 -60.5t95 -27.5q41 0 90.5 7t92.5 40t70.5 100.5t23.5 188.5q-4 131 -45 241.5t-116 190.5t-184.5 124t-246.5 44q-113 0 -220.5 -42t-191.5 -120t-135 -188.5t-51 -249.5zM506 545v225q0 41 17.5 79t58.5 44q4 0 21.5 -12.5t23.5 -22.5q6 -8 9 -30.5t3 -45.5v-202 q0 -37 -8 -73t-19.5 -64.5t-21.5 -46t-17 -17.5q-8 0 -19 7t-22.5 26.5t-18.5 51.5t-7 81z" />
<glyph unicode="A" horiz-adv-x="1257" d="M0 90q0 -61 48 -95t126 -34q100 0 184 40t145.5 89t95.5 93t34 55v196l9 8q9 9 20 9q14 0 32.5 -8.5t38 -19.5t36.5 -19.5t30 -8.5q8 0 21.5 12.5t31.5 30t40.5 33.5t49.5 25q10 4 -11.5 20t-50 34.5t-54.5 33.5l-27 16q-12 0 -39 -23.5t-55.5 -51t-50.5 -49.5l-21 -23 v303q0 53 22.5 99t48 79t48.5 52l22 18q16 -8 48 -12.5t62.5 -6.5t53.5 -2h23v-780q0 -16 -13.5 -25.5t-29 -15.5t-28.5 -12.5t-13 -12.5t9 -12t21.5 -11t26.5 -11.5t24 -14.5q14 -12 26.5 -30.5t22 -35t18.5 -28.5t19 -12t18.5 11t16.5 27.5t18.5 34t26.5 27.5q12 8 31 13 t36 8t28.5 6.5t11.5 9.5q0 10 -17.5 22.5t-37 26.5t-37 32.5t-17.5 43.5v757q0 2 24.5 8.5t54.5 26t54.5 55t24.5 95.5q0 27 -14.5 44t-34 26.5t-37.5 11.5t-27 0q2 -2 18.5 -11.5t35 -27t20.5 -33.5v-10q-1 -34 -25 -52q-28 -22 -114 -22q-63 0 -144 26.5t-171.5 57.5 t-186.5 57.5t-190 26.5q-109 0 -182.5 -25.5t-120 -66.5t-67 -90t-20.5 -99q0 -33 15.5 -58.5t33 -42.5t31 -23.5t9.5 -0.5q-16 25 -33 48.5t-17 68.5q0 39 22.5 69t59.5 50t84 30.5t97 10.5q70 0 131 -15.5t115.5 -37t99.5 -45t80 -39.5l-289 -215l6 -25q6 -26 6 -45v-489 q0 -53 -29.5 -96.5t-73.5 -76t-95.5 -50t-96.5 -17.5q-4 0 -28.5 1t-52 11.5t-49 33t-21.5 63.5q0 33 21.5 56t39.5 33.5t20 12.5q-4 0 -21 -4t-35.5 -17.5t-34 -37t-15.5 -62.5zM156 217q29 -23 67.5 -63.5t61.5 -71.5q14 18 31.5 39.5t35 41t33.5 37t29 25.5 q-10 6 -28.5 21.5t-38 35t-38 40t-26.5 34.5q-12 -18 -28.5 -38.5t-34 -40t-35 -36t-29.5 -24.5zM156 506q29 -23 67.5 -63t61.5 -72q14 18 31.5 39.5t35 41t33.5 37t29 25.5q-10 6 -28.5 21.5t-38 35t-38 40t-26.5 34.5q-12 -18 -28.5 -38.5t-34 -40t-35 -36t-29.5 -24.5z M158 797q29 -25 66.5 -65t60.5 -73q29 37 66.5 82t62.5 62q-10 6 -28.5 21.5t-38 35t-38 40t-26.5 34.5q-12 -16 -28.5 -36.5t-34 -40t-34 -36t-28.5 -24.5z" />
<glyph unicode="B" horiz-adv-x="1390" d="M0 1047q0 -43 21.5 -70t51 -42t58.5 -20.5t43 -5.5q0 8 -19.5 13.5t-42 16.5t-42 33.5t-19.5 65.5q0 45 29 71t63 26q27 0 52.5 -9.5t52 -21.5t52.5 -21.5t54 -9.5q14 0 40 3t50.5 7t43.5 7l18 4v-815l162 145v176l53 53q16 16 53 26.5t78 10.5q61 0 123.5 -17.5t114 -53 t84 -88t32.5 -121.5q0 -66 -21.5 -128.5t-60.5 -110.5t-91 -76.5t-115 -28.5q-55 0 -121 37.5t-139.5 81.5t-155.5 82t-174 38q-76 0 -130.5 -24.5t-89 -61.5t-51 -79t-16.5 -74q0 -41 11 -66t27.5 -39t33 -19t26.5 -5q8 0 -2 3t-24.5 14t-27.5 33.5t-13 59.5q0 16 13 36.5 t36.5 38t56.5 29t72 11.5q72 0 125 -25.5t110.5 -56.5t130 -56.5t183.5 -25.5q98 0 201.5 39t188.5 109.5t140 169t55 214.5q0 106 -46 173t-108.5 103t-129 51t-108.5 17.5t-46 2.5l26 23q27 24 58 54.5t57.5 57t26.5 32.5q-16 12 -41.5 44t-52.5 69t-49.5 73t-32.5 58 l-270 -266q0 4 2 28.5t8 65.5t18 74q8 25 17.5 38t16.5 22.5t12.5 14.5t5.5 15q-14 0 -31 -6t-42.5 -14.5t-64.5 -14.5t-100 -6q-35 0 -62.5 8t-53 17.5t-53.5 17.5t-62 8q-59 0 -110.5 -18.5t-88.5 -51t-58.5 -77.5t-21.5 -96zM205 504q29 -25 66.5 -65t60.5 -72 q14 18 31.5 39.5t35 41t34 37t28.5 25.5q-10 6 -28.5 21.5t-38 35t-37 40t-27.5 34.5q-10 -16 -26.5 -36.5t-35 -40t-35 -36t-28.5 -24.5zM205 799q29 -25 66.5 -65t60.5 -72q14 18 31.5 39.5t35 41t34 37t28.5 25.5q-10 6 -28.5 21.5t-38 35t-37 40t-27.5 34.5 q-10 -16 -26.5 -36.5t-35 -40t-35 -36t-28.5 -24.5zM668 649v324l153 151q8 -18 25.5 -44.5t38 -53.5t43 -49.5t39.5 -32.5z" />
<glyph unicode="C" horiz-adv-x="1140" d="M8 492q0 -129 69.5 -227.5t173 -166t223.5 -101.5t220 -34q47 0 98.5 32t100.5 82t92 111.5t77 122t53.5 112.5t19.5 83q-2 -2 -23.5 -38t-58.5 -92.5t-78 -109.5t-81 -91t-67 -38q-125 0 -244.5 36t-213 94.5t-150.5 133t-57 154.5q0 143 48 243.5t105.5 164t105.5 91.5 l48 29v-604q0 -31 -10 -67.5t-23.5 -68.5t-23.5 -53l-11 -20l36 33t78 78t78 91t36 73v532l17 15q18 16 26 16q4 0 30.5 -29.5t60.5 -64.5t68.5 -64.5t55.5 -29.5q10 0 43 27.5t63.5 61t50 61.5t5.5 28l-21 -8q-20 -7 -31 -7q-8 0 -34.5 17.5t-54 43t-49 53.5t-21.5 48 q0 16 4 26.5t0 14.5q-8 12 -43 -13.5t-73 -61t-68 -67.5l-29 -32v29q0 29 -1 64.5t-3 64t-7 28.5q-8 0 -42.5 -23.5t-73.5 -51t-70 -51t-26 -23.5q31 0 45 -21l14 -22q-4 -2 -48 -22.5t-112.5 -68.5t-135.5 -120t-114 -174.5t-47 -228.5zM213 492q27 -20 61.5 -56.5 t53.5 -64.5q25 33 59.5 72.5t56.5 56.5q-10 4 -26.5 18t-33.5 31.5t-33.5 36t-24.5 30.5q-18 -31 -54 -69.5t-59 -54.5zM213 758q27 -23 61.5 -58.5t53.5 -64.5q25 33 59.5 74t56.5 55q-10 6 -26.5 20.5t-33.5 32t-33.5 35.5t-24.5 31q-18 -33 -54 -71t-59 -54z" />
<glyph unicode="D" horiz-adv-x="1445" d="M-8 70q0 -41 21.5 -68t39.5 -27q4 0 -1 5.5t-12 14.5t-14.5 23.5t-7.5 32.5q0 33 15.5 52.5t40 29.5t56.5 12t65 2q92 0 166.5 -24.5t143 -54t138.5 -54t156 -24.5q109 0 218 49t196 133t142.5 198.5t55.5 245.5q0 168 -58.5 295t-165 211t-257 126t-334.5 42 q-51 0 -97 -8t-84 -19.5t-62.5 -19.5t-33.5 -8q-4 0 -9 8t-12 19.5t-14.5 19.5t-15.5 8l-2 -18q-2 -19 -4 -34t-2 -17q-53 -106 -77.5 -168t-33 -93.5t-5.5 -42t3 -14.5l24 35q24 35 79 78t148.5 77.5t234.5 34.5q59 0 123.5 -13t128 -39.5t122 -66.5t107.5 -91l-44 -44 q-44 -45 -110.5 -110.5t-145.5 -145t-150 -149.5v483q0 18 7 38t16 38.5t15.5 33.5t6.5 21q-6 0 -41 -29.5t-75 -65.5t-73 -66l-33 -29l9 -11q8 -10 8 -38v-512q0 -18 -9.5 -30.5t-25.5 -29.5q-57 23 -110.5 36.5t-100.5 13.5q-14 0 -57 -18.5t-89 -52.5t-83 -80t-37 -101z M150 492q14 -12 31.5 -29t34.5 -35t33.5 -37.5t26.5 -34.5q14 18 32 40t35 41.5t33.5 37t29.5 25.5q-10 6 -29 21.5t-38.5 34.5t-36.5 39.5t-28 35.5q-10 -18 -26.5 -39t-34.5 -40.5t-34.5 -35.5t-28.5 -24zM150 786q14 -12 31.5 -28.5t34.5 -34.5t33.5 -37.5t26.5 -34.5 q14 18 32 40t35 41.5t33.5 36.5t29.5 26q-10 6 -29 21t-38.5 34.5t-36.5 40t-28 35.5q-10 -18 -26.5 -39t-34.5 -40.5t-34.5 -36t-28.5 -24.5zM506 258l633 633q18 -23 34.5 -46.5t28.5 -49.5l-586 -584q-29 12 -55 24.5t-55 22.5zM653 193l568 567q34 -84 34 -180v-5 q0 -88 -24.5 -177t-63.5 -159.5t-88 -114.5t-98 -44q-61 0 -145 36t-183 77z" />
<glyph unicode="E" horiz-adv-x="1255" d="M0 41q0 -31 11.5 -49.5t26.5 -27.5t29.5 -11t18.5 -2q8 0 1 3t-19.5 12t-24.5 23.5t-12 39.5q0 31 17.5 58.5t43 49t57 34.5t62.5 13q53 0 135 -34.5t180.5 -75.5t207 -76t218.5 -35q41 0 92.5 31t95.5 83t74.5 119.5t30.5 143.5q0 31 -11 62.5t-32.5 57t-51.5 43 t-69 17.5q-16 0 -34.5 -7t-33 -16.5t-23.5 -18.5t-9 -15q0 -4 24.5 14.5t75.5 18.5q25 0 47.5 -14.5t39 -38t26.5 -51t10 -52.5q0 -49 -22.5 -91t-54 -74t-67.5 -49t-61 -17q-41 0 -103 19t-138 47t-161 57.5t-169 50.5q27 25 56.5 57.5t55 62t42 51t16.5 27.5v207l20 -16 q21 -15 48.5 -35.5t54.5 -44t39 -37.5q20 23 45.5 47.5t50.5 47t47.5 41t34.5 28.5q-12 10 -32.5 29.5t-43 41t-42 44t-32.5 38.5q8 10 30 31t44.5 43.5t45 42t34.5 27.5q-8 4 -23.5 18.5t-35.5 36.5q6 8 18 20.5t24.5 23.5t25 19.5t20.5 8.5l5 -21q5 -22 19.5 -48.5t40 -48 t64.5 -21.5q18 0 42.5 6t47 20t38 37t15.5 57q0 33 -21.5 46.5t-39.5 13.5q-37 0 -55.5 -25.5t-18.5 -38.5l18 20q19 21 52 21q14 0 27.5 -9t13.5 -30q0 -35 -30 -63.5t-89 -28.5q-35 0 -55.5 26.5t-30.5 59.5t-15.5 59.5t-9.5 26.5q-14 0 -33.5 -13t-39 -30.5t-36 -35 t-24.5 -25.5q-27 27 -53.5 57.5t-48 58t-37 48t-17.5 28.5q-2 -8 -21.5 -34.5t-49 -61.5t-63.5 -74t-65.5 -72.5t-55 -57t-29.5 -27.5q20 -14 20 -37v-561q0 -45 -24 -80q-92 24 -174 24h-7q-39 0 -79.5 -26.5t-74.5 -67.5t-55.5 -88t-21.5 -86zM113 518q14 -12 31.5 -28.5 t35 -35t33.5 -38t27 -35.5q29 37 67.5 82t61.5 61q-10 6 -28.5 21.5t-38 35t-37 40t-27.5 34.5q-10 -16 -26.5 -36.5t-35 -40t-35 -36t-28.5 -24.5zM113 813q14 -12 31.5 -28.5t35 -35t33.5 -38t27 -35.5q29 37 67.5 82t61.5 61q-10 6 -28.5 21.5t-38 35t-37 40t-27.5 34.5 q-10 -16 -26.5 -36.5t-35 -40t-35 -36t-28.5 -24.5zM598 707v370q14 -14 40 -42.5t50.5 -60.5t46 -59.5t29.5 -42.5q-14 -20 -42 -48.5t-55.5 -54.5t-48.5 -44z" />
<glyph unicode="F" horiz-adv-x="1222" d="M10 -14q0 -37 18.5 -73t50.5 -62.5t73 -43t86 -16.5q72 0 137 32t121.5 70.5t101.5 70.5t78 32h29q18 0 34.5 1t27.5 4t11 7q0 16 -19.5 23.5t-19.5 23.5v480h205q16 0 26.5 -14.5t22.5 -14.5q6 0 13.5 7t11.5 11l223 228q2 4 4 10t-18 6q-6 0 -17.5 -12.5t-30 -25.5 t-45 -25.5t-63.5 -12.5h-332v348q0 37 25 37q20 0 51 -21.5t59.5 -49t49 -51t24.5 -29.5q-2 -4 -9 -12.5t-16.5 -18.5t-16.5 -19.5t-7 -13.5t5 -3t9 5l265 262q2 2 4 7.5t-2 5.5q-6 0 -17.5 -8.5t-25 -18.5t-25.5 -20.5t-18 -12.5q-6 2 -29 22.5t-49.5 48.5t-51 55.5 t-30.5 39.5q-4 16 -5 30.5t-7 14.5q-16 0 -62.5 -57t-118.5 -137q-25 -29 -57.5 -52.5t-62 -44t-49 -36t-19.5 -23.5q0 -16 13.5 -39.5t13.5 -46.5v-741q0 -57 -37 -109.5t-89.5 -91.5t-111.5 -61.5t-104 -22.5q-41 0 -78 14.5t-64.5 38t-43 53t-15.5 60.5q0 29 17.5 56.5 t33.5 27.5q0 -2 8 -18.5t25.5 -35t44.5 -18.5q20 0 37.5 12.5t17.5 28.5q0 25 -18.5 44.5t-65.5 19.5q-39 0 -63.5 -16.5t-39 -38t-19.5 -42t-5 -28.5zM260 231q14 -12 31.5 -28.5t35 -34.5t34 -37.5t26.5 -34.5q14 18 31.5 40t35 41.5t34 36.5t28.5 26q-10 6 -28.5 21 t-38 34.5t-37 40t-27.5 35.5q-10 -18 -26.5 -39t-35 -40.5t-35 -36t-28.5 -24.5zM260 522q29 -25 67 -64.5t60 -72.5q14 18 31.5 39.5t35 41t34 37t28.5 25.5q-10 6 -28.5 21.5t-38 35t-37 40t-27.5 34.5q-10 -16 -26.5 -36.5t-35 -40t-35 -36t-28.5 -24.5zM262 811 q14 -12 31.5 -28.5t35 -35t33 -38t25.5 -35.5q14 18 31.5 39.5t35 42t34 38t28.5 25.5q-10 6 -28.5 21.5t-38 35t-37 39t-27.5 33.5q-10 -16 -26.5 -36.5t-34 -40t-34 -36t-28.5 -24.5z" />
<glyph unicode="G" horiz-adv-x="1265" d="M8 492q0 -125 66.5 -223.5t167 -167t219.5 -105.5t221 -37q35 0 89 17.5t116.5 50t126 80t115 106.5t83 130t31.5 151q0 123 -50 202.5t-112.5 127.5t-118 67.5t-65.5 19.5l147 148q8 6 17.5 15t9.5 20q0 4 -8 4q-4 0 -11.5 -4t-11.5 -4t-40.5 26.5t-81 61t-80 67.5 t-35.5 45l-174 -176v119q0 39 -5 53l-6 14q-4 0 -37.5 -23.5t-72.5 -51t-70.5 -51t-31.5 -25.5q31 0 45 -21l14 -22q-4 -2 -48 -22.5t-112.5 -68.5t-135.5 -120t-114 -174.5t-47 -228.5zM162 557q0 127 42 225.5t96 165t103.5 100t65.5 33.5v-602q0 -31 -10 -67.5 t-23.5 -68.5t-23.5 -53l-11 -20q2 2 23.5 22.5t56.5 55.5t68 72t56.5 70.5t23.5 54.5v532l19 17l24 24q-6 -10 24.5 -38.5t70.5 -59.5t78 -55.5t48 -24.5l-225 -225l-27 -33q33 14 51.5 23.5t37 14.5t40 7t59.5 2q55 0 107.5 -35t91.5 -93t62.5 -137t23.5 -165 q0 -168 -278 -168q-61 0 -135 13.5t-149 38t-145.5 61.5t-125 84t-87 104t-32.5 125zM213 492q27 -20 61.5 -56.5t53.5 -64.5q25 33 59.5 72.5t56.5 56.5q-10 4 -26.5 18t-33.5 31.5t-33.5 36t-24.5 30.5q-18 -31 -54 -69.5t-59 -54.5zM213 758q27 -23 61.5 -58.5 t53.5 -64.5q25 33 59.5 74t56.5 55q-10 6 -26.5 20.5t-33.5 32t-33.5 35.5t-24.5 31q-18 -33 -54 -71t-59 -54z" />
<glyph unicode="H" horiz-adv-x="1075" d="M-14 70q0 -31 8 -48.5t18.5 -25.5t18.5 -10t8 0q0 4 -15.5 14t-15.5 57q0 43 35 71t78 28q23 0 74 -25t109 -54.5t110.5 -54t79.5 -24.5q45 0 95 17.5t91 46t68.5 63.5t27.5 72q0 61 -35.5 89.5t-83.5 28.5q-45 0 -66.5 -30.5t-21.5 -59.5q6 0 11.5 10.5t13.5 23.5 t22.5 23.5t40.5 10.5q35 0 56.5 -23.5t21.5 -64.5q0 -25 -16.5 -43.5t-40 -28.5t-49 -15t-43.5 -5q-20 0 -61.5 23.5t-91.5 53t-106.5 53t-105.5 23.5q-10 0 -48 -15t-80 -42t-74.5 -62.5t-32.5 -76.5zM113 426q14 -12 31.5 -28.5t35 -35t33.5 -38t27 -35.5q29 37 67.5 82 t61.5 61q-10 6 -28.5 21.5t-38 35t-37 40t-27.5 34.5q-10 -16 -26.5 -36.5t-35 -40t-35 -36t-28.5 -24.5zM113 721q14 -12 31.5 -28.5t35 -35t33.5 -38t27 -35.5q29 37 67.5 82t61.5 61q-10 6 -28.5 21.5t-38 35t-37 40t-27.5 34.5q-10 -16 -26.5 -36.5t-35 -40t-35 -36 t-28.5 -24.5zM362 1059q2 0 14.5 -7.5t26 -21.5t13.5 -29v-776l162 148v553l43 22q10 -6 31.5 -27.5t47 -41t55 -30.5t58.5 1q-10 -12 -17.5 -26.5t-11.5 -40t-5 -68.5t-1 -111q0 -57 17.5 -103t39 -89t40 -90.5t18.5 -106.5q0 -41 -6 -82t-22.5 -75.5t-43 -56t-65.5 -21.5 t-56.5 13t-17.5 9t21.5 -23.5t68.5 -19.5q31 0 78 25.5t91 67.5t75 98.5t31 117.5q0 33 -21.5 82t-46.5 109.5t-46.5 128t-21.5 135.5q0 80 6.5 123t14.5 64.5t14 29.5t6 18q-25 0 -60.5 20.5t-68 48.5t-56.5 56.5t-24 44.5l-165 -165v32q0 156 32.5 238t74.5 119t80 41 t48 4q43 0 63.5 -15.5t24.5 -28t4 -14.5q-2 0 -17.5 -3t-33.5 -15t-18 -37q0 -51 59 -51q16 0 34.5 15.5t18.5 49.5q0 51 -38 87t-91 36q-80 0 -129 -33.5t-83 -79.5t-59.5 -94.5t-60.5 -76.5q-25 -20 -54.5 -39t-48.5 -28t-22 -11z" />
<glyph unicode="I" horiz-adv-x="1155" d="M-8 193q0 -53 54 -90t128 -37q47 0 90 13t65.5 25.5t26.5 14.5l20 -19q21 -18 60 -41.5t95.5 -42t127.5 -18.5q29 0 74 3t94.5 21.5t99.5 58.5t90 113.5t64.5 187.5t24.5 280q0 145 11 243.5t27.5 160.5t36 95t36 46.5t26.5 16.5t8 5q-4 6 -19 0t-45 -15.5t-75 -17.5 t-106 -8q-68 0 -125.5 15.5t-115.5 32.5t-120.5 32.5t-138.5 15.5t-156 -14.5t-146.5 -50t-108.5 -98t-42 -156.5q0 -31 10.5 -66t34 -65.5t59.5 -50t85 -19.5q37 0 66.5 11t51 25.5t32.5 30t11 25.5q0 6 -7 -2t-23.5 -21.5t-47 -25.5t-75.5 -12q-39 0 -67.5 14t-47 36.5 t-28 52.5t-9.5 58q0 43 19.5 84t56.5 72t92.5 49.5t126.5 18.5q59 0 118.5 -18.5t120 -42t122 -42t125.5 -18.5q33 0 69.5 5t57 9t22.5 4l-22 -50q-21 -50 -45.5 -127t-46 -169t-21.5 -178q0 -12 1 -33.5t1 -46.5t1 -48.5t1 -35.5q0 -115 -34 -179.5t-79 -97t-93 -39.5 t-75 -7q-35 0 -71.5 12t-69.5 27.5t-53 28.5l-21 13l21 21q22 20 22 61q0 14 -5 21l-5 6q0 -31 -13 -51.5t-25.5 -29.5t-14.5 -9l-21 24q-20 23 -53 50.5t-77 51t-89 23.5q-27 0 -53.5 -8t-48 -23.5t-34.5 -39t-13 -51.5zM31 197q0 35 31.5 57t68.5 22q35 0 71 -21.5 t65.5 -47t38.5 -35.5l28 -33q-2 -2 -21.5 -10t-57.5 -18.5t-79 -10.5q-59 0 -102 29t-43 68zM539 262q29 -25 66.5 -64.5t60.5 -72.5q29 37 67.5 82t61.5 61q-10 6 -28.5 21.5t-38 35t-37 40t-27.5 34.5q-10 -16 -26.5 -36.5t-35 -40t-35 -36t-28.5 -24.5zM539 551 q29 -23 66.5 -64t60.5 -73q14 18 31.5 39.5t35 42t33.5 38t29 25.5q-10 6 -28.5 21.5t-38 35t-37 40t-27.5 34.5q-10 -18 -26.5 -38.5t-35 -40t-35 -36t-28.5 -24.5zM541 840q29 -23 65.5 -64t59.5 -71q14 18 31.5 39.5t35 41t33.5 37t29 25.5q-10 6 -28.5 21.5t-38 35 t-37 40t-27.5 34.5q-10 -18 -26.5 -38.5t-34 -40t-34 -36t-28.5 -24.5z" />
<glyph unicode="J" horiz-adv-x="1185" d="M4 -174q0 -35 17.5 -59.5t45 -40t60.5 -22.5t63 -7q43 0 86 13.5t64.5 25.5t26.5 14l21 -18q20 -19 58.5 -41.5t94 -41t125.5 -18.5q145 0 235 74t139.5 196t66.5 276.5t17 318.5q0 92 -3 167.5t-3 139.5q0 137 22.5 220t49.5 127t49.5 59.5t22.5 19.5q0 8 -12.5 2 t-38 -15.5t-67.5 -18.5t-104 -9q-78 0 -141 15.5t-123.5 32.5t-122 32.5t-131.5 15.5q-80 0 -161.5 -15.5t-147.5 -52t-108 -98t-42 -153.5q0 -31 11.5 -66t34 -65.5t59.5 -50t90 -19.5q41 0 70.5 12t48 28.5t28 32t9.5 19.5q0 2 -8.5 -7t-28 -21.5t-51 -22.5t-76.5 -10 q-61 0 -101 50t-40 113q0 43 20.5 83t58 71t92 49.5t119.5 18.5q63 0 125 -18.5t122.5 -42t121.5 -42t125 -18.5q35 0 70.5 5t55 9t21.5 4l-22 -49q-21 -49 -46.5 -126t-47 -169t-21.5 -178q0 -43 1 -57.5t2 -23.5t2 -23.5t1 -57.5v-133q0 -74 -7 -150.5t-24.5 -151.5 t-49 -132t-83 -93t-127.5 -36q-43 0 -92 21.5t-78.5 40t-33.5 20.5l20 19q19 20 19 59q0 23 -3 27l-4 3q0 -33 -13 -53t-25.5 -28.5t-14.5 -8.5l-21 23q-20 24 -53.5 52t-76.5 51.5t-86 23.5q-59 0 -105.5 -33t-46.5 -88zM43 -174q0 35 28.5 58.5t75.5 23.5q33 0 67 -21.5 t62.5 -47t37.5 -36.5l28 -32q-2 -2 -21.5 -10.5t-55.5 -18.5t-70 -10q-59 0 -105.5 26.5t-46.5 67.5zM539 262q29 -25 66.5 -64.5t60.5 -72.5q29 37 67.5 82t61.5 61q-10 6 -28.5 21.5t-38 35t-37 40t-27.5 34.5q-10 -16 -26.5 -36.5t-35 -40t-35 -36t-28.5 -24.5zM539 551 q29 -23 66.5 -64t60.5 -73q14 18 31.5 39.5t35 42t33.5 38t29 25.5q-10 6 -28.5 21.5t-38 35t-37 40t-27.5 34.5q-10 -18 -26.5 -38.5t-35 -40t-35 -36t-28.5 -24.5zM541 840q29 -23 65.5 -64t59.5 -71q14 18 31.5 39.5t35 41t33.5 37t29 25.5q-10 6 -28.5 21.5t-38 35 t-37 40t-27.5 34.5q-10 -18 -26.5 -38.5t-34 -40t-34 -36t-28.5 -24.5z" />
<glyph unicode="K" horiz-adv-x="1177" d="M12 49q0 -47 20.5 -65.5t37.5 -18.5q-2 0 -8.5 3t-14.5 21.5t-8 55.5q0 35 31.5 61.5t58.5 26.5q41 0 99.5 -25.5t120 -55t120.5 -55.5t100 -26q37 0 80 27t78 61.5t58.5 70.5t23.5 52q0 -2 -10.5 -14t-41 -25.5t-83.5 -13.5q-31 0 -93.5 26.5t-132 57.5t-131 57.5 t-88.5 26.5q-39 0 -77.5 -24.5t-69.5 -61.5t-50.5 -80t-19.5 -82zM90 459q14 -12 31.5 -28.5t35 -35t34 -38t26.5 -35.5q14 18 31.5 39.5t35 42t34 38t28.5 25.5q-10 6 -27.5 21.5t-38 35t-38 40t-27.5 34.5q-10 -18 -26.5 -38.5t-35 -40t-35 -36t-28.5 -24.5zM90 754 q14 -12 31.5 -28.5t35 -35t34 -38t26.5 -36.5q14 18 31.5 40t35 42.5t34 38t28.5 25.5q-10 6 -27.5 21.5t-38 35t-38 40t-27.5 34.5q-10 -18 -26.5 -38.5t-35 -40t-35 -36t-28.5 -24.5zM375 1085q0 -8 6 -15t13 -16.5t13.5 -23.5t6.5 -35v-698q0 -35 -4 -43l-4 -8l26 20 q27 21 58.5 49.5t58 58t26.5 48.5v209l37 31q43 0 78 -36t61.5 -91.5t46 -120t31.5 -121.5q10 -45 27.5 -98.5t43.5 -99.5t58.5 -76.5t71.5 -30.5q6 0 35 25.5t60.5 58t56 61.5t24.5 35t-6 3t-16 -10t-21.5 -14.5t-19.5 -7.5q-4 0 -21.5 1t-41 23.5t-49 76t-46.5 157.5 q-20 106 -54 181t-69 123.5t-68.5 71t-54.5 22.5l185 184l10 10q10 10 10 15q0 10 -14 10q-10 0 -20.5 -13.5t-18.5 -13.5q-6 2 -26.5 14.5t-43 29t-42 33.5t-23.5 30q0 10 15 22t15 23v12t-4 8q-2 0 -10 -5l-8 -5l-189 -191q0 4 3.5 37t13.5 81t31.5 101.5t57.5 99.5 t90 76.5t132 30.5q74 0 102.5 -23.5t28.5 -39.5q-2 0 -17.5 -3t-32.5 -14.5t-17 -35.5q0 -20 11 -34.5t40 -14.5q25 0 43 15t18 52q0 47 -42 85t-148 38q-70 0 -119 -23.5t-88 -60.5t-70.5 -78t-65.5 -77.5t-75 -60.5t-96 -24zM575 666v258l23 16q8 -4 32.5 -17.5 t49.5 -29.5t45 -31.5t25 -21.5z" />
<glyph unicode="L" horiz-adv-x="1159" d="M-10 53q0 -33 19.5 -54.5t35.5 -30.5t18 -9t-4 5t-15 14.5t-17.5 22.5t-8.5 32q0 96 125 96q51 0 130 -23.5t167 -51t174 -50t152 -22.5q41 0 106.5 26.5t127 71.5t105.5 106.5t44 132.5q0 80 -33 122t-70.5 60.5t-70.5 18.5q-31 0 -29 -4q0 -4 25.5 -7t54.5 -17.5 t53.5 -45t24.5 -88.5q0 -55 -22.5 -97t-54.5 -69.5t-69.5 -41t-68.5 -13.5q-49 0 -130 17.5t-158 38t-132 37.5l-55 18l26 24q27 23 58.5 54.5t58.5 62.5t27 43v688q0 12 16 55.5t52 89.5t89.5 81.5t126.5 35.5q88 0 139.5 -42t51.5 -117q0 -37 -11.5 -63.5t-29 -44 t-37.5 -25t-39 -7.5q-41 0 -63.5 12.5t-28.5 23.5t-6 14q10 0 18 7t8 25q0 12 -9 23.5t-25 11.5q-18 0 -26.5 -12t-8.5 -27q0 -33 38 -67.5t99 -34.5q78 0 115 54t37 130q0 70 -56.5 123t-167.5 53q-80 0 -149.5 -40t-121.5 -89t-87 -94t-43 -55q-8 -8 -28.5 -12.5t-41 -6.5 t-36 -4t-15.5 -8q0 -8 12.5 -14t27.5 -18.5t27.5 -34t12.5 -58.5v-528q0 -90 -7 -136.5t-13.5 -56.5t-8.5 -10q-4 2 -28.5 8t-59.5 14.5t-51 8.5q-47 0 -94 -20.5t-86 -52.5t-62.5 -74t-23.5 -85zM96 459q29 -23 67 -64t60 -73q14 18 31.5 39.5t35 42t34 38t28.5 25.5 q-10 6 -28.5 21.5t-38 35t-37 40t-27.5 34.5q-10 -18 -26.5 -38.5t-35 -40t-35 -36t-28.5 -24.5zM96 754q29 -23 67 -64t60 -74q14 18 31.5 40t35 42.5t34 38t28.5 25.5q-10 6 -28.5 21.5t-38 35t-37 40t-27.5 34.5q-10 -18 -26.5 -38.5t-35 -40t-35 -36t-28.5 -24.5z" />
<glyph unicode="M" horiz-adv-x="1599" d="M2 25q0 -47 20.5 -83t54.5 -59.5t73.5 -36t80.5 -12.5q119 0 205 37t141.5 82t82.5 82l26 37l-3 22q-3 23 -6 50.5t-5 54t-2 34.5v781q0 25 8 41t18.5 26.5t19.5 15.5t13 5q18 0 50 -17.5t62.5 -40t54.5 -45t24 -32.5v-721q0 -10 -13.5 -24.5t-29 -30t-27.5 -28.5 t-12 -20q0 -2 25.5 -21.5t55 -43t55 -46t25.5 -32.5q0 -4 31 25.5t67 66.5t67 68l30 30q-12 0 -24.5 -13t-28.5 -13q-35 0 -48.5 37t-13.5 86v653q0 49 18.5 79t40 47t40.5 22l18 6q2 0 26.5 -14.5t53.5 -33t52.5 -36t23.5 -25.5v-905q0 -104 -38 -174t-124 -70 q-55 0 -89 16.5t-53.5 36t-27.5 36t-14 16.5q-8 0 0 -21.5t31.5 -47.5t63.5 -47.5t97 -21.5q51 0 106.5 27t101.5 64.5t75.5 79.5t29.5 73v942q0 14 12.5 20.5t28 9.5t28.5 9t13 21q0 12 -20.5 27.5t-50 33.5t-63.5 37.5t-62 40.5q-12 8 -24.5 26.5t-22 35t-17.5 29.5 t-14 13q-2 0 -23.5 -32.5t-53.5 -72.5t-69.5 -73t-70.5 -33q-25 0 -60.5 31t-71.5 66.5t-63.5 66.5t-36.5 31q-2 -2 -37.5 -35t-92 -84t-111 -100t-96 -84t-48.5 -35q-4 0 9.5 -15.5t13.5 -29.5v-655q0 -59 -32 -124t-77 -118t-95 -88t-85 -35q-82 0 -137 47t-55 125 q0 20 5 40.5t1 20.5t-17.5 -26.5t-13.5 -54.5zM158 213q14 -12 31.5 -28.5t35 -35t33.5 -38t27 -33.5q14 18 31.5 39.5t35 41t33.5 37t29 25.5q-10 6 -27.5 21.5t-37 35t-38 40t-26.5 34.5q-12 -18 -28.5 -38.5t-34 -40t-35 -36t-29.5 -24.5zM158 504q29 -25 66.5 -65 t60.5 -72q14 18 31.5 39.5t35 41t33.5 37t29 25.5q-10 6 -27.5 21.5t-37 35t-38 40t-26.5 34.5q-12 -16 -28.5 -36.5t-34 -40t-35 -36t-29.5 -24.5zM160 793q14 -12 31.5 -28.5t35 -35t32.5 -38t26 -36.5q14 18 31.5 40t35 42.5t33.5 38t29 25.5q-10 6 -27.5 21.5t-37 35 t-38 38.5t-26.5 34q-23 -35 -61.5 -77t-63.5 -60z" />
<glyph unicode="N" horiz-adv-x="1261" d="M16 -35q0 -6 6.5 -27.5t25 -45t51 -41t85.5 -17.5q98 0 179 30t139.5 64.5t90.5 64.5l32 30l-11 33q-10 34 -10 94v782q0 98 10.5 135t32.5 43q2 0 9.5 -18.5t21.5 -46t33.5 -59.5t46.5 -56q49 -47 108.5 -88t110.5 -94.5t86 -126t35 -183.5t-40 -197.5t-88 -146 t-88 -91.5l-40 -32q2 0 19.5 1t45 3t49.5 2q35 0 65 -20t52.5 -44t39.5 -44.5t28 -20.5l21 29q22 29 55 62q35 37 67.5 65.5t32.5 34.5q0 2 -16.5 -6t-30 -15.5t-15.5 -9.5q-23 51 -57.5 72.5t-70 28t-62.5 2t-29 -4.5q-4 0 25 40t65.5 104.5t68.5 146.5t32 166 q0 102 -36 183t-86 144.5t-104.5 113t-93.5 92.5q-29 33 -45 69.5t-24.5 66.5t-10.5 47t-2 11q0 -25 -37.5 -56.5t-95 -66t-123 -67.5t-123 -59.5t-95.5 -43t-38 -18.5q0 -10 20.5 -5t45 13t45 10t20.5 -16v-766q0 -66 -19 -127t-56 -110.5t-88.5 -79t-112.5 -29.5 q-57 0 -92 24.5t-46.5 46t-13.5 25.5zM102 180q14 -12 32 -28.5t35 -35t33.5 -38t26.5 -33.5q14 18 32 39.5t35 41t33.5 37t28.5 25.5q-10 6 -27.5 21.5t-37 35t-37.5 40t-27 34.5q-12 -18 -28.5 -38.5t-33.5 -40t-35 -36t-30 -24.5zM102 469q14 -12 32 -28.5t35 -35 t33.5 -37t26.5 -34.5q14 18 32 39.5t35 41t33.5 37t28.5 25.5q-10 6 -27.5 21.5t-37 35t-37.5 40t-27 34.5q-12 -18 -28.5 -38.5t-33.5 -40t-35 -36t-30 -24.5zM104 760q29 -25 66 -65t59 -72q29 37 68 82t61 61q-10 6 -27.5 21.5t-37 35t-37.5 40t-27 34.5 q-12 -16 -28.5 -36.5t-33.5 -40t-34 -36t-29 -24.5z" />
<glyph unicode="O" horiz-adv-x="1310" d="M12 487q0 -111 54.5 -201.5t140.5 -155t189.5 -99.5t201.5 -35q57 0 130 21.5t146.5 63.5t144.5 102.5t126 137t89 168t34 195.5q0 84 -35 162t-88 145.5t-115.5 122.5t-117 94t-94.5 60.5t-46 21.5t-32.5 -16.5t-63.5 -41t-78 -53t-76 -54t-57.5 -43t-22.5 -19.5 q0 -4 17 -4q18 0 18 -10v-45q-4 0 -48 -9.5t-114.5 -39t-138 -86t-116 -150.5t-48.5 -232zM172 614q0 111 32 182.5t76 109.5t90 55.5t75.5 20.5t31.5 3v-610q0 -12 -7 -27.5t-15.5 -29t-15.5 -22.5t-7 -11l18 11q19 11 31 26l557 555l14 -17q15 -18 25 -31q8 -10 13 -19 l16 -26l-625 -624l-48 26q-48 25 -106.5 80.5t-106.5 141.5t-48 206zM227 504q27 -23 61 -58.5t52 -64.5q27 33 61.5 73t55.5 56q-10 6 -25.5 20.5t-33 32t-34 35.5t-24.5 31q-20 -33 -56.5 -71t-56.5 -54zM227 768q27 -20 61 -57t52 -66q27 35 61.5 75t55.5 56 q-10 4 -25.5 18.5t-33 32t-34 36t-24.5 30.5q-20 -31 -56.5 -70t-56.5 -55zM518 143l606 607l13.5 -27t25 -70t13.5 -100q0 -106 -49.5 -192.5t-115 -145.5t-135 -92t-108.5 -33q-70 0 -129 13.5t-88 25.5t-33 14zM641 535v542v17q0 12 1 24t5 22.5t15 10.5q18 0 61 -25.5 t90 -61.5t94 -73t75 -60.5t30 -25.5z" />
<glyph unicode="P" horiz-adv-x="1153" d="M0 195q0 -31 14.5 -49.5t33 -27.5t32.5 -11.5t14 3.5q-2 0 -16.5 2.5t-31.5 16.5t-17 45q0 33 20.5 52.5t56.5 19.5q33 0 111 -30t166 -64v-340q0 -47 -25.5 -82t-78.5 -35q-29 0 -53.5 12t-24.5 45q0 14 14 30l14 17q0 2 -8 0t-17 -9t-17.5 -20.5t-8.5 -31.5 q0 -31 32 -54.5t73 -23.5q37 0 65.5 17.5t49 38t32.5 38t19 17.5q12 0 31.5 -11.5t39 -23.5t32.5 -21.5t13 -5.5q0 10 -11 40t-11 52v291q27 -10 60.5 -19.5t67.5 -17.5t63.5 -13t47.5 -5q12 0 44 27.5t71 69.5t82 91t78 93t57.5 77t22.5 39q0 8 -10.5 27.5t-21.5 50.5 t-21.5 73t-10.5 91q0 154 21.5 264.5t47 181t47 105.5t21.5 39q-12 0 -35.5 -9.5t-66.5 -20.5t-111.5 -20.5t-173.5 -9.5q-57 0 -108 12.5t-100.5 28t-101.5 28.5t-114 13q-84 0 -145 -26.5t-100 -64.5t-57.5 -82t-18.5 -79q0 -39 14 -59.5t32.5 -28.5t34 -9t17.5 -1 q0 4 -11 7t-24.5 12.5t-25 26.5t-11.5 50q0 53 55.5 94t137.5 41q47 0 89 -9t77 -22.5t63.5 -26.5t48.5 -21q-16 -31 -57 -61t-84 -51.5t-77.5 -34.5t-39.5 -13q2 0 16.5 -5t32 -22.5t17.5 -48.5v-535q-53 18 -105.5 39t-76.5 21q-29 0 -64 -19.5t-65.5 -47t-51 -59.5 t-20.5 -58zM104 532q27 -20 61 -56t54 -64q12 14 27.5 33.5t32 38t32 33.5t25.5 24q-10 4 -26.5 18t-34 31.5t-34 36t-24.5 30.5q-18 -31 -54 -70t-59 -55zM104 799q27 -23 61 -60t54 -65q25 35 59.5 74.5t57.5 56.5q-10 6 -26.5 20.5t-34 31.5t-34 35.5t-24.5 31.5 q-18 -33 -54 -71t-59 -54zM543 258v686q0 47 15.5 78.5t33.5 60.5q14 -4 47 -12t69.5 -16t73.5 -13.5t60 -5.5q37 0 64.5 10.5t48 22.5t35 25.5t24.5 19.5q-12 -20 -31.5 -58t-38 -91.5t-33 -123t-14.5 -151.5q0 -96 16.5 -164.5t36 -117t35.5 -75t16 -38.5q0 -10 -17 -29.5 t-44 -38t-57.5 -33t-57.5 -14.5q-18 0 -52 7.5t-74 19.5t-82 25.5t-74 25.5z" />
<glyph unicode="Q" horiz-adv-x="1345" d="M12 487q0 -111 54.5 -201.5t140.5 -155t189.5 -99.5t201.5 -35q70 0 159 31.5t177 91.5q14 -6 46 -25.5t64.5 -43t58 -49.5t25.5 -46q0 -4 35 23.5t75 63.5t70.5 65.5t22.5 29.5q-12 0 -16 -9t-37 -9l-18 23q-17 22 -42.5 49.5t-55 52t-56.5 26.5q72 84 117 187.5 t45 226.5q0 84 -35 162t-88 145.5t-115.5 122.5t-117 94t-94.5 60.5t-46 21.5t-32.5 -16.5t-63.5 -41t-78 -53t-76 -54t-57.5 -43t-22.5 -19.5q0 -4 17 -4q18 0 18 -10v-45q-4 0 -48 -9.5t-114.5 -39t-138 -86t-116 -150.5t-48.5 -232zM172 614q0 111 32 182.5t76 109.5 t90 55.5t75.5 20.5t31.5 3v-610q0 -12 -7 -27.5t-15.5 -29t-15.5 -22.5t-7 -11l18 11q19 11 31 26l557 555l14 -17q15 -18 25 -31q8 -10 13 -19l16 -26l-625 -624l-48 26q-48 25 -106.5 80.5t-106.5 141.5t-48 206zM227 504q27 -23 61 -58.5t52 -64.5q27 33 61.5 73t55.5 56 q-10 6 -25.5 20.5t-33 32t-34 35.5t-24.5 31q-20 -33 -56.5 -71t-56.5 -54zM227 768q27 -20 61 -57t52 -66q27 35 61.5 75t55.5 56q-10 4 -25.5 18.5t-33 32t-34 36t-24.5 30.5q-20 -31 -56.5 -70t-56.5 -55zM518 143l606 607l13.5 -27t25 -70t13.5 -100 q0 -106 -49.5 -192.5t-115 -145.5t-135 -92t-108.5 -33q-70 0 -129 13.5t-88 25.5t-33 14zM641 535v542v17q0 12 1 24t5 22.5t15 10.5q18 0 61 -25.5t90 -61.5t94 -73t75 -60.5t30 -25.5z" />
<glyph unicode="R" horiz-adv-x="1390" d="M8 90q0 -37 17.5 -59.5t33 -30.5t17.5 -8q0 4 -6.5 8t-14.5 13.5t-14 23.5t-6 37q0 25 11 44t27.5 32.5t36 20.5t37.5 7q37 0 92.5 -30.5t123 -68.5t143.5 -68.5t153 -30.5q25 0 53.5 18t52 45t39 57.5t15.5 55.5q0 29 -12 46t-27.5 25.5t-28 9.5t-12.5 -4q0 -2 8.5 -6 t18.5 -12t18.5 -21.5t8.5 -31.5q0 -23 -14.5 -39.5t-43.5 -16.5q-31 0 -67.5 13.5t-69.5 31t-54 31.5l-22 13l22 21q21 20 46.5 49.5t47 61t21.5 56.5v184q10 0 36 -15t65 -51t88 -95.5t108 -147.5q16 -25 40 -70t49.5 -88t53 -75.5t52.5 -32.5q20 0 57 32.5t73 72.5 t62.5 77t26.5 47q0 8 -6 5t-16.5 -10t-24.5 -14t-29 -7q-41 0 -78.5 32.5t-75.5 82.5t-75 107.5t-73 107.5t-69.5 83t-66.5 33q4 2 42 15.5t97.5 44t116.5 72.5t98 97.5t41 118.5q0 12 -4 40t-21.5 61.5t-49 69.5t-88 65.5t-139.5 49t-201 19.5q-94 0 -168 -9t-127.5 -21.5 t-86 -21.5t-42.5 -9t-16.5 9t-11.5 19.5t-11 19.5t-19 9q-2 0 -13 -29.5t-26.5 -72.5t-33 -95.5t-29.5 -95.5t-19.5 -72.5t-1.5 -29.5q4 0 13.5 18.5t31 45t60.5 58.5t102.5 58.5t158.5 45t228 18.5q182 0 269.5 -56.5t87.5 -154.5q0 -63 -45 -115.5t-107.5 -89.5 t-129.5 -62.5t-107.5 -37t-45.5 -11.5v349q0 6 11.5 19t24 27.5t23.5 28t11 19.5t-36 -19.5t-79 -60.5t-78.5 -70t-35.5 -49v-649l-32 17q-32 18 -76 39.5t-88 38.5t-68 17q-41 0 -82 -26.5t-73 -63t-52.5 -75.5t-20.5 -64zM150 473q14 -12 31.5 -28.5t34.5 -35t33.5 -38 t26.5 -33.5q14 18 32 39.5t35 41t33.5 37t29.5 25.5q-10 6 -29 21.5t-38.5 35t-36.5 40t-28 34.5q-10 -18 -26.5 -38.5t-34.5 -40t-34.5 -36t-28.5 -24.5zM150 768q14 -12 31.5 -28.5t34.5 -35t33.5 -38t26.5 -33.5q14 18 32 39.5t35 41t33.5 37t29.5 25.5q-10 6 -29 21.5 t-38.5 35t-36.5 40t-28 34.5q-10 -18 -26.5 -38.5t-34.5 -40t-34.5 -36t-28.5 -24.5z" />
<glyph unicode="S" horiz-adv-x="1183" d="M8 119q0 -49 22.5 -75t48 -36t48.5 -10t23 4q0 2 -16.5 6t-37 13.5t-37 29t-16.5 55.5q0 23 12.5 43.5t33 36t45 23.5t48.5 8q49 0 82 -16.5t58.5 -42t49 -54t52.5 -54t66.5 -42t95.5 -16.5q156 0 265.5 40t179 101.5t101 136t31.5 144.5q0 84 -23.5 144t-54 98 t-59.5 56.5t-41 18.5q0 8 18.5 22.5t45.5 14.5q20 0 27 -10t7 -2t-7 20t-25 12q-45 0 -84 -27.5t-71 -61t-55.5 -61.5t-35.5 -28q-10 0 -33.5 22.5t-49.5 51.5t-47.5 57.5t-27.5 38.5q-4 -8 -12 -31.5t-23.5 -53t-36 -60.5t-45.5 -53q-12 16 -36.5 43.5t-50 62.5t-45 76 t-19.5 86q0 66 29.5 107.5t68.5 66.5t78 37t59 22q35 -35 95.5 -70.5t107.5 -80.5q14 -14 22.5 -39t11.5 -49.5t4 -42t1 -19.5q53 61 107.5 87t70.5 26q18 0 30.5 -10.5t12.5 2.5q0 6 -14 20.5t-45 14.5q0 25 -34 62.5t-79 80.5q-31 29 -62.5 50.5t-58 40t-44 33.5t-17.5 32 q0 18 10 29.5t23 11.5q18 0 36 -4l17 -5q-2 10 -20.5 18.5t-43.5 8.5q-8 0 -33.5 -16.5t-52 -39t-48 -48t-21.5 -46.5q0 -18 16 -38q-33 -6 -100.5 -28t-136 -66t-120.5 -115.5t-52 -175.5q0 -57 23.5 -107.5t52 -87.5t51.5 -58l24 -22q0 -31 -47 -31q-55 0 -70.5 30 t-15.5 58v13q-4 0 -8 -9.5t-4 -21.5q0 -31 21.5 -63.5t74.5 -32.5q35 0 60.5 18.5t43 41t27.5 42t14 23.5q10 10 38 27.5l44 27.5q27 -14 55.5 -41t53 -53.5t43 -46t29.5 -19.5q0 20 15 54t36.5 66t45 55.5t40.5 23.5q33 0 58.5 -26.5t44 -65.5t27.5 -83t9 -77 q0 -76 -26.5 -132t-64.5 -93t-79 -55.5t-68 -18.5t-55 20.5t-58 51t-59.5 67.5t-58.5 68t-55.5 51.5t-48.5 20.5v36q0 6 -7 7q-4 0 -12 -14.5t-24.5 -31t-43 -31t-67.5 -14.5q-18 0 -60 -4t-83 -20.5t-73 -47t-32 -83.5z" />
<glyph unicode="T" horiz-adv-x="1181" d="M10 1018q4 -53 38 -80t69 -27q41 0 77.5 29t36.5 66q0 27 -22.5 44t-46.5 17q-35 0 -56.5 -14.5t-21.5 -36.5q0 -20 12.5 -27.5t26.5 -7.5q16 0 24.5 11.5t8.5 17.5t-4.5 12t-5.5 10t2.5 7t19.5 3q10 0 22.5 -7t12.5 -27q0 -33 -26.5 -51.5t-59.5 -18.5q-27 0 -46.5 20.5 t-19.5 57.5q0 33 16.5 60.5t45 48t66.5 31.5t81 11q39 0 82 -10t79 -21.5t59 -21.5l24 -10q-4 -2 -49 -21.5t-117 -66.5t-139.5 -117t-116.5 -173t-49 -234q0 -123 65.5 -220.5t167 -166t222 -105.5t233.5 -37q45 0 96 31t99.5 79t92.5 109.5t77.5 122t53 113.5t19.5 88 q-2 -2 -23.5 -38t-58.5 -92.5t-78 -109.5t-80.5 -91t-68.5 -38q-123 0 -242 36t-212 94.5t-150.5 133t-57.5 154.5q0 133 45.5 234.5t103.5 169t115.5 102.5t82.5 35l-21 -40q-20 -40 -20 -106v-471q0 -31 -10.5 -67.5t-22.5 -68.5t-23 -53l-10 -20l35 33q35 33 78 78 t77.5 91t34.5 73v510l28 -9q28 -10 67.5 -21t86 -20.5t83.5 -9.5q61 0 109 20.5t82 54.5t51.5 76t17.5 83q0 43 -20.5 65.5t-24.5 22.5t4 -16.5t8 -40.5q0 -47 -50.5 -77t-127.5 -30q-53 0 -127 23.5t-156 51t-168 51.5t-166 24q-182 0 -261 -79t-79 -206zM240 489 q27 -20 60.5 -56t53.5 -64q25 33 60 72.5t55 56.5q-10 4 -25.5 18t-33 31.5t-34 36t-24.5 32.5q-10 -16 -25.5 -34.5t-30.5 -36t-30.5 -33t-25.5 -23.5zM240 756q27 -23 60.5 -58.5t53.5 -64.5q25 33 60 74t55 57q-10 4 -25.5 18.5t-33 31.5t-34 35.5t-24.5 31.5 q-20 -33 -56 -71t-56 -54z" />
<glyph unicode="U" horiz-adv-x="1351" d="M-2 41q0 -41 18.5 -61.5t40 -27.5t40 -5t18.5 6q0 6 -13.5 7t-29 7t-28.5 20.5t-13 49.5q0 25 10 49.5t28.5 44t44 32.5t56.5 13q53 0 99 -28.5t98.5 -62.5t117 -61.5t154.5 -27.5q49 0 117.5 13.5t140.5 40t142.5 64.5t126 88t90 111.5t34.5 132.5q0 61 -15 127 t-34.5 124.5t-35 105.5t-15.5 76t16.5 52t32.5 42l31 6q30 6 66 26.5t67 58.5t31 99q0 39 -20.5 62.5t-22.5 23.5q-8 0 -4 -18.5t4 -42.5q0 -45 -20.5 -60.5t-51.5 -15.5q-29 0 -63.5 8t-70.5 18.5t-72 18.5t-64 8q-25 0 -60 -11t-67.5 -30.5t-56 -48t-23.5 -65.5 q0 -18 6 -26.5t6 -4.5q0 23 11.5 42t35.5 19q12 0 40 -11t64.5 -25.5t77.5 -25.5t82 -11h27q0 -18 -19.5 -41t-43 -54.5t-43 -74.5t-19.5 -101q0 -49 9 -103t20.5 -103.5t20.5 -91.5t9 -66q0 -43 -14 -84t-48 -72t-89 -49t-137 -18q-47 0 -106.5 19t-113 42t-88.5 42l-36 19 q78 45 127 78t76.5 57.5t36.5 41t9 26.5v680q1 26 21 53q51 4 92 35t70.5 69t46 73.5t16.5 52.5q0 8 -10 -6.5t-30.5 -34t-49.5 -38t-68 -18.5q-53 0 -103 11.5t-97 25t-93 24.5t-92 11q-68 0 -122 -23.5t-91.5 -57.5t-58 -74.5t-20.5 -73.5q0 -43 16 -72t34.5 -43t35 -18 t16.5 2q0 4 -10 10t-23.5 18.5t-24 35t-10.5 57.5q0 33 17.5 52t39 29.5t41 13.5t23.5 3q6 0 52.5 -9.5t110 -21.5t134 -22.5t127.5 -10.5q-27 -20 -56.5 -47.5t-55 -54.5t-43 -49.5t-17.5 -32.5v-537q0 -66 -17.5 -119t-60.5 -89q-4 2 -31.5 10t-73.5 17t-85 9 q-59 0 -112.5 -19t-94.5 -52t-64.5 -75t-23.5 -87zM229 487q29 -23 68 -62.5t61 -72.5q14 18 32 40t35 41.5t33.5 36.5t28.5 26q-10 6 -28.5 21t-38 34.5t-37.5 40t-27 35.5q-12 -18 -28.5 -39t-34 -40.5t-35 -36t-29.5 -24.5zM229 782q29 -23 68 -62.5t61 -72.5 q14 18 32 40t35 41.5t33.5 36.5t28.5 26q-10 6 -28.5 21t-38 34.5t-37.5 40t-27 35.5q-12 -18 -28.5 -39t-34 -40.5t-35 -36t-29.5 -24.5z" />
<glyph unicode="V" horiz-adv-x="1275" d="M2 119q0 -45 19.5 -79t42 -54.5t42 -28.5t19.5 -2t-13.5 16.5t-28.5 26.5t-27.5 39.5t-12.5 54.5t11.5 61.5t33 56.5t52 42t67.5 16q47 0 107.5 -14t124 -36.5t124 -52.5t108.5 -59.5t76.5 -58.5t28.5 -49q0 -6 23.5 9.5t59.5 44t78 69.5t78 87t59.5 95t23.5 96v576l44 4 q44 4 97 21.5t97 53.5t44 101q0 41 -22 65l-21 23q-6 0 2.5 -18.5t8.5 -40.5q0 -45 -28 -62.5t-67 -17.5t-82 9t-83.5 19.5t-73.5 19.5t-51 9q-68 0 -101 -29.5t-44 -65.5q-9 -30 -9 -56v-10q2 -30 4 -29q2 0 4 10t7 21.5t15.5 21.5t28.5 10l26 -8q26 -8 57.5 -19.5 t59 -19.5t33.5 -8q0 -49 -18 -73.5t-39.5 -45t-39 -42t-17.5 -64.5v-506q0 -59 -18.5 -96t-18.5 -33q-41 70 -105.5 117t-128 74.5t-85.5 33.5l-68 16q78 45 125 73t72.5 49.5t33.5 42t8 48.5v541q0 10 -31.5 24.5t-70.5 38t-70.5 60.5t-31.5 92q0 39 13 63.5t28.5 41 t29 24.5t13.5 12t-39 -7t-85 -42.5t-84 -86t-38 -134.5q0 -59 28.5 -83.5t64.5 -39t64.5 -31t28.5 -61.5v-483q0 -47 -17.5 -73t-60.5 -62l-45 11t-106 11q-59 0 -118.5 -20.5t-108 -57.5t-78 -86t-29.5 -106zM178 571q14 -12 31.5 -28.5t35 -35t34 -37.5t26.5 -36 q14 18 31.5 40t35 42.5t34 37.5t28.5 26q-10 6 -27.5 21t-38 34.5t-38 39t-27.5 34.5q-10 -16 -26.5 -37t-34 -40.5t-35 -36t-29.5 -24.5zM178 866q14 -12 31.5 -28.5t35 -35t34 -38t26.5 -35.5q14 18 31.5 40t35 42t34 37.5t28.5 25.5q-10 6 -27.5 21.5t-38 35t-38 39 t-27.5 34.5q-10 -16 -26.5 -37t-34 -40.5t-35 -36t-29.5 -24.5z" />
<glyph unicode="W" horiz-adv-x="1814" d="M-2 119q0 -41 19.5 -74t43 -54.5t43 -30.5t19.5 -5q0 2 -13.5 12t-28.5 26.5t-27.5 41t-12.5 57.5q0 23 8 52.5t27.5 57t53.5 47t85 19.5q119 0 231.5 -42t200.5 -93t115 -72l80 -63q29 0 69.5 32.5t77.5 71.5t63 72l27 33q16 0 54 -23.5t77 -56.5t69 -68.5t30 -58.5 q0 -6 23.5 9.5t59 44t77.5 68.5t78 86t59.5 95t23.5 96v576q6 0 52.5 4t97.5 22.5t93 54.5t42 99q0 47 -21.5 67.5t-25.5 20.5t3 -13t7 -48q0 -47 -22.5 -61.5t-69.5 -14.5q-37 0 -82 8t-86 19.5t-75 19.5t-52 8q-70 0 -101.5 -32.5t-43.5 -69.5q-9 -29 -9 -53q0 -6 1 -12 q3 -28 5 -23q8 39 22.5 52t33.5 13q4 0 31.5 -9t61.5 -21.5t62.5 -21.5t32.5 -9q0 -39 -19.5 -65.5t-44 -49t-44 -47.5t-19.5 -59v-506q0 -57 -17.5 -95t-19.5 -34q-35 61 -82 87q-47 24 -93 32q-30 5 -57 5q-14 0 -27 -1q-38 -4 -56 -4q-2 0 6 15t18.5 38.5t19.5 52.5t9 55 v502q0 12 19.5 29.5t40 35t32 30t-3.5 12.5q-37 0 -71.5 22.5t-64.5 49t-54.5 49t-42.5 22.5q-14 0 -37 -24.5t-42 -55.5t-29.5 -55.5t-0.5 -24.5q8 0 13.5 3t17.5 3q18 0 44 -16t51.5 -34.5t47 -35t31.5 -16.5q0 -14 -18.5 -28.5t-42 -34t-42 -44t-18.5 -57.5v-483 q0 -14 -5 -37t-12 -43.5t-13.5 -35.5t-6.5 -13q-35 61 -110.5 106t-152.5 75t-134 45l-57 15q78 45 126 73t74.5 49.5t35.5 42t9 48.5v541q0 12 -32.5 25.5t-70.5 37t-70.5 59.5t-32.5 95q0 37 13 61.5t29.5 42t30 25.5t13.5 10q0 4 -39 -8t-85 -45t-85 -87t-39 -134 q0 -55 28.5 -79.5t64.5 -40t64.5 -33t28.5 -58.5v-483q0 -47 -19.5 -73t-62.5 -62l-42 8q-42 8 -103 8q-72 0 -134.5 -23.5t-107.5 -60.5t-70.5 -84t-25.5 -96zM182 561q14 -12 31.5 -28.5t35 -35t34 -37t26.5 -34.5q14 18 31.5 39.5t35 41t34 37t28.5 25.5 q-10 6 -27.5 21.5t-38 35t-38 40t-27.5 34.5q-10 -18 -26.5 -38.5t-35 -40t-35 -36t-28.5 -24.5zM182 856q14 -12 31.5 -28.5t35 -35t34 -37t26.5 -34.5q14 18 31.5 39.5t35 41t34 37t28.5 25.5q-10 6 -27.5 21.5t-38 35t-38 40t-27.5 34.5q-10 -18 -26.5 -38.5t-35 -40 t-35 -36t-28.5 -24.5z" />
<glyph unicode="X" horiz-adv-x="1415" d="M0 135q0 -14 10 -37.5t34 -46t59.5 -39t86.5 -16.5q76 0 136.5 17.5t89 32.5t33.5 17l23 -14q24 -14 60.5 -32.5t83 -33t91.5 -14.5q72 0 119.5 32t47.5 77q0 29 -15 44t-34 15q-10 0 -24.5 -8t-14.5 -23q0 -12 10.5 -19t22.5 -12t23 -9l10 -3q0 -16 -13.5 -29.5 t-35 -22.5t-46 -14t-44.5 -5q-39 0 -81 14t-76 31.5t-56 32.5l-21 14q31 23 66 55.5t66.5 77.5t57 104.5t42.5 135.5q47 -78 116.5 -131.5t135 -100.5t111.5 -100t46 -133q12 0 25.5 32.5t39 72.5t72 74t125.5 34q55 0 56 16q0 10 -26 20.5t-59.5 32t-65.5 58.5t-44 100 q0 2 -9 -21.5t-31.5 -54t-59.5 -56.5t-90 -26q-47 0 -98.5 25t-95.5 69t-76.5 103t-45.5 131h117q45 0 87 42t72.5 92t49 94t18.5 51q-23 -35 -42 -56.5t-54 -34t-93.5 -17.5t-158.5 -7q10 100 45 193.5t117 146.5q4 2 19.5 -11.5t39 -30.5t53 -31.5t64.5 -14.5 q20 0 35.5 13t30 31.5t29 39t34.5 35.5q18 12 43 23t48.5 21.5t39 18.5t15.5 14t-14.5 1t-36 -14t-48 -17t-49.5 -8q-18 0 -41.5 13t-44 30.5t-35 34t-14.5 22.5q0 8 6 22.5t11 27.5t7.5 23.5t-6.5 10.5q-8 0 -26.5 -32t-40 -69.5t-43 -69.5t-39.5 -32q-4 0 -29.5 -12 t-60.5 -41t-73 -74t-67 -112q-20 78 -48.5 145t-63.5 118.5t-74 80t-76 28.5q-6 0 -34.5 -14t-68.5 -35.5t-84 -48.5t-81 -50.5t-61.5 -41t-24.5 -23.5q0 -8 18.5 0t48 20.5t64.5 25t68 12.5q59 0 103 -34t76 -87t51.5 -120t27.5 -130h-88q-31 0 -60.5 -31t-52.5 -68.5 t-37 -68.5l-14 -31q14 10 28.5 16.5t42 10.5t71.5 6t118 2q-4 -123 -25.5 -206t-49 -135t-52.5 -77.5t-33 -34.5l-19 15q-20 16 -50.5 35.5t-72.5 35t-89 15.5q-66 0 -113 -26.5t-47 -86.5zM45 143q0 33 28.5 50.5t82.5 17.5q70 0 123 -28.5t86 -61.5q-14 -8 -56.5 -33 t-118.5 -25q-18 0 -43.5 6.5t-48 16.5t-38 24.5t-15.5 32.5z" />
<glyph unicode="Y" horiz-adv-x="1284" d="M4 -197q0 -45 19.5 -78.5t42 -55t42 -30t19.5 -1.5q0 6 -13.5 16t-28.5 27.5t-27.5 40t-12.5 53.5q0 27 10.5 57.5t29.5 57t51 44t75 17.5q37 0 94 -13.5t119.5 -36t126 -50t115 -58.5t83 -59.5t31.5 -50.5q0 -4 2 -5q10 0 38 18.5t64 50.5t73.5 72t69.5 85t52.5 91 t20.5 87v893l44 5t97 23.5t97 56.5t44 103q0 18 -8 36t-17 29t-16.5 15t-5.5 -4q10 -25 12.5 -36t2.5 -29q0 -39 -23.5 -54.5t-60.5 -16.5h-7q-35 0 -75 8q-45 9 -88 20.5t-79 20.5t-54 9q-47 0 -77 -16.5t-47.5 -39t-23.5 -50t-6 -47.5t4 -31.5t4 -5.5q0 33 20.5 43 t49.5 10q8 0 32.5 -8t51 -17.5t49 -16.5t27.5 -7q0 -45 -18.5 -71.5t-40 -47t-40 -43t-18.5 -59.5v-824q0 -63 -11.5 -87t-25.5 -40q-37 70 -108.5 121t-153.5 83t-162 47.5t-129 15.5q-72 0 -132.5 -23.5t-106.5 -62.5t-71.5 -86.5t-25.5 -94.5zM193 567q29 -23 66.5 -63.5 t59.5 -71.5q14 18 32 40t35 41t33.5 36.5t29.5 25.5q-10 6 -29 21.5t-38.5 35t-37.5 40t-27 35.5q-12 -18 -28.5 -39t-33.5 -40.5t-33.5 -36t-28.5 -24.5zM193 862q29 -23 66.5 -63.5t59.5 -71.5q14 18 32 39.5t35 41t33.5 37t29.5 25.5q-10 6 -29 21.5t-38.5 35t-37.5 40 t-27 34.5q-12 -18 -28.5 -38.5t-33.5 -40t-33.5 -36t-28.5 -24.5zM326 254q-14 -10 20.5 -13t102 -23.5t158.5 -69t192 -148.5q0 -2 25.5 16.5t54 44t52 49t21.5 29.5q-4 12 -11 9t-18.5 -7t-26 -2t-30.5 25q-41 53 -100 91t-114.5 62.5t-94.5 36.5l-39 11q37 25 78 46 t75 43.5t55.5 51.5t21.5 67v541q0 10 -32 24.5t-71 39t-70.5 62.5t-31.5 93q0 39 13 62.5t28.5 39t29 22.5t13.5 13q0 4 -39 -8t-85 -45t-84 -85t-38 -126q0 -43 13.5 -67.5t35 -39t45 -22.5t45 -18t34.5 -26.5t13 -47.5v-483q0 -53 -68.5 -119t-172.5 -129z" />
<glyph unicode="Z" horiz-adv-x="1171" d="M10 92l26 3q25 3 60 7t72 7.5t61 3.5q121 0 213.5 -21.5t154.5 -57.5t94 -84t32 -102l10 23q10 23 26.5 48.5t37 48t39.5 22.5q37 0 93 18.5t110.5 54t92 89t37.5 120.5q0 57 -36.5 105.5t-108.5 48.5q-14 0 -32.5 -4t-35 -16.5t-27.5 -33t-11 -50.5q0 -41 30.5 -67 t71.5 -26q18 0 30.5 13.5t12.5 27.5t-11.5 25.5t-21.5 13.5q-18 2 -28.5 -9t-10.5 -21q0 -4 2 -13l2 -10q-16 0 -34.5 17.5t-18.5 43.5q0 39 23.5 61.5t54.5 22.5q47 0 83 -32.5t36 -100.5q0 -53 -33 -97t-79 -76t-93 -49t-78 -17q-4 0 -25.5 32.5t-60.5 71.5t-95.5 72 t-127.5 33q-43 0 -84 -5.5t-105 -21.5q27 8 66 30.5t86 58.5t99.5 80t101.5 95q41 -23 73.5 -42t67.5 -19q0 18 22.5 39.5t50 40t49.5 30.5l23 13q-47 0 -94 14t-94 31q76 92 125 184t49 176q0 86 -37 144.5t-92 96.5t-120.5 58.5t-122 29.5t-95.5 11t-41 2q-10 0 -15 11.5 t-8 24.5t-5.5 24.5t-4.5 11.5q-6 0 -20 -23.5t-32.5 -58.5t-39 -75t-39.5 -75q-4 -10 -36.5 -26.5t-69.5 -42t-68 -59t-31 -74.5t27 -67t62 -26q47 0 82.5 24t35.5 71q0 25 -18.5 42t-42.5 17q-35 0 -54.5 -17.5t-19.5 -37.5q0 -12 9.5 -22.5t23.5 -10.5t24.5 8t10.5 19 q0 16 -5 17t-5 9q0 2 5 7.5t17 5.5t21.5 -12.5t9.5 -24.5q0 -35 -25.5 -51.5t-64.5 -16.5q-35 0 -50.5 21.5t-15.5 42.5q0 31 27.5 62.5t67.5 56t82 41t71 16.5q23 0 67 -3t96 -12.5t108.5 -24t101.5 -37t74.5 -54t29.5 -72.5q0 -72 -29.5 -143.5t-78.5 -141.5 q-45 20 -85 34.5t-71 14.5q-39 0 -78 -22.5t-69.5 -48t-50.5 -48.5l-19 -22l23 10q24 9 94 9q53 0 95 -10.5t77 -26.5q-43 -51 -89.5 -95.5t-87 -78t-72.5 -56t-50 -30.5q-37 -16 -97.5 -37t-118 -41.5t-99.5 -38t-42 -29.5z" />
<glyph unicode="[" horiz-adv-x="626" d="M0 0h315q35 0 57.5 25.5t37 57.5t19.5 57l5 26h-239v1087h120q35 0 58.5 26t37 57.5t19.5 57.5l6 25h-317q-10 0 -29.5 -19.5t-39 -45t-35 -54t-15.5 -47.5v-1253z" />
<glyph unicode="\" horiz-adv-x="966" d="M14 1180q0 -45 13 -74q0 -2 47 -63.5t121.5 -159t167 -216t182.5 -234.5t166.5 -215t122 -156.5t47.5 -61.5q0 4 2 32.5t3 75t-5 76.5q-2 4 -47.5 61.5t-123 158t-167.5 217t-182.5 235.5t-168 216t-122.5 158l-47 60q0 -4 -4.5 -34.5t-4.5 -75.5z" />
<glyph unicode="]" horiz-adv-x="626" d="M190 0h316q10 0 30.5 19.5t40 45t35 54t15.5 47.5v1253h-316q-35 0 -57.5 -25.5t-36.5 -57t-19 -57.5l-5 -26h239v-1087h-121q-35 0 -58.5 -25.5t-36.5 -57.5t-20 -57z" />
<glyph unicode="^" horiz-adv-x="1087" d="M8 930q0 -12 26.5 -2t67.5 31.5t90.5 50t96.5 54.5t84 43t51 17q31 0 89 -31.5t116.5 -69.5t105.5 -69.5t58 -31.5q4 0 33.5 24.5t63.5 54t60.5 56t26.5 30.5q0 10 -55.5 43t-125 69t-131 63.5t-75.5 27.5q-8 0 -53 -25.5t-110 -63.5t-138.5 -83t-136 -85t-103.5 -68.5 t-41 -34.5z" />
<glyph unicode="_" horiz-adv-x="847" d="M0 -131h848l203 102h-848z" />
<glyph unicode="`" horiz-adv-x="561" d="M-2 1077.5q-2 -18.5 2 -20.5q2 -2 44 -8.5t104.5 -13.5t134 -16t133 -16.5t101.5 -11.5t38 -4l-38 9q-38 10 -96.5 25t-126 34.5t-126.5 38t-100 34t-45 25.5q-4 8 -9.5 -4t-9.5 -32.5t-6 -39z" />
<glyph unicode="a" horiz-adv-x="702" d="M92 254q0 -43 20.5 -88t46 -82t49 -60.5t30.5 -23.5q8 0 31.5 17.5t48 39t46 43l27.5 27.5q10 10 19.5 28.5t16.5 37t12 32t12 13.5q2 0 4 -16.5t7 -41t16 -51.5t30 -47v-49q0 -4 -11.5 -20.5t-7.5 -16.5q8 0 46 21.5t81 48t78 50t35 27.5t-14.5 3t-20.5 -1 q-18 0 -35.5 24t-33 57.5t-24.5 73.5t-9 73v354q0 25 7 43t14.5 31.5t14.5 23t7 13.5q0 8 -10.5 13t-25.5 9t-31.5 12.5t-26.5 22.5q-16 25 -24.5 50.5t-24.5 25.5q-10 0 -44 -21.5t-63 -42.5q-16 -12 -49 -24.5t-71 -28.5t-74.5 -39.5t-61.5 -58.5q-12 -18 -20.5 -54 t-11.5 -78t-4 -81t-1 -62v-227zM252 381v301q0 43 11 73.5t27.5 50t34 29t29.5 9.5q4 0 23.5 -14.5t34.5 -30.5q10 -12 15 -42t5 -61v-270q0 -29 -2 -48t-6 -48q0 -10 -10.5 -38t-24.5 -56.5t-27.5 -51t-19.5 -22.5q-10 0 -25.5 11t-30 38t-24.5 67.5t-10 102.5z" />
<glyph unicode="b" horiz-adv-x="690" d="M78 856q0 -2 9 -12t20.5 -25.5t20.5 -35t9 -38.5v-464q0 -53 25.5 -104.5t59.5 -90.5t68 -62.5t50 -23.5q4 0 28.5 22.5t58.5 59.5t72 83t70.5 92t54 89t21.5 74v192q0 74 -15.5 129.5t-37 95.5t-44 67.5t-36.5 45.5q-6 8 -8 22.5t-4 28t-4 22.5t-9 9q-10 0 -22 -17.5 t-26.5 -42t-31 -51t-34.5 -47.5q-8 -10 -20.5 -20t-25 -17.5t-20.5 -11.5t-8 0v328q0 111 36 168t80 83t79 29l36 3q0 8 -13 12t-28 4q-2 0 -28.5 -4t-65.5 -21.5t-85 -52.5t-84 -94t-63.5 -149.5t-25.5 -217.5q0 -16 -9 -26t-20.5 -16.5t-20.5 -10.5zM299 297v504l8 10 t47 10q31 0 55.5 -20.5t41 -49t25.5 -60.5t9 -54v-311q0 -6 -4 -37t-12 -65t-19.5 -60.5t-23.5 -26.5q-4 0 -24.5 16.5t-43 40t-41 51t-18.5 52.5z" />
<glyph unicode="c" horiz-adv-x="561" d="M92 301q0 -78 29 -134t62.5 -93t63 -55.5t32.5 -18.5q12 0 44.5 33t67.5 71.5t60.5 71.5t21.5 33q-2 -2 -16.5 -11.5t-34 -20.5t-27.5 -11q-25 0 -50.5 17.5t-45.5 47t-33.5 68.5t-13.5 82v450q0 16 11 31t22 15q6 0 24.5 -14.5t38 -32t34.5 -33t15 -19.5v-22 q0 -10 6 -11q4 0 26 23t48.5 50.5t51 51t36.5 23.5l-33 10q-32 10 -63 27q-23 10 -39 23.5t-20 13.5q-41 0 -95.5 -29t-103.5 -65.5t-84 -73.5t-35 -51v-447z" />
<glyph unicode="d" horiz-adv-x="653" d="M92 287q0 -68 33 -122t74 -91t75.5 -56.5t40.5 -19.5q4 0 29 24.5t57.5 67.5t70.5 102.5t69.5 128t53 144.5t21.5 151q0 98 -28.5 162t-70.5 105t-91 67.5t-91 52t-70.5 55t-28.5 79.5q0 16 4 24l4 8q-4 0 -22.5 -17t-38 -42t-36 -50.5t-16.5 -39.5q0 -35 17.5 -61.5 t38 -47t38 -33t17.5 -16.5q0 -10 -23.5 -28.5t-51.5 -46t-51.5 -61.5t-23.5 -73v-366zM252 373v446q0 20 36 15t80 -41.5t79.5 -107.5t35.5 -179q0 -84 -11 -146.5t-26.5 -104.5t-32 -63.5t-24.5 -21.5l-21 9q-22 9 -47.5 31.5t-47 61.5t-21.5 101z" />
<glyph unicode="e" horiz-adv-x="505" d="M92 381q0 -76 8.5 -146.5t36.5 -111.5q10 -14 29.5 -34.5t40 -40t38 -34t21.5 -14.5t31 21.5t57.5 47t55 48t24.5 24.5q0 10 -16.5 3t-38.5 -7q-10 0 -23.5 9.5t-25 21.5t-20.5 24.5t-11 18.5q-4 8 -12 32.5t-16.5 55.5t-13.5 62.5t-5 56.5v55l34 25q33 26 74 65t75 87 t34 91q0 33 -12.5 73t-28.5 75t-33.5 58.5t-27.5 23.5q-8 0 -43 -24.5t-77 -56.5t-79 -62.5t-49 -45.5q-10 -12 -15.5 -37.5t-8.5 -52t-3 -49.5v-27v-235zM252 510v313q0 12 8 22.5t16 10.5t19.5 -15.5t22 -38t18.5 -50t8 -52.5q0 -53 -23.5 -99t-44 -67.5t-24.5 -23.5z" />
<glyph unicode="f" horiz-adv-x="460" d="M68 860h69v-225q0 -8 4 -58.5t11.5 -121t15.5 -150.5t17.5 -147.5t16.5 -112.5t13 -45q4 0 17.5 29.5t27.5 80t28.5 115t24 135t11.5 142.5v21q0 60 -9 112l-36 225h24q2 0 16.5 -4t32 -11t17.5 -16q4 6 18 23.5t29.5 39t28 42t12.5 29.5q0 4 -6 4h-193q-8 43 -17.5 100 t-9.5 92q0 59 40 73.5t85 14.5q27 0 45.5 -20.5t29.5 -44t16.5 -44t9.5 -20.5q2 0 8 11.5t13 24.5t15.5 27.5t16.5 20.5q16 12 39.5 26.5t39 23t17.5 10.5l-20 8q-21 8 -47 28q-39 29 -53 58l-15 28l-19 -15q-18 -15 -45.5 -34.5t-57.5 -35t-50 -15.5q-49 0 -81 -32.5 t-49 -82t-24.5 -107.5t-7.5 -112q-20 -16 -44.5 -40.5t-24.5 -49.5z" />
<glyph unicode="g" horiz-adv-x="731" d="M92 248q0 -55 15.5 -96t37 -69t46 -41t42.5 -13q6 0 7 -13v-22v-21q0 -10 4 -6l217 183v-134q0 -41 1 -87v-6q0 -43 -12 -80q-14 -40 -48.5 -65.5t-106.5 -25.5t-107.5 29t-51 63.5t-18.5 63.5t-12 29q-4 0 -4 -35t17.5 -77t60.5 -77t129 -35q84 0 142.5 34t94.5 84 t52 108.5t16 105.5q0 18 19.5 34.5t37 25t19.5 10.5q-2 2 -17.5 14t-33.5 31.5t-18 32.5v555q0 37 11 55t23.5 27.5t23.5 14.5t11 15q0 6 -9 10t-21.5 6.5t-27 6.5t-24.5 10q-27 18 -36 32.5t-12 23.5t-4 14.5t-9 5.5q-4 0 -27.5 -8.5t-58.5 -21.5t-76 -30.5t-79 -33 t-66.5 -30t-38.5 -22.5q-47 -37 -78 -73.5t-31 -96.5v-405zM252 236v509q0 25 12 47.5t30.5 38t38 24.5t34.5 9q20 0 37.5 -8t29.5 -18.5t19.5 -20.5t7.5 -14v-584q0 -10 -12.5 -25.5t-27.5 -31t-33 -25.5t-26 -10q-4 0 -22 8t-37.5 22.5t-35 35t-15.5 43.5z" />
<glyph unicode="h" horiz-adv-x="755" d="M78 856q0 -2 9 -12t20.5 -25.5t20.5 -35t9 -38.5v-587q0 -16 -12 -22.5t-12 -12.5q0 -2 18.5 -22.5t43 -43t48 -42t33.5 -19.5q4 0 21.5 26.5t33.5 43.5q10 12 27.5 24t17.5 23q0 2 -9 7t-19.5 13t-19.5 22.5t-9 37.5v555l78 77l10 13q10 12 19 12q23 0 38 -24.5 t24 -58.5t13 -71t4 -59v-451q0 -100 -24.5 -162.5t-53 -99.5t-53 -52t-24.5 -19q39 0 92 40.5t103 89t91.5 89.5t55.5 41q0 8 -13.5 15t-13.5 24v557q0 66 -14.5 111.5t-32.5 74.5t-35.5 41t-23.5 12q-4 0 -4 8v23q0 12 -1.5 21.5t-7.5 9.5q-4 0 -18 -12.5t-24.5 -22.5 t-12.5 -12l-172 -175v365q0 104 34 161.5t73.5 83t73.5 30.5l34 4q0 14 -11 16t-16 2q-55 0 -116.5 -35t-113.5 -102.5t-86 -168t-34 -231.5q0 -16 -9 -26t-20.5 -17.5t-20.5 -10.5z" />
<glyph unicode="i" horiz-adv-x="409" d="M80 1157q14 0 32.5 -16.5t36 -36t31 -35.5t17.5 -16q8 0 23.5 12t33.5 27.5t37.5 28t34.5 12.5q2 0 -12.5 20.5t-35 44t-40 44t-27.5 20.5q-23 0 -47.5 -16.5t-44 -36t-31.5 -36t-8 -16.5zM82 854q0 -4 8 -8t19.5 -13.5t19.5 -22.5t8 -36v-524q0 -37 6.5 -71t12.5 -61.5 t12 -46t6 -26.5q0 -23 -7 -34t3 -11t48 21.5t80 47t75 48t33 24.5q0 8 -25 6t-37 5q-8 2 -16.5 15t-14.5 33.5t-10 43t-4 45.5v518q0 14 13.5 23.5t13.5 15.5q0 4 -20.5 23.5t-45 42t-48.5 40t-30 17.5q-8 0 -19 -19.5t-24 -34.5l-36.5 -36.5t-20.5 -24.5z" />
<glyph unicode="j" horiz-adv-x="409" d="M-78 -356q0 -10 8.5 -11.5t24.5 -1.5q61 0 122.5 44t110 108.5t79 138.5t30.5 133q0 14 10 23.5t22.5 15.5t22.5 10.5t10 8.5q0 6 -10 14t-21.5 20.5t-21.5 27.5t-10 36v596q0 16 12.5 23.5t12.5 11.5q0 2 -17.5 22.5t-42 43t-49.5 41t-39 18.5q-4 0 -19.5 -24.5 t-31.5 -43.5q-10 -12 -26.5 -24.5t-16.5 -20.5q0 -4 8 -8t19.5 -12.5t19.5 -22.5t8 -39v-844q0 -76 -16.5 -125t-40 -78.5t-51 -44t-51 -21.5t-40 -8t-16.5 -7zM80 1157q14 0 32.5 -16.5t36 -36t31 -35.5t17.5 -16q8 0 23.5 12t33.5 27.5t36.5 28t35.5 12.5q2 0 -12.5 20.5 t-35 44t-40 44t-27.5 20.5q-23 0 -47.5 -16.5t-44 -36t-31.5 -36t-8 -16.5z" />
<glyph unicode="k" horiz-adv-x="634" d="M78 856q0 -2 9 -12t20.5 -25.5t20.5 -35t9 -38.5v-587q0 -16 -12 -22.5t-12 -10.5q0 -6 19.5 -26.5t45 -43t48 -41t28.5 -18.5q10 0 25.5 26.5t31.5 43.5q10 12 27.5 25t17.5 22q0 4 -9 8t-19.5 12t-19.5 22.5t-9 37.5v213q0 4 10 3t22.5 -5.5t25 -11.5t16.5 -13 q8 -12 15 -29l7 -16l86 -268q10 -29 22.5 -48.5t20.5 -17.5q14 2 42 20.5t56.5 41t50 43t21.5 26.5q0 4 -13 -4t-30 -8q-16 0 -27.5 10t-15.5 21l-104 307q-16 51 -44 63t-46 17q-18 2 -46 8t-47.5 10t-21.5 4l38 23q38 24 84 59t84 73t38 66q0 41 -8.5 77t-19.5 62.5 t-22.5 42t-15.5 15.5t-15 -7l-11 -7l-152 -154v344q0 10 4 55t23.5 94.5t61.5 88.5t118 39q14 0 7 10t-26 10q-61 0 -123.5 -38t-112.5 -107.5t-82 -169t-32 -222.5q0 -16 -9 -26t-20.5 -16.5t-20.5 -10.5zM299 580v192l43 45l5 5q5 5 11 5q16 0 27.5 -31.5t11.5 -68.5 q0 -35 -25.5 -70.5t-47 -55t-25.5 -21.5z" />
<glyph unicode="l" horiz-adv-x="409" d="M78 856q0 -2 9 -12t20.5 -25.5t20.5 -35t9 -38.5v-587q0 -16 -12 -23.5t-12 -11.5t18.5 -24.5t43 -43t48 -41t33.5 -18.5q4 0 23.5 22.5t41 49t39 50t17.5 25.5q0 6 -14.5 -6t-22.5 -12q-4 0 -22.5 20.5t-18.5 47.5v960q0 10 4 55t23.5 94.5t61.5 88.5t118 39q10 0 7 10 t-26 10q-59 0 -121.5 -36t-112.5 -104.5t-83 -169t-33 -227.5q0 -16 -9 -26t-20.5 -16.5t-20.5 -10.5z" />
<glyph unicode="m" horiz-adv-x="1054" d="M61 821q2 -2 19.5 -12t37 -33.5t19.5 -54.5v-571q0 -16 -15.5 -31t-15.5 -19t20.5 -19t44.5 -32.5t44.5 -33t20.5 -19.5l14 18q14 17 32.5 37.5t35 37.5t22.5 17q-2 4 -11.5 24t-19.5 48.5t-10 42.5v547q0 12 9 24.5t21.5 22.5t24 16.5t15.5 6.5q12 0 27.5 -19.5 t29.5 -50.5t24.5 -67.5t10.5 -69.5v-424q0 -51 -19 -88l-18 -37q6 0 24.5 -13.5t39 -28.5t37 -27.5t18.5 -12.5t21.5 15.5t42 34t40 34.5t17.5 20q0 10 -7.5 16.5t-14.5 16.5t-14 28.5t-7 55.5v576q0 8 9 15t21.5 13t23.5 9.5t15 3.5q6 0 21.5 -8.5t31 -22.5t27.5 -30.5 t12 -31.5v-534q0 -35 17.5 -74t38 -70.5t39 -52t20.5 -20.5q6 0 29.5 22.5t47 48t40 48t10.5 22.5q-2 0 -9 -8t-14 -8q-12 0 -23 14t-18.5 32.5t-11.5 35t-4 20.5v598q0 14 20.5 17.5t20.5 7.5q0 12 -27.5 22.5t-46.5 26.5q-12 8 -22 22.5t-19.5 28.5t-16.5 24.5t-9 10.5 l-3 -1q-3 -1 -3 -3q0 -6 -37 -30.5t-81 -51.5t-81 -49l-37 -21q0 8 -14.5 27.5t-30.5 41t-30.5 39t-14.5 21.5q0 10 9 17.5t9 11.5q0 2 -3 3l-3 1q-20 0 -60 -27.5t-79 -60.5t-69 -61l-29 -27q0 25 -11.5 46.5t-24.5 38.5t-24.5 29.5t-11.5 18.5q0 12 12.5 19.5t12.5 11.5 q0 6 -11 6q-6 0 -12 -3t-22 -20z" />
<glyph unicode="n" horiz-adv-x="731" d="M61 821q2 -2 19.5 -12t37 -33.5t19.5 -54.5v-571q0 -16 -15.5 -31t-15.5 -19t19.5 -18t44.5 -31.5t44 -33t19 -19.5h5q4 0 17 16.5t29.5 37t32 36.5t21.5 16q2 0 2 7q0 2 -6 15t-14.5 29.5t-14.5 35t-6 30.5v547q0 12 12.5 23.5t27.5 20.5t28.5 14t17.5 5t16.5 -8 t25.5 -20t23.5 -27.5t10.5 -30.5v-534q0 -35 16.5 -74t38 -70.5t38.5 -52t21 -20.5q6 0 29 21.5t47.5 47t42 47t13.5 21.5q-6 0 -11.5 -6t-13.5 -6q-14 0 -25.5 14t-19.5 32.5t-12 35t-4 20.5v598q0 6 7 10.5t14 6.5t14.5 4t7.5 4q0 14 -28 23.5t-48 25.5q-10 8 -21.5 22.5 t-20.5 28.5t-17.5 25.5t-10.5 11.5t-2 -6q0 -10 -36 -37t-79 -55.5t-79 -50.5l-35 -23q0 25 -11.5 46.5t-24.5 38.5t-24.5 29.5t-11.5 18.5q0 12 12.5 19.5t12.5 11.5q0 6 -11 6q-6 0 -12 -3t-22 -20z" />
<glyph unicode="o" horiz-adv-x="663" d="M92 287q0 -61 26.5 -109.5t60.5 -80t63.5 -49t36.5 -17.5q8 0 5 -7.5t-3 -15.5q0 -12 16 -12t68.5 45t107.5 115.5t99 155.5t44 163v178q0 55 -24.5 107.5t-55 92.5t-59 64.5t-39.5 24.5q-4 0 -4 8q0 10 2 19.5t-8 9.5q-4 0 -29.5 -9t-63.5 -26.5t-80 -43.5t-79 -57.5 t-60.5 -69.5t-23.5 -81v-405zM252 317v517q0 12 8 22t25 10q20 0 48.5 -20.5t56.5 -52t47.5 -69.5t19.5 -71v-331q0 -84 -20.5 -134.5t-37.5 -50.5q-16 0 -40.5 18.5t-48 46t-41 59.5t-17.5 56z" />
<glyph unicode="p" horiz-adv-x="638" d="M45 852q8 0 23.5 -6t31 -18.5t26.5 -31t11 -42.5v-604q0 -6 -9 -14.5t-19.5 -15.5t-19.5 -13.5t-9 -8.5q0 -6 9 -11t19.5 -10t19.5 -12.5t9 -19.5v-319q0 -14 11.5 -31t26.5 -31t30.5 -23.5t21.5 -9.5q14 0 41 20.5t54.5 45t48 47.5t20.5 29q0 8 -12 1t-23 -7 q-33 0 -45 30.5t-12 63.5v172q0 25 47 65.5t104.5 104t104.5 153.5t47 213q0 80 -20.5 139.5t-46 100.5t-46 67.5t-20.5 41.5q0 2 -1 12t-3 22.5t-6 21.5t-8 9t-28 -24.5t-53.5 -53t-57 -53.5t-36.5 -25q0 14 -8 30.5t-17 31t-18.5 24t-13.5 9.5t-5 12t-3 27.5t-4 29 t-4 13.5q-4 0 -30 -24t-54.5 -52.5l-52 -52t-21.5 -23.5zM299 160v592q0 35 6 58.5t27 23.5q10 0 32.5 -31t44 -78t38 -105.5t16.5 -113.5q0 -59 -18.5 -125t-41 -121t-41 -92t-20.5 -37q-16 0 -29.5 9.5t-13.5 19.5z" />
<glyph unicode="q" horiz-adv-x="716" d="M92 244q0 -41 20.5 -77t44 -66.5t44 -52t20.5 -34.5q0 -10 3 -25.5t7 -15.5q8 0 41 33t70 81t67.5 100.5t36.5 91.5v-553q0 -12 11.5 -28.5t27 -31t29.5 -25t21 -10.5q16 0 43.5 21.5t55.5 47.5t47 48.5t19 24.5q0 8 -15 2t-26 -6q-31 0 -42 30.5t-11 61.5v927 q0 25 9.5 46.5t9.5 31.5t-15.5 17.5t-25.5 7.5t-22.5 12t-26 25.5t-25.5 26t-23 12.5q-8 0 -49 -14.5t-92 -35t-102 -40t-78 -31.5q-8 -4 -20.5 -16.5t-24.5 -31t-20.5 -41t-8.5 -44.5v-469zM252 301v487q0 20 31.5 51t72.5 31q12 0 27.5 -15t30 -37.5t23.5 -52.5t9 -56 v-238q0 -55 -12 -112.5t-29.5 -103.5t-34 -75.5t-24.5 -29.5q-4 0 -18.5 10t-31.5 30.5t-30.5 48t-13.5 62.5z" />
<glyph unicode="r" horiz-adv-x="626" d="M61 819q0 -10 13 -10q6 0 11 3t11 3q23 0 32 -36t9 -83v-532q0 -6 -5 -13.5t-11 -13.5t-10.5 -10t-1.5 -4q6 0 27.5 -19.5t47 -42t47 -42t25.5 -19.5q2 0 15.5 17.5t30.5 39t33.5 39t22.5 17.5q2 0 -6 10t-20.5 24.5t-22.5 28.5t-10 23v491q0 16 11 30l12 13l79 82l7 5 q6 5 8 5q12 0 24.5 -16t22.5 -34.5t18 -35t13 -16.5l20 21q21 20 45.5 46.5t45 48t20.5 25.5t-16.5 17.5t-37 31t-37 33t-16.5 25.5l-219 -219q0 31 -8 63.5t-21.5 60t-28 45t-26.5 17.5v6q0 6 2 14q0 8 -6 9q-2 0 -8 -3t-17 -16l-114 -112q-4 -4 -7.5 -8.5t-3.5 -8.5z" />
<glyph unicode="s" horiz-adv-x="606" d="M92 578q0 -29 9.5 -57.5t24.5 -51.5t36.5 -37t46.5 -14q12 0 29.5 12t34 26.5t29.5 27t20 12.5q18 0 39.5 -11.5t38 -37t27.5 -66.5t11 -100q0 -51 -12 -85t-25.5 -52.5t-26 -24.5t-12.5 -2t-13 19.5t-32.5 31.5t-44 28.5t-49.5 12.5l-6 21q-6 22 -10 22 q-8 0 -14.5 -20.5t-14.5 -20.5q-6 0 -21.5 -18.5t-30.5 -40t-24.5 -39t-3.5 -17.5q2 0 4 2t17 2q20 0 43.5 -15t46 -34.5t43 -35t33.5 -15.5q2 0 23.5 15.5t53 42t67.5 63.5t67.5 79t52 89t20.5 94q0 53 -13 95t-33.5 69.5t-44 42t-44.5 14.5q-8 0 -25.5 -14.5t-37 -30.5 t-41 -30.5t-37.5 -14.5q-23 0 -32 25.5t-9 50.5v250q0 20 18.5 17t41 -16.5t42 -28.5t23.5 -19q10 -12 12 -34t6 -22q10 0 22.5 27t28.5 43q43 43 64.5 51t21.5 21q0 2 -9 4t-21.5 4t-25.5 4t-19 6q-39 18 -54.5 46t-25.5 28q-6 0 -21.5 -9.5t-34 -22.5t-40 -28.5 t-41.5 -25.5t-46 -23.5t-48.5 -32t-38 -42t-15.5 -54.5v-155z" />
<glyph unicode="t" horiz-adv-x="552" d="M47 850q0 -6 25.5 -9t64.5 -5v-535q0 -57 16.5 -110.5t42 -95.5t56.5 -66.5t57 -24.5v-22q10 0 13 1l2 1l215 213l10 14q0 12 -10 12q-4 0 -19.5 -12t-34 -25.5t-37 -26t-30.5 -12.5q-8 0 -27.5 18.5t-40 53.5t-36 84t-15.5 113v415q41 2 68 3q29 0 28 0q27 -2 45.5 15 t29.5 40.5t15 45t4 30.5q0 2 -2 2h-188q2 70 18.5 111.5t35 64t34.5 31t21 8.5q14 0 14 12q0 14 -29 14q-25 0 -59.5 -22.5t-70.5 -58t-67.5 -78.5t-45.5 -86q-12 -10 -31 -27.5t-34 -36t-26.5 -33t-11.5 -16.5z" />
<glyph unicode="u" horiz-adv-x="727" d="M61 821q2 -2 19.5 -15t37 -54t19.5 -109v-387q0 -43 -6 -71.5t-14 -45t-14.5 -26t-6.5 -11.5q0 -6 15.5 -9t36 -9t42 -17.5t33.5 -31.5q4 -10 12.5 -22.5t14.5 -12.5t34.5 19.5t62.5 53t66.5 82t47.5 105.5q0 -53 17.5 -96t39 -75t38.5 -50.5t17 -20.5q0 -4 1 -12t16 -8 q6 0 34.5 19.5t58.5 43t52.5 43t18.5 19.5q-16 0 -21.5 -2t-9.5 -2q-10 0 -26.5 11t-34 35.5t-29.5 63.5t-12 95v432q0 23 16 41t30.5 27.5t16.5 11.5q0 2 -8 7t-18.5 10t-20.5 11t-14 10q-31 37 -39.5 65t-16.5 28q-10 0 -33.5 -19.5t-48 -43t-43.5 -44.5l-18 -20 q0 -14 6 -23.5t12.5 -19t12.5 -18.5t6 -23v-369q0 -41 -10.5 -82t-24.5 -75.5t-30.5 -56t-28.5 -21.5q-8 0 -19.5 7t-23 16t-18.5 17.5t-7 12.5v524q0 25 -12.5 58.5t-27.5 63.5t-29.5 51.5t-20.5 21.5q0 6 7 16t7 16q0 2 -1 6.5t-3 4.5q-6 0 -14 -4.5t-25 -20.5z" />
<glyph unicode="v" horiz-adv-x="800" d="M-18 815q12 0 32.5 -3t43 -13.5t42 -35t31.5 -67.5l139 -526q4 -18 1 -37.5t-9 -35t-10 -25t0 -9.5q14 0 37.5 -6t46 -15t40 -20.5t17.5 -21.5q0 -6 28 12.5t68.5 56t89 94t89.5 126t68.5 151.5t27.5 172q0 84 -35 150.5t-78 112t-84 69t-53 23.5q-2 0 -3 9t-2 20.5 t-4 20.5t-9 9t-19.5 -15.5t-23 -28.5t-11.5 -15l-176 -174q-2 4 -14 30.5t-35.5 64.5t-48.5 54q-6 4 0 15.5t6 17.5t-10 6q-2 0 -10.5 -7t-17.5 -17.5t-19.5 -20.5t-18.5 -18q-14 -12 -36.5 -30t-43 -34t-32.5 -27.5t-4 -11.5zM281 770l86 86q12 0 53 -9t85 -42t77.5 -94.5 t33.5 -165.5q0 -111 -17 -191t-37.5 -132t-37.5 -76l-18 -25q0 8 -10.5 14t-22.5 12.5t-22.5 11.5t-12.5 11z" />
<glyph unicode="w" horiz-adv-x="1114" d="M-8 813q0 -4 10 -1t25 3q33 0 57.5 -48t38.5 -103l123 -469q4 -23 -3 -41.5t-15.5 -33t-13.5 -22.5t3 -8q27 0 50.5 -14.5t41 -30.5t26.5 -30.5t7 -14.5l20 20q21 21 46.5 45.5t47.5 44.5l21 21q0 2 -8 8t-17.5 11.5t-18.5 10.5t-9 9l-158 578q2 2 15.5 16t33 30.5 t29.5 16.5q27 0 55.5 -24.5t44.5 -90.5l140 -526q4 -18 1 -37.5t-9.5 -35t-10.5 -25t0 -9.5q14 0 38 -6t46.5 -15t40 -20.5t17.5 -21.5q0 -6 27.5 12.5t68.5 56t89 94t89 126t68.5 151.5t27.5 172q0 84 -34.5 150.5t-77.5 112t-84 69t-54 23.5q-2 0 -4 9t-4 20.5t-4 20.5 t-6 9q-6 0 -19.5 -15.5t-23.5 -28.5t-12 -15l-170 -168q-14 35 -27.5 57.5t-27 36.5t-29 25.5t-33.5 23.5q-6 4 -2 13.5t4 15.5q0 10 -6 10q-4 0 -17 -13l-14 -14l-176 -176l-10 20q-10 19 -22.5 42.5t-25 43t-18.5 19.5q-4 0 -1 19.5t3 38.5q0 23 -8 22q-2 0 -30.5 -25.5 t-62.5 -57.5t-61.5 -58.5t-27.5 -28.5zM594 768l88 88q12 0 53 -9t84 -42t77 -94.5t34 -165.5q0 -111 -17.5 -191t-38 -132t-38.5 -76l-17 -25q0 8 -10 14t-22.5 12.5t-22.5 11.5t-12 11z" />
<glyph unicode="x" horiz-adv-x="616" d="M-141 -113q0 -6 8 -6q37 0 87 32t102.5 83t98.5 115.5t74 128.5q23 -45 50.5 -83t51 -66t39.5 -43l17 -15q20 -18 33.5 -47t23.5 -29q8 0 20.5 29.5t27.5 52.5q18 29 45.5 56.5t25.5 41.5q0 10 -12 5t-16 -5q-10 0 -41 31t-65 73t-59.5 86t-25.5 68v258v13q4 14 10 31.5 t13.5 32.5t14.5 25.5t13 10.5q45 0 78 -26.5t33 -49.5q0 -8 -1 -22l-1 -15l16 27q17 27 36 60.5t35.5 65.5t16.5 40q0 18 -18.5 39.5t-43 40t-47 31t-28.5 12.5q-12 0 -33.5 -34t-43 -77t-39 -83t-23.5 -54q-10 29 -27.5 56.5t-37 54t-39 51t-33.5 47.5q-4 10 -11.5 28.5 t-11.5 10.5q-8 -10 -17.5 -20.5t-19.5 -20.5q-18 -18 -40.5 -38t-43 -36t-34 -27.5t-13.5 -13.5q4 -10 30.5 -7t49.5 -5q6 -2 23.5 -22.5t35 -49.5t31.5 -64.5t14 -68.5v-188q0 -90 -37.5 -182.5t-90 -166t-107.5 -119.5t-88 -46q-6 0 -6 -7z" />
<glyph unicode="y" horiz-adv-x="659" d="M-8 -336v-31q0 6 47 44t116.5 102.5t151.5 155t151.5 203t117 245.5t47.5 283q0 63 -14.5 110t-33 80t-34 49.5t-17.5 16.5q-4 0 -6 9t-5 19.5t-5 19.5t-4 9q-4 0 -10.5 -4t-28.5 -27l-174 -174q-6 20 -17.5 46t-23.5 48.5t-23.5 38t-17.5 15.5q0 6 7 18t7 18q0 8 -4 9 q-4 0 -12 -3t-25 -20l-121 -123q2 -2 19.5 -14t37 -55t19.5 -117v-576q0 -20 -16.5 -33.5t-16.5 -23.5q0 -6 18.5 -11t42 -11.5t46 -15.5t33.5 -27q-39 -49 -75 -87t-63.5 -64t-45.5 -40l-17 -14q-10 0 -20.5 9t-14.5 9q-8 0 -12 -30.5t-4 -55.5zM299 80v663q10 8 25.5 21.5 t30 26t24.5 21.5t12 9q6 0 23.5 -17.5t35 -55t31 -99t13.5 -147.5q0 -70 -14.5 -132.5t-38 -118.5t-55.5 -110.5t-67 -105.5q-20 16 -20 45z" />
<glyph unicode="z" horiz-adv-x="589" d="M-37 -176q0 -72 24.5 -113t55.5 -60.5t59.5 -23.5t36.5 -4q37 0 63.5 18.5t44 43t26 49t8.5 37.5q0 10 -5 10q-2 0 -7 -21.5t-20.5 -47t-41 -47t-68.5 -21.5q-14 0 -38.5 6t-49 26.5t-42 57.5t-17.5 96q0 39 16.5 69.5t42 54t58 42t65.5 35.5q39 18 96.5 50t109.5 70.5 t90 84t38 92.5q0 53 -50 90t-111.5 60.5t-112.5 34.5l-50 11l340 340l-34 -13q-33 -13 -84 -13q-31 0 -77 9t-87 24.5t-71 36t-30 40.5q0 14 4.5 30.5t-0.5 16.5q-6 0 -22.5 -18.5t-32.5 -43t-29.5 -51t-13.5 -42.5q0 -49 29.5 -76t73 -41t92.5 -17.5t88 -3.5l-307 -307 l25 9q24 10 52 10q12 0 49 -12.5t77 -35t72 -56.5t32 -77q0 -29 -28 -60.5t-64.5 -59t-71.5 -48t-49 -28.5q-80 -47 -117 -102.5t-37 -110.5z" />
<glyph unicode="{" horiz-adv-x="966" d="M2 690l28 -5q27 -5 60 -19.5t60.5 -42t27.5 -72.5q0 -59 -17.5 -149.5t-19.5 -208.5q0 -80 21.5 -136.5t85.5 -56.5h327q37 0 73 20.5t63.5 47t45 54.5t17.5 44h-469q-10 0 -14 35t-7 84t-3 104v96q0 88 -33 134.5t-71 66t-71 21.5l-32 2l41 21q41 22 89 58.5t89 86 t41 104.5q0 29 -12.5 59.5t-27.5 61t-27.5 60.5t-12.5 59q0 35 68 34h45h100h100h45q33 0 63 20.5t52.5 47.5t34.5 54.5t12 43.5h-342q-57 0 -104 -26.5t-81 -68.5t-52.5 -93t-18.5 -101q0 -35 7 -60.5t16.5 -50t16.5 -51t7 -63.5q0 -25 -34.5 -61.5t-75.5 -70.5t-76 -59z " />
<glyph unicode="|" horiz-adv-x="284" d="M82 0l20 12q21 11 44.5 28t44 40.5t20.5 48.5v1163l-21 -11q-20 -11 -43.5 -29.5t-44 -42t-20.5 -48.5v-1161z" />
<glyph unicode="}" horiz-adv-x="966" d="M193 0h344q57 0 103 26.5t80 68.5t52.5 93.5t18.5 100.5q0 35 -7.5 60.5t-15.5 50t-15.5 51t-7.5 63.5q0 25 35 61.5t76 70.5t76 58l35 23l-28 5t-61.5 20.5t-61.5 43t-28 72.5q0 59 17.5 149.5t19.5 207.5q0 82 -21.5 138t-82.5 56h-328q-39 0 -74.5 -20.5t-63.5 -48 t-45 -55t-17 -42.5h469q10 0 15 -34.5t8 -85t3 -105.5v-94q0 -88 32 -134t70.5 -66.5t70.5 -22.5l32 -2l-40 -21q-40 -20 -89 -57t-89 -86t-40 -105q0 -29 12 -59.5t26.5 -61t27 -61.5t12.5 -57q0 -35 -68 -35h-31h-71h-86h-72h-29q-35 0 -64.5 -19.5t-51 -46t-34.5 -55.5 t-13 -45z" />
<glyph unicode="~" d="M88 565q2 2 22.5 14.5t58.5 27t79 14.5q57 -2 109.5 -18.5t103.5 -36t103 -36t108 -16.5q49 0 100 27.5t93 60.5t69 60l27 28q-2 -2 -17.5 -12t-48.5 -22.5t-72 -12.5q-43 0 -89 16.5t-97 36t-105.5 36t-113.5 16.5q-37 0 -92.5 -29t-108.5 -62.5t-72 -48.5z" />
<glyph unicode="&#xa1;" horiz-adv-x="423" d="M0 100q0 -8 20.5 -32.5t45 -51t47 -47t26.5 -20.5q6 0 28.5 23.5t46.5 52t34 40.5l28 35q0 8 -10 59.5t-24.5 124t-33 155.5t-34.5 154t-29.5 117t-17.5 46q-2 0 -12.5 -46t-23.5 -117t-29.5 -153t-30 -154.5t-22.5 -124.5t-9 -61zM0 1063q0 -8 20.5 -32.5t45 -51.5 t47 -47.5t26.5 -20.5q6 0 28.5 23.5t46.5 51.5t34 40l28 35q0 12 -20 34.5t-47 46t-51.5 40t-30.5 16.5q-2 0 -22.5 -16.5t-43 -39t-42 -45t-19.5 -34.5z" />
<glyph unicode="&#xa2;" horiz-adv-x="563" d="M96 301q0 -66 20.5 -116t46 -84.5t47 -53t23.5 -18.5l-18 -295l90 84l17 211q4 0 30.5 27.5t55 61.5t51 62.5t18.5 28.5q-2 -2 -16.5 -11.5t-33.5 -20.5t-28 -11q-25 0 -50 17.5t-45.5 47t-34 68.5t-13.5 82v450q0 16 11.5 31t19.5 15q6 0 25.5 -14.5t39 -32t34.5 -33 t15 -19.5q0 -10 -1 -21.5t8 -11.5q4 0 25.5 23t48 50.5t51 51t36.5 23.5l-33 10q-32 10 -63 27q-23 10 -39 23.5t-20 13.5l20 223l-90 -66l-22 -184q-10 0 -46 -23.5t-76 -55.5t-72 -64.5t-32 -48.5v-447z" />
<glyph unicode="&#xa3;" horiz-adv-x="1261" d="M-10 53q0 -33 19.5 -54.5t35.5 -30.5t18 -9t-4 5t-15 15.5t-17.5 23.5t-8.5 32q0 23 13.5 43t35 35.5t48 24.5t51.5 9q51 0 113.5 -23.5t131 -51t139.5 -50t136 -22.5q84 0 167 23.5t148.5 65.5t106.5 100.5t41 129.5q0 80 -33 122t-70.5 60.5t-70.5 18.5q-31 0 -29 -4 q0 -4 25.5 -7t54.5 -17.5t53.5 -45t24.5 -88.5q0 -113 -84 -167t-213 -54q-43 0 -80 11.5t-76 26.5t-79 31.5t-89 26.5q-18 4 -43 9l-26 6l26 26q27 27 58.5 63t58.5 72.5t27 59.5v186h213l100 154h-313v311q0 12 16 55.5t52 89.5t89.5 81.5t126.5 35.5q88 0 139.5 -42 t51.5 -117q0 -37 -11.5 -63.5t-29 -44t-37.5 -25t-39 -7.5q-41 0 -63.5 12.5t-28.5 23.5t-6 14q10 0 18 7t8 25q0 12 -9 23.5t-25 11.5q-18 0 -26.5 -12t-8.5 -27q0 -33 38 -67.5t99 -34.5q78 0 115 54t37 130q0 70 -56.5 123t-167.5 53q-80 0 -154.5 -47t-135 -103.5 t-100.5 -103.5t-52 -47t-31.5 3t-37 6t-31.5 3q-12 0 -13 -6q0 -8 17.5 -15t39 -21.5t39 -38t17.5 -64.5v-176h-213l-100 -154h313v-198q0 -90 -7 -136.5t-13.5 -57.5t-8.5 -11l-13 2t-38 2q-90 0 -156.5 -21.5t-110.5 -53t-65.5 -66.5t-21.5 -62z" />
<glyph unicode="&#xa4;" horiz-adv-x="929" d="M0 43l43 -43l150 152q41 -35 91 -53.5t107 -18.5q59 0 109.5 19.5t91.5 54.5l153 -154l41 43l-151 152q33 41 51.5 92t18.5 108q0 55 -18.5 105.5t-51.5 91.5l149 149l-43 41l-147 -147q-41 35 -92 54.5t-111 19.5q-57 0 -107.5 -18.5t-90.5 -53.5l-150 147l-43 -41 l150 -149q-35 -41 -53.5 -92t-18.5 -107q0 -59 18.5 -110.5t53.5 -91.5zM137 395q0 51 19.5 98.5t53.5 81t81 54t100 20.5t99.5 -20.5t81 -54t54 -81t19.5 -98.5q0 -53 -19.5 -100t-54 -82t-81 -55.5t-99.5 -20.5t-100 20.5t-81 55.5t-53.5 82t-19.5 100z" />
<glyph unicode="&#xa5;" horiz-adv-x="753" d="M-25 281h258v-123q0 -16 -12 -23.5t-12 -11.5t18.5 -24.5t43 -43t48 -41t33.5 -18.5q4 0 22.5 22.5t40 49t39 50t17.5 25.5q0 6 -13.5 -6t-21.5 -12q-4 0 -22.5 20.5t-18.5 47.5v88h185l73 61h-258v78h185l73 63h-258v39q12 10 48 55.5t75 111t69.5 143t30.5 153.5 q0 63 -14 111.5t-32.5 81t-34 49t-17.5 16.5q-4 0 -6 8.5t-5 19.5t-5 19t-4 8q-8 0 -37 -25.5t-65 -60t-67.5 -68.5t-45.5 -50q-4 18 -13.5 42.5t-20.5 48t-22.5 39t-17.5 15.5t-1 8t13 17.5t13.5 17.5t-0.5 8q-12 0 -42 -23.5t-61 -51t-53 -49.5l-23 -23q2 -2 19.5 -14.5 t38 -55.5t20.5 -117v-350q0 -20 -17.5 -33.5t-17.5 -23.5q0 -8 20.5 -14.5t46.5 -12.5t46 -15t20 -22l-184 -2l-74 -63h258v-78h-184zM295 627v436q29 35 58.5 57.5t33.5 22.5q6 0 23.5 -17.5t35 -56.5t30.5 -99.5t13 -148.5q0 -33 -10 -73.5t-25.5 -78.5t-36 -71t-40.5 -51 q-23 31 -52.5 50t-29.5 30z" />
<glyph unicode="&#xa6;" horiz-adv-x="247" d="M82 0h92v553h-92v-553zM82 922h92v553h-92v-553z" />
<glyph unicode="&#xa7;" horiz-adv-x="690" d="M-2 997q0 -88 42 -149t134 -88q-72 -29 -123 -86.5t-51 -155.5q0 -90 38 -146.5t96.5 -92t125 -58t124.5 -46t96 -53.5t38 -81q0 -37 -17.5 -66.5t-46 -50t-65.5 -32t-74 -11.5q-49 0 -88 10.5t-65.5 22.5t-39.5 23.5t-13 15.5q33 0 49 22.5t16 51.5t-20.5 44t-49.5 15 q-27 0 -45 -16.5t-18 -51.5q0 -25 13.5 -53t45 -54t84 -42t131.5 -16q68 0 121 24.5t90 64.5t56.5 93t19.5 110q0 88 -42 149.5t-134 88.5q72 29 123 86t51 156q0 90 -38 143t-96 86t-125 53.5t-125 43t-96 56t-38 95.5q0 37 17.5 66.5t46 50t65.5 32t74 11.5q49 0 88 -10.5 t65.5 -22.5t40 -23.5t13.5 -15.5q-31 0 -48.5 -23.5t-17.5 -50.5q0 -29 20.5 -44t49.5 -15q27 0 46 16.5t19 50.5q0 25 -13 53.5t-46 54t-85 42t-132 16.5q-68 0 -121 -24.5t-90 -64.5t-56.5 -93t-19.5 -111zM55 586q0 27 14.5 51.5t37 44.5t50 37.5t56.5 28.5 q41 -8 97.5 -23.5t108.5 -40.5t89 -56.5t37 -70.5q0 -53 -49.5 -96t-108.5 -66q-41 6 -97.5 22.5t-108.5 41t-89 56.5t-37 71z" />
<glyph unicode="&#xa8;" horiz-adv-x="780" d="M8 1096q0 -18 11.5 -37t26.5 -34t30.5 -24.5t23.5 -9.5l29 15q29 16 64.5 39.5t64.5 51t29 54.5q0 12 -19.5 3t-43 -15t-43 3t-19.5 58q0 12 -23.5 4t-53.5 -27.5t-53.5 -43t-23.5 -37.5zM506 1096q0 -25 23.5 -49.5t43 -39t23.5 -16.5q14 0 45 15.5t62.5 39t55 51 t23.5 54.5q0 12 -19.5 3t-44 -15t-44 3t-19.5 58q0 12 -23.5 4t-51 -27.5t-51 -43t-23.5 -37.5z" />
<glyph unicode="&#xa9;" horiz-adv-x="1142" d="M0 788q0 -125 43 -219t113.5 -157.5t161 -94t184.5 -30.5t184 30.5t161 94t114 157.5t43 219t-43 219.5t-114 157t-161 93t-184 30.5t-184.5 -30.5t-161 -93t-113.5 -157t-43 -219.5zM51 788q0 150 66.5 251.5t167 151.5t216 49t216 -50t167 -150.5t66.5 -251.5 t-66.5 -250t-167 -150t-216.5 -50q-115 0 -215.5 50t-167 150t-66.5 250zM184 793q0 -66 26 -123.5t69 -99.5t100 -66.5t123 -24.5t122 24.5t99 65.5l-41 39q-74 -74 -180 -73q-53 0 -100.5 20t-82 55t-55 82t-20.5 101q0 53 20.5 100t55 82t82 55.5t100.5 20.5t100 -20.5 t84 -57.5l39 41q-43 43 -100.5 67.5t-122.5 24.5q-66 0 -123 -24.5t-100 -66.5t-69 -99.5t-26 -122.5z" />
<glyph unicode="&#xaa;" horiz-adv-x="522" d="M0 403h451l45 68h-451zM119 797q0 -27 12 -55.5t28.5 -51t32 -38t19.5 -15.5q6 0 19.5 10t28.5 24.5t28.5 27t17.5 16.5q14 16 22.5 43.5t16.5 27.5l1 -11t4 -26.5t10.5 -32t19.5 -28.5v-31q0 -4 -7 -14t-5 -10q6 0 29.5 13t51 30.5t49 32t21.5 16.5q0 4 -9 3t-13 -1 q-10 0 -21.5 14.5t-21 36t-15.5 46t-6 44.5v222q0 31 13.5 47t13.5 22q0 12 -22.5 15.5t-37.5 21.5q-10 16 -15 31.5t-15 15.5q-6 0 -28 -13t-38 -28q-10 -8 -30.5 -15t-44 -17.5t-47 -25t-40.5 -36.5q-8 -10 -12 -32.5t-6 -49.5t-3 -51.5t-1 -38.5v-139zM219 874v189 q0 53 23.5 77.5t40.5 24.5q2 0 14 -10t22 -20q4 -8 8.5 -25.5t4.5 -36.5v-170q0 -18 -1 -31.5t-5 -29.5q0 -6 -6.5 -22.5t-14.5 -35t-17 -33t-14 -14.5q-12 0 -33.5 30t-21.5 107z" />
<glyph unicode="&#xab;" horiz-adv-x="1150" d="M16 236l45 -14q45 -15 105.5 -42.5t120 -67.5t90.5 -92l178 41q-29 49 -79 87t-98 64t-83 40l-35 14q59 25 98 46.5t66 46t41 54t24 70.5l-194 -32q-8 -37 -21.5 -64t-43 -51.5t-81 -48t-133.5 -51.5zM459 236l45 -14q45 -15 105.5 -42.5t119.5 -67.5t90 -92l178 41 q-29 49 -79 87t-98 64t-83 40l-35 14q59 25 98.5 46.5t66 46t41 54t24.5 70.5l-195 -32q-8 -37 -21.5 -64t-43 -51.5t-80.5 -48t-133 -51.5z" />
<glyph unicode="&#xac;" horiz-adv-x="976" d="M68 860h69v-225q0 -8 4 -58.5t11.5 -121t15.5 -150.5t17.5 -147.5t16.5 -112.5t13 -45q4 0 17.5 29.5t27.5 80t28.5 115t24 135t11.5 142t-9 133.5l-36 225h282v-559q0 -57 16.5 -110.5t42 -95.5t55.5 -66.5t56 -24.5v-22q10 0 12 1l2 1l216 213l10 14q0 12 -10 12 q-4 0 -19.5 -12t-34 -25.5t-37 -26t-30.5 -12.5q-8 0 -27.5 18.5t-40 53.5t-36 84t-15.5 113v444h102q29 0 46.5 13.5t26.5 31t12 34.5t3 26q0 2 -2 2h-188q2 70 18.5 111.5t35 64t34.5 31t20 8.5q14 0 15 12q0 14 -29 14q-23 0 -57.5 -21.5t-70.5 -56t-66.5 -77.5 t-47.5 -86h-315q-8 43 -17.5 100t-9.5 92q0 59 40 73.5t85 14.5q27 0 45.5 -20.5t29.5 -44t16.5 -44t9.5 -20.5q2 0 8 11.5t13 24.5t15.5 27.5t16.5 20.5q16 12 39.5 26.5t39 23t17.5 10.5l-20 8q-21 8 -47 28q-39 29 -53 58l-15 28l-19 -15q-18 -15 -45.5 -34.5t-57.5 -35 t-50 -15.5q-49 0 -81 -32.5t-49 -82t-24.5 -107.5t-7.5 -112q-20 -16 -44.5 -40.5t-24.5 -49.5z" />
<glyph unicode="&#xad;" d="M82 541q12 8 54 10t83 2h520q18 0 49 26.5t61 61.5t51.5 67t21.5 42q-12 -8 -54.5 -10.5t-83.5 -2.5h-520q-16 0 -47 -26.5t-60.5 -61.5t-52 -66.5t-22.5 -41.5z" />
<glyph unicode="&#xae;" horiz-adv-x="1050" d="M240 1067q0 -133 59 -222t148.5 -134t191.5 -45q104 0 193.5 45t148.5 134t59 222t-59 222t-148.5 134t-193.5 45q-102 0 -191.5 -45t-148.5 -134t-59 -222zM281 1067q0 121 53 201t133 119.5t174 39.5t174 -39.5t133 -119.5t53 -201t-53 -201t-133 -119.5t-174 -39.5 t-174 39.5t-133 119.5t-53 201zM496 784h55v295h74l129 -295h55l-129 295q53 0 91 38t38 91t-41 91t-88 38h-184v-553zM551 1135v147h129q31 0 52.5 -21.5t21.5 -52.5q0 -29 -23.5 -51t-50.5 -22h-129z" />
<glyph unicode="&#xaf;" horiz-adv-x="911" d="M0 1376q0 -12 31 -12h643q39 0 76.5 13.5t68.5 31.5t49.5 36.5t18.5 29.5q0 6 -26.5 -0.5t-58.5 -10.5t-100 -4h-532q-18 0 -47 -9t-56.5 -22.5t-47 -28t-19.5 -24.5z" />
<glyph unicode="&#xb0;" horiz-adv-x="542" d="M156 1104q0 -61 27.5 -103.5t68.5 -62.5t88 -20t88 20t68.5 62.5t27.5 103.5t-27.5 103t-68.5 62.5t-88 20.5t-88 -20.5t-68.5 -62.5t-27.5 -103zM203 1104q0 68 42 100.5t91 32.5q51 0 93 -33t42 -100q0 -68 -42 -100.5t-93 -32.5q-49 0 -91 32.5t-42 100.5z" />
<glyph unicode="&#xb1;" d="M82 121q12 10 54 12t83 2h522q18 0 49 26.5t61 60.5t51.5 67t21.5 43q-12 -8 -54.5 -10.5t-83.5 -2.5h-522q-16 0 -47 -26.5t-60.5 -61t-52 -67.5t-22.5 -43zM82 680q12 8 54 10t83 2h191v-188q0 -41 -2 -84t-11 -55q10 0 42 22.5t67 52t61.5 60t26.5 47.5v145h147 q18 0 49 26.5t61 61.5t51.5 68t21.5 43q-12 -10 -54.5 -12t-83.5 -2h-192v192q0 41 2 83t10 54q-10 0 -42 -21.5t-66.5 -51t-61 -60.5t-26.5 -49v-147h-146q-16 0 -47 -27t-60.5 -60.5t-52 -66.5t-22.5 -43z" />
<glyph unicode="&#xb2;" horiz-adv-x="370" d="M27 641h196q6 0 22.5 13.5t35 30.5t32 33.5t13.5 22.5q-4 0 -13.5 -4t-33.5 -4h-142q-6 -8 16.5 29t53.5 97.5t56.5 132t25.5 132.5q0 25 -12.5 49.5t-28 46t-29.5 35t-18 13.5q-6 0 -1 9t-5 9q-2 0 -29 -10t-57.5 -28.5t-56 -45t-25.5 -57.5v-51l79 49v71q0 16 17 17 q10 0 25.5 -9.5t28.5 -24.5t23.5 -34t10.5 -39q0 -127 -28.5 -216t-63.5 -146t-63.5 -86t-28.5 -35z" />
<glyph unicode="&#xb3;" horiz-adv-x="360" d="M27 788q0 -31 13 -53t29.5 -38.5t31 -24.5t18.5 -8q6 0 2 -10.5t8 -10.5q8 0 34.5 22.5t54.5 57.5t49.5 77t21.5 83q0 72 -24.5 107.5t-46 44.5t-25.5 9q4 2 25.5 16.5t46 36t24.5 33.5q0 23 -12.5 48.5t-28 46t-30.5 34t-19 13.5t-1 10t-5 8q-2 0 -29 -10t-57.5 -28.5 t-55 -44t-24.5 -56.5v-55l79 51v74q0 4 3.5 10t11.5 6q10 0 25.5 -10t28.5 -25.5t23.5 -35t10.5 -38.5q0 -16 -14.5 -39.5t-31 -45t-30.5 -37.5l-14 -15q4 0 23.5 -10t43 -51t23.5 -121q0 -29 -10.5 -60.5t-18.5 -31.5t-20.5 9t-24.5 21.5t-20.5 28t-8.5 27.5v37z" />
<glyph unicode="&#xb4;" horiz-adv-x="569" d="M8 983l40 5t101.5 12.5t132 16.5t132 16t103.5 12.5t44 5.5q4 0 2 18t-7 38.5t-10 35t-5 6.5q0 -12 -55.5 -33.5t-132.5 -43t-157.5 -43t-132 -34t-55.5 -12.5z" />
<glyph unicode="&#xb5;" horiz-adv-x="745" d="M76 -268l4 -8q4 -9 16 -9h68q8 0 12 9l4 8l27 319h2q16 -35 45 -43t45 -8q76 0 124 43t87 113l4 -4l-16 -138l5 -7q5 -7 15 -7h62q8 0 10 4l8 10l66 713l-6 7q-5 7 -15 7h-70q-8 0 -11 -7l-3 -7l-33 -340q-4 -43 -15 -90t-34.5 -88t-59.5 -67.5t-85 -26.5q-51 0 -82 44 t-21 140l37 428l-4 7q-4 7 -16 7h-68q-8 0 -12 -7l-4 -7z" />
<glyph unicode="&#xb6;" horiz-adv-x="856" d="M0 907q0 -113 50 -186.5t121 -113.5t144.5 -58.5t119.5 -21.5t50 -3v-524h78v1194h82v-1194h80v1290h-240q-4 0 -50 -3t-119.5 -21.5t-144.5 -58.5t-121 -113.5t-50 -186.5z" />
<glyph unicode="&#xb7;" horiz-adv-x="344" d="M61 618q0 -12 20.5 -34.5t47.5 -45t51.5 -39t30.5 -16.5q2 0 21.5 16.5t43 39t43 44t19.5 33.5q0 8 -20.5 34t-46 52.5t-48 47t-26.5 20.5q-6 0 -28 -23.5t-46.5 -52t-33.5 -40.5z" />
<glyph unicode="&#xb8;" horiz-adv-x="221" d="M4 -270l39 -9q12 0 41 11.5t59.5 29t53 39t22.5 39.5q0 55 -32.5 70.5t-77.5 15.5l18 76h-82l-20 -92q20 0 40.5 -1t37 -10.5t26.5 -27.5t10 -51q0 -20 -34.5 -42t-65.5 -34t-35 -14z" />
<glyph unicode="&#xb9;" horiz-adv-x="268" d="M53 1169q23 10 33 5t10 -11v-528q0 -10 -8 -25.5t-6 -15.5q6 0 21.5 15.5t32 37t28.5 43t12 31.5v526q0 33 3 34t3 9q0 6 -20.5 -12t-44 -43t-33.5 -35z" />
<glyph unicode="&#xba;" horiz-adv-x="522" d="M0 403h451l45 68h-451zM145 813q0 -39 16.5 -68.5t38 -50t40 -32t22.5 -11.5t3 -5t-1 -9q0 -8 10 -8t42 28.5t67 73.5t62.5 98.5t27.5 102.5v112q0 35 -15.5 68t-33.5 57.5t-36.5 40t-25.5 15.5q-2 0 -2 6t1 12t-5 6q-4 0 -37.5 -13t-71.5 -36.5t-70 -57.5t-32 -75v-254z M246 831v326q0 20 20 21q12 0 30.5 -13.5t36 -33t30 -43t12.5 -44.5v-208q0 -53 -13.5 -85t-23.5 -32t-25.5 12t-31 28.5t-25.5 36t-10 35.5z" />
<glyph unicode="&#xbb;" horiz-adv-x="1150" d="M160 442q29 -49 79 -87t98 -64.5t83 -40.5l35 -14q-59 -25 -98.5 -45.5t-66 -45t-41 -54.5t-24.5 -71l195 33q8 37 21.5 63.5t43 50t80.5 47.5t133 52l-45 14q-45 15 -105.5 42.5t-119.5 68.5t-90 92zM602 442q29 -49 79 -87t98 -64.5t83 -40.5l35 -14q-59 -25 -98 -45.5 t-65.5 -45t-41 -54.5t-24.5 -71l194 33q8 37 21.5 63.5t43 50t81 47.5t133.5 52l-45 14q-45 15 -105.5 42.5t-120 68.5t-90.5 92z" />
<glyph unicode="&#xbc;" horiz-adv-x="538" d="M27 373l419 418v94l-419 -418v-94zM53 1169q23 10 33 5t10 -11v-528q0 -10 -8 -25.5t-6 -15.5q6 0 21.5 15.5t32 37t28.5 43t12 31.5v526q0 33 3 34t3 9q0 6 -20.5 -12t-44 -43t-33.5 -35zM139 242h164v-250q0 -8 -8 -24.5t-6 -16.5q6 0 21.5 15.5t31.5 37t28.5 43 t12.5 31.5v164h33q8 0 21.5 13t27.5 30.5t24.5 32t10.5 18.5q-4 0 -16.5 -7t-34.5 -7h-66v282q0 33 3 35t3 8q0 4 -14.5 -8t-34.5 -35q-35 -37 -71 -98.5t-64.5 -119.5t-46.5 -101zM221 322l13 30q12 31 27 67t28.5 63.5t13.5 23.5v-184h-82z" />
<glyph unicode="&#xbd;" horiz-adv-x="595" d="M27 373l419 418v94l-419 -418v-94zM53 1169q23 10 33 5t10 -11v-528q0 -10 -8 -25.5t-6 -15.5q6 0 21.5 15.5t32 37t28.5 43t12 31.5v526q0 33 3 34t3 9q0 6 -20.5 -12t-44 -43t-33.5 -35zM254 0h197q6 0 22 13.5t34.5 29.5t32 33.5t13.5 23.5q-4 0 -13.5 -4t-33.5 -4 h-141q-6 -8 16 29t53 97.5t56.5 132t25.5 132.5q0 25 -12 49.5t-27.5 46t-30 35t-18.5 13.5q-6 0 -2 9t-4 9q-4 0 -30.5 -10t-57.5 -28.5t-55.5 -45t-24.5 -57.5v-53l80 51v71q0 4 4 10.5t12 6.5q10 0 24.5 -9.5t29 -24.5t23.5 -34t9 -39q0 -127 -28.5 -216t-62.5 -146.5 t-62.5 -86t-28.5 -34.5z" />
<glyph unicode="&#xbe;" horiz-adv-x="538" d="M27 373l419 418v94l-419 -418v-94zM27 788q0 -31 13 -53t29.5 -38.5t31 -24.5t18.5 -8q6 0 2 -10.5t8 -10.5q8 0 34.5 22.5t54.5 57.5t49.5 77t21.5 83q0 72 -24.5 107.5t-46 44.5t-25.5 9q4 2 25.5 16.5t46 36t24.5 33.5q0 23 -12.5 48.5t-28 46t-30.5 34t-19 13.5 t-1 10t-5 8q-2 0 -29 -10t-57.5 -28.5t-55 -44t-24.5 -56.5v-55l79 51v74q0 4 3.5 10t11.5 6q10 0 25.5 -10t28.5 -25.5t23.5 -35t10.5 -38.5q0 -16 -14.5 -39.5t-31 -45t-30.5 -37.5l-14 -15q4 0 23.5 -10t43 -51t23.5 -121q0 -29 -10.5 -60.5t-18.5 -31.5t-20.5 9 t-24.5 21.5t-20.5 28t-8.5 27.5v37zM139 242h164v-250q0 -8 -8 -24.5t-6 -16.5q6 0 21.5 15.5t31.5 37t28.5 43t12.5 31.5v164h33q8 0 21.5 13t27.5 30.5t24.5 32t10.5 18.5q-4 0 -16.5 -7t-34.5 -7h-66v282q0 33 3 35t3 8q0 4 -14.5 -8t-34.5 -35q-35 -37 -71 -98.5 t-64.5 -119.5t-46.5 -101zM221 322l13 30q12 31 27 67t28.5 63.5t13.5 23.5v-184h-82z" />
<glyph unicode="&#xbf;" horiz-adv-x="645" d="M0 215q0 -63 21.5 -105t55.5 -68t75 -36t77 -10q33 0 67 1t56 11q-4 -8 -7 -15t1 -7q6 0 34 29.5t58.5 64.5t43.5 50l36 44q0 6 -5 0t-16.5 -16.5t-31 -19.5t-45.5 -9q-84 0 -139.5 6t-87 25.5t-44 57.5t-12.5 104q0 51 45 101t100.5 91t100.5 70.5t45 40.5 q0 14 -14.5 43.5t-31.5 61.5t-31.5 59.5t-14.5 39.5l-20 -17q-19 -17 -43.5 -43t-49 -54.5t-37.5 -48.5q0 -4 9.5 -18.5t21.5 -32t22.5 -37t10.5 -35.5q0 -10 -39 -34t-86 -63.5t-86 -97t-39 -133.5zM172 1047q0 -12 20.5 -35t47 -45.5t51 -39t31.5 -16.5q2 0 21 16.5t43 39 t43.5 44t19.5 33.5q0 8 -20.5 34t-46.5 52.5t-48.5 47t-26.5 20.5q-6 0 -27.5 -23.5t-46 -52t-33.5 -40.5z" />
<glyph unicode="&#xc0;" horiz-adv-x="1257" d="M0 90q0 -61 48 -95t126 -34q100 0 184 40t145.5 89t95.5 93t34 55v196l9 8q9 9 20 9q14 0 32.5 -8.5t38 -19.5t36.5 -19.5t30 -8.5q8 0 21.5 12.5t31.5 30t40.5 33.5t49.5 25q10 4 -11.5 20t-50 34.5t-54.5 33.5l-27 16q-12 0 -39 -23.5t-55.5 -51t-50.5 -49.5l-21 -23 v303q0 53 22.5 99t48 79t48.5 52l22 18q16 -8 48 -12.5t62.5 -6.5t53.5 -2h23v-780q0 -16 -13.5 -25.5t-29 -15.5t-28.5 -12.5t-13 -12.5t9 -12t21.5 -11t26.5 -11.5t24 -14.5q14 -12 26.5 -30.5t22 -35t18.5 -28.5t19 -12t18.5 11t16.5 27.5t18.5 34t26.5 27.5q12 8 31 13 t36 8t28.5 6.5t11.5 9.5q0 10 -17.5 22.5t-37 26.5t-37 32.5t-17.5 43.5v757q0 2 24.5 8.5t54.5 26t54.5 55t24.5 95.5q0 27 -14.5 44t-34 26.5t-37.5 11.5t-27 0q2 -2 18.5 -11.5t35 -27t20.5 -33.5q4 -41 -24.5 -62.5t-114.5 -21.5q-63 0 -144 26.5t-171.5 57.5 t-186.5 57.5t-190 26.5q-109 0 -182.5 -25.5t-120 -66.5t-67 -90t-20.5 -99q0 -33 15.5 -58.5t33 -42.5t31 -23.5t9.5 -0.5q-16 25 -33 48.5t-17 68.5q0 39 22.5 69t59.5 50t84 30.5t97 10.5q70 0 131 -15.5t115.5 -37t99.5 -45t80 -39.5l-289 -215l6 -25q6 -26 6 -45v-489 q0 -53 -29.5 -96.5t-73.5 -76t-95.5 -50t-96.5 -17.5q-4 0 -28.5 1t-52 11.5t-49 33t-21.5 63.5q0 33 21.5 56t39.5 33.5t20 12.5q-4 0 -21 -4t-35.5 -17.5t-34 -37t-15.5 -62.5zM156 217q29 -23 67.5 -63.5t61.5 -71.5q14 18 31.5 39.5t35 41t33.5 37t29 25.5 q-10 6 -28.5 21.5t-38 35t-38 40t-26.5 34.5q-12 -18 -28.5 -38.5t-34 -40t-35 -36t-29.5 -24.5zM156 506q29 -23 67.5 -63t61.5 -72q14 18 31.5 39.5t35 41t33.5 37t29 25.5q-10 6 -28.5 21.5t-38 35t-38 40t-26.5 34.5q-12 -18 -28.5 -38.5t-34 -40t-35 -36t-29.5 -24.5z M158 797q29 -25 66.5 -65t60.5 -73q29 37 66.5 82t62.5 62q-10 6 -28.5 21.5t-38 35t-38 40t-26.5 34.5q-12 -16 -28.5 -36.5t-34 -40t-34 -36t-28.5 -24.5zM575 1577l246 -164l-184 225z" />
<glyph unicode="&#xc1;" horiz-adv-x="1257" d="M0 90q0 -61 48 -95t126 -34q100 0 184 40t145.5 89t95.5 93t34 55v196l9 8q9 9 20 9q14 0 32.5 -8.5t38 -19.5t36.5 -19.5t30 -8.5q8 0 21.5 12.5t31.5 30t40.5 33.5t49.5 25q10 4 -11.5 20t-50 34.5t-54.5 33.5l-27 16q-12 0 -39 -23.5t-55.5 -51t-50.5 -49.5l-21 -23 v303q0 53 22.5 99t48 79t48.5 52l22 18q16 -8 48 -12.5t62.5 -6.5t53.5 -2h23v-780q0 -16 -13.5 -25.5t-29 -15.5t-28.5 -12.5t-13 -12.5t9 -12t21.5 -11t26.5 -11.5t24 -14.5q14 -12 26.5 -30.5t22 -35t18.5 -28.5t19 -12t18.5 11t16.5 27.5t18.5 34t26.5 27.5q12 8 31 13 t36 8t28.5 6.5t11.5 9.5q0 10 -17.5 22.5t-37 26.5t-37 32.5t-17.5 43.5v757q0 2 24.5 8.5t54.5 26t54.5 55t24.5 95.5q0 27 -14.5 44t-34 26.5t-37.5 11.5t-27 0q2 -2 18.5 -11.5t35 -27t20.5 -33.5q4 -41 -24.5 -62.5t-114.5 -21.5q-63 0 -144 26.5t-171.5 57.5 t-186.5 57.5t-190 26.5q-109 0 -182.5 -25.5t-120 -66.5t-67 -90t-20.5 -99q0 -33 15.5 -58.5t33 -42.5t31 -23.5t9.5 -0.5q-16 25 -33 48.5t-17 68.5q0 39 22.5 69t59.5 50t84 30.5t97 10.5q70 0 131 -15.5t115.5 -37t99.5 -45t80 -39.5l-289 -215l6 -25q6 -26 6 -45v-489 q0 -53 -29.5 -96.5t-73.5 -76t-95.5 -50t-96.5 -17.5q-4 0 -28.5 1t-52 11.5t-49 33t-21.5 63.5q0 33 21.5 56t39.5 33.5t20 12.5q-4 0 -21 -4t-35.5 -17.5t-34 -37t-15.5 -62.5zM156 217q29 -23 67.5 -63.5t61.5 -71.5q14 18 31.5 39.5t35 41t33.5 37t29 25.5 q-10 6 -28.5 21.5t-38 35t-38 40t-26.5 34.5q-12 -18 -28.5 -38.5t-34 -40t-35 -36t-29.5 -24.5zM156 506q29 -23 67.5 -63t61.5 -72q14 18 31.5 39.5t35 41t33.5 37t29 25.5q-10 6 -28.5 21.5t-38 35t-38 40t-26.5 34.5q-12 -18 -28.5 -38.5t-34 -40t-35 -36t-29.5 -24.5z M158 797q29 -25 66.5 -65t60.5 -73q29 37 66.5 82t62.5 62q-10 6 -28.5 21.5t-38 35t-38 40t-26.5 34.5q-12 -16 -28.5 -36.5t-34 -40t-34 -36t-28.5 -24.5zM698 1413l246 164l-61 61z" />
<glyph unicode="&#xc2;" horiz-adv-x="1257" d="M0 90q0 -61 48 -95t126 -34q100 0 184 40t145.5 89t95.5 93t34 55v196l9 8q9 9 20 9q14 0 32.5 -8.5t38 -19.5t36.5 -19.5t30 -8.5q8 0 21.5 12.5t31.5 30t40.5 33.5t49.5 25q10 4 -11.5 20t-50 34.5t-54.5 33.5l-27 16q-12 0 -39 -23.5t-55.5 -51t-50.5 -49.5l-21 -23 v303q0 53 22.5 99t48 79t48.5 52l22 18q16 -8 48 -12.5t62.5 -6.5t53.5 -2h23v-780q0 -16 -13.5 -25.5t-29 -15.5t-28.5 -12.5t-13 -12.5t9 -12t21.5 -11t26.5 -11.5t24 -14.5q14 -12 26.5 -30.5t22 -35t18.5 -28.5t19 -12t18.5 11t16.5 27.5t18.5 34t26.5 27.5q12 8 31 13 t36 8t28.5 6.5t11.5 9.5q0 10 -17.5 22.5t-37 26.5t-37 32.5t-17.5 43.5v757q0 2 24.5 8.5t54.5 26t54.5 55t24.5 95.5q0 27 -14.5 44t-34 26.5t-37.5 11.5t-27 0q2 -2 18.5 -11.5t35 -27t20.5 -33.5q4 -41 -24.5 -62.5t-114.5 -21.5q-63 0 -144 26.5t-171.5 57.5 t-186.5 57.5t-190 26.5q-109 0 -182.5 -25.5t-120 -66.5t-67 -90t-20.5 -99q0 -33 15.5 -58.5t33 -42.5t31 -23.5t9.5 -0.5q-16 25 -33 48.5t-17 68.5q0 39 22.5 69t59.5 50t84 30.5t97 10.5q70 0 131 -15.5t115.5 -37t99.5 -45t80 -39.5l-289 -215l6 -25q6 -26 6 -45v-489 q0 -53 -29.5 -96.5t-73.5 -76t-95.5 -50t-96.5 -17.5q-4 0 -28.5 1t-52 11.5t-49 33t-21.5 63.5q0 33 21.5 56t39.5 33.5t20 12.5q-4 0 -21 -4t-35.5 -17.5t-34 -37t-15.5 -62.5zM156 217q29 -23 67.5 -63.5t61.5 -71.5q14 18 31.5 39.5t35 41t33.5 37t29 25.5 q-10 6 -28.5 21.5t-38 35t-38 40t-26.5 34.5q-12 -18 -28.5 -38.5t-34 -40t-35 -36t-29.5 -24.5zM156 506q29 -23 67.5 -63t61.5 -72q14 18 31.5 39.5t35 41t33.5 37t29 25.5q-10 6 -28.5 21.5t-38 35t-38 40t-26.5 34.5q-12 -18 -28.5 -38.5t-34 -40t-35 -36t-29.5 -24.5z M158 797q29 -25 66.5 -65t60.5 -73q29 37 66.5 82t62.5 62q-10 6 -28.5 21.5t-38 35t-38 40t-26.5 34.5q-12 -16 -28.5 -36.5t-34 -40t-34 -36t-28.5 -24.5zM522 1446q0 -6 25.5 10.5t56.5 39t57.5 43t28.5 20.5t27.5 -19.5t56.5 -43t57.5 -42t28.5 -16.5q12 8 40 35.5 t40 54.5q2 4 -27.5 22.5t-67.5 38t-71 34.5t-35 15t-36.5 -29.5t-74.5 -64.5t-73 -65.5t-33 -32.5z" />
<glyph unicode="&#xc3;" horiz-adv-x="1257" d="M0 90q0 -61 48 -95t126 -34q100 0 184 40t145.5 89t95.5 93t34 55v196l9 8q9 9 20 9q14 0 32.5 -8.5t38 -19.5t36.5 -19.5t30 -8.5q8 0 21.5 12.5t31.5 30t40.5 33.5t49.5 25q10 4 -11.5 20t-50 34.5t-54.5 33.5l-27 16q-12 0 -39 -23.5t-55.5 -51t-50.5 -49.5l-21 -23 v303q0 53 22.5 99t48 79t48.5 52l22 18q16 -8 48 -12.5t62.5 -6.5t53.5 -2h23v-780q0 -16 -13.5 -25.5t-29 -15.5t-28.5 -12.5t-13 -12.5t9 -12t21.5 -11t26.5 -11.5t24 -14.5q14 -12 26.5 -30.5t22 -35t18.5 -28.5t19 -12t18.5 11t16.5 27.5t18.5 34t26.5 27.5q12 8 31 13 t36 8t28.5 6.5t11.5 9.5q0 10 -17.5 22.5t-37 26.5t-37 32.5t-17.5 43.5v757q0 2 24.5 8.5t54.5 26t54.5 55t24.5 95.5q0 27 -14.5 44t-34 26.5t-37.5 11.5t-27 0q2 -2 18.5 -11.5t35 -27t20.5 -33.5q4 -41 -24.5 -62.5t-114.5 -21.5q-63 0 -144 26.5t-171.5 57.5 t-186.5 57.5t-190 26.5q-109 0 -182.5 -25.5t-120 -66.5t-67 -90t-20.5 -99q0 -33 15.5 -58.5t33 -42.5t31 -23.5t9.5 -0.5q-16 25 -33 48.5t-17 68.5q0 39 22.5 69t59.5 50t84 30.5t97 10.5q70 0 131 -15.5t115.5 -37t99.5 -45t80 -39.5l-289 -215l6 -25q6 -26 6 -45v-489 q0 -53 -29.5 -96.5t-73.5 -76t-95.5 -50t-96.5 -17.5q-4 0 -28.5 1t-52 11.5t-49 33t-21.5 63.5q0 33 21.5 56t39.5 33.5t20 12.5q-4 0 -21 -4t-35.5 -17.5t-34 -37t-15.5 -62.5zM156 217q29 -23 67.5 -63.5t61.5 -71.5q14 18 31.5 39.5t35 41t33.5 37t29 25.5 q-10 6 -28.5 21.5t-38 35t-38 40t-26.5 34.5q-12 -18 -28.5 -38.5t-34 -40t-35 -36t-29.5 -24.5zM156 506q29 -23 67.5 -63t61.5 -72q14 18 31.5 39.5t35 41t33.5 37t29 25.5q-10 6 -28.5 21.5t-38 35t-38 40t-26.5 34.5q-12 -18 -28.5 -38.5t-34 -40t-35 -36t-29.5 -24.5z M158 797q29 -25 66.5 -65t60.5 -73q29 37 66.5 82t62.5 62q-10 6 -28.5 21.5t-38 35t-38 40t-26.5 34.5q-12 -16 -28.5 -36.5t-34 -40t-34 -36t-28.5 -24.5zM479 1454q2 2 16.5 11.5t43 19.5t59.5 10q43 0 83 -13.5t79 -27.5t78 -26.5t80 -12.5q37 0 74.5 20.5t69.5 46 t52 46.5l19 20l-29 -18q-29 -19 -72 -19q-33 0 -67.5 12.5t-72.5 27t-79 26.5t-86 12q-29 0 -71 -21.5t-80.5 -46t-53.5 -35.5z" />
<glyph unicode="&#xc4;" horiz-adv-x="1257" d="M0 90q0 -61 48 -95t126 -34q100 0 184 40t145.5 89t95.5 93t34 55v196l9 8q9 9 20 9q14 0 32.5 -8.5t38 -19.5t36.5 -19.5t30 -8.5q8 0 21.5 12.5t31.5 30t40.5 33.5t49.5 25q10 4 -11.5 20t-50 34.5t-54.5 33.5l-27 16q-12 0 -39 -23.5t-55.5 -51t-50.5 -49.5l-21 -23 v303q0 53 22.5 99t48 79t48.5 52l22 18q16 -8 48 -12.5t62.5 -6.5t53.5 -2h23v-780q0 -16 -13.5 -25.5t-29 -15.5t-28.5 -12.5t-13 -12.5t9 -12t21.5 -11t26.5 -11.5t24 -14.5q14 -12 26.5 -30.5t22 -35t18.5 -28.5t19 -12t18.5 11t16.5 27.5t18.5 34t26.5 27.5q12 8 31 13 t36 8t28.5 6.5t11.5 9.5q0 10 -17.5 22.5t-37 26.5t-37 32.5t-17.5 43.5v757q0 2 24.5 8.5t54.5 26t54.5 55t24.5 95.5q0 27 -14.5 44t-34 26.5t-37.5 11.5t-27 0q2 -2 18.5 -11.5t35 -27t20.5 -33.5q4 -41 -24.5 -62.5t-114.5 -21.5q-63 0 -144 26.5t-171.5 57.5 t-186.5 57.5t-190 26.5q-109 0 -182.5 -25.5t-120 -66.5t-67 -90t-20.5 -99q0 -33 15.5 -58.5t33 -42.5t31 -23.5t9.5 -0.5q-16 25 -33 48.5t-17 68.5q0 39 22.5 69t59.5 50t84 30.5t97 10.5q70 0 131 -15.5t115.5 -37t99.5 -45t80 -39.5l-289 -215l6 -25q6 -26 6 -45v-489 q0 -53 -29.5 -96.5t-73.5 -76t-95.5 -50t-96.5 -17.5q-4 0 -28.5 1t-52 11.5t-49 33t-21.5 63.5q0 33 21.5 56t39.5 33.5t20 12.5q-4 0 -21 -4t-35.5 -17.5t-34 -37t-15.5 -62.5zM156 217q29 -23 67.5 -63.5t61.5 -71.5q14 18 31.5 39.5t35 41t33.5 37t29 25.5 q-10 6 -28.5 21.5t-38 35t-38 40t-26.5 34.5q-12 -18 -28.5 -38.5t-34 -40t-35 -36t-29.5 -24.5zM156 506q29 -23 67.5 -63t61.5 -72q14 18 31.5 39.5t35 41t33.5 37t29 25.5q-10 6 -28.5 21.5t-38 35t-38 40t-26.5 34.5q-12 -18 -28.5 -38.5t-34 -40t-35 -36t-29.5 -24.5z M158 797q29 -25 66.5 -65t60.5 -73q29 37 66.5 82t62.5 62q-10 6 -28.5 21.5t-38 35t-38 40t-26.5 34.5q-12 -16 -28.5 -36.5t-34 -40t-34 -36t-28.5 -24.5zM524 1483q0 -14 8.5 -27.5t19.5 -25t21.5 -17.5t16.5 -6q10 0 32.5 11.5t44 27.5t38 35.5t16.5 38.5 q0 6 -13.5 -0.5t-29.5 -10.5t-29.5 3.5t-13.5 43.5q0 8 -17.5 2t-38 -19t-38 -29.5t-17.5 -26.5zM893 1483q0 -29 25.5 -52.5t37.5 -23.5q10 0 33 11.5t44.5 27.5t37.5 35.5t16 38.5q0 6 -13 -0.5t-30.5 -10.5t-31 3.5t-13.5 43.5q0 8 -16 2t-36.5 -19t-37 -29.5 t-16.5 -26.5z" />
<glyph unicode="&#xc5;" horiz-adv-x="1257" d="M0 90q0 -61 48 -95t126 -34q100 0 184 40t145.5 89t95.5 93t34 55v196l9 8q9 9 20 9q14 0 32.5 -8.5t38 -19.5t36.5 -19.5t30 -8.5q8 0 21.5 12.5t31.5 30t40.5 33.5t49.5 25q10 4 -11.5 20t-50 34.5t-54.5 33.5l-27 16q-12 0 -39 -23.5t-55.5 -51t-50.5 -49.5l-21 -23 v303q0 53 22.5 99t48 79t48.5 52l22 18q16 -8 48 -12.5t62.5 -6.5t53.5 -2h23v-780q0 -16 -13.5 -25.5t-29 -15.5t-28.5 -12.5t-13 -12.5t9 -12t21.5 -11t26.5 -11.5t24 -14.5q14 -12 26.5 -30.5t22 -35t18.5 -28.5t19 -12t18.5 11t16.5 27.5t18.5 34t26.5 27.5q12 8 31 13 t36 8t28.5 6.5t11.5 9.5q0 10 -17.5 22.5t-37 26.5t-37 32.5t-17.5 43.5v757q0 2 24.5 8.5t54.5 26t54.5 55t24.5 95.5q0 27 -14.5 44t-34 26.5t-37.5 11.5t-27 0q2 -2 18.5 -11.5t35 -27t20.5 -33.5q4 -41 -24.5 -62.5t-114.5 -21.5q-63 0 -144 26.5t-171.5 57.5 t-186.5 57.5t-190 26.5q-109 0 -182.5 -25.5t-120 -66.5t-67 -90t-20.5 -99q0 -33 15.5 -58.5t33 -42.5t31 -23.5t9.5 -0.5q-16 25 -33 48.5t-17 68.5q0 39 22.5 69t59.5 50t84 30.5t97 10.5q70 0 131 -15.5t115.5 -37t99.5 -45t80 -39.5l-289 -215l6 -25q6 -26 6 -45v-489 q0 -53 -29.5 -96.5t-73.5 -76t-95.5 -50t-96.5 -17.5q-4 0 -28.5 1t-52 11.5t-49 33t-21.5 63.5q0 33 21.5 56t39.5 33.5t20 12.5q-4 0 -21 -4t-35.5 -17.5t-34 -37t-15.5 -62.5zM156 217q29 -23 67.5 -63.5t61.5 -71.5q14 18 31.5 39.5t35 41t33.5 37t29 25.5 q-10 6 -28.5 21.5t-38 35t-38 40t-26.5 34.5q-12 -18 -28.5 -38.5t-34 -40t-35 -36t-29.5 -24.5zM156 506q29 -23 67.5 -63t61.5 -72q14 18 31.5 39.5t35 41t33.5 37t29 25.5q-10 6 -28.5 21.5t-38 35t-38 40t-26.5 34.5q-12 -18 -28.5 -38.5t-34 -40t-35 -36t-29.5 -24.5z M158 797q29 -25 66.5 -65t60.5 -73q29 37 66.5 82t62.5 62q-10 6 -28.5 21.5t-38 35t-38 40t-26.5 34.5q-12 -16 -28.5 -36.5t-34 -40t-34 -36t-28.5 -24.5zM717 1454q0 -63 40 -95t89 -32t89 32t40 95t-40 96t-89 33t-89 -32.5t-40 -96.5zM754 1454q0 47 28.5 70.5 t63.5 23.5t63.5 -23.5t28.5 -70.5t-28.5 -69.5t-63.5 -22.5t-63.5 22.5t-28.5 69.5z" />
<glyph unicode="&#xc6;" horiz-adv-x="1806" d="M0 90q0 -61 48 -95t126 -34q100 0 184 40t145.5 89t95.5 93t34 55v196l9 8q9 9 20 9q14 0 32.5 -8.5t38 -19.5t36.5 -19.5t30 -8.5q8 0 21.5 12.5t31.5 30t40.5 33.5t49.5 25q10 4 -11.5 20t-50 34.5t-54.5 33.5l-27 16q-12 0 -39 -23.5t-55.5 -51t-50.5 -49.5l-21 -23 v303q0 53 22.5 99t48 79t48.5 52l22 18q16 -8 48 -12.5t62.5 -6.5t53.5 -2h23v-780q0 -16 -13.5 -25.5t-29 -15.5t-28.5 -12.5t-13 -12.5t9 -12t21.5 -11t26.5 -11.5t24 -14.5q14 -12 26.5 -30.5t22 -35t18.5 -28.5t19 -12q16 0 28 26t30 53q33 -14 77 -31.5t94 -31.5 t105.5 -24.5t114.5 -10.5q41 0 92 31t95 83t75 119.5t31 143.5q0 31 -11.5 62.5t-33 57t-52 43t-67.5 17.5q-18 0 -35.5 -7t-33 -16.5t-24.5 -18.5t-9 -15q0 -4 25.5 14.5t76.5 18.5q25 0 46.5 -14.5t37.5 -38t26.5 -51t10.5 -52.5q0 -49 -22.5 -91t-54.5 -74t-66.5 -49 t-61.5 -17q-35 0 -101.5 19t-133 42t-116.5 42l-50 19v250v207l21 -16q22 -15 49.5 -35.5t54 -44t36.5 -37.5q20 23 46 47.5t51.5 47t48 41t35.5 28.5q-12 10 -33 29.5t-43.5 41t-42 44t-31.5 38.5q8 10 28.5 31t44 43.5t46 42t35.5 27.5q-8 4 -24.5 18.5t-35.5 36.5 q6 8 18.5 20.5t25 23.5t24.5 19.5t20 8.5l5 -21q6 -22 20 -48.5t40 -48t64 -21.5q16 0 41 6t47.5 20t39 37t16.5 57q0 33 -22.5 46.5t-39.5 13.5q-37 0 -55 -25.5t-18 -38.5l19 20q18 21 50 21q14 0 27.5 -9t13.5 -30q0 -35 -29.5 -63.5t-89.5 -28.5q-35 0 -55 26.5 t-31.5 59.5t-15.5 59.5t-8 26.5q-14 0 -33.5 -13t-39 -30.5t-37 -35l-25.5 -25.5q-25 27 -51.5 57.5t-49 58t-37 48t-16.5 28.5q-2 -6 -14.5 -24.5t-31.5 -43t-44 -53t-49 -57.5q-63 0 -144 26.5t-171.5 57.5t-186.5 57.5t-190 26.5q-109 0 -182.5 -25.5t-120 -66.5t-67 -90 t-20.5 -99q0 -33 15.5 -58.5t33 -42.5t31 -23.5t9.5 -0.5q-16 25 -33 48.5t-17 68.5q0 39 22.5 69t59.5 50t84 30.5t97 10.5q70 0 131 -15.5t115.5 -37t99.5 -45t80 -39.5l-289 -215l6 -25q6 -26 6 -45v-489q0 -53 -29.5 -96.5t-73.5 -76t-95.5 -50t-96.5 -17.5 q-4 0 -28.5 1t-52 11.5t-49 33t-21.5 63.5q0 33 21.5 56t39.5 33.5t20 12.5q-4 0 -21 -4t-35.5 -17.5t-34 -37t-15.5 -62.5zM156 217q29 -23 67.5 -63.5t61.5 -71.5q14 18 31.5 39.5t35 41t33.5 37t29 25.5q-10 6 -28.5 21.5t-38 35t-38 40t-26.5 34.5q-12 -18 -28.5 -38.5 t-34 -40t-35 -36t-29.5 -24.5zM156 506q29 -23 67.5 -63t61.5 -72q14 18 31.5 39.5t35 41t33.5 37t29 25.5q-10 6 -28.5 21.5t-38 35t-38 40t-26.5 34.5q-12 -18 -28.5 -38.5t-34 -40t-35 -36t-29.5 -24.5zM158 797q29 -25 66.5 -65t60.5 -73q29 37 66.5 82t62.5 62 q-10 6 -28.5 21.5t-38 35t-38 40t-26.5 34.5q-12 -16 -28.5 -36.5t-34 -40t-34 -36t-28.5 -24.5zM1137 707v370q16 -14 40.5 -42.5t49 -60.5t46 -59.5t30.5 -42.5q-14 -20 -42 -48.5t-55.5 -54.5t-47.5 -44z" />
<glyph unicode="&#xc7;" horiz-adv-x="1140" d="M8 492q0 -121 61.5 -216.5t155.5 -161t206 -103.5t212 -46l-27 -110q53 0 86 -34t33 -71q0 -29 -20.5 -56.5t-47 -48t-55 -32.5t-43.5 -12l39 -11q25 0 56.5 14.5t60.5 39t48.5 55.5t19.5 65q0 20 -10.5 43t-26 43.5t-32.5 34t-34 13.5l17 65q47 4 96 38t97 84t90 110.5 t75 120t51.5 109.5t18.5 81q-2 -2 -23.5 -38t-58.5 -92.5t-78 -109.5t-81 -91t-67 -38q-125 0 -244.5 36t-213 94.5t-150.5 133t-57 154.5q0 143 48 243.5t105.5 164t105.5 91.5l48 29v-604q0 -31 -10 -67.5t-23.5 -68.5t-23.5 -53l-11 -20l36 33t78 78t78 91t36 73v532 l17 15q18 16 26 16q4 0 30.5 -29.5t60.5 -64.5t68.5 -64.5t55.5 -29.5q10 0 43 27.5t63.5 61t50 61.5t5.5 28l-21 -8q-20 -7 -31 -7q-8 0 -34.5 17.5t-54 43t-49 53.5t-21.5 48q0 16 4 26.5t0 14.5q-8 12 -43 -13.5t-73 -61t-68 -67.5l-29 -32v29q0 29 -1 64.5t-3 64 t-7 28.5q-8 0 -42.5 -23.5t-73.5 -51t-70 -51t-26 -23.5q31 0 45 -21l14 -22q-4 -2 -48 -22.5t-112.5 -68.5t-135.5 -120t-114 -174.5t-47 -228.5zM213 492q27 -20 61.5 -56.5t53.5 -64.5q25 33 59.5 72.5t56.5 56.5q-10 4 -26.5 18t-33.5 31.5t-33.5 36t-24.5 30.5 q-18 -31 -54 -69.5t-59 -54.5zM213 758q27 -23 61.5 -58.5t53.5 -64.5q25 33 59.5 74t56.5 55q-10 6 -26.5 20.5t-33.5 32t-33.5 35.5t-24.5 31q-18 -33 -54 -71t-59 -54z" />
<glyph unicode="&#xc8;" horiz-adv-x="1255" d="M0 41q0 -31 11.5 -49.5t26.5 -27.5t29.5 -11t18.5 -2q8 0 1 3t-19.5 12t-24.5 23.5t-12 39.5q0 31 17.5 58.5t43 49t57 34.5t62.5 13q53 0 135 -34.5t180.5 -75.5t207 -76t218.5 -35q41 0 92.5 31t95.5 83t74.5 119.5t30.5 143.5q0 31 -11 62.5t-32.5 57t-51.5 43 t-69 17.5q-16 0 -34.5 -7t-33 -16.5t-23.5 -18.5t-9 -15q0 -4 24.5 14.5t75.5 18.5q25 0 47.5 -14.5t39 -38t26.5 -51t10 -52.5q0 -49 -22.5 -91t-54 -74t-67.5 -49t-61 -17q-41 0 -103 19t-138 47t-161 57.5t-169 50.5q27 25 56.5 57.5t55 62t42 51t16.5 27.5v207l20 -16 q21 -15 48.5 -35.5t54.5 -44t39 -37.5q20 23 45.5 47.5t50.5 47t47.5 41t34.5 28.5q-12 10 -32.5 29.5t-43 41t-42 44t-32.5 38.5q8 10 30 31t44.5 43.5t45 42t34.5 27.5q-8 4 -23.5 18.5t-35.5 36.5q6 8 18 20.5t24.5 23.5t25 19.5t20.5 8.5l5 -21q5 -22 19.5 -48.5t40 -48 t64.5 -21.5q18 0 42.5 6t47 20t38 37t15.5 57q0 33 -21.5 46.5t-39.5 13.5q-37 0 -55.5 -25.5t-18.5 -38.5l18 20q19 21 52 21q14 0 27.5 -9t13.5 -30q0 -35 -30 -63.5t-89 -28.5q-35 0 -55.5 26.5t-30.5 59.5t-15.5 59.5t-9.5 26.5q-14 0 -33.5 -13t-39 -30.5t-36 -35 t-24.5 -25.5q-27 27 -53.5 57.5t-48 58t-37 48t-17.5 28.5q-2 -8 -21.5 -34.5t-49 -61.5t-63.5 -74t-65.5 -72.5t-55 -57t-29.5 -27.5q20 -14 20 -37v-561q0 -45 -24 -80q-96 25 -181 24q-39 0 -79.5 -26.5t-74.5 -67.5t-55.5 -88t-21.5 -86zM113 518q14 -12 31.5 -28.5 t35 -35t33.5 -38t27 -35.5q29 37 67.5 82t61.5 61q-10 6 -28.5 21.5t-38 35t-37 40t-27.5 34.5q-10 -16 -26.5 -36.5t-35 -40t-35 -36t-28.5 -24.5zM113 813q14 -12 31.5 -28.5t35 -35t33.5 -38t27 -35.5q29 37 67.5 82t61.5 61q-10 6 -28.5 21.5t-38 35t-37 40t-27.5 34.5 q-10 -16 -26.5 -36.5t-35 -40t-35 -36t-28.5 -24.5zM494 1577l245 -164l-184 225zM598 707v370q14 -14 40 -42.5t50.5 -60.5t46 -59.5t29.5 -42.5q-14 -20 -42 -48.5t-55.5 -54.5t-48.5 -44z" />
<glyph unicode="&#xc9;" horiz-adv-x="1255" d="M0 41q0 -31 11.5 -49.5t26.5 -27.5t29.5 -11t18.5 -2q8 0 1 3t-19.5 12t-24.5 23.5t-12 39.5q0 31 17.5 58.5t43 49t57 34.5t62.5 13q53 0 135 -34.5t180.5 -75.5t207 -76t218.5 -35q41 0 92.5 31t95.5 83t74.5 119.5t30.5 143.5q0 31 -11 62.5t-32.5 57t-51.5 43 t-69 17.5q-16 0 -34.5 -7t-33 -16.5t-23.5 -18.5t-9 -15q0 -4 24.5 14.5t75.5 18.5q25 0 47.5 -14.5t39 -38t26.5 -51t10 -52.5q0 -49 -22.5 -91t-54 -74t-67.5 -49t-61 -17q-41 0 -103 19t-138 47t-161 57.5t-169 50.5q27 25 56.5 57.5t55 62t42 51t16.5 27.5v207l20 -16 q21 -15 48.5 -35.5t54.5 -44t39 -37.5q20 23 45.5 47.5t50.5 47t47.5 41t34.5 28.5q-12 10 -32.5 29.5t-43 41t-42 44t-32.5 38.5q8 10 30 31t44.5 43.5t45 42t34.5 27.5q-8 4 -23.5 18.5t-35.5 36.5q6 8 18 20.5t24.5 23.5t25 19.5t20.5 8.5l5 -21q5 -22 19.5 -48.5t40 -48 t64.5 -21.5q18 0 42.5 6t47 20t38 37t15.5 57q0 33 -21.5 46.5t-39.5 13.5q-37 0 -55.5 -25.5t-18.5 -38.5l18 20q19 21 52 21q14 0 27.5 -9t13.5 -30q0 -35 -30 -63.5t-89 -28.5q-35 0 -55.5 26.5t-30.5 59.5t-15.5 59.5t-9.5 26.5q-14 0 -33.5 -13t-39 -30.5t-36 -35 t-24.5 -25.5q-27 27 -53.5 57.5t-48 58t-37 48t-17.5 28.5q-2 -8 -21.5 -34.5t-49 -61.5t-63.5 -74t-65.5 -72.5t-55 -57t-29.5 -27.5q20 -14 20 -37v-561q0 -45 -24 -80q-96 25 -181 24q-39 0 -79.5 -26.5t-74.5 -67.5t-55.5 -88t-21.5 -86zM113 518q14 -12 31.5 -28.5 t35 -35t33.5 -38t27 -35.5q29 37 67.5 82t61.5 61q-10 6 -28.5 21.5t-38 35t-37 40t-27.5 34.5q-10 -16 -26.5 -36.5t-35 -40t-35 -36t-28.5 -24.5zM113 813q14 -12 31.5 -28.5t35 -35t33.5 -38t27 -35.5q29 37 67.5 82t61.5 61q-10 6 -28.5 21.5t-38 35t-37 40t-27.5 34.5 q-10 -16 -26.5 -36.5t-35 -40t-35 -36t-28.5 -24.5zM598 707v370q14 -14 40 -42.5t50.5 -60.5t46 -59.5t29.5 -42.5q-14 -20 -42 -48.5t-55.5 -54.5t-48.5 -44zM625 1413l245 164l-61 61z" />
<glyph unicode="&#xca;" horiz-adv-x="1255" d="M0 41q0 -31 11.5 -49.5t26.5 -27.5t29.5 -11t18.5 -2q8 0 1 3t-19.5 12t-24.5 23.5t-12 39.5q0 31 17.5 58.5t43 49t57 34.5t62.5 13q53 0 135 -34.5t180.5 -75.5t207 -76t218.5 -35q41 0 92.5 31t95.5 83t74.5 119.5t30.5 143.5q0 31 -11 62.5t-32.5 57t-51.5 43 t-69 17.5q-16 0 -34.5 -7t-33 -16.5t-23.5 -18.5t-9 -15q0 -4 24.5 14.5t75.5 18.5q25 0 47.5 -14.5t39 -38t26.5 -51t10 -52.5q0 -49 -22.5 -91t-54 -74t-67.5 -49t-61 -17q-41 0 -103 19t-138 47t-161 57.5t-169 50.5q27 25 56.5 57.5t55 62t42 51t16.5 27.5v207l20 -16 q21 -15 48.5 -35.5t54.5 -44t39 -37.5q20 23 45.5 47.5t50.5 47t47.5 41t34.5 28.5q-12 10 -32.5 29.5t-43 41t-42 44t-32.5 38.5q8 10 30 31t44.5 43.5t45 42t34.5 27.5q-8 4 -23.5 18.5t-35.5 36.5q6 8 18 20.5t24.5 23.5t25 19.5t20.5 8.5l5 -21q5 -22 19.5 -48.5t40 -48 t64.5 -21.5q18 0 42.5 6t47 20t38 37t15.5 57q0 33 -21.5 46.5t-39.5 13.5q-37 0 -55.5 -25.5t-18.5 -38.5l18 20q19 21 52 21q14 0 27.5 -9t13.5 -30q0 -35 -30 -63.5t-89 -28.5q-35 0 -55.5 26.5t-30.5 59.5t-15.5 59.5t-9.5 26.5q-14 0 -33.5 -13t-39 -30.5t-36 -35 t-24.5 -25.5q-27 27 -53.5 57.5t-48 58t-37 48t-17.5 28.5q-2 -8 -21.5 -34.5t-49 -61.5t-63.5 -74t-65.5 -72.5t-55 -57t-29.5 -27.5q20 -14 20 -37v-561q0 -45 -24 -80q-96 25 -181 24q-39 0 -79.5 -26.5t-74.5 -67.5t-55.5 -88t-21.5 -86zM113 518q14 -12 31.5 -28.5 t35 -35t33.5 -38t27 -35.5q29 37 67.5 82t61.5 61q-10 6 -28.5 21.5t-38 35t-37 40t-27.5 34.5q-10 -16 -26.5 -36.5t-35 -40t-35 -36t-28.5 -24.5zM113 813q14 -12 31.5 -28.5t35 -35t33.5 -38t27 -35.5q29 37 67.5 82t61.5 61q-10 6 -28.5 21.5t-38 35t-37 40t-27.5 34.5 q-10 -16 -26.5 -36.5t-35 -40t-35 -36t-28.5 -24.5zM522 1446q0 -6 25.5 10.5t56.5 39t57.5 43t28.5 20.5t27.5 -19.5t56.5 -43t57.5 -42t28.5 -16.5q12 8 40 35.5t40 54.5q2 4 -27.5 22.5t-67.5 38t-71 34.5t-35 15t-36.5 -29.5t-74.5 -64.5t-73 -65.5t-33 -32.5zM598 707 v370q14 -14 40 -42.5t50.5 -60.5t46 -59.5t29.5 -42.5q-14 -20 -42 -48.5t-55.5 -54.5t-48.5 -44z" />
<glyph unicode="&#xcb;" horiz-adv-x="1255" d="M0 41q0 -31 11.5 -49.5t26.5 -27.5t29.5 -11t18.5 -2q8 0 1 3t-19.5 12t-24.5 23.5t-12 39.5q0 31 17.5 58.5t43 49t57 34.5t62.5 13q53 0 135 -34.5t180.5 -75.5t207 -76t218.5 -35q41 0 92.5 31t95.5 83t74.5 119.5t30.5 143.5q0 31 -11 62.5t-32.5 57t-51.5 43 t-69 17.5q-16 0 -34.5 -7t-33 -16.5t-23.5 -18.5t-9 -15q0 -4 24.5 14.5t75.5 18.5q25 0 47.5 -14.5t39 -38t26.5 -51t10 -52.5q0 -49 -22.5 -91t-54 -74t-67.5 -49t-61 -17q-41 0 -103 19t-138 47t-161 57.5t-169 50.5q27 25 56.5 57.5t55 62t42 51t16.5 27.5v207l20 -16 q21 -15 48.5 -35.5t54.5 -44t39 -37.5q20 23 45.5 47.5t50.5 47t47.5 41t34.5 28.5q-12 10 -32.5 29.5t-43 41t-42 44t-32.5 38.5q8 10 30 31t44.5 43.5t45 42t34.5 27.5q-8 4 -23.5 18.5t-35.5 36.5q6 8 18 20.5t24.5 23.5t25 19.5t20.5 8.5l5 -21q5 -22 19.5 -48.5t40 -48 t64.5 -21.5q18 0 42.5 6t47 20t38 37t15.5 57q0 33 -21.5 46.5t-39.5 13.5q-37 0 -55.5 -25.5t-18.5 -38.5l18 20q19 21 52 21q14 0 27.5 -9t13.5 -30q0 -35 -30 -63.5t-89 -28.5q-35 0 -55.5 26.5t-30.5 59.5t-15.5 59.5t-9.5 26.5q-14 0 -33.5 -13t-39 -30.5t-36 -35 t-24.5 -25.5q-27 27 -53.5 57.5t-48 58t-37 48t-17.5 28.5q-2 -8 -21.5 -34.5t-49 -61.5t-63.5 -74t-65.5 -72.5t-55 -57t-29.5 -27.5q20 -14 20 -37v-561q0 -45 -24 -80q-96 25 -181 24q-39 0 -79.5 -26.5t-74.5 -67.5t-55.5 -88t-21.5 -86zM113 518q14 -12 31.5 -28.5 t35 -35t33.5 -38t27 -35.5q29 37 67.5 82t61.5 61q-10 6 -28.5 21.5t-38 35t-37 40t-27.5 34.5q-10 -16 -26.5 -36.5t-35 -40t-35 -36t-28.5 -24.5zM113 813q14 -12 31.5 -28.5t35 -35t33.5 -38t27 -35.5q29 37 67.5 82t61.5 61q-10 6 -28.5 21.5t-38 35t-37 40t-27.5 34.5 q-10 -16 -26.5 -36.5t-35 -40t-35 -36t-28.5 -24.5zM457 1483q0 -14 8 -27.5t19.5 -25t22.5 -17.5t17 -6q10 0 32 11.5t43.5 27.5t37.5 35.5t16 38.5q0 6 -13 -0.5t-29.5 -10.5t-30 3.5t-13.5 43.5q0 8 -17.5 2t-37.5 -19t-37.5 -29.5t-17.5 -26.5zM598 707v370 q14 -14 40 -42.5t50.5 -60.5t46 -59.5t29.5 -42.5q-14 -20 -42 -48.5t-55.5 -54.5t-48.5 -44zM827 1483q0 -29 26 -52.5t38 -23.5q10 0 32.5 11.5t44 27.5t38 35.5t16.5 38.5q0 6 -14.5 -0.5t-30.5 -10.5t-30.5 3.5t-14.5 43.5q0 8 -16.5 2t-36 -19t-36 -29.5t-16.5 -26.5z " />
<glyph unicode="&#xcc;" horiz-adv-x="1155" d="M-8 193q0 -53 54 -90t128 -37q47 0 90 13t65.5 25.5t26.5 14.5l20 -19q21 -18 60 -41.5t95.5 -42t127.5 -18.5q29 0 74 3t94.5 21.5t99.5 58.5t90 113.5t64.5 187.5t24.5 280q0 145 11 243.5t27.5 160.5t36 95t36 46.5t26.5 16.5t8 5q-4 6 -19 0t-45 -15.5t-75 -17.5 t-106 -8q-68 0 -125.5 15.5t-115.5 32.5t-120.5 32.5t-138.5 15.5t-156 -14.5t-146.5 -50t-108.5 -98t-42 -156.5q0 -31 10.5 -66t34 -65.5t59.5 -50t85 -19.5q37 0 66.5 11t51 25.5t32.5 30t11 25.5q0 6 -7 -2t-23.5 -21.5t-47 -25.5t-75.5 -12q-39 0 -67.5 14t-47 36.5 t-28 52.5t-9.5 58q0 43 19.5 84t56.5 72t92.5 49.5t126.5 18.5q59 0 118.5 -18.5t120 -42t122 -42t125.5 -18.5q33 0 69.5 5t57 9t22.5 4l-22 -50q-21 -50 -45.5 -127t-46 -169t-21.5 -178q0 -12 1 -33.5t1 -46.5t1 -48.5t1 -35.5q0 -115 -34 -179.5t-79 -97t-93 -39.5 t-75 -7q-35 0 -71.5 12t-69.5 27.5t-53 28.5l-21 13l21 21q22 20 22 61q0 14 -5 21l-5 6q0 -31 -13 -51.5t-25.5 -29.5t-14.5 -9l-21 24q-20 23 -53 50.5t-77 51t-89 23.5q-27 0 -53.5 -8t-48 -23.5t-34.5 -39t-13 -51.5zM31 197q0 35 31.5 57t68.5 22q35 0 71 -21.5 t65.5 -47t38.5 -35.5l28 -33q-2 -2 -21.5 -10t-57.5 -18.5t-79 -10.5q-59 0 -102 29t-43 68zM539 262q29 -25 66.5 -64.5t60.5 -72.5q29 37 67.5 82t61.5 61q-10 6 -28.5 21.5t-38 35t-37 40t-27.5 34.5q-10 -16 -26.5 -36.5t-35 -40t-35 -36t-28.5 -24.5zM539 551 q29 -23 66.5 -64t60.5 -73q14 18 31.5 39.5t35 42t33.5 38t29 25.5q-10 6 -28.5 21.5t-38 35t-37 40t-27.5 34.5q-10 -18 -26.5 -38.5t-35 -40t-35 -36t-28.5 -24.5zM541 840q29 -23 65.5 -64t59.5 -71q14 18 31.5 39.5t35 41t33.5 37t29 25.5q-10 6 -28.5 21.5t-38 35 t-37 40t-27.5 34.5q-10 -18 -26.5 -38.5t-34 -40t-34 -36t-28.5 -24.5zM575 1577l246 -164l-184 225z" />
<glyph unicode="&#xcd;" horiz-adv-x="1155" d="M-8 193q0 -53 54 -90t128 -37q47 0 90 13t65.5 25.5t26.5 14.5l20 -19q21 -18 60 -41.5t95.5 -42t127.5 -18.5q29 0 74 3t94.5 21.5t99.5 58.5t90 113.5t64.5 187.5t24.5 280q0 145 11 243.5t27.5 160.5t36 95t36 46.5t26.5 16.5t8 5q-4 6 -19 0t-45 -15.5t-75 -17.5 t-106 -8q-68 0 -125.5 15.5t-115.5 32.5t-120.5 32.5t-138.5 15.5t-156 -14.5t-146.5 -50t-108.5 -98t-42 -156.5q0 -31 10.5 -66t34 -65.5t59.5 -50t85 -19.5q37 0 66.5 11t51 25.5t32.5 30t11 25.5q0 6 -7 -2t-23.5 -21.5t-47 -25.5t-75.5 -12q-39 0 -67.5 14t-47 36.5 t-28 52.5t-9.5 58q0 43 19.5 84t56.5 72t92.5 49.5t126.5 18.5q59 0 118.5 -18.5t120 -42t122 -42t125.5 -18.5q33 0 69.5 5t57 9t22.5 4l-22 -50q-21 -50 -45.5 -127t-46 -169t-21.5 -178q0 -12 1 -33.5t1 -46.5t1 -48.5t1 -35.5q0 -115 -34 -179.5t-79 -97t-93 -39.5 t-75 -7q-35 0 -71.5 12t-69.5 27.5t-53 28.5l-21 13l21 21q22 20 22 61q0 14 -5 21l-5 6q0 -31 -13 -51.5t-25.5 -29.5t-14.5 -9l-21 24q-20 23 -53 50.5t-77 51t-89 23.5q-27 0 -53.5 -8t-48 -23.5t-34.5 -39t-13 -51.5zM-8 193q0 -53 54 -90t128 -37q47 0 90 13t65.5 25.5 t26.5 14.5l20 -19q21 -18 60 -41.5t95.5 -42t127.5 -18.5q29 0 74 3t94.5 21.5t99.5 58.5t90 113.5t64.5 187.5t24.5 280q0 145 11 243.5t27.5 160.5t36 95t36 46.5t26.5 16.5t8 5q-4 6 -19 0t-45 -15.5t-75 -17.5t-106 -8q-68 0 -125.5 15.5t-115.5 32.5t-120.5 32.5 t-138.5 15.5t-156 -14.5t-146.5 -50t-108.5 -98t-42 -156.5q0 -31 10.5 -66t34 -65.5t59.5 -50t85 -19.5q37 0 66.5 11t51 25.5t32.5 30t11 25.5q0 6 -7 -2t-23.5 -21.5t-47 -25.5t-75.5 -12q-39 0 -67.5 14t-47 36.5t-28 52.5t-9.5 58q0 43 19.5 84t56.5 72t92.5 49.5 t126.5 18.5q59 0 118.5 -18.5t120 -42t122 -42t125.5 -18.5q33 0 69.5 5t57 9t22.5 4l-22 -50q-21 -50 -45.5 -127t-46 -169t-21.5 -178q0 -12 1 -33.5t1 -46.5t1 -48.5t1 -35.5q0 -115 -34 -179.5t-79 -97t-93 -39.5t-75 -7q-35 0 -71.5 12t-69.5 27.5t-53 28.5l-21 13 l21 21q22 20 22 61q0 14 -5 21l-5 6q0 -31 -13 -51.5t-25.5 -29.5t-14.5 -9l-21 24q-20 23 -53 50.5t-77 51t-89 23.5q-27 0 -53.5 -8t-48 -23.5t-34.5 -39t-13 -51.5zM31 197q0 35 31.5 57t68.5 22q35 0 71 -21.5t65.5 -47t38.5 -35.5l28 -33q-2 -2 -21.5 -10t-57.5 -18.5 t-79 -10.5q-59 0 -102 29t-43 68zM31 197q0 35 31.5 57t68.5 22q35 0 71 -21.5t65.5 -47t38.5 -35.5l28 -33q-2 -2 -21.5 -10t-57.5 -18.5t-79 -10.5q-59 0 -102 29t-43 68zM539 262q29 -25 66.5 -64.5t60.5 -72.5q29 37 67.5 82t61.5 61q-10 6 -28.5 21.5t-38 35t-37 40 t-27.5 34.5q-10 -16 -26.5 -36.5t-35 -40t-35 -36t-28.5 -24.5zM539 262q29 -25 66.5 -64.5t60.5 -72.5q29 37 67.5 82t61.5 61q-10 6 -28.5 21.5t-38 35t-37 40t-27.5 34.5q-10 -16 -26.5 -36.5t-35 -40t-35 -36t-28.5 -24.5zM539 551q29 -23 66.5 -64t60.5 -73 q14 18 31.5 39.5t35 42t33.5 38t29 25.5q-10 6 -28.5 21.5t-38 35t-37 40t-27.5 34.5q-10 -18 -26.5 -38.5t-35 -40t-35 -36t-28.5 -24.5zM539 551q29 -23 66.5 -64t60.5 -73q14 18 31.5 39.5t35 42t33.5 38t29 25.5q-10 6 -28.5 21.5t-38 35t-37 40t-27.5 34.5 q-10 -18 -26.5 -38.5t-35 -40t-35 -36t-28.5 -24.5zM541 840q29 -23 65.5 -64t59.5 -71q14 18 31.5 39.5t35 41t33.5 37t29 25.5q-10 6 -28.5 21.5t-38 35t-37 40t-27.5 34.5q-10 -18 -26.5 -38.5t-34 -40t-34 -36t-28.5 -24.5zM541 840q29 -23 65.5 -64t59.5 -71 q14 18 31.5 39.5t35 41t33.5 37t29 25.5q-10 6 -28.5 21.5t-38 35t-37 40t-27.5 34.5q-10 -18 -26.5 -38.5t-34 -40t-34 -36t-28.5 -24.5zM698 1413l246 164l-61 61z" />
<glyph unicode="&#xce;" horiz-adv-x="1155" d="M-8 193q0 -53 54 -90t128 -37q47 0 90 13t65.5 25.5t26.5 14.5l20 -19q21 -18 60 -41.5t95.5 -42t127.5 -18.5q29 0 74 3t94.5 21.5t99.5 58.5t90 113.5t64.5 187.5t24.5 280q0 145 11 243.5t27.5 160.5t36 95t36 46.5t26.5 16.5t8 5q-4 6 -19 0t-45 -15.5t-75 -17.5 t-106 -8q-68 0 -125.5 15.5t-115.5 32.5t-120.5 32.5t-138.5 15.5t-156 -14.5t-146.5 -50t-108.5 -98t-42 -156.5q0 -31 10.5 -66t34 -65.5t59.5 -50t85 -19.5q37 0 66.5 11t51 25.5t32.5 30t11 25.5q0 6 -7 -2t-23.5 -21.5t-47 -25.5t-75.5 -12q-39 0 -67.5 14t-47 36.5 t-28 52.5t-9.5 58q0 43 19.5 84t56.5 72t92.5 49.5t126.5 18.5q59 0 118.5 -18.5t120 -42t122 -42t125.5 -18.5q33 0 69.5 5t57 9t22.5 4l-22 -50q-21 -50 -45.5 -127t-46 -169t-21.5 -178q0 -12 1 -33.5t1 -46.5t1 -48.5t1 -35.5q0 -115 -34 -179.5t-79 -97t-93 -39.5 t-75 -7q-35 0 -71.5 12t-69.5 27.5t-53 28.5l-21 13l21 21q22 20 22 61q0 14 -5 21l-5 6q0 -31 -13 -51.5t-25.5 -29.5t-14.5 -9l-21 24q-20 23 -53 50.5t-77 51t-89 23.5q-27 0 -53.5 -8t-48 -23.5t-34.5 -39t-13 -51.5zM31 197q0 35 31.5 57t68.5 22q35 0 71 -21.5 t65.5 -47t38.5 -35.5l28 -33q-2 -2 -21.5 -10t-57.5 -18.5t-79 -10.5q-59 0 -102 29t-43 68zM539 262q29 -25 66.5 -64.5t60.5 -72.5q29 37 67.5 82t61.5 61q-10 6 -28.5 21.5t-38 35t-37 40t-27.5 34.5q-10 -16 -26.5 -36.5t-35 -40t-35 -36t-28.5 -24.5zM539 551 q29 -23 66.5 -64t60.5 -73q14 18 31.5 39.5t35 42t33.5 38t29 25.5q-10 6 -28.5 21.5t-38 35t-37 40t-27.5 34.5q-10 -18 -26.5 -38.5t-35 -40t-35 -36t-28.5 -24.5zM539 1446q0 -6 25.5 10.5t56 39t57.5 43t29 20.5t27.5 -19.5t56 -43t57 -42t29.5 -16.5q12 8 39.5 35.5 t39.5 54.5q2 4 -27.5 22.5t-67.5 38t-70.5 34.5t-34.5 15t-37 -29.5t-75 -64.5t-72.5 -65.5t-32.5 -32.5zM541 840q29 -23 65.5 -64t59.5 -71q14 18 31.5 39.5t35 41t33.5 37t29 25.5q-10 6 -28.5 21.5t-38 35t-37 40t-27.5 34.5q-10 -18 -26.5 -38.5t-34 -40t-34 -36 t-28.5 -24.5z" />
<glyph unicode="&#xcf;" horiz-adv-x="1155" d="M-8 193q0 -53 54 -90t128 -37q47 0 90 13t65.5 25.5t26.5 14.5l20 -19q21 -18 60 -41.5t95.5 -42t127.5 -18.5q29 0 74 3t94.5 21.5t99.5 58.5t90 113.5t64.5 187.5t24.5 280q0 145 11 243.5t27.5 160.5t36 95t36 46.5t26.5 16.5t8 5q-4 6 -19 0t-45 -15.5t-75 -17.5 t-106 -8q-68 0 -125.5 15.5t-115.5 32.5t-120.5 32.5t-138.5 15.5t-156 -14.5t-146.5 -50t-108.5 -98t-42 -156.5q0 -31 10.5 -66t34 -65.5t59.5 -50t85 -19.5q37 0 66.5 11t51 25.5t32.5 30t11 25.5q0 6 -7 -2t-23.5 -21.5t-47 -25.5t-75.5 -12q-39 0 -67.5 14t-47 36.5 t-28 52.5t-9.5 58q0 43 19.5 84t56.5 72t92.5 49.5t126.5 18.5q59 0 118.5 -18.5t120 -42t122 -42t125.5 -18.5q33 0 69.5 5t57 9t22.5 4l-22 -50q-21 -50 -45.5 -127t-46 -169t-21.5 -178q0 -12 1 -33.5t1 -46.5t1 -48.5t1 -35.5q0 -115 -34 -179.5t-79 -97t-93 -39.5 t-75 -7q-35 0 -71.5 12t-69.5 27.5t-53 28.5l-21 13l21 21q22 20 22 61q0 14 -5 21l-5 6q0 -31 -13 -51.5t-25.5 -29.5t-14.5 -9l-21 24q-20 23 -53 50.5t-77 51t-89 23.5q-27 0 -53.5 -8t-48 -23.5t-34.5 -39t-13 -51.5zM31 197q0 35 31.5 57t68.5 22q35 0 71 -21.5 t65.5 -47t38.5 -35.5l28 -33q-2 -2 -21.5 -10t-57.5 -18.5t-79 -10.5q-59 0 -102 29t-43 68zM539 262q29 -25 66.5 -64.5t60.5 -72.5q29 37 67.5 82t61.5 61q-10 6 -28.5 21.5t-38 35t-37 40t-27.5 34.5q-10 -16 -26.5 -36.5t-35 -40t-35 -36t-28.5 -24.5zM539 551 q29 -23 66.5 -64t60.5 -73q14 18 31.5 39.5t35 42t33.5 38t29 25.5q-10 6 -28.5 21.5t-38 35t-37 40t-27.5 34.5q-10 -18 -26.5 -38.5t-35 -40t-35 -36t-28.5 -24.5zM541 840q29 -23 65.5 -64t59.5 -71q14 18 31.5 39.5t35 41t33.5 37t29 25.5q-10 6 -28.5 21.5t-38 35 t-37 40t-27.5 34.5q-10 -18 -26.5 -38.5t-34 -40t-34 -36t-28.5 -24.5zM557 1483q0 -14 8 -27.5t19.5 -25t21.5 -17.5t17 -6q12 0 33.5 11.5t43 27.5t38 35.5t16.5 38.5q0 6 -13.5 -0.5t-30 -10.5t-29.5 3.5t-13 43.5q0 8 -17.5 2t-38 -19t-38 -29.5t-17.5 -26.5zM928 1483 q0 -29 24.5 -52.5t36.5 -23.5q10 0 32.5 11.5t44 27.5t38 35.5t16.5 38.5q0 6 -13 -0.5t-30.5 -10.5t-31 3.5t-13.5 43.5q0 8 -16.5 2t-35.5 -19t-35.5 -29.5t-16.5 -26.5z" />
<glyph unicode="&#xd0;" horiz-adv-x="1445" d="M-8 70q0 -41 21.5 -68t39.5 -27q4 0 -1 5.5t-12 14.5t-14.5 23.5t-7.5 32.5q0 57 44 76.5t131 19.5q96 0 170.5 -24.5t142 -54t135.5 -54t150 -24.5q115 0 226 49t198.5 134t141.5 199.5t54 243.5q0 168 -58.5 295t-165 211t-257 126t-334.5 42q-51 0 -97 -8t-84 -19.5 t-62.5 -19.5t-33.5 -8q-4 0 -9 8t-12 19.5t-14.5 19.5t-15.5 8l-2 -18q-2 -19 -4 -34t-2 -17q-53 -106 -77.5 -168t-33 -93.5t-5.5 -42t3 -14.5l24 35q24 35 79 78t148.5 77.5t234.5 34.5q111 0 221.5 -38.5t199.5 -111.5t145 -175.5t56 -227.5q0 -88 -24.5 -177 t-63.5 -159.5t-88 -114.5t-100 -44q-33 0 -90.5 18.5t-119.5 43t-121.5 51t-94.5 43t-37 18.5l22 20q23 21 50.5 48.5t51.5 55.5t24 44v131h81q20 0 37 -1t33 9q29 18 57.5 53t50 69t31 56.5t0.5 16.5q-12 -8 -40.5 -13.5t-57.5 -5.5h-192v215q0 14 19 47t35.5 56.5 t18.5 27.5q-10 0 -47 -26.5t-79 -63.5t-74.5 -75.5t-32.5 -61.5v-119h-178q-16 0 -34 -1t-28 -9q-31 -18 -58.5 -52t-47 -67t-29.5 -55.5t-4 -17.5q14 10 54 14t79 4h246v-231q0 -16 -18 -33l-17 -17q-4 2 -35 13.5t-81 24t-91 12.5q-16 0 -60 -18.5t-91.5 -52.5t-83 -80 t-35.5 -101z" />
<glyph unicode="&#xd1;" horiz-adv-x="1261" d="M16 -35q0 -6 6.5 -27.5t25 -45t51 -41t85.5 -17.5q98 0 179 30t139.5 64.5t90.5 64.5l32 30l-11 33q-10 34 -10 94v782q0 98 10.5 135t32.5 43q2 0 9.5 -18.5t21.5 -46t33.5 -59.5t46.5 -56q49 -47 108.5 -88t110.5 -94.5t86 -126t35 -183.5t-40 -197.5t-88 -146 t-88 -91.5l-40 -32q2 0 19.5 1t45 3t49.5 2q35 0 65 -20t52.5 -44t39.5 -44.5t28 -20.5l21 29q22 29 55 62q35 37 67.5 65.5t32.5 34.5q0 2 -16.5 -6t-30 -15.5t-15.5 -9.5q-23 51 -57.5 72.5t-70 28t-62.5 2t-29 -4.5q-4 0 25 40t65.5 104.5t68.5 146.5t32 166 q0 102 -36 183t-86 144.5t-104.5 113t-93.5 92.5q-29 33 -45 69.5t-24.5 66.5t-10.5 47t-2 11q0 -25 -37.5 -56.5t-95 -66t-123 -67.5t-123 -59.5t-95.5 -43t-38 -18.5q0 -10 20.5 -5t45 13t45 10t20.5 -16v-766q0 -66 -19 -127t-56 -110.5t-88.5 -79t-112.5 -29.5 q-57 0 -92 24.5t-46.5 46t-13.5 25.5zM102 180q14 -12 32 -28.5t35 -35t33.5 -38t26.5 -33.5q14 18 32 39.5t35 41t33.5 37t28.5 25.5q-10 6 -27.5 21.5t-37 35t-37.5 40t-27 34.5q-12 -18 -28.5 -38.5t-33.5 -40t-35 -36t-30 -24.5zM102 469q14 -12 32 -28.5t35 -35 t33.5 -37t26.5 -34.5q14 18 32 39.5t35 41t33.5 37t28.5 25.5q-10 6 -27.5 21.5t-37 35t-37.5 40t-27 34.5q-12 -18 -28.5 -38.5t-33.5 -40t-35 -36t-30 -24.5zM104 760q29 -25 66 -65t59 -72q29 37 68 82t61 61q-10 6 -27.5 21.5t-37 35t-37.5 40t-27 34.5 q-12 -16 -28.5 -36.5t-33.5 -40t-34 -36t-29 -24.5zM391 1452q2 2 16.5 11.5t43 19.5t59.5 10q43 0 82 -13.5t78 -27.5t77.5 -26.5t79.5 -12.5q37 0 76 20.5t71 46t51 46.5l19 20l-28 -18q-29 -19 -74 -19q-33 0 -67.5 12.5t-72.5 28t-79 27.5t-84 12q-29 0 -71 -21.5 t-80.5 -47t-53.5 -36.5z" />
<glyph unicode="&#xd2;" horiz-adv-x="1310" d="M12 487q0 -111 54.5 -201.5t140.5 -155t189.5 -99.5t201.5 -35q57 0 130 21.5t146.5 63.5t144.5 102.5t126 137t89 168t34 195.5q0 84 -35 162t-88 145.5t-115.5 122.5t-117 94t-94.5 60.5t-46 21.5t-32.5 -16.5t-63.5 -41t-78 -53t-76 -54t-57.5 -43t-22.5 -19.5 q0 -4 17 -4q18 0 18 -10v-45q-4 0 -48 -9.5t-114.5 -39t-138 -86t-116 -150.5t-48.5 -232zM172 614q0 111 32 182.5t76 109.5t90 55.5t75.5 20.5t31.5 3v-610q0 -12 -7 -27.5t-15.5 -29t-15.5 -22.5t-7 -11l18 11q19 11 31 26l557 555l14 -17q15 -18 25 -31q8 -10 13 -19 l16 -26l-625 -624l-48 26q-48 25 -106.5 80.5t-106.5 141.5t-48 206zM227 504q27 -23 61 -58.5t52 -64.5q27 33 61.5 73t55.5 56q-10 6 -25.5 20.5t-33 32t-34 35.5t-24.5 31q-20 -33 -56.5 -71t-56.5 -54zM227 768q27 -20 61 -57t52 -66q27 35 61.5 75t55.5 56 q-10 4 -25.5 18.5t-33 32t-34 36t-24.5 30.5q-20 -31 -56.5 -70t-56.5 -55zM469 1577l246 -164l-185 225zM518 143l606 607l13.5 -27t25 -70t13.5 -100q0 -106 -49.5 -192.5t-115 -145.5t-135 -92t-108.5 -33q-70 0 -129 13.5t-88 25.5t-33 14zM641 535v542v17q0 12 1 24 t5 22.5t15 10.5q18 0 61 -25.5t90 -61.5t94 -73t75 -60.5t30 -25.5z" />
<glyph unicode="&#xd3;" horiz-adv-x="1310" d="M12 487q0 -111 54.5 -201.5t140.5 -155t189.5 -99.5t201.5 -35q57 0 130 21.5t146.5 63.5t144.5 102.5t126 137t89 168t34 195.5q0 84 -35 162t-88 145.5t-115.5 122.5t-117 94t-94.5 60.5t-46 21.5t-32.5 -16.5t-63.5 -41t-78 -53t-76 -54t-57.5 -43t-22.5 -19.5 q0 -4 17 -4q18 0 18 -10v-45q-4 0 -48 -9.5t-114.5 -39t-138 -86t-116 -150.5t-48.5 -232zM172 614q0 111 32 182.5t76 109.5t90 55.5t75.5 20.5t31.5 3v-610q0 -12 -7 -27.5t-15.5 -29t-15.5 -22.5t-7 -11l18 11q19 11 31 26l557 555l14 -17q15 -18 25 -31q8 -10 13 -19 l16 -26l-625 -624l-48 26q-48 25 -106.5 80.5t-106.5 141.5t-48 206zM227 504q27 -23 61 -58.5t52 -64.5q27 33 61.5 73t55.5 56q-10 6 -25.5 20.5t-33 32t-34 35.5t-24.5 31q-20 -33 -56.5 -71t-56.5 -54zM227 768q27 -20 61 -57t52 -66q27 35 61.5 75t55.5 56 q-10 4 -25.5 18.5t-33 32t-34 36t-24.5 30.5q-20 -31 -56.5 -70t-56.5 -55zM518 143l606 607l13.5 -27t25 -70t13.5 -100q0 -106 -49.5 -192.5t-115 -145.5t-135 -92t-108.5 -33q-70 0 -129 13.5t-88 25.5t-33 14zM641 535v542v17q0 12 1 24t5 22.5t15 10.5q18 0 61 -25.5 t90 -61.5t94 -73t75 -60.5t30 -25.5zM698 1413l246 164l-61 61z" />
<glyph unicode="&#xd4;" horiz-adv-x="1310" d="M12 487q0 -111 54.5 -201.5t140.5 -155t189.5 -99.5t201.5 -35q57 0 130 21.5t146.5 63.5t144.5 102.5t126 137t89 168t34 195.5q0 84 -35 162t-88 145.5t-115.5 122.5t-117 94t-94.5 60.5t-46 21.5t-32.5 -16.5t-63.5 -41t-78 -53t-76 -54t-57.5 -43t-22.5 -19.5 q0 -4 17 -4q18 0 18 -10v-45q-4 0 -48 -9.5t-114.5 -39t-138 -86t-116 -150.5t-48.5 -232zM172 614q0 111 32 182.5t76 109.5t90 55.5t75.5 20.5t31.5 3v-610q0 -12 -7 -27.5t-15.5 -29t-15.5 -22.5t-7 -11l18 11q19 11 31 26l557 555l14 -17q15 -18 25 -31q8 -10 13 -19 l16 -26l-625 -624l-48 26q-48 25 -106.5 80.5t-106.5 141.5t-48 206zM227 504q27 -23 61 -58.5t52 -64.5q27 33 61.5 73t55.5 56q-10 6 -25.5 20.5t-33 32t-34 35.5t-24.5 31q-20 -33 -56.5 -71t-56.5 -54zM227 768q27 -20 61 -57t52 -66q27 35 61.5 75t55.5 56 q-10 4 -25.5 18.5t-33 32t-34 36t-24.5 30.5q-20 -31 -56.5 -70t-56.5 -55zM498 1446q0 -6 25.5 10.5t56 39t57.5 43t29 20.5t27.5 -19.5t56 -43t57.5 -42t29 -16.5q12 8 39.5 35.5t39.5 54.5q2 4 -27.5 22.5t-67.5 38t-70.5 34.5t-34.5 15t-37 -29.5t-75 -64.5t-72.5 -65.5 t-32.5 -32.5zM518 143l606 607l13.5 -27t25 -70t13.5 -100q0 -106 -49.5 -192.5t-115 -145.5t-135 -92t-108.5 -33q-70 0 -129 13.5t-88 25.5t-33 14zM641 535v542v17q0 12 1 24t5 22.5t15 10.5q18 0 61 -25.5t90 -61.5t94 -73t75 -60.5t30 -25.5z" />
<glyph unicode="&#xd5;" horiz-adv-x="1310" d="M12 487q0 -111 54.5 -201.5t140.5 -155t189.5 -99.5t201.5 -35q57 0 130 21.5t146.5 63.5t144.5 102.5t126 137t89 168t34 195.5q0 84 -35 162t-88 145.5t-115.5 122.5t-117 94t-94.5 60.5t-46 21.5t-32.5 -16.5t-63.5 -41t-78 -53t-76 -54t-57.5 -43t-22.5 -19.5 q0 -4 17 -4q18 0 18 -10v-45q-4 0 -48 -9.5t-114.5 -39t-138 -86t-116 -150.5t-48.5 -232zM172 614q0 111 32 182.5t76 109.5t90 55.5t75.5 20.5t31.5 3v-610q0 -12 -7 -27.5t-15.5 -29t-15.5 -22.5t-7 -11l18 11q19 11 31 26l557 555l14 -17q15 -18 25 -31q8 -10 13 -19 l16 -26l-625 -624l-48 26q-48 25 -106.5 80.5t-106.5 141.5t-48 206zM227 504q27 -23 61 -58.5t52 -64.5q27 33 61.5 73t55.5 56q-10 6 -25.5 20.5t-33 32t-34 35.5t-24.5 31q-20 -33 -56.5 -71t-56.5 -54zM227 768q27 -20 61 -57t52 -66q27 35 61.5 75t55.5 56 q-10 4 -25.5 18.5t-33 32t-34 36t-24.5 30.5q-20 -31 -56.5 -70t-56.5 -55zM438 1462q2 2 16.5 11.5t43 19.5t57.5 10q43 0 83 -13t79 -27.5t78 -27t79 -12.5q37 0 76 20.5t70 46.5t50 46l20 20l-28 -18q-28 -18 -73 -18q-33 0 -67.5 12t-72.5 26.5t-79 26.5t-86 12 q-29 0 -70 -21.5t-80.5 -46t-53.5 -35.5zM518 143l606 607l13.5 -27t25 -70t13.5 -100q0 -106 -49.5 -192.5t-115 -145.5t-135 -92t-108.5 -33q-70 0 -129 13.5t-88 25.5t-33 14zM641 535v542v17q0 12 1 24t5 22.5t15 10.5q18 0 61 -25.5t90 -61.5t94 -73t75 -60.5t30 -25.5 z" />
<glyph unicode="&#xd6;" horiz-adv-x="1310" d="M12 487q0 -111 54.5 -201.5t140.5 -155t189.5 -99.5t201.5 -35q57 0 130 21.5t146.5 63.5t144.5 102.5t126 137t89 168t34 195.5q0 84 -35 162t-88 145.5t-115.5 122.5t-117 94t-94.5 60.5t-46 21.5t-32.5 -16.5t-63.5 -41t-78 -53t-76 -54t-57.5 -43t-22.5 -19.5 q0 -4 17 -4q18 0 18 -10v-45q-4 0 -48 -9.5t-114.5 -39t-138 -86t-116 -150.5t-48.5 -232zM172 614q0 111 32 182.5t76 109.5t90 55.5t75.5 20.5t31.5 3v-610q0 -12 -7 -27.5t-15.5 -29t-15.5 -22.5t-7 -11l18 11q19 11 31 26l557 555l14 -17q15 -18 25 -31q8 -10 13 -19 l16 -26l-625 -624l-48 26q-48 25 -106.5 80.5t-106.5 141.5t-48 206zM227 504q27 -23 61 -58.5t52 -64.5q27 33 61.5 73t55.5 56q-10 6 -25.5 20.5t-33 32t-34 35.5t-24.5 31q-20 -33 -56.5 -71t-56.5 -54zM227 768q27 -20 61 -57t52 -66q27 35 61.5 75t55.5 56 q-10 4 -25.5 18.5t-33 32t-34 36t-24.5 30.5q-20 -31 -56.5 -70t-56.5 -55zM395 1483q0 -14 8.5 -27.5t19.5 -25t21.5 -17.5t16.5 -6q12 0 33.5 11.5t43 27.5t38 35.5t16.5 38.5q0 6 -13.5 -0.5t-30 -10.5t-29.5 3.5t-13 43.5q0 8 -17.5 2t-38 -19t-38 -29.5t-17.5 -26.5z M518 143l606 607l13.5 -27t25 -70t13.5 -100q0 -106 -49.5 -192.5t-115 -145.5t-135 -92t-108.5 -33q-70 0 -129 13.5t-88 25.5t-33 14zM641 535v542v17q0 12 1 24t5 22.5t15 10.5q18 0 61 -25.5t90 -61.5t94 -73t75 -60.5t30 -25.5zM764 1483q0 -29 25.5 -52.5t37.5 -23.5 q10 0 33 11.5t44.5 27.5t37.5 35.5t16 38.5q0 6 -13 -0.5t-30.5 -10.5t-31 3.5t-13.5 43.5q0 8 -16 2t-36.5 -19t-37 -29.5t-16.5 -26.5z" />
<glyph unicode="&#xd7;" horiz-adv-x="1212" d="M0 0h184l394 391l389 -391h184l-483 485l483 482h-184l-392 -392l-391 392h-184l483 -484z" />
<glyph unicode="&#xd8;" horiz-adv-x="1310" d="M12 487q0 -106 50.5 -193t130.5 -153l-144 -143h103l100 102q80 -51 170 -77.5t176 -26.5q57 0 130 21.5t146.5 63.5t144.5 102.5t126 137t89 168t34 195.5q0 86 -35 163t-88 144l153 156h-100l-100 -100q-51 55 -106.5 99t-102.5 76.5t-79 50t-38 17.5t-32.5 -16.5 t-63.5 -41t-78 -53t-76 -54t-57.5 -43t-22.5 -19.5q6 0 20.5 -4t14.5 -15v-40q-4 0 -48 -9.5t-114.5 -39t-138 -86t-116 -150.5t-48.5 -232zM172 614q0 111 32 182.5t76 109.5t90 55.5t75.5 20.5t31.5 3v-559l-155 -156q-55 55 -102.5 140.5t-47.5 203.5zM227 504 q27 -23 61 -58.5t52 -64.5q27 33 61.5 73t55.5 56q-10 6 -25.5 20.5t-33 32t-34 35.5t-24.5 31q-20 -33 -56.5 -71t-56.5 -54zM227 768q27 -20 61 -57t52 -66q27 35 61.5 75t55.5 56q-10 4 -25.5 18.5t-33 32t-34 36t-24.5 30.5q-20 -31 -56.5 -70t-56.5 -55zM377 223 l657 658q18 -18 41 -49t31 -48l-625 -624l-31 15q-32 15 -73 48zM518 143l606 607l13.5 -27t25 -70t13.5 -100q0 -106 -49.5 -192.5t-115 -145.5t-135 -92t-108.5 -33q-70 0 -129 13.5t-88 25.5t-33 14zM641 592v485v17q0 12 1 24t5 22.5t15 10.5q25 0 78 -35t107 -76 t75 -58l61 -52z" />
<glyph unicode="&#xd9;" horiz-adv-x="1351" d="M-2 41q0 -41 18.5 -61.5t40 -27.5t40 -5t18.5 6q0 6 -13.5 7t-29 7t-28.5 20.5t-13 49.5q0 25 10 49.5t28.5 44t44 32.5t56.5 13q53 0 99 -28.5t98.5 -62.5t117 -61.5t154.5 -27.5q49 0 117.5 13.5t140.5 40t142.5 64.5t126 88t90 111.5t34.5 132.5q0 61 -15 127 t-34.5 124.5t-35 105.5t-15.5 76t16.5 52t32.5 42l31 6q30 6 66 26.5t67 58.5t31 99q0 39 -20.5 62.5t-22.5 23.5q-8 0 -4 -18.5t4 -42.5q0 -45 -20.5 -60.5t-51.5 -15.5q-29 0 -63.5 8t-70.5 18.5t-72 18.5t-64 8q-25 0 -60 -11t-67.5 -30.5t-56 -48t-23.5 -65.5 q0 -18 6 -26.5t6 -4.5q0 23 11.5 42t35.5 19q12 0 40 -11t64.5 -25.5t77.5 -25.5t82 -11h27q0 -18 -19.5 -41t-43 -54.5t-43 -74.5t-19.5 -101q0 -49 9 -103t20.5 -103.5t20.5 -91.5t9 -66q0 -43 -14 -84t-48 -72t-89 -49t-137 -18q-47 0 -106.5 19t-113 42t-88.5 42l-36 19 q78 45 127 78t76.5 57.5t36.5 41t9 26.5v680q1 26 21 53q51 4 92 35t70.5 69t46 73.5t16.5 52.5q0 8 -10 -6.5t-30.5 -34t-49.5 -38t-68 -18.5q-53 0 -103 11.5t-97 25t-93 24.5t-92 11q-68 0 -122 -23.5t-91.5 -57.5t-58 -74.5t-20.5 -73.5q0 -43 16 -72t34.5 -43t35 -18 t16.5 2q0 4 -10 10t-23.5 18.5t-24 35t-10.5 57.5q0 33 17.5 52t39 29.5t41 13.5t23.5 3q6 0 52.5 -9.5t110 -21.5t134 -22.5t127.5 -10.5q-27 -20 -56.5 -47.5t-55 -54.5t-43 -49.5t-17.5 -32.5v-537q0 -66 -17.5 -119t-60.5 -89q-4 2 -31.5 10t-73.5 17t-85 9 q-59 0 -112.5 -19t-94.5 -52t-64.5 -75t-23.5 -87zM229 487q29 -23 68 -62.5t61 -72.5q14 18 32 40t35 41.5t33.5 36.5t28.5 26q-10 6 -28.5 21t-38 34.5t-37.5 40t-27 35.5q-12 -18 -28.5 -39t-34 -40.5t-35 -36t-29.5 -24.5zM229 782q29 -23 68 -62.5t61 -72.5 q14 18 32 40t35 41.5t33.5 36.5t28.5 26q-10 6 -28.5 21t-38 34.5t-37.5 40t-27 35.5q-12 -18 -28.5 -39t-34 -40.5t-35 -36t-29.5 -24.5zM641 1577l246 -164l-185 225z" />
<glyph unicode="&#xda;" horiz-adv-x="1351" d="M-2 41q0 -41 18.5 -61.5t40 -27.5t40 -5t18.5 6q0 6 -13.5 7t-29 7t-28.5 20.5t-13 49.5q0 25 10 49.5t28.5 44t44 32.5t56.5 13q53 0 99 -28.5t98.5 -62.5t117 -61.5t154.5 -27.5q49 0 117.5 13.5t140.5 40t142.5 64.5t126 88t90 111.5t34.5 132.5q0 61 -15 127 t-34.5 124.5t-35 105.5t-15.5 76t16.5 52t32.5 42l31 6q30 6 66 26.5t67 58.5t31 99q0 39 -20.5 62.5t-22.5 23.5q-8 0 -4 -18.5t4 -42.5q0 -45 -20.5 -60.5t-51.5 -15.5q-29 0 -63.5 8t-70.5 18.5t-72 18.5t-64 8q-25 0 -60 -11t-67.5 -30.5t-56 -48t-23.5 -65.5 q0 -18 6 -26.5t6 -4.5q0 23 11.5 42t35.5 19q12 0 40 -11t64.5 -25.5t77.5 -25.5t82 -11h27q0 -18 -19.5 -41t-43 -54.5t-43 -74.5t-19.5 -101q0 -49 9 -103t20.5 -103.5t20.5 -91.5t9 -66q0 -43 -14 -84t-48 -72t-89 -49t-137 -18q-47 0 -106.5 19t-113 42t-88.5 42l-36 19 q78 45 127 78t76.5 57.5t36.5 41t9 26.5v680q1 26 21 53q51 4 92 35t70.5 69t46 73.5t16.5 52.5q0 8 -10 -6.5t-30.5 -34t-49.5 -38t-68 -18.5q-53 0 -103 11.5t-97 25t-93 24.5t-92 11q-68 0 -122 -23.5t-91.5 -57.5t-58 -74.5t-20.5 -73.5q0 -43 16 -72t34.5 -43t35 -18 t16.5 2q0 4 -10 10t-23.5 18.5t-24 35t-10.5 57.5q0 33 17.5 52t39 29.5t41 13.5t23.5 3q6 0 52.5 -9.5t110 -21.5t134 -22.5t127.5 -10.5q-27 -20 -56.5 -47.5t-55 -54.5t-43 -49.5t-17.5 -32.5v-537q0 -66 -17.5 -119t-60.5 -89q-4 2 -31.5 10t-73.5 17t-85 9 q-59 0 -112.5 -19t-94.5 -52t-64.5 -75t-23.5 -87zM229 487q29 -23 68 -62.5t61 -72.5q14 18 32 40t35 41.5t33.5 36.5t28.5 26q-10 6 -28.5 21t-38 34.5t-37.5 40t-27 35.5q-12 -18 -28.5 -39t-34 -40.5t-35 -36t-29.5 -24.5zM229 782q29 -23 68 -62.5t61 -72.5 q14 18 32 40t35 41.5t33.5 36.5t28.5 26q-10 6 -28.5 21t-38 34.5t-37.5 40t-27 35.5q-12 -18 -28.5 -39t-34 -40.5t-35 -36t-29.5 -24.5zM854 1413l246 164l-62 61z" />
<glyph unicode="&#xdb;" horiz-adv-x="1351" d="M-2 41q0 -41 18.5 -61.5t40 -27.5t40 -5t18.5 6q0 6 -13.5 7t-29 7t-28.5 20.5t-13 49.5q0 25 10 49.5t28.5 44t44 32.5t56.5 13q53 0 99 -28.5t98.5 -62.5t117 -61.5t154.5 -27.5q49 0 117.5 13.5t140.5 40t142.5 64.5t126 88t90 111.5t34.5 132.5q0 61 -15 127 t-34.5 124.5t-35 105.5t-15.5 76t16.5 52t32.5 42l31 6q30 6 66 26.5t67 58.5t31 99q0 39 -20.5 62.5t-22.5 23.5q-8 0 -4 -18.5t4 -42.5q0 -45 -20.5 -60.5t-51.5 -15.5q-29 0 -63.5 8t-70.5 18.5t-72 18.5t-64 8q-25 0 -60 -11t-67.5 -30.5t-56 -48t-23.5 -65.5 q0 -18 6 -26.5t6 -4.5q0 23 11.5 42t35.5 19q12 0 40 -11t64.5 -25.5t77.5 -25.5t82 -11h27q0 -18 -19.5 -41t-43 -54.5t-43 -74.5t-19.5 -101q0 -49 9 -103t20.5 -103.5t20.5 -91.5t9 -66q0 -43 -14 -84t-48 -72t-89 -49t-137 -18q-47 0 -106.5 19t-113 42t-88.5 42l-36 19 q78 45 127 78t76.5 57.5t36.5 41t9 26.5v680q1 26 21 53q51 4 92 35t70.5 69t46 73.5t16.5 52.5q0 8 -10 -6.5t-30.5 -34t-49.5 -38t-68 -18.5q-53 0 -103 11.5t-97 25t-93 24.5t-92 11q-68 0 -122 -23.5t-91.5 -57.5t-58 -74.5t-20.5 -73.5q0 -43 16 -72t34.5 -43t35 -18 t16.5 2q0 4 -10 10t-23.5 18.5t-24 35t-10.5 57.5q0 33 17.5 52t39 29.5t41 13.5t23.5 3q6 0 52.5 -9.5t110 -21.5t134 -22.5t127.5 -10.5q-27 -20 -56.5 -47.5t-55 -54.5t-43 -49.5t-17.5 -32.5v-537q0 -66 -17.5 -119t-60.5 -89q-4 2 -31.5 10t-73.5 17t-85 9 q-59 0 -112.5 -19t-94.5 -52t-64.5 -75t-23.5 -87zM229 487q29 -23 68 -62.5t61 -72.5q14 18 32 40t35 41.5t33.5 36.5t28.5 26q-10 6 -28.5 21t-38 34.5t-37.5 40t-27 35.5q-12 -18 -28.5 -39t-34 -40.5t-35 -36t-29.5 -24.5zM229 782q29 -23 68 -62.5t61 -72.5 q14 18 32 40t35 41.5t33.5 36.5t28.5 26q-10 6 -28.5 21t-38 34.5t-37.5 40t-27 35.5q-12 -18 -28.5 -39t-34 -40.5t-35 -36t-29.5 -24.5zM809 1446q0 -6 25.5 10.5t56.5 39t57.5 43t28.5 20.5t27.5 -19.5t56.5 -43t57.5 -42t28.5 -16.5q12 8 39.5 35.5t40.5 54.5 q2 4 -28 22.5t-67.5 38t-70.5 34.5t-35 15t-37 -29.5t-75 -64.5t-72.5 -65.5t-32.5 -32.5z" />
<glyph unicode="&#xdc;" horiz-adv-x="1351" d="M-2 41q0 -41 18.5 -61.5t40 -27.5t40 -5t18.5 6q0 6 -13.5 7t-29 7t-28.5 20.5t-13 49.5q0 25 10 49.5t28.5 44t44 32.5t56.5 13q53 0 99 -28.5t98.5 -62.5t117 -61.5t154.5 -27.5q49 0 117.5 13.5t140.5 40t142.5 64.5t126 88t90 111.5t34.5 132.5q0 61 -15 127 t-34.5 124.5t-35 105.5t-15.5 76t16.5 52t32.5 42l31 6q30 6 66 26.5t67 58.5t31 99q0 39 -20.5 62.5t-22.5 23.5q-8 0 -4 -18.5t4 -42.5q0 -45 -20.5 -60.5t-51.5 -15.5q-29 0 -63.5 8t-70.5 18.5t-72 18.5t-64 8q-25 0 -60 -11t-67.5 -30.5t-56 -48t-23.5 -65.5 q0 -18 6 -26.5t6 -4.5q0 23 11.5 42t35.5 19q12 0 40 -11t64.5 -25.5t77.5 -25.5t82 -11h27q0 -18 -19.5 -41t-43 -54.5t-43 -74.5t-19.5 -101q0 -49 9 -103t20.5 -103.5t20.5 -91.5t9 -66q0 -43 -14 -84t-48 -72t-89 -49t-137 -18q-47 0 -106.5 19t-113 42t-88.5 42l-36 19 q78 45 127 78t76.5 57.5t36.5 41t9 26.5v680q1 26 21 53q51 4 92 35t70.5 69t46 73.5t16.5 52.5q0 8 -10 -6.5t-30.5 -34t-49.5 -38t-68 -18.5q-53 0 -103 11.5t-97 25t-93 24.5t-92 11q-68 0 -122 -23.5t-91.5 -57.5t-58 -74.5t-20.5 -73.5q0 -43 16 -72t34.5 -43t35 -18 t16.5 2q0 4 -10 10t-23.5 18.5t-24 35t-10.5 57.5q0 33 17.5 52t39 29.5t41 13.5t23.5 3q6 0 52.5 -9.5t110 -21.5t134 -22.5t127.5 -10.5q-27 -20 -56.5 -47.5t-55 -54.5t-43 -49.5t-17.5 -32.5v-537q0 -66 -17.5 -119t-60.5 -89q-4 2 -31.5 10t-73.5 17t-85 9 q-59 0 -112.5 -19t-94.5 -52t-64.5 -75t-23.5 -87zM229 487q29 -23 68 -62.5t61 -72.5q14 18 32 40t35 41.5t33.5 36.5t28.5 26q-10 6 -28.5 21t-38 34.5t-37.5 40t-27 35.5q-12 -18 -28.5 -39t-34 -40.5t-35 -36t-29.5 -24.5zM229 782q29 -23 68 -62.5t61 -72.5 q14 18 32 40t35 41.5t33.5 36.5t28.5 26q-10 6 -28.5 21t-38 34.5t-37.5 40t-27 35.5q-12 -18 -28.5 -39t-34 -40.5t-35 -36t-29.5 -24.5zM731 1516q0 -14 8.5 -27.5t19.5 -25t22.5 -17.5t17.5 -6q10 0 32.5 11t44 27.5t38 36t16.5 37.5q0 6 -13.5 0t-31 -10t-30.5 3t-13 44 q0 8 -17.5 2t-38 -19t-38 -29.5t-17.5 -26.5zM1102 1516q0 -29 25.5 -52.5t37.5 -23.5q10 0 32 11t44.5 27.5t38.5 36t16 37.5q0 6 -14 0t-30.5 -10t-31 3t-14.5 44q0 8 -16 2t-35.5 -19t-36 -29.5t-16.5 -26.5z" />
<glyph unicode="&#xdd;" horiz-adv-x="1284" d="M4 -197q0 -45 19.5 -78.5t42 -55t42 -30t19.5 -1.5q0 6 -13.5 16t-28.5 27.5t-27.5 40t-12.5 53.5q0 27 10.5 57.5t29.5 57t51 44t75 17.5q37 0 94 -13.5t119.5 -36t126 -50t115 -58.5t83 -59.5t31.5 -50.5q0 -4 2 -5q10 0 38 18.5t64 50.5t73.5 72t69.5 85t52.5 91 t20.5 87v893l44 5t97 23.5t97 56.5t44 103q0 18 -8 36t-17 29t-16.5 15t-5.5 -4q10 -25 12.5 -36t2.5 -29q0 -39 -23.5 -54.5t-60.5 -16.5t-82 8t-88 20.5t-79 20.5t-54 9q-47 0 -77 -16.5t-47.5 -39t-23.5 -50t-6 -47.5t4 -31.5t4 -5.5q0 33 20.5 43t49.5 10q8 0 32.5 -8 t51 -17.5t49 -16.5t27.5 -7q0 -45 -18.5 -71.5t-40 -47t-40 -43t-18.5 -59.5v-824q0 -63 -11.5 -87t-25.5 -40q-37 70 -108.5 121t-153.5 83t-162 47.5t-129 15.5q-72 0 -132.5 -23.5t-106.5 -62.5t-71.5 -86.5t-25.5 -94.5zM193 567q29 -23 66.5 -63.5t59.5 -71.5 q14 18 32 40t35 41t33.5 36.5t29.5 25.5q-10 6 -29 21.5t-38.5 35t-37.5 40t-27 35.5q-12 -18 -28.5 -39t-33.5 -40.5t-33.5 -36t-28.5 -24.5zM193 862q29 -23 66.5 -63.5t59.5 -71.5q14 18 32 39.5t35 41t33.5 37t29.5 25.5q-10 6 -29 21.5t-38.5 35t-37.5 40t-27 34.5 q-12 -18 -28.5 -38.5t-33.5 -40t-33.5 -36t-28.5 -24.5zM326 254q-14 -10 20.5 -13t102 -23.5t158.5 -69t192 -148.5q0 -2 25.5 16.5t54 44t52 49t21.5 29.5q-4 12 -11 9t-18.5 -7t-26 -2t-30.5 25q-41 53 -100 91t-114.5 62.5t-94.5 36.5l-39 11q37 25 78 46t75 43.5 t55.5 51.5t21.5 67v541q0 10 -32 24.5t-71 39t-70.5 62.5t-31.5 93q0 39 13 62.5t28.5 39t29 22.5t13.5 13q0 4 -39 -8t-85 -45t-84 -85t-38 -126q0 -43 13.5 -67.5t35 -39t45 -22.5t45 -18t34.5 -26.5t13 -47.5v-483q0 -53 -68.5 -119t-172.5 -129zM854 1413l246 164 l-62 61z" />
<glyph unicode="&#xde;" horiz-adv-x="944" d="M0 193q0 -23 10 -39.5t23.5 -26.5t28 -16.5t20.5 -6.5q16 0 15 4l-1 3q-2 0 -17.5 2t-32.5 17t-17 46q0 41 25.5 55.5t47.5 14.5q25 0 72 -14.5t93 -33t81 -32.5l35 -14v-353q0 -35 -25.5 -69.5t-76.5 -34.5q-18 0 -49 10t-31 47q0 18 14 32l14 13q-29 0 -40 -23.5 t-11 -31.5q0 -27 24.5 -54.5t78.5 -27.5q27 0 77 22.5t99 50t86 51.5l37 23q0 2 -4.5 20.5t-8.5 47.5t-4 51v164q2 2 36 27.5t86 78t101.5 125t85 168t35.5 205.5q0 88 -23.5 154.5t-52 114t-52 78t-23.5 46.5q0 2 -1 13.5t-4 25t-7.5 23.5t-10.5 10q-2 0 -21.5 -19.5 l-45 -45t-54 -53t-49.5 -42.5v256q0 25 -12 47.5t-27.5 40t-30 28.5t-18.5 11t-6 14.5t-4 32t-4 32t-6 14.5q-2 0 -31 -27t-61.5 -59.5l-59 -59t-24.5 -26.5q8 0 26.5 -7.5t34.5 -21.5t29.5 -34.5t13.5 -47.5v-873l-23 9q-24 10 -55 21t-61.5 20.5t-44.5 9.5 q-31 0 -67 -20.5t-64.5 -50t-48 -61.5t-19.5 -54zM92 551q14 -12 31.5 -28.5t35 -35t34 -38t26.5 -35.5q14 18 31.5 39.5t35 42t34 38t28.5 25.5q-10 6 -27.5 21.5t-38 35t-38 40t-27.5 34.5q-10 -18 -26.5 -38.5t-35 -40t-35 -36t-28.5 -24.5zM94 840q14 -12 31.5 -28.5 t35 -35t33 -38t25.5 -33.5q14 18 31.5 39.5t35 41t34 37t28.5 25.5q-10 6 -27.5 21.5t-38 35t-38 40t-27.5 34.5q-10 -18 -26.5 -38.5t-34 -40t-34 -36t-28.5 -24.5zM563 250v649q0 39 8.5 65.5t28.5 26.5q12 0 37 -34.5t49.5 -88t43 -120t18.5 -127.5q0 -66 -19.5 -134.5 t-43 -125t-43 -93.5t-21.5 -37q-16 0 -37 9z" />
<glyph unicode="&#xdf;" horiz-adv-x="911" d="M68 860h69v-225q0 -8 4 -58.5t11.5 -121t15.5 -150.5t17.5 -147.5t16.5 -112.5t13 -45q4 0 17.5 29.5t27.5 80t28.5 115t24 135t11.5 142t-9 133.5l-57 332q-8 43 -17.5 100t-9.5 92q0 59 40 73.5t85 14.5q41 0 82 -48t74 -106.5t53.5 -108.5t20.5 -54q0 -2 -30 -33 t-65.5 -72t-65.5 -84t-30 -69q0 -25 9.5 -53.5t25.5 -54t36.5 -42t45.5 -16.5q12 0 29.5 12t35 26.5t31 27t17.5 12.5q51 0 84.5 -55.5t33.5 -159.5q0 -63 -12 -113.5t-25.5 -83.5t-25.5 -47t-12 -8q0 4 -12.5 18.5t-32 30.5t-43 29.5t-48.5 13.5q-4 0 -7 7t-5 14.5t-5 14.5 t-5 7q-8 0 -15.5 -20.5t-13.5 -20.5q-8 0 -23.5 -18.5t-29.5 -40t-23.5 -39t-3.5 -17.5q4 0 9.5 2t11.5 2q23 0 46.5 -15t45 -34.5t40.5 -35t34 -15.5q4 0 49 36t98 96.5t97.5 138t44.5 161.5q0 76 -15.5 126t-37 80t-45 42t-40.5 12q-12 0 -29.5 -14t-37 -30.5t-39 -31 t-35.5 -14.5q-14 0 -28.5 14.5t-27 38t-19.5 51t-7 52.5q0 43 31 81t67.5 71.5t67.5 63.5t31 58q0 12 -27 54t-73 87.5t-108 81t-132 35.5q-49 0 -92 -11t-75 -47t-50.5 -102.5t-18.5 -179.5q-20 -16 -44.5 -40.5t-24.5 -49.5z" />
<glyph unicode="&#xe0;" horiz-adv-x="702" d="M92 254q0 -43 20.5 -88t46 -82t49 -60.5t30.5 -23.5q8 0 31.5 17.5t48 39t46 43l27.5 27.5q10 10 19.5 28.5t16.5 37t12 32t12 13.5q2 0 4 -16.5t7 -41t16 -51.5t30 -47v-49q0 -4 -11.5 -20.5t-7.5 -16.5q8 0 46 21.5t81 48t78 50t35 27.5t-14.5 3t-20.5 -1 q-18 0 -35.5 24t-33 57.5t-24.5 73.5t-9 73v354q0 25 7 43t14.5 31.5t14.5 23t7 13.5q0 8 -10.5 13t-25.5 9t-31.5 12.5t-26.5 22.5q-16 25 -24.5 50.5t-24.5 25.5q-10 0 -44 -21.5t-63 -42.5q-16 -12 -49 -24.5t-71 -28.5t-74.5 -39.5t-61.5 -58.5q-12 -18 -20.5 -54 t-11.5 -78t-4 -81t-1 -62v-227zM252 381v301q0 43 11 73.5t27.5 50t34 29t29.5 9.5q4 0 23.5 -14.5t34.5 -30.5q10 -12 15 -42t5 -61v-270q0 -29 -2 -48t-6 -48q0 -10 -10.5 -38t-24.5 -56.5t-27.5 -51t-19.5 -22.5q-10 0 -25.5 11t-30 38t-24.5 67.5t-10 102.5zM289 1274 l246 -164l-185 225z" />
<glyph unicode="&#xe1;" horiz-adv-x="702" d="M92 254q0 -43 20.5 -88t46 -82t49 -60.5t30.5 -23.5q8 0 31.5 17.5t48 39t46 43l27.5 27.5q10 10 19.5 28.5t16.5 37t12 32t12 13.5q2 0 4 -16.5t7 -41t16 -51.5t30 -47v-49q0 -4 -11.5 -20.5t-7.5 -16.5q8 0 46 21.5t81 48t78 50t35 27.5t-14.5 3t-20.5 -1 q-18 0 -35.5 24t-33 57.5t-24.5 73.5t-9 73v354q0 25 7 43t14.5 31.5t14.5 23t7 13.5q0 8 -10.5 13t-25.5 9t-31.5 12.5t-26.5 22.5q-16 25 -24.5 50.5t-24.5 25.5q-10 0 -44 -21.5t-63 -42.5q-16 -12 -49 -24.5t-71 -28.5t-74.5 -39.5t-61.5 -58.5q-12 -18 -20.5 -54 t-11.5 -78t-4 -81t-1 -62v-227zM252 381v301q0 43 11 73.5t27.5 50t34 29t29.5 9.5q4 0 23.5 -14.5t34.5 -30.5q10 -12 15 -42t5 -61v-270q0 -29 -2 -48t-6 -48q0 -10 -10.5 -38t-24.5 -56.5t-27.5 -51t-19.5 -22.5q-10 0 -25.5 11t-30 38t-24.5 67.5t-10 102.5zM297 1110 l246 164l-62 61z" />
<glyph unicode="&#xe2;" horiz-adv-x="702" d="M92 254q0 -43 20.5 -88t46 -82t49 -60.5t30.5 -23.5q8 0 31.5 17.5t48 39t46 43l27.5 27.5q10 10 19.5 28.5t16.5 37t12 32t12 13.5q2 0 4 -16.5t7 -41t16 -51.5t30 -47v-49q0 -4 -11.5 -20.5t-7.5 -16.5q8 0 46 21.5t81 48t78 50t35 27.5t-14.5 3t-20.5 -1 q-18 0 -35.5 24t-33 57.5t-24.5 73.5t-9 73v354q0 25 7 43t14.5 31.5t14.5 23t7 13.5q0 8 -10.5 13t-25.5 9t-31.5 12.5t-26.5 22.5q-16 25 -24.5 50.5t-24.5 25.5q-10 0 -44 -21.5t-63 -42.5q-16 -12 -49 -24.5t-71 -28.5t-74.5 -39.5t-61.5 -58.5q-12 -18 -20.5 -54 t-11.5 -78t-4 -81t-1 -62v-227zM170 1130q0 -6 21.5 8.5t47 34t47 36t23.5 16.5l21 -15q22 -16 47.5 -35.5t48.5 -35t25 -15.5q4 0 15 7.5t22.5 18.5t19.5 24.5t8 25.5q0 2 -25.5 17.5t-56.5 31t-57.5 28.5t-28.5 13l-28 -24q-29 -25 -62 -53.5t-60.5 -54.5t-27.5 -28z M252 381v301q0 43 11 73.5t27.5 50t34 29t29.5 9.5q4 0 23.5 -14.5t34.5 -30.5q10 -12 15 -42t5 -61v-270q0 -29 -2 -48t-6 -48q0 -10 -10.5 -38t-24.5 -56.5t-27.5 -51t-19.5 -22.5q-10 0 -25.5 11t-30 38t-24.5 67.5t-10 102.5z" />
<glyph unicode="&#xe3;" horiz-adv-x="702" d="M82 1169l22 17q23 18 53.5 38.5t64.5 38t57 17.5q37 0 69.5 -10t62 -21.5t57.5 -21.5t54 -10q35 0 58 14l22 14l-16 -17q-15 -16 -39.5 -36.5t-55 -36.5t-59.5 -16q-35 0 -65.5 10t-62.5 22.5t-63.5 22.5t-66.5 10q-25 0 -46.5 -8t-32.5 -16.5t-13 -10.5zM92 254 q0 -43 20.5 -88t46 -82t49 -60.5t30.5 -23.5q8 0 31.5 17.5t48 39t46 43l27.5 27.5q10 10 19.5 28.5t16.5 37t12 32t12 13.5q2 0 4 -16.5t7 -41t16 -51.5t30 -47v-49q0 -4 -11.5 -20.5t-7.5 -16.5q8 0 46 21.5t81 48t78 50t35 27.5t-14.5 3t-20.5 -1q-18 0 -35.5 24 t-33 57.5t-24.5 73.5t-9 73v354q0 25 7 43t14.5 31.5t14.5 23t7 13.5q0 8 -10.5 13t-25.5 9t-31.5 12.5t-26.5 22.5q-16 25 -24.5 50.5t-24.5 25.5q-10 0 -44 -21.5t-63 -42.5q-16 -12 -49 -24.5t-71 -28.5t-74.5 -39.5t-61.5 -58.5q-12 -18 -20.5 -54t-11.5 -78t-4 -81 t-1 -62v-227zM252 381v301q0 43 11 73.5t27.5 50t34 29t29.5 9.5q4 0 23.5 -14.5t34.5 -30.5q10 -12 15 -42t5 -61v-270q0 -29 -2 -48t-6 -48q0 -10 -10.5 -38t-24.5 -56.5t-27.5 -51t-19.5 -22.5q-10 0 -25.5 11t-30 38t-24.5 67.5t-10 102.5z" />
<glyph unicode="&#xe4;" horiz-adv-x="702" d="M92 254q0 -43 20.5 -88t46 -82t49 -60.5t30.5 -23.5q8 0 31.5 17.5t48 39t46 43l27.5 27.5q10 10 19.5 28.5t16.5 37t12 32t12 13.5q2 0 4 -16.5t7 -41t16 -51.5t30 -47v-49q0 -4 -11.5 -20.5t-7.5 -16.5q8 0 46 21.5t81 48t78 50t35 27.5t-14.5 3t-20.5 -1 q-18 0 -35.5 24t-33 57.5t-24.5 73.5t-9 73v354q0 25 7 43t14.5 31.5t14.5 23t7 13.5q0 8 -10.5 13t-25.5 9t-31.5 12.5t-26.5 22.5q-16 25 -24.5 50.5t-24.5 25.5q-10 0 -44 -21.5t-63 -42.5q-16 -12 -49 -24.5t-71 -28.5t-74.5 -39.5t-61.5 -58.5q-12 -18 -20.5 -54 t-11.5 -78t-4 -81t-1 -62v-227zM123 1151q0 -25 21.5 -43t31.5 -18q8 0 26.5 9t36 22.5t31 28.5t13.5 30q0 6 -11.5 0t-25 -9.5t-24.5 3t-11 34.5q0 6 -13.5 1t-30.5 -15t-30.5 -22.5t-13.5 -20.5zM252 381v301q0 43 11 73.5t27.5 50t34 29t29.5 9.5q4 0 23.5 -14.5 t34.5 -30.5q10 -12 15 -42t5 -61v-270q0 -29 -2 -48t-6 -48q0 -10 -10.5 -38t-24.5 -56.5t-27.5 -51t-19.5 -22.5q-10 0 -25.5 11t-30 38t-24.5 67.5t-10 102.5zM406 1151q0 -25 19 -43t30 -18q8 0 26.5 9t36 22.5t30.5 28.5t13 30q0 6 -11 0t-25.5 -9.5t-26 3t-11.5 34.5 q0 6 -13 1t-28.5 -16t-27.5 -23.5t-12 -18.5z" />
<glyph unicode="&#xe5;" horiz-adv-x="702" d="M92 254q0 -43 20.5 -88t46 -82t49 -60.5t30.5 -23.5q8 0 31.5 17.5t48 39t46 43l27.5 27.5q10 10 19.5 28.5t16.5 37t12 32t12 13.5q2 0 4 -16.5t7 -41t16 -51.5t30 -47v-49q0 -4 -11.5 -20.5t-7.5 -16.5q8 0 46 21.5t81 48t78 50t35 27.5t-14.5 3t-20.5 -1 q-18 0 -35.5 24t-33 57.5t-24.5 73.5t-9 73v354q0 25 7 43t14.5 31.5t14.5 23t7 13.5q0 8 -10.5 13t-25.5 9t-31.5 12.5t-26.5 22.5q-16 25 -24.5 50.5t-24.5 25.5q-10 0 -44 -21.5t-63 -42.5q-16 -12 -49 -24.5t-71 -28.5t-74.5 -39.5t-61.5 -58.5q-12 -18 -20.5 -54 t-11.5 -78t-4 -81t-1 -62v-227zM211 1161q0 -66 40 -97.5t89 -31.5t89 31.5t40 97.5q0 63 -40 96t-89 33t-89 -32.5t-40 -96.5zM248 1161q0 45 28.5 68.5t63.5 23.5t63.5 -23.5t28.5 -68.5q0 -47 -28.5 -69.5t-63.5 -22.5t-63.5 22.5t-28.5 69.5zM252 381v301q0 43 11 73.5 t27.5 50t34 29t29.5 9.5q4 0 23.5 -14.5t34.5 -30.5q10 -12 15 -42t5 -61v-270q0 -29 -2 -48t-6 -48q0 -10 -10.5 -38t-24.5 -56.5t-27.5 -51t-19.5 -22.5q-10 0 -25.5 11t-30 38t-24.5 67.5t-10 102.5z" />
<glyph unicode="&#xe6;" horiz-adv-x="839" d="M92 270q0 -43 19.5 -90t44 -87t48 -66.5t34.5 -26.5q23 0 55.5 27.5t63 61.5t53 66t24.5 38q2 -23 27.5 -56t56.5 -63.5t56.5 -52t27.5 -21.5q4 0 30.5 19.5t56.5 44t54.5 47t24.5 28.5q2 10 -16.5 4t-34.5 -6q-12 0 -35 21.5t-43.5 59.5t-35.5 89t-15 111v143 q18 6 55 26.5t72 50.5t61.5 65.5t26.5 70.5q0 31 -12.5 64.5t-30 63.5t-33.5 49.5t-25 19.5q-12 0 -31.5 -15.5t-41 -38t-44 -49t-38.5 -49.5q-10 12 -29.5 37t-44 49.5t-51.5 43t-47 18.5q-14 0 -40 -17.5t-56.5 -45t-62.5 -59.5t-57.5 -59.5t-42 -49t-16.5 -25.5t15.5 13 t41 39.5t59.5 41t71 18.5q18 0 41.5 -13t46 -34.5t38 -50.5t15.5 -57v-111q-18 -6 -73.5 -21.5t-114 -47t-103.5 -85t-45 -133.5zM240 391q0 37 22.5 59.5t53 37t62.5 22.5t50 14v-98v-129q-6 -25 -17.5 -48.5t-24.5 -43t-25.5 -31.5t-18.5 -12q-10 0 -27.5 25.5t-34 62.5 t-28.5 76t-12 65zM588 596v227q0 12 7 22.5t17 10.5q14 0 41 -36t27 -89q0 -41 -28.5 -83t-63.5 -52z" />
<glyph unicode="&#xe7;" horiz-adv-x="561" d="M92 301q0 -53 14.5 -97t36 -78t46 -59.5t44.5 -39.5l-32 -133q53 0 85.5 -34t32.5 -71q0 -29 -20 -56.5t-47 -48t-55.5 -32.5t-42.5 -12l39 -11q25 0 56.5 14.5t60 39t48 55.5t19.5 65q0 20 -10.5 43t-25.5 43.5t-32.5 34t-34.5 13.5l17 69q18 12 51 45t63.5 69t51 62.5 t16.5 26.5q-2 -2 -16.5 -11.5t-34 -20.5t-27.5 -11q-25 0 -50.5 17.5t-45.5 47t-33.5 68.5t-13.5 82v450q0 16 11 31t22 15q6 0 24.5 -14.5t38 -32t34.5 -33t15 -19.5v-22q0 -10 6 -11q4 0 26 23t48.5 50.5t51 51t36.5 23.5l-33 10q-32 10 -63 27q-23 10 -39 23.5t-20 13.5 q-41 0 -95.5 -29t-103.5 -65.5t-84 -73.5t-35 -51v-447z" />
<glyph unicode="&#xe8;" horiz-adv-x="505" d="M92 381q0 -76 8.5 -146.5t36.5 -111.5q10 -14 29.5 -34.5t40 -40t38 -34t21.5 -14.5t31 21.5t57.5 47t55 48t24.5 24.5q0 10 -16.5 3t-38.5 -7q-10 0 -23.5 9.5t-25 21.5t-20.5 24.5t-11 18.5q-4 8 -12 32.5t-16.5 55.5t-13.5 62.5t-5 56.5v55l34 25q33 26 74 65t75 87 t34 91q0 33 -12.5 73t-28.5 75t-33.5 58.5t-27.5 23.5q-8 0 -43 -24.5t-77 -56.5t-79 -62.5t-49 -45.5q-10 -12 -15.5 -37.5t-8.5 -52t-3 -49.5v-27v-235zM141 1274l246 -164l-184 225zM252 510v313q0 12 8 22.5t16 10.5t19.5 -15.5t22 -38t18.5 -50t8 -52.5 q0 -53 -23.5 -99t-44 -67.5t-24.5 -23.5z" />
<glyph unicode="&#xe9;" horiz-adv-x="505" d="M92 381q0 -76 8.5 -146.5t36.5 -111.5q10 -14 29.5 -34.5t40 -40t38 -34t21.5 -14.5t31 21.5t57.5 47t55 48t24.5 24.5q0 10 -16.5 3t-38.5 -7q-10 0 -23.5 9.5t-25 21.5t-20.5 24.5t-11 18.5q-4 8 -12 32.5t-16.5 55.5t-13.5 62.5t-5 56.5v55l34 25q33 26 74 65t75 87 t34 91q0 33 -12.5 73t-28.5 75t-33.5 58.5t-27.5 23.5q-8 0 -43 -24.5t-77 -56.5t-79 -62.5t-49 -45.5q-10 -12 -15.5 -37.5t-8.5 -52t-3 -49.5v-27v-235zM207 1110l246 164l-62 61zM252 510v313q0 12 8 22.5t16 10.5t19.5 -15.5t22 -38t18.5 -50t8 -52.5q0 -53 -23.5 -99 t-44 -67.5t-24.5 -23.5z" />
<glyph unicode="&#xea;" horiz-adv-x="505" d="M84 1130q0 -6 21.5 8.5t47 34t48 36t24.5 16.5l21 -15q22 -16 47.5 -35.5t47 -35t24.5 -15.5q6 0 17 7.5t22.5 18.5t19.5 24.5t8 25.5q0 2 -25.5 17.5t-56.5 31t-57.5 28.5t-28.5 13l-28 -24q-29 -25 -63 -53.5t-61.5 -54.5t-27.5 -28zM92 381q0 -76 8.5 -146.5 t36.5 -111.5q10 -14 29.5 -34.5t40 -40t38 -34t21.5 -14.5t31 21.5t57.5 47t55 48t24.5 24.5q0 10 -16.5 3t-38.5 -7q-10 0 -23.5 9.5t-25 21.5t-20.5 24.5t-11 18.5q-4 8 -12 32.5t-16.5 55.5t-13.5 62.5t-5 56.5v55l34 25q33 26 74 65t75 87t34 91q0 33 -12.5 73t-28.5 75 t-33.5 58.5t-27.5 23.5q-8 0 -43 -24.5t-77 -56.5t-79 -62.5t-49 -45.5q-10 -12 -15.5 -37.5t-8.5 -52t-3 -49.5v-27v-235zM252 510v313q0 12 8 22.5t16 10.5t19.5 -15.5t22 -38t18.5 -50t8 -52.5q0 -53 -23.5 -99t-44 -67.5t-24.5 -23.5z" />
<glyph unicode="&#xeb;" horiz-adv-x="505" d="M45 1151q0 -25 22.5 -43t32.5 -18q8 0 25.5 9t35 22.5t31 28.5t13.5 30q0 6 -11.5 0t-23.5 -9.5t-23.5 3t-11.5 34.5q0 6 -14.5 1t-30.5 -15t-30.5 -22.5t-14.5 -20.5zM92 381q0 -76 8.5 -146.5t36.5 -111.5q10 -14 29.5 -34.5t40 -40t38 -34t21.5 -14.5t31 21.5t57.5 47 t55 48t24.5 24.5q0 10 -16.5 3t-38.5 -7q-10 0 -23.5 9.5t-25 21.5t-20.5 24.5t-11 18.5q-4 8 -12 32.5t-16.5 55.5t-13.5 62.5t-5 56.5v55l34 25q33 26 74 65t75 87t34 91q0 33 -12.5 73t-28.5 75t-33.5 58.5t-27.5 23.5q-8 0 -43 -24.5t-77 -56.5t-79 -62.5t-49 -45.5 q-10 -12 -15.5 -37.5t-8.5 -52t-3 -49.5v-27v-235zM252 510v313q0 12 8 22.5t16 10.5t19.5 -15.5t22 -38t18.5 -50t8 -52.5q0 -53 -23.5 -99t-44 -67.5t-24.5 -23.5zM328 1151q0 -25 19.5 -43t29.5 -18q8 0 26.5 9t36 22.5t30.5 28.5t13 30q0 6 -11 0t-24.5 -9.5t-24.5 3 t-11 34.5q0 6 -13.5 1t-29 -16t-28.5 -23.5t-13 -18.5z" />
<glyph unicode="&#xec;" horiz-adv-x="409" d="M82 854q0 -4 8 -8t19.5 -13.5t19.5 -22.5t8 -36v-524q0 -37 6.5 -71t12.5 -61.5t12 -46t6 -26.5q0 -23 -7 -34t3 -11t48 21.5t80 47t75 48t33 24.5q0 8 -25 6t-37 5q-8 2 -16.5 15t-14.5 33.5t-10 43t-4 45.5v518q0 14 13.5 23.5t13.5 15.5q0 4 -20.5 23.5t-45 42 t-48.5 40t-30 17.5q-8 0 -19 -19.5t-24 -34.5l-36.5 -36.5t-20.5 -24.5zM92 1274l246 -164l-184 225z" />
<glyph unicode="&#xed;" horiz-adv-x="409" d="M82 854q0 -4 8 -8t19.5 -13.5t19.5 -22.5t8 -36v-524q0 -37 6.5 -71t12.5 -61.5t12 -46t6 -26.5q0 -23 -7 -34t3 -11t48 21.5t80 47t75 48t33 24.5q0 8 -25 6t-37 5q-8 2 -16.5 15t-14.5 33.5t-10 43t-4 45.5v518q0 14 13.5 23.5t13.5 15.5q0 4 -20.5 23.5t-45 42 t-48.5 40t-30 17.5q-8 0 -19 -19.5t-24 -34.5l-36.5 -36.5t-20.5 -24.5zM133 1110l246 164l-62 61z" />
<glyph unicode="&#xee;" horiz-adv-x="409" d="M51 1130q0 -6 21.5 8.5t47 34t48 36t25.5 16.5l20 -15q20 -16 46 -35.5t48.5 -35t24.5 -15.5q6 0 16 7.5t21.5 18.5t19.5 24.5t8 25.5q0 2 -25.5 17.5t-56 31t-57.5 28.5t-29 13l-27 -24q-28 -25 -62 -53.5t-61.5 -54.5t-27.5 -28zM82 854q0 -4 8 -8t19.5 -13.5 t19.5 -22.5t8 -36v-524q0 -37 6.5 -71t12.5 -61.5t12 -46t6 -26.5q0 -23 -7 -34t3 -11t48 21.5t80 47t75 48t33 24.5q0 8 -25 6t-37 5q-8 2 -16.5 15t-14.5 33.5t-10 43t-4 45.5v518q0 14 13.5 23.5t13.5 15.5q0 4 -20.5 23.5t-45 42t-48.5 40t-30 17.5q-8 0 -19 -19.5 t-24 -34.5l-36.5 -36.5t-20.5 -24.5z" />
<glyph unicode="&#xef;" horiz-adv-x="409" d="M33 1151q0 -25 21.5 -43t31.5 -18q8 0 26.5 9t36 22.5t31 28.5t13.5 30q0 6 -11.5 0t-25 -9.5t-24.5 3t-11 34.5q0 6 -13.5 1t-31 -15t-30.5 -22.5t-13 -20.5zM82 854q0 -4 8 -8t19.5 -13.5t19.5 -22.5t8 -36v-524q0 -37 6.5 -71t12.5 -61.5t12 -46t6 -26.5q0 -23 -7 -34 t3 -11t48 21.5t80 47t75 48t33 24.5q0 8 -25 6t-37 5q-8 2 -16.5 15t-14.5 33.5t-10 43t-4 45.5v518q0 14 13.5 23.5t13.5 15.5q0 4 -20.5 23.5t-45 42t-48.5 40t-30 17.5q-8 0 -19 -19.5t-24 -34.5l-36.5 -36.5t-20.5 -24.5zM315 1151q0 -25 19.5 -43t30.5 -18q8 0 26.5 9 t34.5 22.5t29.5 28.5t13.5 30q0 6 -11.5 0t-24.5 -9.5t-24.5 3t-11.5 34.5q0 6 -13 1t-28.5 -16t-28 -23.5t-12.5 -18.5z" />
<glyph unicode="&#xf0;" horiz-adv-x="653" d="M84 881q0 -18 2 -30.5t4 -8.5q4 6 19.5 18t31.5 23l49 28q20 -20 36 -32.5t16 -16.5q0 -10 -23.5 -28.5t-51.5 -46t-51.5 -61.5t-23.5 -73v-366q0 -68 33 -122t74 -91t75.5 -56.5t40.5 -19.5q4 0 29 24.5t57.5 67.5t70.5 102.5t69.5 128t53 144.5t21.5 151 q0 80 -27.5 137.5t-69.5 99.5t-93 75t-96 63l22 13q10 6 17.5 10t11.5 10q8 16 11 38.5t5 43t1 32t-3 5.5q-10 -16 -41 -31l-102 -57q-23 25 -38 55.5t-15 71.5q0 16 4 24l4 8q-4 0 -22.5 -17t-38 -42t-36 -50.5t-16.5 -41.5q0 -20 9.5 -42t23.5 -42q0 2 -1 1l-1 -1 q-8 -4 -14.5 -9t-10.5 -9q-8 -16 -12 -38t-4 -42zM252 373v446q0 20 36 15t80 -41.5t79.5 -107.5t35.5 -179q0 -84 -11 -146.5t-26.5 -104.5t-32 -63.5t-24.5 -21.5l-21 9q-22 9 -47.5 31.5t-47 61.5t-21.5 101z" />
<glyph unicode="&#xf1;" horiz-adv-x="731" d="M61 821q2 -2 19.5 -12t37 -33.5t19.5 -54.5v-571q0 -16 -15.5 -31t-15.5 -19t19.5 -18t44.5 -31.5t44 -33t19 -19.5h5q4 0 17 16.5t29.5 37t32 36.5t21.5 16q2 0 2 7q0 2 -6 15t-14.5 29.5t-14.5 35t-6 30.5v547q0 12 12.5 23.5t27.5 20.5t28.5 14t17.5 5t16.5 -8 t25.5 -20t23.5 -27.5t10.5 -30.5v-534q0 -35 16.5 -74t38 -70.5t38.5 -52t21 -20.5q6 0 29 21.5t47.5 47t42 47t13.5 21.5q-6 0 -11.5 -6t-13.5 -6q-14 0 -25.5 14t-19.5 32.5t-12 35t-4 20.5v598q0 6 7 10.5t14 6.5t14.5 4t7.5 4q0 14 -28 23.5t-48 25.5q-10 8 -21.5 22.5 t-20.5 28.5t-17.5 25.5t-10.5 11.5t-2 -6q0 -10 -36 -37t-79 -55.5t-79 -50.5l-35 -23q0 25 -11.5 46.5t-24.5 38.5t-24.5 29.5t-11.5 18.5q0 12 12.5 19.5t12.5 11.5q0 6 -11 6q-6 0 -12 -3t-22 -20zM123 1169q2 2 13 10.5t34 16.5t47 8q35 0 66.5 -10t62.5 -22.5 t62.5 -22.5t64.5 -10q31 0 61.5 16t55 36.5t40.5 36.5l15 17l-23 -14q-22 -14 -59 -14q-25 0 -52.5 10t-58 21.5t-63.5 21.5t-67 10q-23 0 -57 -17.5t-65.5 -38t-43.5 -28.5z" />
<glyph unicode="&#xf2;" horiz-adv-x="663" d="M92 287q0 -61 26.5 -109.5t60.5 -80t63.5 -49t36.5 -17.5q8 0 5 -7.5t-3 -15.5q0 -12 16 -12t68.5 45t107.5 115.5t99 155.5t44 163v178q0 55 -24.5 107.5t-55 92.5t-59 64.5t-39.5 24.5q-4 0 -4 8q0 10 2 19.5t-8 9.5q-4 0 -29.5 -9t-63.5 -26.5t-80 -43.5t-79 -57.5 t-60.5 -69.5t-23.5 -81v-405zM231 1274l246 -164l-184 225zM252 317v517q0 12 8 22t25 10q20 0 48.5 -20.5t56.5 -52t47.5 -69.5t19.5 -71v-331q0 -84 -20.5 -134.5t-37.5 -50.5q-16 0 -40.5 18.5t-48 46t-41 59.5t-17.5 56z" />
<glyph unicode="&#xf3;" horiz-adv-x="663" d="M92 287q0 -61 26.5 -109.5t60.5 -80t63.5 -49t36.5 -17.5q8 0 5 -7.5t-3 -15.5q0 -12 16 -12t68.5 45t107.5 115.5t99 155.5t44 163v178q0 55 -24.5 107.5t-55 92.5t-59 64.5t-39.5 24.5q-4 0 -4 8q0 10 2 19.5t-8 9.5q-4 0 -29.5 -9t-63.5 -26.5t-80 -43.5t-79 -57.5 t-60.5 -69.5t-23.5 -81v-405zM252 317v517q0 12 8 22t25 10q20 0 48.5 -20.5t56.5 -52t47.5 -69.5t19.5 -71v-331q0 -84 -20.5 -134.5t-37.5 -50.5q-16 0 -40.5 18.5t-48 46t-41 59.5t-17.5 56zM281 1110l245 164l-61 61z" />
<glyph unicode="&#xf4;" horiz-adv-x="663" d="M92 287q0 -61 26.5 -109.5t60.5 -80t63.5 -49t36.5 -17.5q8 0 5 -7.5t-3 -15.5q0 -12 16 -12t68.5 45t107.5 115.5t99 155.5t44 163v178q0 55 -24.5 107.5t-55 92.5t-59 64.5t-39.5 24.5q-4 0 -4 8q0 10 2 19.5t-8 9.5q-4 0 -29.5 -9t-63.5 -26.5t-80 -43.5t-79 -57.5 t-60.5 -69.5t-23.5 -81v-405zM152 1130q0 -6 21.5 8.5t47 34t47 36t23.5 16.5l21 -17q22 -16 47.5 -35.5t48 -35t24.5 -13.5q10 6 32.5 30t33.5 46q2 2 -22.5 17.5t-56.5 31t-59.5 28.5t-29.5 13l-29 -24q-29 -25 -62.5 -53.5t-60 -54.5t-26.5 -28zM252 317v517q0 12 8 22 t25 10q20 0 48.5 -20.5t56.5 -52t47.5 -69.5t19.5 -71v-331q0 -84 -20.5 -134.5t-37.5 -50.5q-16 0 -40.5 18.5t-48 46t-41 59.5t-17.5 56z" />
<glyph unicode="&#xf5;" horiz-adv-x="663" d="M51 1169q2 2 13.5 10.5t34 16.5t46.5 8q35 0 67 -10t62.5 -22.5t62.5 -22.5t64 -10q31 0 62 16t55.5 36.5t39.5 36.5l15 17l-23 -14q-22 -14 -58 -14q-25 0 -52.5 10t-58.5 21.5t-63.5 21.5t-69.5 10q-23 0 -55.5 -17.5t-64.5 -38t-43 -28.5zM92 287q0 -61 26.5 -109.5 t60.5 -80t63.5 -49t36.5 -17.5q8 0 5 -7.5t-3 -15.5q0 -12 16 -12t68.5 45t107.5 115.5t99 155.5t44 163v178q0 55 -24.5 107.5t-55 92.5t-59 64.5t-39.5 24.5q-4 0 -4 8q0 10 2 19.5t-8 9.5q-4 0 -29.5 -9t-63.5 -26.5t-80 -43.5t-79 -57.5t-60.5 -69.5t-23.5 -81v-405z M252 317v517q0 12 8 22t25 10q20 0 48.5 -20.5t56.5 -52t47.5 -69.5t19.5 -71v-331q0 -84 -20.5 -134.5t-37.5 -50.5q-16 0 -40.5 18.5t-48 46t-41 59.5t-17.5 56z" />
<glyph unicode="&#xf6;" horiz-adv-x="663" d="M92 287q0 -61 26.5 -109.5t60.5 -80t63.5 -49t36.5 -17.5q8 0 5 -7.5t-3 -15.5q0 -12 16 -12t68.5 45t107.5 115.5t99 155.5t44 163v178q0 55 -24.5 107.5t-55 92.5t-59 64.5t-39.5 24.5q-4 0 -4 8q0 10 2 19.5t-8 9.5q-4 0 -29.5 -9t-63.5 -26.5t-80 -43.5t-79 -57.5 t-60.5 -69.5t-23.5 -81v-405zM123 1151q0 -25 21.5 -43t31.5 -18q8 0 26.5 9t36 22.5t31 28.5t13.5 30q0 6 -11.5 0t-25 -9.5t-24.5 3t-11 34.5q0 6 -13.5 1t-30.5 -15t-30.5 -22.5t-13.5 -20.5zM252 317v517q0 12 8 22t25 10q20 0 48.5 -20.5t56.5 -52t47.5 -69.5t19.5 -71 v-331q0 -84 -20.5 -134.5t-37.5 -50.5q-16 0 -40.5 18.5t-48 46t-41 59.5t-17.5 56zM406 1151q0 -25 19 -43t30 -18q8 0 26.5 9t36 22.5t30.5 28.5t13 30q0 6 -11 0t-25.5 -9.5t-26 3t-11.5 34.5q0 6 -13 1t-28.5 -16t-27.5 -23.5t-12 -18.5z" />
<glyph unicode="&#xf7;" d="M82 541q12 8 54 10t83 2h520q18 0 49 26.5t61 61.5t51.5 67t21.5 42q-12 -8 -54.5 -10.5t-83.5 -2.5h-520q-16 0 -47 -26.5t-60.5 -61.5t-52 -66.5t-22.5 -41.5zM256 322q2 -14 20.5 -30t40 -29t42 -22.5t30.5 -11.5q4 0 38 19.5t74 42t71.5 43t31.5 24.5 q-2 6 -19.5 21.5t-39 31t-42 28t-26.5 12.5q-18 2 -55 -17.5t-74 -43t-64.5 -45t-27.5 -23.5zM385 930q2 -14 20.5 -29.5t40 -29t42 -22.5t30.5 -11q4 0 38 19.5t74 42t71.5 43t31.5 24.5q-2 6 -19.5 21.5t-39 30.5t-42 27.5t-26.5 12.5q-18 2 -55 -17.5t-74 -43t-64.5 -45 t-27.5 -23.5z" />
<glyph unicode="&#xf8;" horiz-adv-x="718" d="M-53 0l116 27l82 108q39 -53 81 -78.5t53 -25.5q6 0 5 -5.5t-2 -12.5t1 -12t14 -5q16 0 68.5 45t107.5 115.5t99 155.5t44 163v178q0 23 -3 44.5t-13 43.5l158 209l-119 -26l-78 -105q-35 55 -73.5 89t-49.5 34q-4 0 -3 6t2 12.5t0 12.5t-9 6q-4 0 -29.5 -9t-63.5 -26.5 t-80 -43.5t-79 -57.5t-60.5 -69.5t-23.5 -81v-405q0 -20 4 -40t8 -36zM252 408v426q0 12 8 22t25 10q18 0 43.5 -17.5t51.5 -45t47.5 -61t27.5 -64.5zM258 285l199 264v-227q0 -84 -20.5 -134.5t-37.5 -50.5q-12 0 -32.5 13.5t-42 35t-40 48t-26.5 51.5z" />
<glyph unicode="&#xf9;" horiz-adv-x="727" d="M61 821q2 -2 19.5 -15t37 -54t19.5 -109v-387q0 -43 -6 -71.5t-14 -45t-14.5 -26t-6.5 -11.5q0 -6 15.5 -9t36 -9t42 -17.5t33.5 -31.5q4 -10 12.5 -22.5t14.5 -12.5t34.5 19.5t62.5 53t66.5 82t47.5 105.5q0 -53 17.5 -96t39 -75t38.5 -50.5t17 -20.5q0 -4 1 -12t16 -8 q6 0 34.5 19.5t58.5 43t52.5 43t18.5 19.5q-16 0 -21.5 -2t-9.5 -2q-10 0 -26.5 11t-34 35.5t-29.5 63.5t-12 95v432q0 23 16 41t30.5 27.5t16.5 11.5q0 2 -8 7t-18.5 10t-20.5 11t-14 10q-31 37 -39.5 65t-16.5 28q-10 0 -33.5 -19.5t-48 -43t-43.5 -44.5l-18 -20 q0 -14 6 -23.5t12.5 -19t12.5 -18.5t6 -23v-369q0 -41 -10.5 -82t-24.5 -75.5t-30.5 -56t-28.5 -21.5q-8 0 -19.5 7t-23 16t-18.5 17.5t-7 12.5v524q0 25 -12.5 58.5t-27.5 63.5t-29.5 51.5t-20.5 21.5q0 6 7 16t7 16q0 2 -1 6.5t-3 4.5q-6 0 -14 -4.5t-25 -20.5zM223 1274 l246 -164l-184 225z" />
<glyph unicode="&#xfa;" horiz-adv-x="727" d="M61 821q2 -2 19.5 -15t37 -54t19.5 -109v-387q0 -43 -6 -71.5t-14 -45t-14.5 -26t-6.5 -11.5q0 -6 15.5 -9t36 -9t42 -17.5t33.5 -31.5q4 -10 12.5 -22.5t14.5 -12.5t34.5 19.5t62.5 53t66.5 82t47.5 105.5q0 -53 17.5 -96t39 -75t38.5 -50.5t17 -20.5q0 -4 1 -12t16 -8 q6 0 34.5 19.5t58.5 43t52.5 43t18.5 19.5q-16 0 -21.5 -2t-9.5 -2q-10 0 -26.5 11t-34 35.5t-29.5 63.5t-12 95v432q0 23 16 41t30.5 27.5t16.5 11.5q0 2 -8 7t-18.5 10t-20.5 11t-14 10q-31 37 -39.5 65t-16.5 28q-10 0 -33.5 -19.5t-48 -43t-43.5 -44.5l-18 -20 q0 -14 6 -23.5t12.5 -19t12.5 -18.5t6 -23v-369q0 -41 -10.5 -82t-24.5 -75.5t-30.5 -56t-28.5 -21.5q-8 0 -19.5 7t-23 16t-18.5 17.5t-7 12.5v524q0 25 -12.5 58.5t-27.5 63.5t-29.5 51.5t-20.5 21.5q0 6 7 16t7 16q0 2 -1 6.5t-3 4.5q-6 0 -14 -4.5t-25 -20.5zM313 1110 l246 164l-61 61z" />
<glyph unicode="&#xfb;" horiz-adv-x="727" d="M61 821q2 -2 19.5 -15t37 -54t19.5 -109v-387q0 -43 -6 -71.5t-14 -45t-14.5 -26t-6.5 -11.5q0 -6 15.5 -9t36 -9t42 -17.5t33.5 -31.5q4 -10 12.5 -22.5t14.5 -12.5t34.5 19.5t62.5 53t66.5 82t47.5 105.5q0 -53 17.5 -96t39 -75t38.5 -50.5t17 -20.5q0 -4 1 -12t16 -8 q6 0 34.5 19.5t58.5 43t52.5 43t18.5 19.5q-16 0 -21.5 -2t-9.5 -2q-10 0 -26.5 11t-34 35.5t-29.5 63.5t-12 95v432q0 23 16 41t30.5 27.5t16.5 11.5q0 2 -8 7t-18.5 10t-20.5 11t-14 10q-31 37 -39.5 65t-16.5 28q-10 0 -33.5 -19.5t-48 -43t-43.5 -44.5l-18 -20 q0 -14 6 -23.5t12.5 -19t12.5 -18.5t6 -23v-369q0 -41 -10.5 -82t-24.5 -75.5t-30.5 -56t-28.5 -21.5q-8 0 -19.5 7t-23 16t-18.5 17.5t-7 12.5v524q0 25 -12.5 58.5t-27.5 63.5t-29.5 51.5t-20.5 21.5q0 6 7 16t7 16q0 2 -1 6.5t-3 4.5q-6 0 -14 -4.5t-25 -20.5zM154 1130 q0 -6 21.5 8.5t47 34t47 36t23.5 16.5l21 -17q22 -16 47.5 -35.5t47 -35t23.5 -13.5q10 6 33.5 30t34.5 46q2 2 -22.5 17.5t-56.5 31t-59.5 28.5t-29.5 13l-29 -24q-29 -25 -62.5 -53.5t-60 -54.5t-26.5 -28z" />
<glyph unicode="&#xfc;" horiz-adv-x="727" d="M61 821q2 -2 19.5 -15t37 -54t19.5 -109v-387q0 -43 -6 -71.5t-14 -45t-14.5 -26t-6.5 -11.5q0 -6 15.5 -9t36 -9t42 -17.5t33.5 -31.5q4 -10 12.5 -22.5t14.5 -12.5t34.5 19.5t62.5 53t66.5 82t47.5 105.5q0 -53 17.5 -96t39 -75t38.5 -50.5t17 -20.5q0 -4 1 -12t16 -8 q6 0 34.5 19.5t58.5 43t52.5 43t18.5 19.5q-16 0 -21.5 -2t-9.5 -2q-10 0 -26.5 11t-34 35.5t-29.5 63.5t-12 95v432q0 23 16 41t30.5 27.5t16.5 11.5q0 2 -8 7t-18.5 10t-20.5 11t-14 10q-31 37 -39.5 65t-16.5 28q-10 0 -33.5 -19.5t-48 -43t-43.5 -44.5l-18 -20 q0 -14 6 -23.5t12.5 -19t12.5 -18.5t6 -23v-369q0 -41 -10.5 -82t-24.5 -75.5t-30.5 -56t-28.5 -21.5q-8 0 -19.5 7t-23 16t-18.5 17.5t-7 12.5v524q0 25 -12.5 58.5t-27.5 63.5t-29.5 51.5t-20.5 21.5q0 6 7 16t7 16q0 2 -1 6.5t-3 4.5q-6 0 -14 -4.5t-25 -20.5zM123 1151 q0 -25 21.5 -43t31.5 -18q8 0 26.5 9t36 22.5t31 28.5t13.5 30q0 6 -11.5 0t-25 -9.5t-24.5 3t-11 34.5q0 6 -13.5 1t-30.5 -15t-30.5 -22.5t-13.5 -20.5zM406 1151q0 -25 19 -43t30 -18q8 0 26.5 9t36 22.5t30.5 28.5t13 30q0 6 -11 0t-25.5 -9.5t-26 3t-11.5 34.5 q0 6 -13 1t-28.5 -16t-27.5 -23.5t-12 -18.5z" />
<glyph unicode="&#xfd;" horiz-adv-x="659" d="M-8 -336v-31q0 6 47 44t116.5 102.5t151.5 155t151.5 203t117 245.5t47.5 283q0 63 -14.5 110t-33 80t-34 49.5t-17.5 16.5q-4 0 -6 9t-5 19.5t-5 19.5t-4 9q-4 0 -10.5 -4t-28.5 -27l-174 -174q-6 20 -17.5 46t-23.5 48.5t-23.5 38t-17.5 15.5q0 6 7 18t7 18q0 8 -4 9 q-4 0 -12 -3t-25 -20l-121 -123q2 -2 19.5 -14t37 -55t19.5 -117v-576q0 -20 -16.5 -33.5t-16.5 -23.5q0 -6 18.5 -11t42 -11.5t46 -15.5t33.5 -27q-39 -49 -75 -87t-63.5 -64t-45.5 -40l-17 -14q-10 0 -20.5 9t-14.5 9q-8 0 -12 -30.5t-4 -55.5zM299 80v663q10 8 25.5 21.5 t30 26t24.5 21.5t12 9q6 0 23.5 -17.5t35 -55t31 -99t13.5 -147.5q0 -70 -14.5 -132.5t-38 -118.5t-55.5 -110.5t-67 -105.5q-20 16 -20 45zM313 1110l246 164l-61 61z" />
<glyph unicode="&#xfe;" horiz-adv-x="638" d="M45 1137q8 0 23.5 -6.5t31 -18.5t26.5 -29.5t11 -42.5v-890q0 -6 -9 -14.5t-19.5 -15.5t-19.5 -13.5t-9 -8.5q0 -6 9 -11t19.5 -10t19.5 -12.5t9 -19.5v-319q0 -14 11.5 -31t26.5 -31t30.5 -23.5t21.5 -9.5q14 0 41 20.5t54.5 45t48 47.5t20.5 29q0 8 -12 1t-23 -7 q-33 0 -45 30.5t-12 63.5v172q0 25 47 65.5t104.5 104t104.5 153.5t47 213q0 80 -20.5 139.5t-46 100.5t-46 67.5t-20.5 41.5q0 2 -1 12t-3 22.5t-6 21.5t-8 9q-2 0 -19.5 -17.5t-40 -41t-48.5 -47t-44 -37.5v256q0 20 -11.5 40.5t-24.5 36t-26.5 24.5t-17.5 9t-5 13.5 t-3 29t-4 28.5t-4 13q-4 0 -30 -23.5t-54.5 -53t-52 -53t-21.5 -23.5zM299 160v592q0 35 6 58.5t27 23.5q10 0 32.5 -31t44 -78t38 -105.5t16.5 -113.5q0 -59 -18.5 -125t-41 -121t-41 -92t-20.5 -37q-16 0 -29.5 9.5t-13.5 19.5z" />
<glyph unicode="&#xff;" horiz-adv-x="659" d="M-8 -336v-31q0 6 47 44t116.5 102.5t151.5 155t151.5 203t117 245.5t47.5 283q0 63 -14.5 110t-33 80t-34 49.5t-17.5 16.5q-4 0 -6 9t-5 19.5t-5 19.5t-4 9q-4 0 -10.5 -4t-28.5 -27l-174 -174q-6 20 -17.5 46t-23.5 48.5t-23.5 38t-17.5 15.5q0 6 7 18t7 18q0 8 -4 9 q-4 0 -12 -3t-25 -20l-121 -123q2 -2 19.5 -14t37 -55t19.5 -117v-576q0 -20 -16.5 -33.5t-16.5 -23.5q0 -6 18.5 -11t42 -11.5t46 -15.5t33.5 -27q-39 -49 -75 -87t-63.5 -64t-45.5 -40l-17 -14q-10 0 -20.5 9t-14.5 9q-8 0 -12 -30.5t-4 -55.5zM147 1151q0 -25 21.5 -43 t32.5 -18q8 0 26.5 9t36 22.5t30.5 28.5t13 30q0 6 -11 0t-24.5 -9.5t-24.5 3t-11 34.5q0 6 -13.5 1t-31 -15t-31 -22.5t-13.5 -20.5zM299 80v663q10 8 25.5 21.5t30 26t24.5 21.5t12 9q6 0 23.5 -17.5t35 -55t31 -99t13.5 -147.5q0 -70 -14.5 -132.5t-38 -118.5 t-55.5 -110.5t-67 -105.5q-20 16 -20 45zM430 1151q0 -25 19.5 -43t29.5 -18q8 0 26.5 9t36 22.5t31 28.5t13.5 30q0 6 -11.5 0t-25.5 -9.5t-25.5 3t-11.5 34.5q0 6 -13.5 1t-28.5 -16t-27.5 -23.5t-12.5 -18.5z" />
<glyph unicode="&#x152;" horiz-adv-x="2048" d="M8 487q0 -111 54.5 -201.5t140.5 -155t190.5 -99.5t202.5 -35q63 0 143 26.5t162 77.5q-20 -31 -20 -59q0 -31 11 -49.5t26.5 -27.5t30 -11t18.5 -2q8 0 1 3t-19.5 12t-25 23.5t-12.5 39.5q0 31 14.5 58.5t39 49t57.5 34.5t72 13q53 0 119.5 -34.5t147.5 -75.5t175 -76 t205 -35q41 0 92 31t96 83t76 119.5t31 143.5q0 31 -11.5 62.5t-33 57t-52 43t-69.5 17.5q-16 0 -34.5 -7t-33 -16.5t-24 -18.5t-9.5 -15q0 -4 25 14.5t76 18.5q25 0 47 -14.5t38.5 -38t27 -51t10.5 -52.5q0 -49 -22.5 -91t-54.5 -74t-68 -49t-60 -17q-41 0 -103.5 19 t-138.5 47t-161 57.5t-168 50.5q27 25 56.5 57.5t55 62t41.5 51t16 27.5v207l22 -16q22 -15 49.5 -35.5t54 -44t36.5 -37.5q20 23 46 47.5t50.5 47t47 41t34.5 28.5q-12 10 -32.5 29.5t-42 41t-42 44t-32.5 38.5q8 10 29.5 31t44 43.5t45 42t35.5 27.5q-6 4 -22.5 18.5 t-37.5 36.5q6 8 18.5 20.5t24.5 23.5t24.5 19.5t20.5 8.5l5 -21q5 -22 19.5 -48.5t40 -48t64.5 -21.5q18 0 43 6t47.5 20t39 37t16.5 57q0 33 -22.5 46.5t-41.5 13.5q-35 0 -54.5 -25.5t-19.5 -38.5l20 20q19 21 50 21q14 0 27.5 -9t13.5 -30q0 -35 -29.5 -63.5t-89.5 -28.5 q-35 0 -54 26.5t-30.5 59.5t-16.5 59.5t-9 26.5q-14 0 -34 -13t-39 -30.5t-35.5 -35t-24.5 -25.5q-27 27 -53.5 57.5t-48 58t-37 48t-17.5 28.5q-2 -12 -43 -62t-91 -107.5t-94 -104.5t-55 -53q18 -14 19 -37v-70q-41 94 -115 174t-146.5 137.5t-130 90t-65.5 32.5 q-6 0 -32.5 -16.5t-63.5 -41t-78 -53t-76 -54t-57.5 -43t-22.5 -19.5q0 -4 17 -4q18 0 18 -10v-45q-4 0 -48 -9.5t-114.5 -39t-138.5 -86t-116 -150.5t-48 -232zM168 614q0 111 31.5 182.5t75.5 109.5t90.5 55.5t76 20.5t31.5 3v-610q0 -12 -7 -27.5t-15.5 -29t-15.5 -22.5 t-7 -11l18 11q19 11 31 26l557 555l14 -17q15 -18 25 -31q8 -10 13 -19l16 -26l-625 -624l-48 26q-48 25 -106.5 80.5t-106.5 141.5t-48 206zM223 504q27 -23 60.5 -58.5t54.5 -64.5q25 33 59.5 73t55.5 56q-10 6 -25.5 20.5t-33 32t-34 35.5t-24.5 31q-20 -33 -56.5 -71 t-56.5 -54zM223 768q27 -20 60.5 -57t54.5 -66q25 35 59.5 75t55.5 56q-10 4 -25.5 18.5t-33 32t-34 36t-24.5 30.5q-20 -31 -56.5 -70t-56.5 -55zM514 143l606 607l13.5 -27t24.5 -70t13 -100q0 -106 -49 -192.5t-114.5 -145.5t-135 -92t-108.5 -33q-70 0 -129.5 13.5 t-88 25.5t-32.5 14zM637 535v542v17q0 12 2 24t6 22.5t12 10.5q18 0 61.5 -25.5t90.5 -61.5t94 -73t75 -60.5t30 -25.5zM1106 274q37 45 67.5 94.5t51.5 104.5v-108q0 -45 -25 -80h-51q-20 -1 -43 -11zM1386 707v370q14 -14 40 -42.5t50.5 -60.5t46 -59.5t29.5 -42.5 q-14 -20 -41.5 -48.5t-55.5 -54.5t-49 -44z" />
<glyph unicode="&#x153;" horiz-adv-x="864" d="M92 287q0 -61 26.5 -109.5t60.5 -80t63.5 -49t36.5 -17.5q6 0 5 -5.5t-2 -12.5t1 -12t14 -5q16 0 68.5 46t111.5 120q10 -23 21 -39q10 -14 29.5 -34.5t40 -40t38 -34t21.5 -14.5t30.5 21.5t57 47t55.5 48t25 24.5q0 10 -16.5 3t-39.5 -7q-12 0 -24.5 9.5t-24.5 21.5 t-21.5 24.5t-11.5 18.5q-4 8 -11 32.5t-15 55.5t-13.5 62.5t-5.5 56.5v55l34 25q34 26 74 65t73.5 87t33.5 91q0 33 -12 73t-28.5 75t-33 58.5t-26.5 23.5q-6 0 -25.5 -12.5t-45 -31t-55.5 -41t-56 -42.5q-33 45 -64.5 71.5t-42.5 26.5q-4 0 -3 6t2 12.5t0 12.5t-9 6 q-4 0 -29.5 -9t-63.5 -26.5t-80 -43.5t-79 -57.5t-60.5 -69.5t-23.5 -81v-405zM252 317v517q0 12 8 22t25 10q20 0 48.5 -20.5t56.5 -52t47.5 -69.5t19.5 -71v-331q0 -84 -20.5 -134.5t-37.5 -50.5q-16 0 -40.5 18.5t-48 46t-41 59.5t-17.5 56zM612 510v313q0 12 7.5 22.5 t15.5 10.5t19.5 -15.5t22.5 -38t19.5 -50t8.5 -52.5q0 -53 -24 -99t-44.5 -67.5t-24.5 -23.5z" />
<glyph unicode="&#x178;" horiz-adv-x="1284" d="M4 -197q0 -45 19.5 -78.5t42 -55t42 -30t19.5 -1.5q0 6 -13.5 16t-28.5 27.5t-27.5 40t-12.5 53.5q0 27 10.5 57.5t29.5 57t51 44t75 17.5q37 0 94 -13.5t119.5 -36t126 -50t115 -58.5t83 -59.5t31.5 -50.5q0 -4 2 -5q10 0 38 18.5t64 50.5t73.5 72t69.5 85t52.5 91 t20.5 87v893l44 5t97 23.5t97 56.5t44 103q0 18 -8 36t-17 29t-16.5 15t-5.5 -4q10 -25 12.5 -36t2.5 -29q0 -39 -23.5 -54.5t-60.5 -16.5t-82 8t-88 20.5t-79 20.5t-54 9q-47 0 -77 -16.5t-47.5 -39t-23.5 -50t-6 -47.5t4 -31.5t4 -5.5q0 33 20.5 43t49.5 10q8 0 32.5 -8 t51 -17.5t49 -16.5t27.5 -7q0 -45 -18.5 -71.5t-40 -47t-40 -43t-18.5 -59.5v-824q0 -63 -11.5 -87t-25.5 -40q-37 70 -108.5 121t-153.5 83t-162 47.5t-129 15.5q-72 0 -132.5 -23.5t-106.5 -62.5t-71.5 -86.5t-25.5 -94.5zM193 567q29 -23 66.5 -63.5t59.5 -71.5 q14 18 32 40t35 41t33.5 36.5t29.5 25.5q-10 6 -29 21.5t-38.5 35t-37.5 40t-27 35.5q-12 -18 -28.5 -39t-33.5 -40.5t-33.5 -36t-28.5 -24.5zM193 862q29 -23 66.5 -63.5t59.5 -71.5q14 18 32 39.5t35 41t33.5 37t29.5 25.5q-10 6 -29 21.5t-38.5 35t-37.5 40t-27 34.5 q-12 -18 -28.5 -38.5t-33.5 -40t-33.5 -36t-28.5 -24.5zM326 254q-14 -10 20.5 -13t102 -23.5t158.5 -69t192 -148.5q0 -2 25.5 16.5t54 44t52 49t21.5 29.5q-4 12 -11 9t-18.5 -7t-26 -2t-30.5 25q-41 53 -100 91t-114.5 62.5t-94.5 36.5l-39 11q37 25 78 46t75 43.5 t55.5 51.5t21.5 67v541q0 10 -32 24.5t-71 39t-70.5 62.5t-31.5 93q0 39 13 62.5t28.5 39t29 22.5t13.5 13q0 4 -39 -8t-85 -45t-84 -85t-38 -126q0 -43 13.5 -67.5t35 -39t45 -22.5t45 -18t34.5 -26.5t13 -47.5v-483q0 -53 -68.5 -119t-172.5 -129zM688 1425 q0 -14 8.5 -27.5t19.5 -24.5t21.5 -17t16.5 -6q12 0 33.5 11t43 27.5t38 36t16.5 37.5q0 6 -13.5 0t-30 -10t-29.5 3t-13 44q0 8 -17.5 2t-38 -19.5t-38 -30t-17.5 -26.5zM1059 1425q0 -29 24.5 -52t38.5 -23q10 0 32 11t43.5 27.5t37.5 36t16 37.5q0 6 -13 0t-30.5 -10 t-31 3t-13.5 44q0 8 -16.5 2t-35.5 -19.5t-35.5 -30t-16.5 -26.5z" />
<glyph unicode="&#x2c6;" horiz-adv-x="460" d="M31 1446q0 -6 25.5 10.5t56 39t57.5 43t29 20.5t27.5 -19.5t56 -43t57.5 -42t29 -16.5q12 8 39.5 35.5t40.5 54.5q2 4 -28 22.5t-68 38t-70.5 34.5t-34.5 15t-37 -29.5t-75 -64.5t-72.5 -65.5t-32.5 -32.5z" />
<glyph unicode="&#x2dc;" horiz-adv-x="696" d="M2 1337q2 2 16.5 11.5t43 19.5t57.5 10q43 0 83 -13t78.5 -27.5t77.5 -27t80 -12.5q37 0 76 20.5t69.5 46.5t50.5 47l19 20l-27 -18q-28 -19 -73 -19q-33 0 -67.5 12t-72.5 27.5t-79 28t-86 12.5q-29 0 -70 -21.5t-81 -47.5t-53 -36z" />
<glyph unicode="&#x2000;" horiz-adv-x="819" />
<glyph unicode="&#x2001;" horiz-adv-x="1638" />
<glyph unicode="&#x2002;" horiz-adv-x="819" />
<glyph unicode="&#x2003;" horiz-adv-x="1638" />
<glyph unicode="&#x2004;" horiz-adv-x="546" />
<glyph unicode="&#x2005;" horiz-adv-x="409" />
<glyph unicode="&#x2006;" horiz-adv-x="273" />
<glyph unicode="&#x2007;" horiz-adv-x="273" />
<glyph unicode="&#x2008;" horiz-adv-x="204" />
<glyph unicode="&#x2009;" horiz-adv-x="327" />
<glyph unicode="&#x200a;" horiz-adv-x="91" />
<glyph unicode="&#x2010;" d="M82 541q12 8 54 10t83 2h520q18 0 49 26.5t61 61.5t51.5 67t21.5 42q-12 -8 -54.5 -10.5t-83.5 -2.5h-520q-16 0 -47 -26.5t-60.5 -61.5t-52 -66.5t-22.5 -41.5z" />
<glyph unicode="&#x2011;" d="M82 541q12 8 54 10t83 2h520q18 0 49 26.5t61 61.5t51.5 67t21.5 42q-12 -8 -54.5 -10.5t-83.5 -2.5h-520q-16 0 -47 -26.5t-60.5 -61.5t-52 -66.5t-22.5 -41.5z" />
<glyph unicode="&#x2012;" d="M82 541q12 8 54 10t83 2h520q18 0 49 26.5t61 61.5t51.5 67t21.5 42q-12 -8 -54.5 -10.5t-83.5 -2.5h-520q-16 0 -47 -26.5t-60.5 -61.5t-52 -66.5t-22.5 -41.5z" />
<glyph unicode="&#x2013;" horiz-adv-x="1105" d="M82 541q12 8 54 10t83 2h623q18 0 49 26.5t60.5 61.5t51 67t21.5 42q-12 -8 -54 -10.5t-83 -2.5h-623q-16 0 -47 -26.5t-60.5 -61.5t-52 -66.5t-22.5 -41.5z" />
<glyph unicode="&#x2014;" horiz-adv-x="1413" d="M82 541q12 8 54 10t83 2h930q16 0 47 26.5t60.5 61.5t52 67t22.5 42q-12 -8 -54 -10.5t-83 -2.5h-930q-16 0 -47 -26.5t-60.5 -61.5t-52 -66.5t-22.5 -41.5z" />
<glyph unicode="&#x2018;" horiz-adv-x="571" d="M184 1014q0 -10 15.5 -30.5t36 -41t40 -36t27.5 -15.5q18 0 41 22.5t42.5 49t26.5 37.5l21 34q-4 2 -27.5 19.5t-50 43t-26.5 44.5q0 63 15 118.5t27.5 83t14.5 31.5l-31 -34q-32 -35 -70 -87.5t-70 -117t-32 -121.5z" />
<glyph unicode="&#x2019;" horiz-adv-x="536" d="M285 1239q4 -2 27.5 -19.5t51 -43t27.5 -43.5q0 -49 -9 -92.5t-19.5 -75t-19.5 -49.5l-9 -19l32 35q31 35 69 88t70 116.5t32 123.5q0 8 -15.5 27.5t-36 39t-40 33.5t-27.5 14q-18 0 -41 -21.5t-43.5 -46t-27.5 -34.5z" />
<glyph unicode="&#x201a;" horiz-adv-x="395" d="M0 92q4 -2 27.5 -19.5t50 -43t26.5 -43.5q0 -63 -15 -118.5t-27.5 -83.5t-14.5 -32l32 34t69.5 87t69.5 116.5t32 123.5q0 8 -15.5 28.5t-35 42t-39 37t-27.5 15.5q-18 0 -41.5 -23t-43 -49.5t-26.5 -37.5z" />
<glyph unicode="&#x201c;" horiz-adv-x="921" d="M184 1014q0 -10 15.5 -30.5t36 -41t40 -36t27.5 -15.5q18 0 41 22.5t42.5 49t26.5 37.5l21 34q-4 2 -27.5 19.5t-50 43t-26.5 44.5q0 63 15 118.5t27.5 83t14.5 31.5l-31 -34q-32 -35 -70 -87.5t-70 -117t-32 -121.5zM535 1014q0 -10 15 -30.5t35.5 -41t40 -36 t27.5 -15.5q18 0 41 22.5t42.5 49t26.5 37.5l21 34q-4 2 -27.5 19.5t-50 43t-26.5 44.5q0 63 15.5 118.5t27.5 83t14 31.5l-31 -34q-32 -35 -70 -87.5t-69.5 -117t-31.5 -121.5z" />
<glyph unicode="&#x201d;" horiz-adv-x="886" d="M285 1231q4 -2 27.5 -19.5t51 -43t27.5 -44.5q0 -63 -15.5 -118.5t-27.5 -83t-14 -31.5l32 35q31 35 69 87t70 115.5t32 122.5q0 10 -15.5 31t-36 41t-40 35.5t-27.5 15.5q-18 0 -41 -22.5t-43.5 -49t-27.5 -38.5zM635 1231q4 -2 27.5 -19.5t51 -43t27.5 -44.5 q0 -63 -15 -118.5t-27.5 -83t-14.5 -31.5l32 35t69.5 87t69.5 115.5t32 122.5q0 10 -15.5 31t-36 41t-40 35.5t-27.5 15.5q-18 0 -40.5 -22.5t-43 -49t-28.5 -38.5z" />
<glyph unicode="&#x201e;" horiz-adv-x="782" d="M0 92q4 -2 27.5 -19.5t50 -43t26.5 -43.5q0 -63 -15 -118.5t-27.5 -83.5t-14.5 -32l32 34q32 34 69.5 87t69.5 116.5t32 123.5q0 8 -15.5 28.5t-35 42t-39 37t-27.5 15.5q-18 0 -41.5 -23t-43 -49.5t-26.5 -37.5zM387 92q4 -2 27.5 -19.5t50.5 -43t27 -43.5 q0 -63 -15.5 -118.5t-28 -83.5t-14.5 -32l32 34t69.5 87t69.5 116.5t32 123.5q0 8 -15.5 28.5t-35 42t-39 37t-27.5 15.5q-18 0 -41.5 -23t-43 -49.5t-27.5 -37.5z" />
<glyph unicode="&#x2022;" horiz-adv-x="671" d="M0 645q0 -92 41 -153.5t102.5 -92t132.5 -30.5q72 0 133.5 30.5t102.5 92t41 153.5t-41 153.5t-102.5 92.5t-133.5 31t-133 -31t-102 -92.5t-41 -153.5z" />
<glyph unicode="&#x2026;" horiz-adv-x="1271" d="M147 84q0 -12 20.5 -34.5t47.5 -45t51.5 -39t30.5 -16.5q2 0 22.5 16.5t43 39t42 44t19.5 33.5q0 8 -20.5 33.5t-45 52.5t-47 47.5t-26.5 20.5q-6 0 -29 -24t-47.5 -52.5t-33.5 -39.5zM571 92q0 -12 20.5 -34.5t47.5 -45t51.5 -40t30.5 -17.5q2 0 22.5 16.5t43 39t42 45 t19.5 34.5q0 8 -20.5 34t-45 52.5t-47 47t-26.5 20.5q-6 0 -29 -23.5t-47.5 -52.5t-33.5 -40zM995 92q0 -12 20.5 -34.5t47.5 -45t51.5 -40t30.5 -17.5q2 0 22.5 16.5t43 39t42 45t19.5 34.5q0 8 -20.5 34t-45 52.5t-47 47t-26.5 20.5q-6 0 -29 -23.5t-47.5 -52.5t-33.5 -40 z" />
<glyph unicode="&#x202f;" horiz-adv-x="327" />
<glyph unicode="&#x2039;" horiz-adv-x="700" d="M16 236l45 -14q45 -15 105.5 -42.5t120 -67.5t90.5 -92l178 41q-29 49 -79 87t-98 64t-83 40l-35 14q59 25 98 46.5t66 46t41 54t24 70.5l-194 -32q-8 -37 -21.5 -64t-43 -51.5t-81 -48t-133.5 -51.5z" />
<glyph unicode="&#x203a;" horiz-adv-x="700" d="M152 442q29 -49 79 -87t98 -64.5t83 -40.5l34 -14q-59 -25 -99 -45.5t-65.5 -45t-41 -54.5t-25.5 -71l197 33q8 37 21 63.5t43 50t80 47.5t134 52l-45 14q-45 15 -105.5 42.5t-121 68.5t-90.5 92z" />
<glyph unicode="&#x205f;" horiz-adv-x="409" />
<glyph unicode="&#x2122;" horiz-adv-x="1492" d="M254 1235h203v-442h55v442h203v55h-461v-55zM807 793h55v405l242 -405h45l242 405v-405h55v497h-57l-263 -442l-264 442h-55v-497z" />
<glyph unicode="&#x25fc;" horiz-adv-x="972" d="M0 0v973h973v-973h-973z" />
</font>
</defs>
</svg>
