<?xml version="1.0" standalone="no"?>
<!DOCTYPE svg PUBLIC "-//W3C//DTD SVG 1.1//EN" "http://www.w3.org/Graphics/SVG/1.1/DTD/svg11.dtd" >
<svg xmlns="http://www.w3.org/2000/svg" xmlns:xlink="http://www.w3.org/1999/xlink" version="1.1">
<metadata></metadata>
<defs>
<font id="elder_futharkregular" horiz-adv-x="908" >
<font-face units-per-em="2048" ascent="1638" descent="-410" />
<missing-glyph horiz-adv-x="1024" />
<glyph horiz-adv-x="0" />
<glyph horiz-adv-x="682" />
<glyph unicode=" "  horiz-adv-x="1024" />
<glyph unicode="&#x09;" horiz-adv-x="1024" />
<glyph unicode="&#xa0;" horiz-adv-x="1024" />
<glyph unicode="," horiz-adv-x="210" d="M12 73l69 69l69 -69l-104 -198l26 161z" />
<glyph unicode="-" d="M10 1021l147 59h561l147 -59l-147 -60h-561z" />
<glyph unicode="." horiz-adv-x="157" d="M12 73l69 69l69 -69l-69 -69z" />
<glyph unicode="/" horiz-adv-x="1526" d="M11 -4l62 145l1235 1234l146 63l-62 -147l-1235 -1234z" />
<glyph unicode=":" horiz-adv-x="157" d="M12 73l69 69l69 -69l-69 -69zM12 431l69 69l69 -69l-69 -69z" />
<glyph unicode=";" horiz-adv-x="210" d="M12 73l69 69l69 -69l-104 -198l26 161zM12 431l69 69l69 -69l-69 -69z" />
<glyph unicode="A" horiz-adv-x="765" d="M9 769l134 -57l422 -448v427l-489 514l-67 145l134 -57l422 -447v1053l58 144l58 -144q0 -605 -0.5 -929t-0.5 -497v-259v-214l-604 624z" />
<glyph unicode="B" horiz-adv-x="676" d="M-1 589l418 429l-418 430l598 590v-2038zM153 1448l328 -338v676zM154 590l327 -338v675z" />
<glyph unicode="C" horiz-adv-x="900" d="M10 299l59 139l583 583l-583 583l-59 138l149 -69l652 -652l-652 -652z" />
<glyph unicode="D" horiz-adv-x="2056" d="M4 0v2040l954 -945l953 944v-2037l-953 943zM119 264l755 756l-755 756v-1512zM1043 1020l756 -756v1512z" />
<glyph unicode="E" horiz-adv-x="1297" d="M8 0l1 1902l57 142l58 -142v-1631l474 484l474 -485v1632l57 142l58 -142l1 -1901l-590 589z" />
<glyph unicode="F" horiz-adv-x="1234" d="M8 8l79 169l922 942v763l59 147l60 -147q0 -306 -0.5 -450.5t-0.5 -192t0 -29.5v37t0 8v-117v-338.5v-655.5l-59 -145l-59 145v333l-379 -400l-148 -69l80 169l447 468v306l-853 -874z" />
<glyph unicode="G" horiz-adv-x="1303" d="M5 0l34 177l491 845l-492 845l-33 178l138 -118l456 -785l457 785l138 118l-34 -178l-491 -845l492 -845l33 -177l-138 118l-457 785l-456 -785z" />
<glyph unicode="H" horiz-adv-x="1122" d="M9 147v1746l59 148l60 -148l-1 -382l775 -816v1198l59 148l60 -148l-1 -1746l-59 -147l-59 147v379l-775 816v-1195l-59 -147z" />
<glyph unicode="I" horiz-adv-x="220" d="M9 147v1746l59 148l59 -148v-1746l-59 -147z" />
<glyph unicode="J" horiz-adv-x="1554" d="M-11 1318l651 652l150 69l-60 -138l-583 -583l583 -583l59 -139l-149 70zM631 1439l149 -69l653 -652l-652 -652l-149 -69l59 138l583 583l-583 582z" />
<glyph unicode="K" horiz-adv-x="900" d="M10 299l59 139l583 583l-583 583l-59 138l149 -69l652 -652l-652 -652z" />
<glyph unicode="L" horiz-adv-x="869" d="M9 840l150 -56l506 -511v1629l57 143l58 -143v-1902l-694 696z" />
<glyph unicode="M" horiz-adv-x="1290" d="M12 5v938.5v940.5l59 147l59 -147v-678l460 -460l473 472v666l59 147l59 -147q0 -470 -1 -940v-313q0 -313 1 -626q-143 146 -294 286.5t-297 287.5zM130 286l376 376l-376 377v-753zM674 662l389 -389v778z" />
<glyph unicode="N" horiz-adv-x="1059" d="M11 1494l146 -62l270 -271v731l59 147l60 -147v-849l353 -354l62 -145l-145 62l-270 270l-1 -730l-59 -147l-59 147v848l-354 354z" />
<glyph unicode="O" horiz-adv-x="1580" d="M15 2038l146 -62l575 -576l576 576l146 62l-62 -146l-576 -575l616 -617l-616 -616l-84 -84l-700 700l616 617l-575 575zM204 701l533 -533l532 532l-533 533z" />
<glyph unicode="P" horiz-adv-x="990" d="M8 0l70 160l410 410l289 -289v1469l-289 -289l-410 421l-70 159l139 -69l341 -341l408 410v-2041l-408 411l-341 -341z" />
<glyph unicode="Q" horiz-adv-x="1574" d="M8 1019l722 722l722 -722l-722 -723zM164 1018l566 -566l566 566l-566 567z" />
<glyph unicode="R" horiz-adv-x="857" d="M8 1766l154 -67l492 -496v710l57 142l58 -142v-1913l-603 596l469 472l-550 554zM320 596l334 -337v673z" />
<glyph unicode="S" horiz-adv-x="943" d="M9 0l62 146l575 575l-600 601l659 657l146 62l-62 -146l-574 -574l599 -599l-659 -660z" />
<glyph unicode="T" horiz-adv-x="1577" d="M12 791l149 -49l513 -524v1675l60 148l59 -148v-1675l513 524l149 49l-69 -139l-652 -652l-652 652z" />
<glyph unicode="U" horiz-adv-x="918" d="M9 827v1073l57 141l56 -141v-1024l592 -599v1623l56 141l57 -141l-2 -1900z" />
<glyph unicode="V" horiz-adv-x="689" d="M9 604l486 497v808l57 140l57 -140v-1909zM165 604l330 -335v670z" />
<glyph unicode="W" horiz-adv-x="689" d="M9 604l486 497v808l57 140l57 -140v-1909zM165 604l330 -335v670z" />
<glyph unicode="X" horiz-adv-x="664" d="M9 1020l458 458v415l69 148l49 -148v-335v-537.5v-538v-335.5l-49 -147l-69 147v415zM168 1020l299 -299v598z" />
<glyph unicode="Y" horiz-adv-x="1440" d="M11 781l104 -23l508 -504v1787l685 -674l16 -109l-93 32l-500 500l2 -1790l-686 676z" />
<glyph unicode="Z" horiz-adv-x="1575" d="M11 0l69 160l583 606v1128l59 147l59 -147v-1129l603 -605l69 -160l-138 70l-534 533v-455l-59 -148l-59 148v455l-513 -533z" />
<glyph unicode="\" horiz-adv-x="1526" d="M11 1437l146 -62l1234 -1235l63 -145l-146 62l-1235 1234z" />
<glyph unicode="a" horiz-adv-x="765" d="M9 143v928.5v497.5v259v215l605 -624l67 -145l-134 57l-423 448v-427l490 -515l67 -145l-134 58l-423 447v-1054l-58 -143z" />
<glyph unicode="b" horiz-adv-x="688" d="M8 2038l600 -590l-419 -429l419 -429l-599 -590zM125 252l327 338l-327 338v-676zM125 1111l327 337l-327 338v-675z" />
<glyph unicode="c" horiz-adv-x="879" d="M-11 1021l651 652l149 69l-59 -139l-583 -582l583 -583l60 -139l-150 69z" />
<glyph unicode="d" horiz-adv-x="2056" d="M4 0v2040l954 -945l953 943v-2037l-953 944zM119 264l755 756l-755 756v-1512zM1043 1020l756 -756v1512z" />
<glyph unicode="e" horiz-adv-x="1297" d="M8 2043l590 -589l590 590l-1 -1901l-57 -143l-58 143v1631l-474 -484l-474 484v-1631l-57 -143l-58 143z" />
<glyph unicode="f" horiz-adv-x="1229" d="M3 162v449.5v192t0 29.5v-37t0 -7.5v117.5v338.5t1 655.5l59 146l59 -146v-333l379 400l148 69l-79 -169l-448 -468v-306l853 874l148 69l-79 -169l-922 -942v-763l-59 -147z" />
<glyph unicode="g" horiz-adv-x="1303" d="M5 0l33 177l492 845l-491 845l-34 178l138 -118l456 -785l457 785l138 118l-33 -178l-492 -845l491 -844l34 -178l-138 118l-457 784l-456 -784z" />
<glyph unicode="h" horiz-adv-x="1122" d="M9 147v1746l59 148l59 -148v-378l775 -816v1195l59 147l60 -147v-1747l-60 -147l-59 147v383l-775 816v-1199l-59 -147z" />
<glyph unicode="i" horiz-adv-x="220" d="M9 147v1746l59 148l59 -148v-1746l-59 -147z" />
<glyph unicode="j" horiz-adv-x="1554" d="M-11 1317l651 653l149 69l-59 -139l-583 -583l583 -582l60 -139l-150 69zM631 -3l60 138l583 582l-583 583l-59 139l149 -70l652 -652l-653 -652z" />
<glyph unicode="k" horiz-adv-x="879" d="M-11 1021l651 652l149 69l-59 -139l-583 -582l583 -583l60 -139l-150 69z" />
<glyph unicode="l" horiz-adv-x="869" d="M9 143v1902l693 -696l78 -144l-150 56l-506 512v-1630l-57 -143z" />
<glyph unicode="m" horiz-adv-x="1290" d="M12 152v939q0 157 1 313q0 313 -1 627q142 -147 293 -287.5t298 -286.5l578 574v-940v-939l-59 -147l-59 147v677l-460 461l-473 -472v-666l-59 -147zM130 985l389 388l-389 389v-777zM687 1373l376 -376v753z" />
<glyph unicode="n" horiz-adv-x="1059" d="M11 1494l146 -62l270 -270v730l59 147l59 -147v-849l354 -354l62 -145l-146 62l-270 270v-730l-59 -147l-59 147v849l-354 353z" />
<glyph unicode="o" horiz-adv-x="1580" d="M15 0l62 146l576 576l-616 616l616 616l83 84l700 -699l-616 -617l576 -576l62 -146l-146 62l-575 576l-576 -576zM204 1338l533 -533l532 533l-533 532z" />
<glyph unicode="p" horiz-adv-x="990" d="M8 0v2041l408 -410l341 341l139 69l-70 -159l-410 -411l-289 289v-1469l289 289l410 -420l70 -160l-139 70l-341 341z" />
<glyph unicode="q" horiz-adv-x="1575" d="M8 1019l722 722l723 -722l-723 -723zM164 1019l566 -566l567 566l-567 566z" />
<glyph unicode="r" horiz-adv-x="857" d="M8 2055l604 -596l-469 -472l549 -553l77 -145l-153 68l-493 495v-709l-57 -143l-57 143zM123 1123l335 336l-335 337v-673z" />
<glyph unicode="s" horiz-adv-x="943" d="M9 0l62 146l574 574l-599 600l659 659l146 62l-62 -146l-576 -575l601 -601l-659 -657z" />
<glyph unicode="t" horiz-adv-x="1577" d="M12 1249l70 140l652 652l652 -652l69 -139l-149 49l-513 524v-1676l-59 -147l-60 147v1675l-513 -523z" />
<glyph unicode="u" horiz-adv-x="918" d="M9 141l2 1900l816 -828v-1072l-57 -141l-57 141l1 1023l-592 599v-1622l-56 -141z" />
<glyph unicode="v" horiz-adv-x="689" d="M9 140v1909l600 -604l-487 -497v-808l-56 -140zM122 1110l330 335l-330 335v-670z" />
<glyph unicode="w" horiz-adv-x="689" d="M9 140v1909l600 -604l-487 -497v-808l-56 -140zM122 1110l330 335l-330 335v-670z" />
<glyph unicode="x" horiz-adv-x="664" d="M9 147v335v537.5v537.5v336l49 148l69 -148v-414l458 -458l-458 -458v-416l-69 -147zM127 722l299 299l-299 299v-598z" />
<glyph unicode="y" horiz-adv-x="1440" d="M11 783l93 -31l499 -501l-2 1790l686 -676l37 -104l-104 22l-509 504v-1787l-685 675z" />
<glyph unicode="z" horiz-adv-x="1575" d="M11 2041l139 -70l533 -533v455l60 148l59 -148v-455l513 533l138 70l-69 -160l-582 -606v-1128l-59 -147l-60 147v1129l-603 605z" />
<glyph unicode="&#xa9;" horiz-adv-x="2151" d="M22 853q0 38 20 60q21 21 58 21q30 0 47 -12q17 -13 25 -37l-43 -8q1 -3 -5 9q-5 6 -9 8q-6 3 -13 3q-18 0 -25 -13t-7 -31q0 -26 8 -35q7 -9 22 -9t21 7q8 8 11 23l42 -13q-5 -17 -14 -30q-9 -12 -22 -18q-14 -6 -36 -6t-41 7q-17 8 -27 26q-12 18 -12 48zM24 1018v157 h129v-34h-81v-25h76v-31h-76v-30h84v-37h-132zM155 531v157h43v-55q5 7 15 11t18 4q20 0 35 -15q14 -16 14 -44q0 -19 -6 -32q-7 -15 -18 -21q-10 -7 -24 -7q-9 0 -21 4q-10 5 -16 15v-17h-40zM180 1018v157h43v-157h-43zM189 831q0 26 17 43t47 17q34 0 51 -20 q14 -18 14 -40q0 -27 -17 -42q-19 -17 -48 -17q-27 0 -44 14q-20 16 -20 45zM198 588q0 -14 5 -22q8 -6 14 -6t14 6q5 8 5 22q0 15 -5 20q-7 7 -13 7q-9 0 -14 -7q-6 -6 -6 -20zM232 831q0 -16 6 -22q5 -8 15 -8t15 7q7 7 7 23q0 17 -6 23q-6 8 -16 8t-15 -8q-6 -8 -6 -23z M246 1075q0 29 13 44t34 15q10 0 19 -3q10 -6 15 -11v55h43v-157h-41v16q-10 -12 -15 -14q-10 -5 -21 -5q-23 0 -35 18t-12 42zM283 1v158h40v-17q6 7 15 14q10 5 21 5q23 0 35 -18q13 -16 13 -43q0 -31 -14 -43q-14 -15 -34 -15q-10 0 -19 3q-7 2 -14 10v-53zM289 645h45 l23 -76l22 76h43l-45 -122q-8 -20 -16 -28q-12 -9 -35 -9q-16 0 -29 1l-3 30q9 -3 21 -3q9 0 12 4q5 2 9 13zM289 1073q0 -14 5 -20q4 -6 13 -6q8 0 14 6t6 22q0 13 -6 19q-7 8 -15 8q-7 0 -12 -7t-5 -22zM325 102h1q0 -16 5 -21q6 -6 15 -6q8 0 13 6t5 21t-5 20q-7 8 -14 8 q-9 0 -14 -7q-6 -6 -6 -21zM339 731v157h40v-17q5 8 15 15q11 5 22 5q22 0 34 -18q13 -16 13 -43q0 -30 -13 -43q-14 -15 -35 -15q-11 0 -18 3q-8 2 -15 10v-54h-43zM382 831q0 -14 5 -20q6 -6 15 -6q8 0 13 6q5 5 5 21q0 13 -5 20q-7 8 -14 8t-14 -7q-5 -9 -5 -22z M391 1074q0 27 16 43q17 17 47 17q25 0 38 -7q14 -9 22 -21q8 -16 8 -38v-4h-88q0 -7 5 -17q7 -7 16 -7q7 0 13 3q3 1 8 8l43 -4q-11 -19 -24 -25q-16 -7 -40 -7q-22 0 -35 6q-14 6 -21 20q-8 16 -8 33zM423 101q0 27 16 43q17 17 47 17q25 0 38 -7q15 -9 22 -22 q8 -15 8 -37v-4h-88q0 -10 5 -17q7 -7 17 -7q6 0 12 3q2 1 8 7l43 -3q-11 -19 -24 -25q-16 -7 -39 -7t-36 6q-12 5 -21 20q-8 14 -8 33zM434 1086h44q-2 12 -7 17q-7 5 -15 5q-12 0 -17 -8t-5 -14zM466 113h44q-2 9 -7 17q-7 5 -15 5q-11 0 -17 -8q-5 -8 -5 -14zM469 888h45 l23 -76l22 76h43l-45 -122q-9 -22 -17 -27q-10 -10 -34 -10q-16 0 -29 2l-3 29q12 -2 21 -2t12 3q6 4 9 13zM503 610q0 38 20 60q21 21 59 21q29 0 46 -12q16 -13 26 -37l-43 -9q-4 8 -6 10q-5 6 -9 8q-6 3 -13 3q-18 0 -25 -14q-6 -9 -6 -30q0 -27 8 -35q8 -10 22 -10 q12 0 21 7q7 11 10 23l42 -13q-5 -17 -14 -29q-11 -15 -22 -18q-14 -6 -35 -6q-27 0 -41 7q-18 6 -28 25q-12 19 -12 49zM541 1018v114h40v-19q8 14 12 17q8 4 15 4q10 0 22 -6l-14 -31q-8 3 -12 3q-9 0 -13 -7q-7 -13 -7 -37v-38h-43zM573 45v114h40v-20q7 14 12 17 q6 5 16 5q9 0 21 -6l-14 -31q-8 3 -12 3q-11 0 -13 -7q-7 -13 -7 -37v-38h-43zM588 288v157h119v-34h-71v-28h60v-31h-60v-64h-48zM613 775v113h40v-19q7 14 12 17q6 5 16 5q7 0 21 -7l-14 -30q-8 3 -12 3q-10 0 -13 -7q-7 -13 -7 -38v-37h-43zM667 76l44 4q1 -8 7 -11 q3 -3 13 -3q8 0 14 3q4 2 4 7t-6 7q-4 3 -19 5q-27 5 -30 7q-11 3 -15 11q-6 7 -6 19q0 11 6 19q5 8 17 12q13 5 31 5q20 0 29 -3t17 -10q6 -7 11 -17l-41 -4q-2 5 -6 7q-4 4 -11 4q-5 0 -11 -3q-3 -2 -3 -7t4 -6q5 -3 17 -4q19 -2 33 -7q8 -3 16 -12q6 -8 6 -18t-6 -19 t-19 -15q-15 -5 -35 -5q-32 0 -44 9q-14 9 -17 25zM675 572v73h43v-63q0 -9 4 -15q6 -4 11 -4q8 0 13 6q5 5 5 21v55h43v-114h-40v18q-10 -12 -19 -16q-12 -4 -22 -4q-18 0 -28 10q-10 11 -10 33zM711 775v113h43v-113h-43zM711 901v30h43v-30h-43zM713 1018v157h119v-34 h-70v-28h60v-31h-60v-64h-49zM723 288v114h40v-19q6 12 12 17q8 4 15 4q10 0 22 -6l-14 -31q-8 3 -12 3q-11 0 -13 -7q-7 -11 -7 -37v-38h-43zM777 837q0 23 13 40q12 14 33 14q13 0 22 -5q6 -3 16 -15l1 17h40v-107v-5q0 -5 -5 -20q-5 -10 -12 -16q-8 -6 -20 -9 q-14 -2 -26 -2q-36 0 -47 10q-12 9 -12 27v1.5v4.5l43 -5q1 -7 5 -8q6 -3 11 -3q10 0 14 5q5 5 5 17v17q-6 -8 -13 -11q-12 -4 -21 -4q-24 0 -37 19q-10 14 -10 38zM803 101q0 26 17 43t47 17q34 0 51 -20q14 -18 14 -39q0 -26 -17 -43t-48 -17q-27 0 -44 14q-20 16 -20 45z M818 344q0 27 16 43q15 17 47 17q25 0 38 -7q14 -9 22 -21q8 -16 8 -38v-4h-88q0 -7 5 -17q7 -7 16 -7q1 0 13 3q3 1 8 8l43 -4q-13 -20 -24 -24q-15 -8 -40 -8q-22 0 -35 6q-14 7 -21 21q-8 14 -8 32zM820 531v114h40v-19q6 12 12 17t16 5q8 0 21 -7l-13 -31q-12 4 -13 4 q-9 0 -13 -8q-6 -9 -6 -37v-38h-44zM820 833q0 -13 6 -19q5 -5 13 -5q7 0 14 5q5 6 5 19q0 12 -5 19q-8 8 -14 8q-9 0 -13 -6q-6 -6 -6 -21zM846 102q0 -17 6 -23q6 -8 16 -8q8 0 14 7q7 7 7 24q0 15 -6 23q-6 7 -15 7q-11 0 -15 -7q-7 -9 -7 -23zM856 1059v73h43v-63 q0 -13 4 -15q3 -5 10 -5q8 0 13 6q6 6 6 22v55h43v-114h-41v18q-10 -14 -18 -16q-10 -5 -22 -5q-18 0 -29 11q-9 9 -9 33zM861 356h44q-2 12 -7 17q-7 5 -15 5q-12 0 -17 -8t-5 -14zM922 614v31h16v20l43 23v-43h23v-31h-23v-43q0 -9 1 -10q2 -4 7 -4q-1 0 14 3l4 -28 q-17 -3 -31 -3q-17 0 -23 3q-9 4 -12 13t-3 28v41h-16zM928 775v156h43v-58q7 9 17 13q10 5 21 5q17 0 27 -11q11 -11 11 -34v-71h-43v62q0 11 -4 15q-5 5 -11 5q-10 0 -14 -6q-4 -8 -4 -22v-54h-43zM953 45v114h40v-20q8 11 18 17q10 5 23 5q16 0 28 -10q10 -14 10 -34v-72 h-43v62q0 12 -4 15q-4 5 -11 5q-9 0 -13 -6q-5 -7 -5 -22v-54h-43zM963 344q0 27 16 43q15 17 47 17q25 0 38 -7q14 -8 22 -21q8 -16 8 -38v-4h-88q0 -7 5 -17q7 -7 17 -7l12 3q5 2 8 8l43 -4q-10 -19 -23 -24q-16 -8 -40 -8q-23 0 -36 6t-20 21q-9 13 -9 32zM994 1100v32 h16v20l43 23v-43h24v-32h-24v-42q0 -7 2 -11q1 -3 7 -3q5 0 13 3l5 -29q-17 -3 -31 -3q-18 0 -24 4q-9 5 -11 13q-4 8 -4 28v40h-16zM1006 356h45q-4 13 -8 17q-5 5 -14 5q-13 0 -18 -8t-5 -14zM1026 531v114h44v-114h-44zM1026 658v30h44v-30h-44zM1066 857v31h16v21l43 22 v-43h24v-31h-24v-43q0 -4 0.5 -7l0.5 -3q3 -3 8 -3q3 0 13 2l4 -28q-15 -3 -30 -3q-18 0 -24 4q-8 2 -11 12q-4 8 -4 28v41h-16zM1090 563l43 3q1 -5 7 -11q9 -3 13 -3q5 0 14 3q4 2 4 8q0 5 -5 7q-9 3 -19 4q-22 4 -31 8q-9 2 -15 11q-6 7 -6 19q0 10 6 19q6 7 18 12 q11 5 30 5q18 0 30 -4q10 -4 16 -9q8 -8 11 -17l-40 -4q-8 8 -6 7q-5 3 -12 3q-6 0 -10 -2q-4 -4 -4 -7t4 -7q4 -2 18 -3q23 -4 32 -7q9 -5 16 -12q6 -9 6 -18q0 -10 -6 -19q-6 -11 -19 -15q-14 -5 -34 -5q-31 0 -45 8q-14 9 -16 26zM1093 74q0 13 7 22q7 7 28 12q12 2 31 7 l15 6q0 8 -3 11t-11 3q-11 0 -15 -4q-5 -2 -6 -9l-42 4q1 11 6 17q4 5 13 11q7 3 16 5q14 2 23 2q16 0 30 -2q11 -2 20 -10q5 -3 9 -13q3 -9 3 -17v-50q0 -4 0.5 -8t0.5 -5q1 -3 5 -11h-42l-3 6l-1 2t-1 5q-8 -8 -16 -11q-12 -5 -26 -5q-21 0 -30 9q-11 9 -11 23zM1098 1018 v157h43v-58q4 5 17 13q12 4 21 4q17 0 27 -11q11 -11 11 -33v-72h-43v62q0 10 -4 16q-6 4 -11 4q-10 0 -14 -6q-4 -8 -4 -22v-54h-43zM1136 77q0 -4 4 -8q3 -3 9 -3q8 0 13 3q7 3 10 8q2 8 2 14v7q-5 -2 -9.5 -3.5t-8.5 -2.5q-12 -3 -16 -7t-4 -8zM1176 370v32h15v4 q0 5 2 15q0 9 5 14q2 5 12 9q6 3 21 3q12 0 33 -3l-5 -25q-4 0 -7.5 0.5t-4.5 0.5q-5 0 -9 -2q-2 -2 -4 -6v-4.5v-5.5h21v-32h-21v-82h-43v82h-15zM1236 853q0 20 10 40q11 18 30 30q18 11 40 11t41 -11q18 -11 30 -29q11 -21 11 -41q0 -23 -11 -41t-30 -29t-41 -11 q-20 0 -40 10q-21 14 -29 30q-11 18 -11 41zM1238 1047q0 15 7 22q7 8 27 12q30 7 31 8q7 1 16 5q0 7 -4 11q-2 3 -11 3q-10 0 -15 -4q-2 -1 -6 -9l-41 4q1 9 5 17q4 6 14 11q5 3 16 5q6 2 22 2q24 0 31 -2q9 -2 19 -9q6 -4 10 -14q3 -9 3 -17v-50q0 -4 0.5 -7.5t0.5 -5.5 q0 -3 4 -11h-41q-3 9 -3 6q-2 2 -2 7q-11 -9 -17 -11q-12 -5 -26 -5q-20 0 -30 9q-10 10 -10 23zM1245 45v157h43v-157h-43zM1251 853q0 -27 19 -46t47 -19q27 0 46 19q19 17 19 46q0 27 -19 46t-46 19q-28 0 -47 -19q-19 -21 -19 -46zM1262 344q0 26 17 43t47 17 q34 0 51 -20q14 -16 14 -39q0 -26 -17 -43t-48 -17q-27 0 -44 14q-20 16 -20 45zM1274 853q0 19 12 33q13 13 31 13q16 0 25 -9q10 -8 14 -21l-21 -3q-2 5 -6 13q-8 4 -13 4q-7 0 -14 -7q-5 -9 -5 -22q0 -16 3 -22q6 -9 16 -9q7 0 11 5q6 3 8 15l22 -6q-3 -11 -11 -19 q-11 -11 -29 -11t-31 13q-12 12 -12 33zM1281 1051q0 -6 3 -9t10 -3t13 3q7 3 9 9q3 9 3 13v8q-9 -5 -19 -6q-13 -5 -16 -8t-3 -7zM1300 610q0 37 21 60q19 21 58 21q29 0 46 -12q18 -14 26 -37l-43 -9q-4 8 -6 10q-5 6 -9 8q-6 3 -13 3q-17 0 -25 -14q-6 -9 -6 -30 q0 -27 8 -35q8 -10 22 -10q12 0 21 7q6 8 10 23l42 -13q-3 -12 -13 -29q-11 -14 -23 -18q-14 -6 -35 -6q-27 0 -41 7q-15 5 -28 25q-12 19 -12 49zM1305 345q0 -16 6 -23q6 -8 16 -8q8 0 15 7q6 7 6 24q0 15 -6 23q-7 8 -15 8q-11 0 -15 -8q-7 -11 -7 -23zM1388 1018v114h40 v-19q8 14 12 17q8 4 16 4q9 0 21 -6l-14 -31q-8 3 -12 3q-11 0 -13 -7q-7 -13 -7 -37v-38h-43zM1389 86v73h43v-63q0 -13 4 -15q5 -5 10 -5q8 0 13 6q6 6 6 22v55h43v-114h-41v18q-10 -14 -18 -16q-10 -5 -22 -5q-19 0 -28 11q-10 8 -10 33zM1412 288v114h40v-19q6 12 12 17 q8 4 16 4q9 0 21 -6l-14 -31q-8 3 -12 3q-9 0 -13 -7q-6 -9 -6 -37v-38h-44zM1474 531v157h43v-157h-43zM1492 1018v157h43v-81l33 38h54l-42 -40l44 -74h-49l-24 45l-16 -16v-29h-43zM1494 857v35q21 6 34 17q12 9 20 25h36v-159h-44v104q-12 -9 -21 -13q-12 -5 -25 -9z M1526 76l43 4q2 -7 7 -11q4 -3 13 -3t14 3q4 1 4 7q0 5 -5 7q-6 3 -19 5q-28 6 -31 7q-9 2 -15 11q-6 7 -6 19q0 11 6 19q7 8 18 12q13 5 31 5q20 0 29 -3q10 -4 16 -10q8 -9 11 -17l-40 -4q-2 5 -6 7q-6 4 -12 4q-4 0 -10 -3q-3 -2 -3 -7t4 -6q5 -3 17 -4q21 -2 32 -7 q10 -4 16 -12q6 -6 6 -18t-6 -19q-4 -7 -18 -15q-15 -5 -35 -5q-32 0 -45 9t-16 25zM1540 561q0 14 7 21q7 8 28 13q10 2 30 7q7 1 16 5q0 8 -3 11q-4 4 -12 4t-14 -4q-5 -3 -6 -10l-42 4q1 11 6 17q3 7 13 11q6 3 16 6q14 2 22 2q17 0 31 -2q8 -2 20 -10q5 -5 9 -13 q3 -9 3 -18v-50q0 -4 0.5 -7.5t0.5 -5.5q0 -3 4 -11h-41q-3 9 -3 6q-2 2 -2 7q-8 -8 -17 -11q-14 -4 -26 -4q-20 0 -30 9q-10 10 -10 23zM1583 564q0 -6 3 -9q6 -3 10 -3q1 0 13 3q7 3 9 9q3 4 3 14v7l-18 -6q-15 -5 -17 -7q-3 -3 -3 -8zM1629 879q0 16 7 28q5 12 20 20 q14 7 32 7q22 0 38 -8q14 -9 22 -26q9 -18 9 -46q0 -43 -18 -62q-18 -20 -49 -20q-20 0 -28 4q-10 2 -19 12q-8 11 -10 21l43 6q0 -8 5 -13q4 -4 10 -4q9 0 16 11q5 9 7 34q-8 -9 -17 -12q-7 -4 -18 -4q-22 0 -36 14q-14 15 -14 38zM1662 101q0 28 16 43q17 17 47 17 q25 0 38 -7q15 -9 21 -22q8 -12 8 -37v-4h-87q0 -12 5 -17q7 -7 16 -7q7 0 13 3q2 1 8 7l43 -3q-11 -18 -24 -25q-16 -7 -40 -7q-23 0 -35 6q-14 5 -21 20q-8 14 -8 33zM1671 880q0 -13 5 -19q7 -7 15 -7t15 7q6 6 6 19h1q0 12 -7 19q-7 8 -16 8q-7 0 -14 -7q-5 -7 -5 -20z M1690 531v114h40v-19q6 12 12 17t16 5q7 0 21 -7l-14 -31q-10 4 -12 4q-9 0 -13 -8q-7 -11 -7 -37v-38h-43zM1705 113h44q-2 9 -7 17q-7 5 -15 5q-11 0 -17 -8q-5 -5 -5 -14zM1715 1100v36q22 6 34 16q10 7 20 25h36v-159h-44v105q-7 -6 -21 -14q-12 -5 -25 -9zM1774 879 q0 14 7 28q7 13 20 20q14 7 32 7q23 0 38 -8q13 -8 23 -26q8 -20 8 -46q0 -43 -18 -62q-16 -20 -49 -20q-20 0 -28 4q-10 2 -19 12q-8 11 -10 21l43 6q1 -10 5 -13q4 -4 10 -4q11 0 16 11q5 9 7 34q-7 -9 -16 -12q-8 -4 -19 -4q-21 0 -36 14q-14 15 -14 38zM1794 531v157h43 v-81l33 38h54l-41 -40l43 -74h-49l-24 45l-16 -15v-30h-43zM1816 880q0 -13 5 -19q7 -7 15 -7t15 7q6 6 6 19h1q0 12 -7 19q-7 8 -16 8q-8 0 -13 -7q-6 -6 -6 -20zM1855 1018v43h46v-43h-46zM1920 852q0 41 17 62q18 20 50 20q16 0 28 -4q10 -5 19 -13q5 -8 11 -21l-43 -5 q-3 8 -6 13q-4 4 -10 4q-12 0 -16 -11q-5 -8 -6 -34q7 8 15 12t19 4q21 0 36 -15q15 -17 15 -38q0 -16 -8 -28q-10 -15 -20 -20q-16 -6 -33 -6q-23 0 -37 8q-15 7 -22 25q-9 21 -9 47zM1933 1100v36q23 6 34 16q10 7 20 25h36v-159h-44v105l-21 -14q-12 -5 -25 -9zM1965 826 q0 -11 6 -19t16 -8q9 0 15 6t6 20q0 12 -6 20q-7 7 -15 7q-9 0 -16 -7q-6 -10 -6 -19z" />
<glyph unicode="&#xad;" d="M10 1021l147 59h561l147 -59l-147 -60h-561z" />
<glyph unicode="&#xae;" horiz-adv-x="2731" d="M17 1378q-6 31 52 44.5t146 20.5q-95 5 -95 33q-27 1 27 27.5t153.5 67t227 89.5t249.5 97q68 18 152.5 -8t177.5 -71q57 15 80 81q0 82 24 129q25 51 60 77q8 20 17 39.5t18 40.5q9 -21 17.5 -40.5t17.5 -39.5q34 -26 60 -77q24 -49 23 -129q26 -67 82 -81q92 45 176 71 t153 8q121 -48 248.5 -97t227 -89.5t153.5 -67t28 -27.5q0 -28 -95 -33q87 -7 145.5 -20.5t52.5 -44.5q-16 -46 -142 -34q51 -17 88 -35.5t32 -41.5q-43 -36 -202 18q79 -37 133 -67.5t30 -42.5q-25 -41 -146 -1q35 -25 57.5 -47t5.5 -34q-15 -39 -160 37q55 -44 31 -57 q-16 -22 -53.5 -11t-81.5 35q1 -26 -28 -33q-107 7 -304 79q-96 -24 -191.5 -47.5t-190.5 -47.5q-46 -46 -35 -152q41 -182 82.5 -364.5t83.5 -365.5q-34 -90 -120.5 -127.5t-177.5 -37.5q-93 0 -179 37.5t-119 127.5q42 183 83.5 365.5t83.5 364.5q7 108 -36 152 q-95 24 -190.5 47.5t-191.5 47.5q-198 -72 -304 -79q-30 7 -28 33q-45 -24 -82 -35t-52 11q-26 13 30 57q-146 -76 -160 -37q-18 12 4.5 34t58.5 47q-122 -41 -145 1q-25 12 28.5 42.5t134.5 67.5q-160 -54 -203 -18q-5 23 32.5 41.5t88.5 35.5q-127 -12 -143 34zM285 1467 q8 -75 80 -135q114 -76 286 -49q49 23 88 43q65 -56 133.5 -78.5t140.5 -25.5q-93 31 -164 80.5t-131 106.5q5 33 15 97q230 -148 328 -101q-157 26 -317 149q-10 -17 -35 -31q-116 -28 -220 4q-40 9 -65 54q-25 -10 -50.5 -21t-49.5 -20q-38 -33 -39 -73zM360 1474 q-24 28 5 36q164 -63 280 -67q12 -11 9.5 -21.5t-50.5 -20.5q-114 0 -244 73zM1030 173q17 -45 51.5 -82t94.5 -46q21 90 30.5 194t16.5 203q-9 68 -24 87q-22 9 -51 -60q20 87 44 182t2 131l-17 34q-41 -195 -77.5 -365.5t-69.5 -277.5zM1389 442q6 -99 15 -203t32 -194 q60 9 94.5 46t51.5 82q-33 107 -69.5 277.5t-77.5 365.5q-6 -12 -18 -34q-22 -36 2 -131t45 -182q-30 69 -51 60q-16 -19 -24 -87zM1551 1405q97 -47 328 101q10 -64 15 -97q-61 -57 -131.5 -106.5t-163.5 -80.5q71 3 140 25.5t135 78.5q34 -19 87 -43q171 -27 286 49 q71 60 80 135q-2 42 -39 73q-25 9 -50 20t-50 21q-23 -44 -64 -54q-106 -32 -220 -4q-25 13 -35 31q-160 -123 -318 -149zM1956.5 1421.5q-2.5 10.5 11.5 21.5q116 4 279 67q30 -8 5 -36q-131 -73 -244 -73q-49 10 -51.5 20.5z" />
<glyph unicode="&#x2000;" horiz-adv-x="1027" />
<glyph unicode="&#x2001;" horiz-adv-x="2055" />
<glyph unicode="&#x2002;" horiz-adv-x="1027" />
<glyph unicode="&#x2003;" horiz-adv-x="2055" />
<glyph unicode="&#x2004;" horiz-adv-x="685" />
<glyph unicode="&#x2005;" horiz-adv-x="513" />
<glyph unicode="&#x2006;" horiz-adv-x="342" />
<glyph unicode="&#x2007;" horiz-adv-x="342" />
<glyph unicode="&#x2008;" horiz-adv-x="256" />
<glyph unicode="&#x2009;" horiz-adv-x="411" />
<glyph unicode="&#x200a;" horiz-adv-x="114" />
<glyph unicode="&#x2010;" d="M10 1021l147 59h561l147 -59l-147 -60h-561z" />
<glyph unicode="&#x2011;" d="M10 1021l147 59h561l147 -59l-147 -60h-561z" />
<glyph unicode="&#x2012;" d="M10 1021l147 59h561l147 -59l-147 -60h-561z" />
<glyph unicode="&#x2013;" horiz-adv-x="1077" d="M10 1021l176 59h672l176 -59l-176 -60h-672z" />
<glyph unicode="&#x2014;" horiz-adv-x="2101" d="M10 1021l352 59h1344l352 -59l-352 -60h-1344z" />
<glyph unicode="&#x202f;" horiz-adv-x="411" />
<glyph unicode="&#x205f;" horiz-adv-x="513" />
<glyph unicode="&#x25fc;" horiz-adv-x="2040" d="M0 0v2040h2040v-2040h-2040z" />
</font>
</defs>
</svg>
