<?xml version="1.0" standalone="no"?>
<!DOCTYPE svg PUBLIC "-//W3C//DTD SVG 1.1//EN" "http://www.w3.org/Graphics/SVG/1.1/DTD/svg11.dtd" >
<svg xmlns="http://www.w3.org/2000/svg" xmlns:xlink="http://www.w3.org/1999/xlink" version="1.1">
<metadata></metadata>
<defs>
<font id="tengwar_annatarbold" horiz-adv-x="0" >
<font-face units-per-em="2048" ascent="1638" descent="-410" />
<missing-glyph horiz-adv-x="720" />
<glyph />
<glyph />
<glyph unicode="&#xd;" horiz-adv-x="666" />
<glyph unicode=" "  horiz-adv-x="720" />
<glyph unicode="&#x09;" horiz-adv-x="720" />
<glyph unicode="&#xa0;" horiz-adv-x="720" />
<glyph unicode="!" horiz-adv-x="1376" d="M-190 -1036q0 32 68 108l6 6q36 36 80 154q84 236 106 700l6 138q6 266 6 532q0 428 32 626q12 74 28 142q58 236 224 404q94 94 140 94q18 0 18 -22q-2 -22 -20 -46l-54 -70q-32 -32 -68 -136q-58 -176 -70 -464q-4 -114 -4 -514q230 230 444 286q58 16 112 16 q186 0 278 -162q54 -94 54 -198q0 -146 -108 -294q-146 -196 -340 -268q-64 -24 -116 -24q-80 0 -134 56q-34 38 -34 82q0 34 18 72t50 62q46 34 92 34q28 0 58 -12l54 -38q36 -22 84 -22q38 0 86 14q34 6 42 36q26 60 26 120q0 76 -44 156q-74 132 -210 156q-8 2 -14 2 q-18 2 -36 2q-116 0 -252 -102q-104 -68 -112 -198l-4 -84q-18 -502 -64 -710q-40 -206 -104 -332q-88 -168 -208 -272q-64 -52 -96 -52q-6 0 -10 4q-10 6 -10 18z" />
<glyph unicode="&#x22;" d="M-1920 -292q2 14 20 46q34 50 94 94q32 20 52 22l34 -6q140 -28 258 -28h802q156 0 316 32q8 2 14 2q20 0 20 -20q0 -14 -14 -34q-30 -58 -96 -106q-40 -26 -130 -42q-134 -20 -242 -20h-766q-208 0 -328 32q-32 0 -34 28z" />
<glyph unicode="#" d="M-1364 1440q0 14 30 42l86 84q34 34 42 34q12 0 28 -16l112 -112q20 -20 20 -30q0 -16 -30 -40l-84 -86l-34 -30q-6 -2 -12 -2q-14 0 -26 16l-112 112q-20 16 -20 28zM-1174 1708v4q0 14 30 40l84 84q34 34 42 34q10 0 30 -16l112 -112q18 -24 18 -28v-4q0 -14 -28 -38 l-86 -86q-34 -34 -42 -34q-14 0 -28 18l-112 112q-20 14 -20 26zM-986 1440q0 14 30 42l86 84q34 34 40 34l6 -2h4q10 -4 20 -14l112 -112q20 -20 20 -30q0 -16 -30 -40l-84 -86l-34 -30q-6 -2 -12 -2q-14 0 -26 16l-112 112q-20 16 -20 28z" />
<glyph unicode="$" d="M-1296 1252v4q0 24 46 56l68 58q238 202 438 344q62 42 98 42q52 0 66 -48q6 -16 6 -30q0 -34 -32 -60q-6 -8 -50 -40q-156 -110 -546 -336q-38 -24 -60 -24q-34 0 -34 34z" />
<glyph unicode="%" d="M-1176 1440q0 14 30 42l86 84q34 34 42 34q12 0 28 -16l112 -112q20 -20 20 -30q0 -16 -30 -40l-84 -86l-34 -30q-6 -2 -12 -2q-14 0 -26 16l-112 112q-20 16 -20 28z" />
<glyph unicode="&#x26;" d="M-1386 1208l4 18l8 10q6 6 38 24q36 22 66 34l240 110q236 124 236 230q0 52 -68 80q-28 10 -54 10q-12 0 -24 -2q-8 -2 -48 -32q-46 -22 -62 -22q-2 0 -12 4q-6 6 -6 14q0 26 50 78q128 136 272 136q86 0 138 -76q2 0 2 -2q32 -48 32 -108q0 -160 -216 -300 q-116 -74 -380 -168q-56 -18 -132 -46q-40 -14 -58 -14q-26 0 -26 22z" />
<glyph unicode="'" d="M-1298 -298q0 20 20 52q38 52 90 90q32 24 60 24q12 0 22 -4q72 -24 148 -28h462q82 0 142 18q42 16 52 16h2h2q14 0 14 -18q0 -22 -32 -68q-48 -62 -102 -90q-26 -14 -98 -32q-58 -14 -222 -14h-300q-126 0 -188 16q-56 16 -62 20q-10 6 -10 18z" />
<glyph unicode="(" d="M-1266 -540q0 14 30 42l86 84q34 34 42 34q12 0 28 -16l112 -112q20 -20 20 -30q0 -16 -30 -40l-84 -86l-34 -30q-6 -2 -12 -2q-14 0 -26 16l-112 112q-20 16 -20 28z" />
<glyph unicode=")" d="M-1666 1616v4q0 30 54 90q188 204 462 204q74 0 160 -12l406 -76q76 -12 142 -12h22q126 0 208 44l90 72q24 14 46 14q14 0 16 -14v-4q0 -44 -70 -108q-192 -192 -450 -192q-72 0 -156 12l-408 78q-86 12 -158 12q-140 0 -220 -50l-84 -68q-24 -14 -44 -14q-16 0 -16 20z " />
<glyph unicode="*" horiz-adv-x="1324" d="M62 456q0 476 316 896q184 244 430 392q104 60 156 60q24 0 24 -20l-10 -22q-28 -38 -90 -76l-100 -62l-4 -2q-114 -78 -210 -180q-250 -276 -284 -710q-2 -42 -2 -74q0 -258 144 -396q94 -90 218 -90q96 0 178 40l24 14q32 40 32 122v28q0 64 -26 114l-36 46l-2 2 q-22 30 -22 72q0 102 94 146q32 16 66 16q32 0 66 -16q88 -48 88 -190q0 -18 -2 -36q0 -38 -22 -112q-34 -98 -122 -204q-224 -268 -504 -266q-198 0 -310 174q-90 142 -90 334z" />
<glyph unicode="+" horiz-adv-x="720" d="M-640 12q0 32 48 92q62 70 114 86q20 6 64 6q76 4 246 4l524 -20q146 -14 238 -142q70 -98 70 -214q0 -178 -146 -348q-192 -218 -416 -218q-50 0 -100 14q-128 32 -196 136q-40 60 -40 124q0 92 82 190q48 56 92 80q22 20 50 20q20 0 20 -18q0 -26 -26 -64l-14 -24 q-2 -8 -2 -20q0 -16 4 -38q30 -114 156 -170q66 -30 134 -30q34 0 68 8q68 14 88 36q22 22 36 92q8 36 8 70q0 112 -80 206q-74 88 -180 108q-276 8 -566 22l-248 -8h-4q-24 0 -24 20z" />
<glyph unicode="," horiz-adv-x="1300" d="M4 344q0 202 194 396q214 214 464 214q200 0 314 -136q78 -88 78 -224q0 -74 -22 -160q-28 -112 -80 -200q-8 -14 -66 -104q92 -46 140 -158q30 -72 30 -148q0 -188 -180 -410q-110 -138 -290 -258q-154 -102 -218 -130q-54 -20 -80 -20t-26 16q0 46 130 120 q156 90 260 174q82 70 108 108q66 94 66 208q0 162 -120 258q-16 12 -34 22l-30 14q-8 8 -8 24q4 18 26 54l82 102l2 2q84 136 84 294q0 70 -24 126q-58 138 -220 186q-60 18 -120 18q-84 0 -162 -36q-38 -16 -44 -30q-32 -60 -32 -124q0 -66 24 -112q-2 4 50 -74 q20 -36 20 -70q0 -50 -42 -98q-54 -60 -122 -60q-62 0 -98 42q-54 60 -54 174z" />
<glyph unicode="-" horiz-adv-x="540" d="M-32 202q0 14 30 42l86 84q34 34 42 34q12 0 28 -16l112 -112q20 -20 20 -30q0 -16 -30 -40l-84 -86l-34 -30q-6 -2 -12 -2q-14 0 -26 16l-112 112q-20 16 -20 28zM-32 698q0 14 30 42l86 84q34 34 42 34q12 0 28 -16l112 -112q20 -20 20 -30q0 -16 -30 -40l-84 -86 l-34 -30q-6 -2 -12 -2q-14 0 -26 16l-112 112q-20 16 -20 28z" />
<glyph unicode="." horiz-adv-x="1150" d="M14 356q0 176 162 354q196 208 402 208q44 0 88 -10q158 -38 238 -184q46 -84 46 -178q0 -146 -108 -290q-158 -212 -360 -262q-46 -12 -98 -12l-98 14q-156 40 -230 190q-42 84 -42 170zM240 544q0 -68 32 -140q58 -132 200 -178q54 -18 108 -18l36 2q34 4 58 14 q18 4 24 10q8 8 20 54q8 38 8 74q0 124 -98 226q-102 104 -234 104h-14h-10q-78 -6 -104 -26q-14 -12 -20 -62q-6 -30 -6 -60z" />
<glyph unicode="/" d="M-1532 -1058q0 18 28 64q100 132 252 172q38 10 88 10q84 0 202 -26q146 -32 214 -32h22q56 0 92 18l68 50q20 8 32 8q16 0 16 -18q0 -16 -26 -60q-64 -90 -170 -144q-78 -42 -176 -42q-82 0 -198 26l-34 6q-122 26 -196 26q-64 0 -98 -18l-74 -52q-14 -6 -22 -6 q-20 0 -20 18z" />
<glyph unicode="0" d="M-1038 1652q2 14 28 54q98 134 254 172q36 8 84 8q86 0 208 -26q142 -30 210 -30h22q56 0 92 18l68 50q20 8 32 8q16 0 16 -18q0 -24 -28 -62q-92 -126 -248 -174q-40 -8 -90 -8q-86 0 -206 24q-152 32 -232 32q-60 0 -92 -18l-78 -54q-10 -6 -20 -6t-16 6q-4 4 -4 24z " />
<glyph unicode="1" horiz-adv-x="1488" d="M-76 626q0 30 64 110q126 138 258 164q32 10 60 10q32 0 54 -14q60 -40 60 -212v158v-2v-222q148 148 312 230q130 68 244 68q62 0 120 -20q144 -58 194 -214q20 -58 20 -120q0 -18 -2 -38q-26 -222 -244 -406q-98 -84 -200 -120q-68 -24 -122 -24q-90 0 -134 58 q-32 38 -32 82q0 38 24 78q52 86 138 86l60 -14q4 -2 50 -36q36 -22 86 -22q38 0 84 14q22 4 32 14q2 2 12 22q26 60 26 118q0 80 -46 160q-36 70 -108 114q-70 44 -150 44q-116 0 -254 -102q-98 -66 -112 -192l-4 -94q-18 -512 -68 -746q-84 -370 -308 -564 q-64 -52 -96 -52q-18 0 -18 24q2 4 2 8q10 34 66 98l2 2q202 252 202 1372q0 58 -2 102q0 108 -54 132q-10 4 -22 4q-24 0 -60 -12q-6 -2 -40 -28q-4 -4 -8 -6q-44 -28 -66 -28q-16 0 -20 16z" />
<glyph unicode="2" horiz-adv-x="2144" d="M-76 626q0 30 64 110q126 138 258 164q32 10 60 10q32 0 54 -14q60 -34 60 -210v58v-110q94 94 158 138q194 144 338 144q54 0 102 -20q144 -66 188 -244q264 264 466 264q40 0 78 -10q136 -42 192 -198q26 -70 26 -144q0 -264 -278 -482q-142 -108 -258 -108 q-36 0 -66 12q-96 42 -96 130q0 46 36 94q50 68 126 68q34 0 70 -18l36 -30q36 -24 86 -24q70 0 84 20q6 8 16 38q20 62 20 122q0 98 -58 184q-22 34 -54 62q-72 60 -156 60q-66 0 -138 -46q-34 -22 -38 -28q-20 -20 -52 -80l-90 -194l-2 -2q-94 -184 -270 -294 q-116 -72 -210 -72l-50 4l-2 2q-46 10 -74 44q-36 38 -36 86q0 34 20 74q48 92 144 92q32 0 60 -16l44 -32q34 -24 82 -24q28 0 60 8q24 4 30 14q34 58 34 152q0 142 -98 240q-6 4 -12 10q-70 62 -150 62q-74 0 -160 -52q-52 -36 -72 -58q-58 -64 -76 -168l-6 -110 q-16 -546 -86 -812q-26 -92 -58 -170q-76 -188 -220 -318q-72 -62 -106 -62q-16 0 -18 20v12q10 34 66 98l2 2q202 252 202 1372q0 58 -2 102q0 108 -54 132q-10 4 -22 4q-24 0 -60 -12q-6 -2 -40 -28q-4 -4 -8 -6q-44 -28 -66 -28q-16 0 -20 16z" />
<glyph unicode="3" horiz-adv-x="1376" d="M6 2q0 26 34 72q16 22 18 26q26 56 26 278q0 498 2 550q16 414 132 646q80 150 194 244q66 54 94 54q18 0 18 -26q-4 -36 -62 -100q-16 -18 -24 -28q-30 -44 -56 -126q-74 -218 -74 -638l2 -334q134 134 278 214q154 84 274 84q162 0 258 -128q74 -100 74 -220 q0 -254 -258 -462q-170 -136 -302 -136q-58 0 -106 30q-24 14 -38 34q-28 38 -28 78q0 38 22 78q46 84 134 86q34 0 68 -14l42 -32l2 -2q38 -22 90 -22q38 0 82 12q30 12 32 16q6 8 16 34q18 50 18 106q0 146 -110 244q-82 72 -186 72t-218 -74q-56 -34 -78 -62 q-34 -38 -54 -100q0 -2 -32 -158q-18 -80 -64 -144q-68 -100 -146 -150q-40 -22 -56 -22q-6 0 -14 8q-4 4 -4 12z" />
<glyph unicode="4" horiz-adv-x="2046" d="M4 4q0 26 44 80q36 44 36 318q0 484 2 552q18 396 134 620q76 148 190 242q34 30 66 44q16 10 28 10q20 0 20 -22q-2 -24 -20 -48q-2 -4 -54 -70l-2 -2q-4 -6 -8 -10q-36 -50 -56 -120q-76 -226 -76 -668l2 -290q140 130 200 168q10 6 18 12q150 100 270 100 q60 0 114 -26q86 -52 126 -114q38 -64 52 -128q64 64 78 76q218 190 380 190h20q36 0 68 -12q138 -44 194 -204q24 -66 24 -136q0 -228 -216 -430q-170 -160 -320 -160q-46 0 -80 16q-78 40 -78 124q0 100 88 144l2 2q40 16 68 16q34 0 66 -16l68 -44l14 -4q26 -6 50 -6 t46 6q26 6 30 12q38 56 38 156q0 114 -76 212q-76 100 -184 100q-74 0 -146 -46q-24 -14 -38 -28q-20 -20 -58 -92l-86 -184q-92 -172 -256 -286q-132 -84 -226 -84q-66 0 -114 42q-46 38 -46 94q0 24 10 52q30 98 136 114q10 2 18 2q34 0 64 -18l38 -30q38 -22 86 -22 q60 0 84 16q8 8 16 34q24 60 24 120q0 82 -44 164q-66 126 -186 148q-18 4 -38 4q-76 0 -160 -56q-110 -72 -142 -240l-16 -102q-46 -180 -204 -288q-40 -24 -60 -24q-22 0 -22 20z" />
<glyph unicode="5" horiz-adv-x="2156" d="M-74 624v8q20 60 80 120q110 110 220 144q46 14 80 14q42 0 66 -22q50 -40 50 -196v-12v46l2 -90q2 4 36 38q44 46 104 90q196 156 346 156q60 0 114 -26q138 -70 180 -242q266 266 462 266q174 0 260 -170q42 -86 42 -178q0 -234 -224 -440q-166 -154 -312 -154 q-78 0 -122 48q-40 40 -40 90q0 70 52 118q50 46 108 46q24 0 50 -8l64 -42q40 -22 84 -22q34 0 70 14q8 2 20 32q24 58 24 124q0 146 -94 240q-74 78 -170 78q-64 0 -132 -42q-38 -24 -48 -34q-26 -30 -84 -144l-66 -144q-104 -172 -248 -272q-120 -82 -224 -82 q-84 0 -134 58q-30 36 -30 78q0 36 22 76q26 52 76 74q34 16 66 16q34 0 66 -18l50 -36h2q34 -16 78 -16q60 0 76 16q4 2 14 24q26 64 26 130q0 78 -38 156q-68 134 -200 158q-18 2 -34 2q-98 0 -186 -78q-84 -76 -108 -210q-12 -62 -22 -128q-20 -74 -72 -142 q-64 -84 -128 -126q-38 -26 -58 -26t-20 16q0 26 50 98q26 52 26 338q0 56 -2 116q-8 134 -84 134q-28 0 -60 -16l-62 -46l-2 -2q-32 -12 -46 -12q-10 0 -12 4l-2 2q-2 4 -2 8z" />
<glyph unicode="6" horiz-adv-x="1500" d="M-74 626q0 36 62 108q114 124 238 162q46 14 80 14q40 0 64 -20q52 -38 52 -202v-12l2 146v-2q0 -14 -2 -202q166 166 344 248q110 52 208 52q106 0 192 -60q136 -102 142 -282q0 -184 -144 -354q-126 -152 -288 -218q-76 -32 -138 -32q-92 0 -140 72q-20 36 -20 74 q0 86 72 132q42 28 84 28q34 0 66 -16l60 -40q32 -14 74 -14t90 14q22 12 24 12q2 2 20 44q14 46 14 98q0 150 -116 250q-80 68 -174 68q-106 0 -226 -76q-48 -32 -70 -56q-36 -38 -60 -104q-12 -34 -32 -158q-16 -70 -52 -128q-64 -102 -152 -164q-40 -24 -60 -24t-20 18 q0 14 10 34l40 60l2 2q16 32 22 164l2 214q0 154 -32 190q-20 20 -52 20q-28 0 -58 -16l-68 -48q-26 -16 -42 -16q-18 0 -18 20z" />
<glyph unicode="7" horiz-adv-x="1344" d="M-72 640q0 16 18 48l2 2q20 40 114 122q106 88 194 88q42 0 78 -18q22 -10 36 -28q16 -16 44 -76q30 -66 34 -82q0 4 90 76q182 144 330 144q54 0 104 -20q160 -62 160 -246q0 -124 -84 -264q-134 -226 -446 -410q-326 -192 -384 -354q-18 -54 -18 -102q0 -26 6 -50 q24 -124 136 -184q56 -32 120 -32h8q42 0 72 14l28 26q58 52 98 54l2 2l4 -2q12 0 12 -14v-4q0 -22 -26 -62q-44 -64 -126 -132q-138 -110 -264 -110q-68 0 -126 32q-136 64 -166 224q-2 6 -2 12q-2 16 -2 34q0 228 284 508q70 70 166 134l12 12q-8 22 -12 48 q-98 312 -210 572q-28 54 -42 68q-38 32 -72 32q-14 0 -28 -6q-4 -4 -26 -24q-72 -48 -94 -52q-24 0 -24 20zM472 642l50 -132q90 -246 128 -398q30 18 100 70q70 58 98 94q58 80 58 190q0 62 -26 112q-82 118 -218 118q-88 0 -190 -54z" />
<glyph unicode="8" horiz-adv-x="1262" d="M10 306q0 168 164 416q56 86 252 346q132 172 186 272q52 96 52 166q0 52 -28 88q-18 24 -18 34q2 26 32 68q48 64 110 108q42 28 64 28q12 0 28 -20q38 -48 38 -118q0 -106 -90 -266q-78 -138 -294 -420l-4 -4l-30 -40q-120 -160 -168 -248q-68 -126 -68 -220 q0 -138 120 -236q106 -88 240 -88q96 0 176 38q24 12 28 18q34 34 34 140q0 68 -26 116l-40 56q-22 32 -22 70q0 104 96 148q32 16 64 16q18 0 38 -6q116 -32 116 -210v-6q0 -180 -164 -358l-6 -6q-224 -242 -490 -242q-166 0 -282 114q-108 106 -108 246z" />
<glyph unicode="9" horiz-adv-x="1344" d="M-76 1498q0 32 62 100q148 156 274 156q70 0 118 -38q28 -24 64 -118l94 -234l-34 86l424 -1050q30 -72 30 -74q28 -72 42 -88q28 -38 74 -50q16 -4 26 -4h4q6 0 42 36q56 60 102 60h4q16 0 16 -16v-6q0 -18 -16 -46q-22 -36 -108 -122q-108 -108 -204 -108 q-76 0 -130 62q-22 22 -80 176l-138 340q-12 -28 -38 -66l-68 -120q-86 -152 -106 -180q-68 -96 -164 -158q-84 -54 -160 -54q-28 0 -40 8q-26 10 -52 52q-30 40 -30 54q0 24 34 70q48 64 106 102q38 30 62 30q6 0 10 -2q4 0 22 -18q38 -54 46 -60q14 -12 26 -12l10 2 q6 2 20 30l48 82v-2l200 350q16 22 16 30q-92 242 -286 716q-16 36 -16 38q-26 60 -50 76l-2 2q-2 0 -4 2q-22 14 -72 22q-26 0 -36 -6l-28 -24q-56 -50 -88 -50q-26 0 -26 24z" />
<glyph unicode=":" d="M-1918 -412q0 30 54 90q188 204 464 204q80 0 172 -14l396 -74q94 -14 172 -14q114 0 196 46l90 72q24 14 44 14q18 0 18 -18q0 -38 -74 -112q-188 -188 -448 -188q-64 0 -140 10q16 -2 -390 74q-104 18 -188 18q-138 0 -222 -50l-86 -66q-24 -16 -42 -16q-16 0 -16 20v4 z" />
<glyph unicode=";" d="M-1298 -392q0 18 28 64q100 132 252 172q38 8 88 8q84 0 202 -24q146 -32 214 -32h22q56 0 92 18l68 50q20 8 32 8q16 0 16 -18q0 -16 -26 -60q-64 -90 -170 -144q-74 -42 -176 -42q-82 0 -198 26q-154 32 -234 32q-60 0 -94 -18l-74 -52l-22 -8q-20 0 -20 20z" />
<glyph unicode="&#x3c;" horiz-adv-x="1288" d="M0 330q0 172 122 326q146 190 344 262q90 36 190 36l82 -8q4 0 6 2q98 146 98 338q0 58 -16 108q-48 138 -186 200q-68 34 -160 34q-78 0 -154 -30q-36 -16 -44 -22q-36 -36 -36 -144q0 -62 22 -110q2 -6 40 -54q2 -6 6 -10q20 -34 20 -70q0 -28 -12 -58 q-32 -76 -114 -98q-20 -6 -40 -6q-44 0 -80 30q-68 58 -68 182q0 134 82 264q130 202 332 296q120 56 242 56q160 0 276 -104q118 -118 118 -276q0 -122 -44 -242q-42 -122 -112 -220l-74 -98q134 -66 186 -202q24 -62 24 -126q0 -184 -196 -482q-8 -12 -268 -388 q-194 -278 -194 -408q0 -52 32 -92l6 -6q14 -18 14 -22q0 -28 -26 -62q-44 -68 -116 -120q-42 -28 -64 -28q-12 0 -32 24q-38 52 -38 126q0 108 84 262q82 148 278 428q148 206 206 310q86 156 86 276q0 112 -86 210q-108 114 -270 114q-90 0 -168 -34q-34 -16 -36 -20 q-14 -14 -24 -56q-10 -44 -10 -84q0 -58 22 -110q-6 12 46 -66q20 -32 20 -70q0 -24 -10 -52q-28 -76 -110 -102q-24 -8 -46 -8q-42 0 -80 30q-70 58 -70 174z" />
<glyph unicode="=" horiz-adv-x="540" d="M-32 450q0 14 30 42l86 84q34 34 42 34q12 0 28 -16l112 -112q20 -20 20 -30q0 -16 -30 -40l-84 -86l-34 -30q-6 -2 -12 -2q-14 0 -26 16l-112 112q-20 16 -20 28z" />
<glyph unicode="&#x3e;" d="M-798 -540q0 14 30 42l86 84q34 34 42 34q12 0 28 -16l112 -112q20 -20 20 -30q0 -16 -30 -40l-84 -86l-34 -30q-6 -2 -12 -2q-14 0 -26 16l-112 112q-20 16 -20 28zM-618 -810q0 14 30 42l86 84q32 32 40 32q16 0 30 -14l112 -112q20 -20 20 -30q0 -16 -30 -40l-84 -86 l-34 -30q-6 -2 -12 -2q-14 0 -26 16l-112 112q-20 16 -20 28zM-438 -540q0 14 30 42l86 84q34 34 42 34q12 0 28 -16l112 -112q20 -20 20 -30q0 -16 -30 -40l-84 -86l-34 -30q-6 -2 -12 -2q-14 0 -26 16l-112 112q-20 16 -20 28z" />
<glyph unicode="?" d="M-2152 -1078q0 30 54 90q190 204 466 204q82 0 176 -14l376 -74q82 -12 152 -12h22q126 0 208 44q6 4 64 52q38 34 68 34q18 0 18 -20q0 -44 -68 -106q-192 -192 -452 -192q-80 0 -178 16l-378 74q-90 12 -164 12q-140 0 -220 -50l-86 -66q-24 -16 -42 -16q-16 0 -16 20 v4z" />
<glyph unicode="@" horiz-adv-x="2052" d="M-190 -1038q0 32 72 114q48 50 90 180q80 250 100 732l4 82q6 262 6 526q0 416 26 598q14 92 34 174q56 218 216 398q50 54 96 82q34 20 52 20t18 -20q-4 -40 -60 -102q-136 -152 -154 -642q-2 -80 -2 -470q106 114 222 184q148 102 268 102q62 0 116 -28 q130 -60 180 -240q62 62 76 74q218 190 388 190q42 0 80 -10q136 -42 192 -198q26 -70 26 -144q0 -264 -278 -482q-134 -108 -256 -108q-66 0 -118 42q-46 40 -46 92q0 30 14 62q28 68 90 94q32 14 62 14q34 0 64 -18l60 -40q36 -14 80 -14q30 0 54 10h4q30 30 46 170 q0 98 -58 184q-22 34 -54 62q-72 60 -156 60q-70 0 -138 -46q-34 -22 -38 -28q-20 -22 -50 -78l-94 -198q-90 -174 -264 -290q-118 -78 -216 -78q-74 0 -126 52q-38 40 -38 86q0 34 20 72q46 92 144 92q36 0 66 -16l40 -30q28 -24 84 -24q24 0 56 6q30 12 32 16 q34 58 34 146q0 136 -88 234q-76 84 -176 84q-72 0 -158 -52q-54 -40 -70 -58q-60 -64 -76 -166l-14 -326q-22 -476 -124 -742q-6 -12 -10 -24q-80 -194 -222 -320q-74 -62 -108 -62q-20 0 -20 20z" />
<glyph unicode="A" horiz-adv-x="1324" d="M-24 334q0 268 300 488q76 58 176 90q50 16 92 16q70 0 120 -46q44 -34 44 -86q0 -26 -10 -54q-24 -82 -102 -110q-26 -8 -50 -8q-32 0 -60 14q-6 2 -44 32q-40 24 -92 24q-36 0 -78 -12q-28 -10 -34 -14q-2 -2 -14 -26q-24 -58 -24 -116q0 -82 46 -162q88 -156 262 -156 q166 0 306 96q20 16 24 20q24 28 32 96q0 130 -2 260v2q0 608 148 894q80 154 198 246q52 46 86 46q18 0 18 -20q0 -40 -72 -118q-34 -34 -70 -142q-82 -248 -82 -740l4 -394q0 -434 -30 -666q-26 -184 -72 -348q-70 -242 -232 -404q-46 -48 -92 -76q-32 -18 -48 -18t-16 16 q0 18 20 56l52 64l14 18q36 48 64 130q108 318 114 854v150q-234 -208 -484 -244l-62 -4q-236 0 -322 206q-28 68 -28 146z" />
<glyph unicode="B" d="M-536 1440q0 14 30 42l86 84q34 34 42 34q12 0 28 -16l112 -112q20 -20 20 -30q0 -16 -30 -40l-84 -86l-34 -30q-6 -2 -12 -2q-14 0 -26 16l-112 112q-20 16 -20 28z" />
<glyph unicode="C" d="M-716 1440q0 14 30 42l86 84q32 34 40 34l6 -2h4q10 -4 20 -14l112 -112q20 -20 20 -30q0 -16 -30 -40l-84 -86l-34 -30q-6 -2 -12 -2q-14 0 -26 16l-112 112q-20 16 -20 28zM-526 1708v4q0 14 30 40l84 84q34 34 42 34q10 0 30 -16l112 -112q18 -24 18 -28v-4 q0 -14 -28 -38l-86 -86q-32 -32 -44 -32l-26 16l-112 112q-20 14 -20 26zM-338 1440q0 14 30 42l86 84q34 34 42 34q12 0 28 -16l112 -112q20 -20 20 -30q0 -16 -30 -40l-84 -86l-34 -30q-6 -2 -12 -2q-14 0 -26 16l-112 112q-20 16 -20 28z" />
<glyph unicode="D" d="M-986 1440q0 14 30 42l86 84q34 34 40 34l6 -2h4q10 -4 20 -14l112 -112q20 -20 20 -30q0 -16 -30 -40l-84 -86l-34 -30q-6 -2 -12 -2q-14 0 -26 16l-112 112q-20 16 -20 28zM-796 1708v4q0 14 30 40l84 84q34 34 42 34q10 0 30 -16l112 -112q18 -24 18 -28v-4 q0 -14 -28 -38l-116 -116q-6 -2 -12 -2l-28 16l-112 112q-20 14 -20 26zM-608 1440q0 14 30 42l86 84q34 34 42 34q12 0 28 -16l112 -112q20 -20 20 -30q0 -16 -30 -40l-84 -86l-34 -30q-6 -2 -12 -2q-14 0 -26 16l-112 112q-20 16 -20 28z" />
<glyph unicode="E" d="M-1090 1440q0 14 30 42l86 86q30 30 40 30h4q12 0 26 -14l110 -110q20 -24 20 -30v-2q0 -18 -28 -40l-86 -86q-28 -32 -46 -32q-12 0 -24 16l-110 110q-22 18 -22 30zM-900 1708v2q0 14 28 42l86 86q32 32 42 32t30 -16l110 -110q20 -26 20 -32q0 -14 -28 -40l-86 -86 q-32 -32 -42 -34q-16 0 -30 18l-110 110q-20 20 -20 28zM-712 1440q0 14 30 42l86 86q30 30 40 30h4q12 0 26 -14l110 -110q20 -24 20 -30v-2q0 -18 -28 -40l-86 -86q-28 -32 -46 -32q-12 0 -24 16l-110 110q-22 18 -22 30z" />
<glyph unicode="F" d="M-882 1252v4q0 24 46 56l68 58q238 202 438 344q62 42 98 42q52 0 66 -48q6 -16 6 -30q0 -34 -32 -60q-6 -8 -50 -40q-156 -110 -546 -336q-40 -24 -60 -24q-34 0 -34 34z" />
<glyph unicode="G" d="M-798 1440q0 14 30 42l86 84q34 34 40 34l6 -2h4q10 -4 20 -14l112 -112q20 -20 20 -30q0 -16 -30 -40l-84 -86l-34 -30q-6 -2 -12 -2q-14 0 -26 16l-112 112q-20 16 -20 28z" />
<glyph unicode="H" d="M-916 1204q0 24 14 38l142 182q164 208 264 300q174 164 336 164q88 0 144 -68q38 -46 38 -106q0 -142 -168 -250q-76 -50 -120 -50q-26 0 -26 16q0 30 48 64l24 22q24 32 24 74q0 24 -8 52l-2 2q-18 56 -72 56q-68 0 -186 -100q-76 -64 -238 -246q-80 -88 -134 -140 q-34 -34 -52 -34q-28 0 -28 24z" />
<glyph unicode="I" horiz-adv-x="1296" d="M30 342q0 170 136 336q160 190 358 252q84 26 156 26q242 0 350 -254q50 -118 50 -250q0 -536 -346 -994q-82 -110 -178 -204q-132 -134 -264 -212q-64 -40 -106 -40q-28 0 -28 16q0 22 44 66q20 18 106 76q82 60 132 106q298 270 384 700q28 130 28 258q0 236 -106 376 q-104 130 -254 130q-42 0 -86 -10q-76 -16 -112 -42q-6 -4 -18 -28q-24 -56 -24 -112q0 -60 26 -114q4 -8 38 -54l2 -2q26 -36 26 -80q0 -50 -38 -98q-10 -12 -24 -22q-48 -40 -98 -40q-68 0 -114 60q-40 54 -40 154z" />
<glyph unicode="J" d="M-918 1208q0 16 10 26l36 24q24 12 238 112h2q2 0 4 2q290 130 290 250q0 52 -68 80q-28 10 -52 10q-12 0 -24 -2q-10 -2 -48 -30q-44 -22 -64 -22q-18 0 -18 20q0 26 50 76q134 134 270 134q86 0 138 -70q38 -52 38 -112q0 -66 -44 -138q-74 -118 -244 -204 q-76 -38 -432 -166q-38 -12 -56 -12q-26 0 -26 22z" />
<glyph unicode="K" horiz-adv-x="1314" d="M52 310q0 80 28 176q40 142 126 264l16 22v2q0 6 -20 22q-98 98 -110 234q-2 12 -2 22v16q0 148 100 296q126 186 342 324l106 64q88 52 142 52q24 0 24 -18q0 -34 -80 -88l-96 -58q-90 -54 -166 -114q-70 -56 -90 -84q-56 -78 -56 -184q0 -160 132 -270q22 -18 24 -22 v-14q-4 -22 -30 -62l-88 -114q-68 -114 -74 -262q0 -76 12 -112q28 -88 110 -154q98 -74 226 -74q94 0 186 34l30 18q4 4 16 34q16 44 16 90v24q0 62 -26 114l-38 50q-22 30 -22 74q0 96 90 144q34 16 68 16q16 0 30 -2q124 -22 124 -214v-26q0 -40 -22 -114 q-36 -102 -122 -202q-228 -268 -512 -268q-136 0 -246 74q-148 100 -148 290z" />
<glyph unicode="L" d="M-1230 0q0 14 30 42l86 84q30 30 34 32h14q10 -2 22 -14l112 -112q20 -20 20 -30q0 -16 -30 -40l-84 -86l-34 -30q-6 -2 -12 -2q-14 0 -26 16l-112 112q-20 16 -20 28z" />
<glyph unicode="M" d="M-592 1208q0 10 4 22q4 4 28 24l54 40l192 136q154 116 154 196q0 66 -90 82q-14 2 -28 2q-44 0 -72 -24q-56 -46 -78 -46q-20 0 -20 24q0 30 48 86q124 154 276 154q46 0 90 -26q80 -52 80 -152q0 -216 -320 -396q-38 -22 -100 -54l-34 -18q-22 -10 -108 -56 q-38 -20 -54 -20h-2q-20 6 -20 26z" />
<glyph unicode="N" d="M-646 1204q0 20 10 34l112 190l66 110q138 210 248 286q100 68 196 68q86 0 142 -66q38 -48 38 -106q0 -122 -124 -236q-90 -78 -136 -78q-18 0 -18 16q0 26 40 66l2 2q36 36 36 82q0 34 -20 72q-22 46 -64 46q-60 0 -160 -96q-66 -66 -202 -256q-56 -80 -94 -126 q-28 -32 -46 -32q-26 2 -26 24z" />
<glyph unicode="O" d="M-990 -540q0 14 30 42l86 86q30 30 40 30h4q12 0 26 -14l110 -110q20 -24 20 -30v-2q0 -18 -28 -40l-86 -86q-28 -32 -46 -32q-12 0 -24 16l-110 110q-22 18 -22 30z" />
<glyph unicode="P" d="M-1828 1004v4v2q0 28 54 88q190 204 464 204q80 0 172 -14l392 -74q76 -12 140 -12h22q128 0 210 44l90 72q24 14 44 14q18 0 18 -18q0 -38 -74 -112q-188 -188 -448 -188q-64 0 -140 10h1q5 0 -391 74q-104 18 -188 18q-138 0 -222 -50l-82 -66q-28 -16 -46 -16 q-16 0 -16 20z" />
<glyph unicode="Q" horiz-adv-x="1436" d="M-186 -1036q0 16 16 44l84 108q0 2 2 4q140 246 162 952q6 252 6 506q0 408 18 566q26 236 106 404q54 114 158 226q90 96 142 96q18 0 18 -20q0 -34 -62 -102l-4 -4l-22 -30q-114 -170 -126 -646q-2 -76 -2 -450q146 150 326 238q124 64 226 64q190 0 284 -162 q44 -76 44 -164q0 -136 -102 -288q-18 -26 -86 -108q206 0 276 50l28 24q26 26 58 38q20 10 30 10q14 0 18 -14v-10q0 -26 -34 -72q-80 -108 -216 -170q-120 -58 -330 -58q-38 0 -78 2q128 -6 130 -6l-250 12q-58 4 -118 4l-224 -10q-8 -96 -24 -240q-78 -570 -364 -782 q-50 -30 -72 -30q-18 0 -18 18zM302 184q136 24 380 24l136 -6q12 0 18 2l30 16l50 24q8 6 16 26q34 60 34 126q0 60 -30 126q-2 8 -8 16q-32 66 -88 104q-76 54 -164 54q-106 0 -222 -80q-82 -50 -114 -108q-32 -62 -36 -196q-2 -64 -2 -128z" />
<glyph unicode="R" d="M-966 1252v4q0 12 30 54l50 68q192 256 324 404q54 58 98 58q70 0 70 -66q0 -30 -12 -52v-4q-12 -24 -108 -122l-10 -10q-96 -100 -354 -340q-34 -30 -54 -30q-34 2 -34 36z" />
<glyph unicode="S" horiz-adv-x="2034" d="M0 334q0 218 196 412q58 58 126 102q110 76 208 76q100 0 148 -70q20 -34 20 -70q0 -46 -34 -92q-52 -70 -130 -70q-34 0 -66 20l-36 26q-30 26 -82 26q-76 0 -88 -20q-36 -54 -36 -148q0 -142 92 -238q80 -84 186 -84q80 0 172 48q56 32 68 46q26 32 48 132 q32 132 140 262q118 138 250 198q78 36 142 36q72 0 122 -50q38 -38 38 -86q0 -34 -20 -72q-44 -94 -146 -94q-32 0 -60 14l-42 32q-34 24 -82 24q-28 0 -60 -8q-26 -6 -32 -14q-34 -54 -34 -146q0 -142 92 -238q74 -78 184 -80q112 0 210 60q30 14 46 34q40 54 40 214v256 q0 208 28 388q28 204 86 346q72 178 214 302q66 60 104 60q20 0 20 -20q0 -32 -70 -112q-46 -50 -82 -166q-76 -252 -76 -736l4 -386q0 -104 -2 -208q-16 -754 -214 -1058q-32 -50 -108 -138q-46 -54 -98 -82q-28 -20 -50 -20q-18 0 -18 22q2 16 20 48l64 82l2 2 q38 52 62 126q114 320 116 950v42l-112 -92q-204 -140 -366 -140q-156 0 -248 122q-48 62 -58 120q-242 -242 -496 -242q-154 0 -242 138q-60 96 -60 214z" />
<glyph unicode="T" d="M-900 1440q0 14 30 42l86 86q30 30 40 30h4q12 0 26 -14l110 -110q20 -24 20 -30v-2q0 -18 -28 -40l-86 -86q-28 -32 -46 -32q-12 0 -24 16l-110 110q-22 18 -22 30z" />
<glyph unicode="U" d="M-1006 1208q0 10 4 22q138 110 282 212q160 124 160 200q0 66 -84 82q-18 4 -34 4q-22 0 -40 -6l-2 -2q-18 -6 -30 -16q-46 -36 -58 -42q-12 -2 -18 -2q-20 0 -20 20q0 28 46 88q100 132 236 156q10 2 20 2h18q48 0 94 -28q78 -50 78 -148q0 -214 -304 -396l-158 -90 q-90 -48 -114 -62q-38 -20 -54 -20h-2q-20 6 -20 26z" />
<glyph unicode="V" d="M-592 1252v4q0 12 30 54l50 68q148 198 274 348q62 74 66 76q42 40 88 40q20 0 34 -14q32 -20 32 -54q0 -64 -122 -178q-10 -8 -12 -12q-86 -90 -354 -340q-32 -28 -52 -28q-34 2 -34 36z" />
<glyph unicode="W" horiz-adv-x="2108" d="M-186 -1038q0 14 12 40q8 12 60 78q86 86 150 452q48 306 48 1076q0 424 30 618l20 104q62 270 236 448q92 92 136 92q22 0 22 -22t-34 -66l-56 -68q-114 -174 -126 -656q-2 -22 -2 -46v-376q74 80 164 144q190 140 332 140q60 0 112 -26q20 -10 60 -38q96 -88 118 -208 q128 142 300 226q92 46 174 46q72 0 134 -36q76 -44 118 -134q36 -70 36 -150q0 -138 -112 -304q-36 -52 -78 -98q164 0 248 44l84 64q30 12 42 12q20 0 20 -20q0 -10 -4 -20q-18 -44 -54 -80q-128 -140 -310 -184q-74 -16 -210 -16l-608 8q-442 0 -584 -16q-6 -50 -14 -150 q-48 -426 -182 -644q-108 -162 -198 -222q-40 -30 -62 -30t-22 18zM302 184q222 12 448 20h2q86 0 102 46q26 66 26 132q0 82 -42 162q-36 68 -98 110q-60 40 -126 40q-64 0 -132 -36q-104 -54 -148 -154q-26 -64 -30 -192zM952 208l428 -6h6l122 -2q20 14 68 34l2 2 q6 6 22 38q32 66 32 134t-32 136q-46 96 -134 132q-42 20 -88 20q-50 0 -104 -26q-56 -28 -88 -60q-48 -50 -106 -186q-34 -88 -92 -172z" />
<glyph unicode="X" horiz-adv-x="2078" d="M10 818q0 90 108 186q54 54 96 54h2q20 0 20 -18q0 -10 -6 -26q-18 -34 -18 -36q-2 -6 -2 -10q0 -26 24 -54q16 -16 234 -30q122 -6 366 -6q666 0 794 16q0 80 20 240q44 336 172 522q84 124 172 184q44 28 64 28q18 0 18 -22q0 -16 -14 -36l-82 -110q-74 -140 -108 -410 q-22 -178 -22 -514l4 -420q0 -752 -168 -1088q-56 -112 -158 -224q-92 -102 -144 -102q-20 0 -20 18q0 32 68 112q56 66 92 182q100 330 104 884v76l-112 -92q-186 -140 -376 -140q-100 0 -176 58q-38 28 -60 62q-48 62 -58 118q-182 -174 -380 -222q-70 -16 -126 -16 q-32 0 -60 6q-132 32 -194 164q-30 74 -30 154q0 130 84 264q18 30 88 118q-66 0 -136 16q-38 8 -52 24q-28 42 -28 90zM276 492q0 -68 32 -134q70 -150 226 -150q110 0 222 64q36 24 48 36q16 20 26 86q18 110 90 224l44 60q-94 -1 -187 -1q-187 0 -371 3h-6q-54 0 -68 -14 q-6 -4 -24 -36q-32 -70 -32 -138zM1050 516q0 -106 64 -194q24 -36 58 -62h2q16 -16 62 -36t98 -20q80 0 178 48q60 36 72 48q40 40 40 198v212l-96 -14q-134 -14 -288 -14l-108 -2q-14 0 -28 -2h-2q-10 0 -14 -2q-8 -8 -20 -46q-18 -60 -18 -114z" />
<glyph unicode="Y" d="M-1042 1204q0 18 10 34l168 284q136 208 242 284q104 74 206 74q82 0 136 -68q40 -48 40 -108q0 -122 -134 -244q-54 -48 -98 -62q-18 -8 -30 -8q-16 0 -16 18v2q0 24 38 64q40 40 40 86q0 34 -20 70l-2 2l-2 4q-22 40 -62 40q-58 0 -156 -94q-64 -64 -200 -252 q-52 -74 -88 -118q-28 -32 -46 -32q-26 2 -26 24z" />
<glyph unicode="Z" horiz-adv-x="1368" d="M-18 816q0 88 108 188q54 50 92 54h12q14 -2 14 -20q0 -22 -16 -46q-8 -12 -8 -20q0 -62 74 -76q62 -14 230 -18q236 0 282 2l146 6h2q0 108 22 270q48 328 168 498q90 128 172 184q46 30 66 30q18 0 18 -22q0 -16 -14 -36l-82 -110q-74 -140 -108 -410 q-22 -176 -22 -512l4 -422q0 -754 -168 -1088q-56 -112 -158 -224q-92 -102 -144 -102q-20 0 -20 18q0 22 34 74l58 68q36 56 70 162q100 306 102 924v42q-270 -248 -562 -248q-32 0 -58 4q-150 28 -218 150q-48 78 -48 178q0 172 170 368q-72 0 -134 18q-58 12 -74 62 q-10 26 -10 54zM258 500q0 -96 50 -166q16 -28 46 -54q82 -74 202 -74q66 0 146 24q124 36 182 94q30 40 30 170v214q-136 -30 -414 -30h-104q-52 0 -60 -2q-30 -6 -48 -42q-30 -68 -30 -134z" />
<glyph unicode="[" d="M-1246 1124q0 18 22 48q36 56 92 94q32 24 50 24q16 0 64 -16q56 -18 206 -18h32h346q76 0 140 22l42 14q24 0 24 -20t-28 -58q-64 -90 -168 -122q-78 -24 -258 -24h-312q-116 0 -184 18q-50 14 -58 20q-10 6 -10 18z" />
<glyph unicode="\" horiz-adv-x="900" d="M-92 352q2 14 20 46q52 76 144 130q66 42 158 42q66 0 156 -18q108 -24 160 -24t74 10l58 42q10 4 22 6h10q14 0 14 -20q0 -22 -20 -46q-44 -72 -136 -130q-76 -48 -162 -48q-82 0 -216 30q-72 14 -110 14q-46 0 -64 -10l-66 -44q-10 -6 -20 -6q-22 0 -22 26z" />
<glyph unicode="]" horiz-adv-x="1146" d="M0 356q0 162 132 320q134 158 290 216q74 26 182 26q116 -8 182 -60q60 -48 60 -112q0 -28 -12 -58q-30 -72 -106 -98q-22 -8 -44 -8q-32 0 -62 16l-76 54l-2 2q-70 42 -152 42q-48 0 -100 -16q-38 -12 -40 -16q-4 -6 -8 -18q-20 -54 -20 -106q0 -92 62 -182 q106 -152 298 -152q86 0 178 34q50 18 84 42l66 54l2 2q42 32 64 32q20 0 20 -20q0 -50 -76 -120q-246 -248 -532 -248q-74 0 -134 20q-154 48 -222 198q-34 76 -34 156z" />
<glyph unicode="^" d="M-1384 1204q0 24 14 38l140 182q130 168 230 264q164 168 336 186q12 2 22 2q86 0 144 -70q40 -48 40 -106q0 -132 -168 -250q-76 -50 -124 -50q-22 0 -22 16q0 26 48 66q20 16 24 20q24 32 24 72q0 26 -10 56v2q-22 52 -74 52q-62 0 -182 -96q-68 -56 -220 -226 l-142 -150l-36 -28l-18 -4q-26 2 -26 24z" />
<glyph unicode="_" horiz-adv-x="900" d="M-460 30q0 32 48 92q62 70 114 86q20 6 64 6q76 4 246 4l524 -20q146 -14 238 -142q70 -98 70 -214q0 -178 -146 -348q-192 -218 -416 -218q-50 0 -100 14q-128 32 -196 136q-40 60 -40 124q0 92 82 190q48 56 92 80q22 20 50 20q20 0 20 -18q0 -26 -26 -64l-14 -24 q-2 -8 -2 -20q0 -16 4 -38q30 -114 156 -170q66 -30 134 -30q34 0 68 8q68 14 88 36q22 22 36 92q8 36 8 70q0 112 -80 206q-74 88 -180 108q-276 8 -566 22l-250 -8h-2q-24 0 -24 20z" />
<glyph unicode="`" horiz-adv-x="658" d="M-76 630q0 30 62 100q144 162 312 178q10 2 18 2q58 0 88 -68q18 -46 18 -164q0 -162 -2 -242q-8 -128 -30 -188q-26 -74 -94 -152q-54 -62 -102 -92q-36 -22 -56 -22q-16 0 -16 16q0 26 48 98q26 26 26 362q0 138 -14 176q-22 52 -70 52q-26 0 -58 -16l-52 -40 q-36 -24 -56 -24q-22 0 -22 24z" />
<glyph unicode="a" horiz-adv-x="1332" d="M-6 338q0 202 196 396q82 82 172 132q110 62 196 62q54 0 100 -26q70 -50 70 -116q0 -38 -24 -78q-48 -86 -142 -86q-30 0 -58 16l-46 34q-30 18 -68 18q-16 2 -30 2q-40 0 -74 -12q-30 -12 -32 -14q-34 -42 -34 -142q0 -148 110 -244q82 -72 204 -72q128 2 248 66 q68 36 86 74t20 144v2q0 134 68 238q60 98 154 162q32 24 52 24q22 0 22 -20q0 -22 -46 -86q-20 -30 -24 -102v-142q0 -594 -44 -870q-74 -478 -320 -692q-66 -64 -106 -64q-20 0 -20 24q4 36 62 102q202 228 202 1160q-254 -232 -530 -246q-84 0 -134 16q-144 52 -202 198 q-28 70 -28 142z" />
<glyph unicode="b" horiz-adv-x="2098" d="M-4 820q0 88 100 178q2 4 6 6q64 54 98 54q20 0 20 -20q0 -10 -4 -24q-18 -34 -18 -36q-2 -6 -2 -10q0 -26 24 -54q16 -8 28 -8q52 -12 196 -20q52 -2 306 -8q524 0 786 6q246 14 288 24l30 6l66 42l20 4q22 0 22 -24q0 -20 -22 -50q-18 -30 -44 -56l-28 -28 q-8 -14 -14 -62l-12 -112q-10 -114 -10 -202q0 -118 18 -186l10 -52q0 -30 -36 -76q-44 -60 -108 -104q-44 -26 -62 -26q-8 0 -12 4q-24 24 -38 218l-110 -90l-76 -48q-152 -86 -276 -86q-112 0 -186 60q-100 76 -120 180q-38 -38 -126 -102q-204 -136 -372 -136 q-36 0 -70 8q-166 42 -214 234q-8 40 -8 80q0 126 84 266q26 42 90 118q-68 0 -142 16q-44 10 -54 24q-12 14 -18 38q-10 26 -10 54zM272 488q0 -126 86 -212q72 -68 168 -68q120 0 220 64q44 28 52 38q18 24 26 88q16 100 88 220l44 60h-134q-209 0 -470 4 q-58 -12 -78 -150q-2 -8 -2 -16v-28zM1042 526q0 -74 36 -152q60 -126 168 -156q30 -10 90 -10q118 6 210 68q56 42 72 192q12 96 14 114q10 54 44 126q-54 -10 -202 -20q-152 -8 -226 -8h-2l-118 -2h-32q-16 0 -20 -12l-6 -12q-28 -62 -28 -128z" />
<glyph unicode="c" horiz-adv-x="1408" d="M-18 818q0 82 96 172q6 8 14 14q54 50 92 54h12q14 -2 14 -20t-16 -46q-8 -12 -8 -18q0 -42 26 -62q42 -36 434 -36q100 0 188 4l128 8h2q0 48 14 212q38 344 158 534q84 130 180 202q48 32 70 32q18 0 18 -20q0 -26 -68 -110l-2 -2l-14 -20q-62 -90 -94 -270 q-26 -146 -42 -488l-22 -418v-58q0 -106 14 -196q8 -32 14 -64q8 -24 8 -32q0 -22 -34 -72q-42 -60 -110 -108q-46 -28 -64 -28q-14 0 -20 24q-32 96 -32 224q-198 -188 -432 -234q-64 -14 -122 -14q-102 0 -178 48q-6 2 -10 6q-76 50 -118 150q-24 62 -24 128 q0 170 158 356q6 6 10 12q-90 0 -152 18q-42 8 -58 30l-18 30q-12 28 -12 58zM280 502q0 -70 34 -138q30 -58 80 -96q80 -62 186 -62q144 0 288 88q28 18 40 38q26 46 34 162l12 214q-68 -12 -94 -16q-110 -14 -330 -14h-106q-58 0 -64 -2q-10 -2 -32 -18q-8 -4 -18 -26 q-30 -66 -30 -130z" />
<glyph unicode="d" horiz-adv-x="1360" d="M-4 332v18q12 228 232 418l44 36q94 76 196 106q52 16 98 16q68 0 116 -40q46 -38 46 -94q0 -26 -10 -54q-26 -82 -102 -106q-26 -10 -50 -10q-30 0 -58 14l-48 36q-40 22 -90 22q-74 0 -112 -26q-2 -2 -14 -26q-24 -58 -24 -118q0 -78 42 -156q88 -160 270 -160 q162 0 296 94q54 36 64 160q0 82 10 202l30 458q30 288 118 450q86 158 200 250q56 44 88 44q20 0 20 -18q0 -24 -42 -78l-52 -64l-2 -2q-54 -92 -84 -256q-24 -130 -42 -472q-22 -366 -22 -496q0 -156 28 -258q6 -34 6 -36q-2 -26 -32 -68q-50 -64 -110 -108 q-50 -30 -62 -30q-18 2 -24 26l-8 40q-20 90 -24 184q-108 -108 -262 -180q-154 -70 -278 -70q-134 0 -226 78q-126 104 -126 274z" />
<glyph unicode="e" horiz-adv-x="1430" d="M8 4q0 14 46 84q30 44 30 236l4 596q12 366 100 584q70 178 218 306q36 36 80 54q12 6 20 6q14 0 18 -16v-6q0 -32 -62 -104l-4 -4q-10 -14 -18 -24q-34 -48 -62 -142q-68 -220 -68 -636v-24q-2 554 -2 586v4l4 -840v-44q164 164 338 244q110 54 208 54h20 q150 0 242 -126q66 -90 66 -206q0 -138 -100 -280q-20 -32 -88 -108q176 0 264 44l90 64l2 2q22 12 34 12q20 0 20 -24q0 -22 -36 -76q-88 -112 -228 -172q-114 -52 -314 -52l-354 8q-154 0 -384 -20q-24 -4 -42 -4q-42 0 -42 24zM248 186l134 10q62 6 186 10l264 -4l84 44 q12 10 20 38q24 54 24 116q0 154 -124 240q-76 54 -164 54q-102 0 -218 -76q-52 -32 -70 -54q-40 -42 -60 -106q0 -2 -32 -158q-10 -54 -44 -114z" />
<glyph unicode="f" horiz-adv-x="2034" d="M-16 322v4q0 226 196 420q56 56 122 100q120 80 214 80q86 0 142 -66q24 -36 24 -74q0 -42 -28 -86q-46 -76 -134 -76q-36 0 -66 16l-36 28q-38 24 -90 24q-68 0 -82 -18q-24 -28 -36 -126v-24q0 -128 80 -224q76 -92 190 -92q94 0 196 52q36 20 52 38q28 34 50 132 q46 182 212 340q82 76 170 118q80 38 146 38q80 0 124 -50q38 -40 38 -88q0 -32 -18 -70q-48 -94 -148 -94q-32 0 -60 14l-56 40q-6 2 -14 4l-2 2q-8 2 -14 2q-36 10 -64 10q-42 0 -64 -22q-34 -48 -34 -154q0 -124 82 -222q78 -90 194 -90q88 0 190 50q44 22 58 38 q44 50 48 174l32 548q22 304 94 482q78 188 218 308q36 36 80 54q14 6 22 6q20 0 20 -18q0 -34 -82 -132l-2 -2q-56 -70 -96 -266q-20 -114 -40 -450q-2 -12 -2 -24l-22 -440v-60q0 -114 28 -254q8 -24 8 -32q0 -22 -34 -72q-42 -60 -110 -108q-46 -28 -62 -28h-6l-2 2 q-12 6 -14 20l-30 170q-2 20 -2 40q-44 -42 -90 -78q-100 -72 -388 -156q-106 0 -184 62q-96 72 -116 170q-2 6 -2 12l-84 -74q-212 -168 -410 -168q-52 0 -92 14q-126 44 -186 186q-28 68 -28 140z" />
<glyph unicode="g" horiz-adv-x="2046" d="M-8 336q0 226 226 436q90 84 176 120q74 34 134 34q66 0 114 -40q46 -38 46 -98q0 -64 -38 -104q-48 -60 -120 -60q-38 0 -64 14l-48 36q-34 20 -80 20q-66 0 -82 -16q-8 -6 -18 -40q-20 -54 -20 -116q0 -142 96 -240q74 -74 172 -74q104 0 198 52q46 28 52 36 q28 34 50 134q34 172 212 340q90 84 184 124q74 32 134 32q88 0 132 -62q28 -38 28 -80q0 -38 -24 -80l-2 -2q-46 -78 -136 -78q-36 0 -66 16l-56 38q-38 16 -74 16l-70 -14q-12 -4 -22 -28q-28 -68 -28 -134q0 -84 44 -164q48 -84 130 -124q48 -24 106 -24q60 0 132 26 q78 28 106 58q46 46 58 168q18 174 50 238q68 122 164 190q44 34 66 34q20 0 20 -22q0 -24 -44 -84q-16 -30 -26 -122q-18 -174 -18 -278q0 -80 20 -176q10 -34 10 -54q0 -24 -36 -72q-44 -60 -108 -104q-44 -26 -62 -26q-8 0 -12 4q-24 24 -38 218l-92 -76 q-154 -118 -326 -142q-26 -4 -52 -4q-150 0 -242 124q-48 64 -56 118q-108 -108 -234 -172q-132 -70 -268 -70q-28 0 -50 4q-146 30 -214 186q-34 80 -34 164z" />
<glyph unicode="h" horiz-adv-x="1366" d="M0 336q0 164 124 318q138 180 328 250q62 22 114 22q118 0 154 -88q12 -26 12 -58q0 -76 -68 -126q-44 -32 -90 -32q-34 0 -68 18l-56 38h-2q-36 18 -77 18t-85 -18q-18 -4 -26 -12l-14 -28q-22 -60 -22 -118q0 -88 54 -174q94 -140 260 -140q136 0 266 78q32 18 42 32 q40 46 50 168q0 6 2 18q14 144 62 222q62 104 156 166q34 28 58 28q22 0 22 -20q0 -12 -10 -32l-38 -58l-2 -2q-12 -16 -28 -178q-12 -106 -12 -194q0 -110 18 -190l14 -54q0 -16 -10 -32q-40 -88 -140 -152q-36 -26 -54 -26q-10 0 -16 6q-2 2 -8 18q-30 104 -30 216 q-136 -122 -276 -180q-144 -60 -256 -60q-98 0 -168 42q-144 78 -174 248q-6 34 -6 66z" />
<glyph unicode="i" horiz-adv-x="1270" d="M2 332q0 186 144 354q232 270 532 270q134 0 246 -98q126 -112 126 -272q0 -162 -152 -410q-70 -118 -294 -432q-6 -8 -10 -14q-176 -258 -196 -374q-4 -24 -4 -44q0 -64 36 -100q14 -18 14 -24q0 -28 -26 -62q-44 -68 -116 -120q-42 -28 -64 -28q-12 0 -30 22 q-40 48 -40 120q0 108 84 270q2 6 6 12q70 134 272 414q144 200 210 320q84 156 84 266q0 94 -64 182q-106 146 -300 146q-104 0 -190 -50q-16 -8 -24 -38q-18 -50 -18 -106q0 -76 30 -126l48 -74q10 -26 10 -52q0 -52 -44 -102q-8 -10 -18 -18q-46 -38 -98 -38 q-40 0 -74 22q-80 50 -80 184z" />
<glyph unicode="j" horiz-adv-x="2006" d="M-70 646q0 28 52 90q108 132 268 188q108 36 276 36q66 0 144 -6q40 -2 446 -50q208 -24 340 -24q202 0 282 42q0 2 32 26q56 40 80 40q18 0 18 -20q0 -12 -8 -28q-24 -52 -66 -90q-78 -82 -162 -126q-130 -70 -374 -70q-104 0 -370 30l-158 18q-40 6 -42 6h-20l-68 -58 q-100 -96 -146 -146q-192 -222 -192 -450q0 -126 62 -250q30 -60 66 -104q168 -208 462 -246q52 -6 104 -6q108 0 216 28q190 52 286 158q44 46 84 124q38 80 38 142q0 52 -26 90q-32 38 -36 44q-16 32 -16 64q0 46 32 94q48 66 124 66q90 0 126 -72q24 -40 24 -96 q0 -92 -72 -232q-50 -98 -138 -206q-240 -286 -556 -388q-134 -42 -264 -42q-344 0 -556 210q-140 138 -176 336q-10 50 -10 102q0 150 78 312q116 232 402 514q14 14 30 28q-4 0 -88 6q-68 4 -124 4q-158 0 -244 -32q-18 -6 -76 -48l-30 -18q-20 -10 -34 -10q-20 0 -20 20z " />
<glyph unicode="k" horiz-adv-x="1284" d="M-2 -574q0 232 154 466l76 98q-134 58 -188 202q-24 64 -24 124q0 166 192 448q30 44 230 314q234 300 234 432q0 44 -30 86q-18 22 -18 30v2q0 20 26 60q48 70 116 118q42 28 64 28q12 0 30 -22q38 -48 38 -116q0 -106 -90 -260q-72 -130 -276 -398q-128 -166 -190 -266 q-98 -158 -98 -274q0 -60 38 -142q100 -182 324 -182q84 0 164 34l36 20q16 22 24 62q12 42 12 82q0 56 -24 108l-46 64q-22 32 -22 68q0 28 12 56q30 76 110 100q24 8 44 8q44 0 80 -30q70 -58 70 -174q0 -168 -122 -326q-146 -190 -342 -262q-90 -36 -192 -36l-80 8 q-4 0 -6 -2q-10 -10 -38 -66q-62 -126 -62 -262q0 -66 16 -116q48 -140 186 -202q74 -34 160 -34q76 0 156 30q50 22 56 46q26 58 26 118q0 50 -20 102q-4 6 -6 12l-46 64q-18 32 -18 66q0 30 12 60q30 76 112 98q20 6 40 6q76 0 124 -82q26 -56 26 -136q0 -200 -194 -394 q-216 -216 -462 -216q-50 0 -96 10q-176 42 -254 188q-44 80 -44 180z" />
<glyph unicode="l" horiz-adv-x="1394" d="M-90 88v2q0 10 14 42q44 80 134 140q36 26 58 26q16 0 38 -32q30 -44 44 -50q12 -8 28 -8q22 0 40 24l244 290q16 16 18 24q0 2 -10 24l-38 58q-54 88 -160 88q-6 0 -34 -28q-62 -68 -104 -68h-8q-20 0 -20 18q0 36 60 106q148 156 238 172q20 4 38 4q88 0 162 -74 l48 -68l-6 10l180 -292q150 -240 150 -238q38 -52 84 -68q14 -8 26 -8q6 0 10 2l34 32q34 34 68 52q22 14 36 14q10 0 18 -6q4 -9 4 -18q0 -27 -28 -62q-18 -28 -78 -88q-124 -124 -224 -124q-92 0 -160 110l-154 246l-76 124l-190 -226q-214 -256 -360 -256q-14 0 -26 2 q-28 8 -68 60q-4 8 -8 12l-20 24q-2 4 -2 8z" />
<glyph unicode="m" horiz-adv-x="1910" d="M-86 646q0 32 50 92q114 136 274 188q106 34 272 34q88 0 196 -10h8l562 -62q126 -10 210 -10q142 0 232 42l40 32q46 36 70 36q22 0 22 -18q0 -10 -6 -22q-10 -32 -44 -70q-110 -136 -262 -186q-110 -40 -270 -40q-122 0 -550 50l-122 14l-50 -30q-64 -42 -80 -62 q-36 -44 -36 -128q0 -108 82 -190q114 -134 446 -184q218 -34 278 -56q218 -84 218 -258q0 -132 -130 -274q-200 -222 -508 -222q-140 0 -252 38q-200 68 -200 228q0 26 28 70q34 48 86 90q40 36 72 48q36 -2 40 -22q0 -128 184 -192q108 -36 220 -36q108 0 198 28 q28 8 32 16t4 42q0 76 -64 140q-92 90 -306 122h-2l-182 28q-392 88 -454 306q-14 48 -14 100q0 156 166 340l72 72l-78 4h-62q-84 0 -148 -12q-62 -6 -104 -28q-6 -2 -38 -26q-26 -22 -54 -34q-16 -10 -26 -10q-20 0 -20 22z" />
<glyph unicode="n" horiz-adv-x="1424" d="M-6 816q0 88 104 184q2 4 6 6q50 46 86 52h14q16 -4 16 -20q0 -18 -16 -46q-8 -12 -8 -16v-8q0 -18 12 -36q18 -34 100 -40q6 -2 10 -2q102 -12 356 -12q420 0 500 34l54 36q24 12 38 12q20 0 20 -22q0 -16 -14 -40q-24 -40 -50 -64l-28 -30q-8 -8 -28 -174 q-12 -142 -12 -220q0 -88 18 -168l14 -52q0 -10 -8 -30q-40 -88 -142 -154q-36 -26 -54 -26q-10 0 -16 6q-2 2 -8 18q-30 104 -30 216q-206 -188 -436 -228q-56 -10 -102 -10q-168 0 -264 124q-68 96 -68 208q0 148 122 310q20 30 46 58q-74 0 -144 18q-88 18 -88 116z M282 500q0 -136 108 -228q78 -66 190 -66q100 0 196 40q80 34 112 62q38 34 58 182q8 96 22 144l30 70q-110 -26 -378 -26h-256q-34 -12 -50 -44q-32 -68 -32 -134z" />
<glyph unicode="o" horiz-adv-x="1278" d="M0 360q0 194 198 384q176 176 368 176q86 0 150 -34l4 74q2 52 14 156q36 350 182 552q80 116 166 174q42 26 62 26q16 0 16 -18q0 -30 -78 -126q-60 -66 -102 -286q-42 -212 -42 -622q0 -206 -2 -408q4 -108 18 -160q4 -10 32 -14l92 -18q48 -8 92 -8q106 0 186 48 l94 74q26 16 50 16q16 0 16 -20q-2 -40 -54 -96q-94 -112 -228 -182q-128 -66 -252 -66q-18 0 -38 2q-12 0 -170 28q-50 10 -86 10q-48 0 -208 -28q-56 -12 -90 -12h-20q-162 0 -274 122q-96 110 -96 256zM226 544q0 -78 36 -150q66 -132 212 -174q28 -12 82 -12t128 14 l22 6q4 4 4 18v44q0 126 -20 180q-50 130 -178 192q-66 30 -134 30q-92 0 -126 -26q-6 -6 -22 -64q-4 -30 -4 -58z" />
<glyph unicode="p" d="M-1244 1030q0 18 28 64q100 132 252 172q38 10 88 10q84 0 202 -26q146 -32 214 -32h22q56 0 92 18l68 50q20 8 32 8q16 0 16 -18q0 -16 -26 -60q-64 -90 -170 -144q-78 -42 -176 -42q-82 0 -198 26q-154 32 -234 32q-60 0 -94 -18l-74 -52q-14 -6 -22 -6q-20 0 -20 18z " />
<glyph unicode="q" horiz-adv-x="1546" d="M-76 626q0 38 64 108q158 174 316 174q34 0 56 -12q60 -38 60 -204v-74q148 148 326 236q124 64 228 64q146 0 244 -104q82 -108 82 -228q0 -182 -188 -390q200 0 276 50l28 24q26 26 58 38q20 10 30 10q14 0 18 -14l2 -8q0 -28 -36 -74q-80 -108 -216 -170 q-120 -58 -330 -58q-38 0 -78 2q128 -6 130 -6l-250 12q-58 2 -116 2l-226 -8q-38 -550 -204 -812q-82 -132 -182 -208q-48 -34 -72 -34q-18 0 -18 12v6q0 12 10 38q6 12 62 82q4 6 8 10q22 24 46 80q120 274 136 968l6 266q0 164 -2 180q-12 96 -72 98q-4 2 -8 2l-8 -2 q-38 -4 -52 -12l-70 -50q-26 -12 -40 -12q-18 0 -18 18zM412 182q136 24 376 24l140 -6q12 0 20 2l28 16l50 24q10 6 18 26q34 60 34 126q0 60 -30 126q-46 108 -154 152q-52 20 -106 20q-104 0 -218 -74q-88 -50 -118 -110q-34 -64 -38 -202q-2 -62 -2 -124z" />
<glyph unicode="r" horiz-adv-x="2102" d="M8 6q0 14 40 72q36 54 36 246l4 596q12 368 102 588q72 178 216 304q70 58 102 58q14 0 18 -14q0 -40 -64 -114q-152 -152 -152 -788l2 -314q120 112 160 140q188 138 328 138q62 0 114 -26q118 -54 166 -190q10 -28 14 -56q126 142 294 224q94 50 178 50q72 0 136 -38 q48 -28 80 -70l38 -62q34 -72 34 -150q0 -128 -90 -272q-40 -66 -100 -130q174 0 254 48q2 0 34 28q36 32 68 40q8 6 16 6q20 0 20 -22q0 -46 -60 -104q-136 -142 -318 -184q-66 -14 -258 -14l-246 4l-344 6q-96 0 -188 -2l-220 -6l-388 -20q-24 4 -24 24q-2 2 -2 4z M248 182q252 14 510 22h2q56 0 76 18q10 10 20 40q20 60 20 114q0 144 -96 242q-72 76 -166 76q-82 0 -168 -58q-36 -24 -52 -42q-48 -56 -76 -146l-36 -188q-6 -22 -34 -78zM950 206l554 -6l70 36q12 10 22 38q32 66 32 133t-32 135q-44 98 -134 134h-2q-42 18 -86 18 q-50 0 -104 -26q-60 -30 -88 -60q-46 -46 -100 -180l-32 -70q-24 -50 -64 -104z" />
<glyph unicode="s" horiz-adv-x="2022" d="M-10 330q0 240 224 442q34 32 72 58q132 96 244 96q68 0 116 -48q40 -40 40 -90q0 -32 -16 -66q-30 -68 -92 -88q-28 -10 -54 -10q-34 0 -64 16q-6 4 -38 30q-40 24 -90 24q-66 0 -80 -20q-24 -28 -36 -126v-24q0 -132 84 -230q74 -86 182 -86q100 0 200 52q36 20 52 38 q26 32 48 132q42 160 166 292q108 118 234 174q72 30 130 30q68 0 116 -42q46 -46 46 -102q0 -46 -34 -92h-2q-50 -66 -126 -66q-36 0 -64 14l-44 32q-34 24 -84 24q-70 0 -84 -18q-6 -6 -16 -32q-24 -62 -24 -124q0 -82 44 -164q80 -150 236 -150q98 0 206 62q34 16 48 36 q42 50 42 206q4 110 52 200q66 112 160 178q42 32 64 32q8 0 14 -6q8 -8 8 -20q0 -26 -44 -76q-24 -34 -28 -108v-220q0 -532 -52 -824q-76 -462 -322 -668q-70 -58 -100 -58q-18 0 -18 26q8 36 62 100q112 126 170 524q34 270 34 624l-112 -92l-80 -50q-162 -92 -288 -92 q-154 0 -246 124q-48 62 -58 120q-214 -212 -456 -240q-20 -2 -40 -2q-156 0 -244 142q-58 96 -58 206z" />
<glyph unicode="t" horiz-adv-x="2210" d="M-74 624q0 38 62 110q108 122 238 162q46 16 80 16q38 0 62 -18q54 -40 54 -212v60l2 -106q2 4 36 38q70 74 170 138q160 108 282 108q60 0 110 -26q140 -62 184 -248q128 144 298 226q94 48 168 48q138 0 222 -108l38 -62q34 -72 34 -150q0 -128 -90 -272 q-40 -66 -100 -130q192 0 260 54q72 66 106 66q24 0 24 -22q0 -30 -52 -92q-116 -132 -284 -182q-84 -26 -234 -26l-210 2l-490 6h-82q-130 0 -194 -4l-370 -16q-88 -6 -90 -6q-38 0 -38 28q0 6 10 34l40 58q16 34 22 162v14q2 64 2 196q0 146 -24 186q-20 30 -60 30 q-28 0 -58 -16q-2 -2 -56 -42q-26 -18 -56 -18q-10 0 -12 4l-2 2q-2 4 -2 8zM360 182l418 20l68 2h22q60 0 80 18q8 6 18 38q22 56 22 114q0 142 -92 240q-74 78 -172 78q-80 0 -164 -54q-40 -28 -56 -46q-42 -48 -70 -132l-40 -200q-18 -38 -34 -78zM1062 206l554 -6l70 36 q6 6 22 36q30 68 30 136q0 124 -80 210q-70 76 -174 76q-52 0 -100 -26q-58 -26 -90 -60q-48 -48 -102 -182l-34 -76q-32 -60 -62 -98z" />
<glyph unicode="u" horiz-adv-x="1372" d="M-102 -152q0 84 106 202q120 130 316 240l34 20v4q0 2 -8 26q-56 154 -102 256q-34 70 -66 88q-4 4 -10 6q-26 10 -46 10q-12 0 -22 -4q-6 -2 -30 -26q-68 -52 -94 -52q-18 0 -18 22v4q0 56 118 156q116 100 208 100q40 0 76 -18q44 -18 80 -104q32 -72 36 -82 q178 150 282 192q70 28 136 28q68 0 130 -30q136 -74 136 -238q0 -124 -84 -260q-110 -188 -326 -336l-258 -162q-204 -146 -250 -278q-14 -46 -14 -96q0 -114 94 -196q76 -66 162 -66q60 0 86 16l32 28q66 52 92 52q18 0 18 -20q0 -18 -22 -56q-44 -68 -140 -146 q-128 -100 -250 -100q-78 0 -146 38q-80 44 -120 128q-34 68 -34 142q0 178 202 412q102 116 208 192l34 26l18 14l-2 18l-72 228q-26 -14 -74 -46q-96 -58 -170 -120q-20 -20 -20 -28q0 -38 38 -68l22 -18q4 -4 4 -8v-4q0 -24 -28 -62q-50 -74 -120 -120q-38 -24 -58 -24 q-32 0 -54 36q-30 38 -30 84zM498 642l50 -132q90 -246 128 -398q26 14 100 70q74 62 98 94q60 80 60 184q0 68 -28 118q-38 64 -98 90q-56 28 -120 28q-88 0 -190 -54z" />
<glyph unicode="v" horiz-adv-x="2046" d="M2 306q0 186 178 386q-80 10 -102 16q-32 10 -40 22q-28 32 -28 88q0 90 106 186q64 54 100 54q16 0 16 -18q0 -16 -14 -50q-2 -2 -6 -12q-2 -6 -2 -10q0 -26 24 -54q50 -38 692 -38q356 0 676 18l12 192q34 360 162 554q88 132 180 196q36 30 64 30h6q16 0 16 -16 q0 -30 -70 -114l-2 -2q-68 -84 -110 -300q-18 -108 -38 -454q-2 -12 -2 -22l-20 -398v-72q0 -154 26 -262q8 -30 8 -42q0 -28 -38 -72q-48 -62 -106 -104q-44 -26 -62 -26q-20 0 -20 22q-32 96 -32 210q-252 -232 -480 -232q-106 0 -182 58q-38 28 -60 62q-50 66 -58 118 q-180 -172 -380 -222q-70 -16 -126 -16q-32 0 -60 6q-160 42 -212 212q-16 52 -16 106zM230 498q0 -134 88 -222q46 -46 106 -62q22 -6 70 -6q106 2 204 60l50 34q22 14 34 86q16 126 92 232q20 30 40 58l-434 2h-22q-68 0 -100 2h-46q-12 -2 -30 -16q-6 -6 -22 -36 q-30 -68 -30 -132zM1002 524q0 -82 42 -162q32 -62 82 -102q66 -54 154 -54q72 0 158 36q84 36 104 74q30 56 36 194q2 12 2 20q12 178 12 180l-140 -18q-2 0 -262 -12l-108 -2h-2q-36 0 -40 -2q-6 -4 -12 -24q-26 -64 -26 -128z" />
<glyph unicode="w" horiz-adv-x="2200" d="M-76 626q0 30 64 110q126 138 258 164q32 10 60 10q32 0 54 -14q60 -34 60 -210v58v-110q116 116 220 182q152 102 274 102q60 0 114 -26q128 -58 174 -220q4 -12 6 -26q24 30 104 100q212 172 370 172q88 0 158 -54q124 -96 124 -272q0 -200 -186 -396q186 0 264 54 q60 50 82 60q16 6 28 6q22 0 22 -24q0 -28 -46 -80q-98 -120 -250 -178q-108 -40 -318 -40l-74 2q2 0 -28 0q-412 8 -618 8q-220 0 -402 -14q-30 0 -34 -2q-6 -4 -6 -34q-16 -262 -80 -492q-70 -260 -240 -430q-90 -90 -136 -90q-18 0 -18 18q0 24 32 70l60 74q0 2 2 4 q44 66 82 200q78 292 90 786l-2 -52v2l6 508q-8 132 -78 132q-24 0 -58 -12q-6 -2 -40 -28q-4 -4 -8 -6q-44 -28 -66 -28q-16 0 -20 16zM412 180q64 6 376 20q28 2 86 2q56 0 74 18q12 6 16 30q26 54 26 134q0 120 -78 214q-28 32 -52 46l-2 2q-4 4 -8 6q-60 42 -126 42 q-64 0 -132 -38q-104 -54 -148 -156q-26 -64 -30 -194l-2 -96v-30zM1064 206l414 -6h18l122 -2q20 14 68 34l2 2q6 6 22 38q30 68 30 135t-30 135q-46 96 -134 132q-42 20 -88 20q-48 0 -102 -26q-58 -26 -90 -60q-52 -50 -102 -178l-28 -68q-30 -62 -102 -156z" />
<glyph unicode="x" horiz-adv-x="2080" d="M-8 820q0 88 100 178q2 4 6 6q56 52 94 54h10q12 -2 12 -18l-20 -62v-10q0 -32 24 -54q16 -14 222 -28q132 -8 542 -8h174h38q566 10 650 34q4 2 26 18q42 30 68 30q20 0 20 -22q0 -42 -72 -114l-24 -24q-18 -44 -18 -156v-22q0 -530 -22 -746l-12 -106 q-38 -274 -106 -438q-80 -196 -224 -328q-76 -64 -106 -64q-20 0 -20 20q0 22 30 68l58 70q34 50 68 148q106 318 108 936v32l-114 -94q-210 -140 -366 -140q-102 0 -182 60q-94 70 -120 180q-50 -50 -126 -102q-204 -136 -380 -136q-170 0 -250 166q-34 70 -34 156 q0 126 84 266q26 42 90 118q-70 0 -144 16q-44 8 -56 24q-12 14 -18 38q-10 26 -10 54zM270 490q0 -66 30 -132q66 -150 234 -150q102 0 214 64q42 26 50 36q16 20 26 86q6 98 90 224l42 60q-94 -1 -187 -1q-187 0 -371 3h-48q-12 0 -26 -14q-4 -2 -22 -36q-32 -70 -32 -140 zM1042 526q0 -76 38 -156q52 -106 146 -146q-6 0 30 -10q26 -6 82 -6q130 6 226 82q48 38 54 194v24q4 76 26 142l26 58q-46 -10 -182 -20q-160 -8 -240 -8l-114 -2h-38q-10 0 -14 -2q-8 -8 -12 -24q-28 -62 -28 -126z" />
<glyph unicode="y" horiz-adv-x="1558" d="M-74 630q4 36 62 104q124 134 258 168q34 8 60 8q36 0 58 -14q58 -40 58 -202v-10v64q2 0 2 -4q0 -16 -2 -126q154 154 322 238q124 62 226 62h18q152 0 246 -128q64 -88 64 -204q0 -138 -100 -280q-20 -32 -88 -108q174 0 254 40l94 66l2 2q24 12 38 12q16 0 18 -18v-12 q-6 -30 -42 -74q-174 -218 -506 -218l-412 10q-40 0 -62 -2q-230 -14 -280 -20q-34 -4 -56 -4q-38 0 -38 20q0 16 16 44l36 54q16 32 22 164l2 194q0 146 -16 186q-20 44 -68 44q-26 0 -58 -16l-80 -54q-14 -6 -28 -8q-20 0 -20 22zM360 186l132 10q62 6 188 10 q180 0 208 -2q30 -2 44 -2h12l82 42l2 2q12 10 20 38q24 54 24 116q0 154 -122 240q-74 52 -162 52q-102 0 -222 -74q-48 -30 -70 -54q-34 -38 -56 -94q-6 -18 -30 -142q-8 -58 -50 -142z" />
<glyph unicode="z" horiz-adv-x="1392" d="M-16 816q0 88 104 184q2 4 6 6q50 46 86 52h14q16 -4 16 -20q0 -18 -16 -46q-8 -12 -8 -16q-2 -4 -2 -10q0 -20 20 -46q30 -42 450 -42q426 0 510 34l70 46q10 4 18 4q24 0 24 -24q0 -42 -72 -114l-24 -24q-18 -42 -18 -154v-22q0 -532 -22 -748l-12 -106 q-38 -274 -106 -438q-80 -196 -224 -328q-74 -64 -106 -64q-20 0 -20 20q0 22 30 68l58 70q40 58 68 152q104 308 108 914v64q-272 -246 -560 -246q-158 0 -254 122q-28 34 -42 74q-28 66 -28 138q0 172 168 366q-76 0 -148 18q-88 18 -88 116zM276 504q0 -68 34 -136 q80 -160 268 -160q158 0 304 96q52 36 54 148q0 118 26 196l24 56q-20 -2 -50 -10q-128 -16 -422 -16h-104q-44 0 -52 -2q-30 0 -50 -44q-32 -64 -32 -128z" />
<glyph unicode="{" d="M-1830 1122q0 18 20 52q36 56 92 92q30 22 48 24q6 0 40 -4q150 -30 260 -30h804q190 0 314 34q8 2 12 2q18 0 18 -18q0 -16 -14 -40q-36 -68 -106 -110q-24 -16 -114 -34q-118 -22 -262 -22h-750q-170 0 -330 32q-24 6 -26 8q-6 4 -6 14z" />
<glyph unicode="|" d="M-1144 -572q0 58 58 154l56 90l220 350q48 74 100 112q40 32 70 32q20 0 20 -20q0 -26 -70 -132l-250 -402q-4 -16 -4 -32q0 -52 52 -98q44 -38 90 -38l46 10q16 8 52 44q62 56 102 56q20 0 20 -22q0 -28 -50 -86q-4 -6 -6 -8q-62 -70 -150 -132q-102 -62 -176 -62 q-30 0 -56 10q-92 30 -118 126q-6 24 -6 48z" />
<glyph unicode="}" d="M-820 -572q0 70 114 242l220 352q42 70 100 112q40 32 70 32q20 0 20 -20v-4q0 -18 -64 -118l-204 -328l-52 -84q-4 -16 -4 -32q0 -52 52 -98q44 -38 90 -38l46 10q16 8 52 44q62 56 102 56q20 0 20 -22q0 -28 -50 -86q-4 -6 -6 -8q-62 -70 -150 -132q-102 -62 -176 -62 q-30 0 -56 10q-92 30 -118 126q-6 24 -6 48z" />
<glyph unicode="~" horiz-adv-x="658" d="M-74 628q0 32 62 106q144 158 310 174q10 2 20 2q78 0 98 -118q6 -46 6 -122l-2 -208v-4q0 -2 -6 -260q-24 -472 -80 -692q-82 -326 -288 -506q-64 -58 -102 -58q-16 2 -16 18q0 40 56 104q26 26 30 32q168 242 180 1174q2 48 2 112v148q0 156 -84 156q-28 0 -58 -16 l-72 -52q-22 -10 -40 -10q-16 0 -16 20z" />
<glyph unicode="&#xa0;" />
<glyph unicode="&#xa1;" horiz-adv-x="810" d="M-640 10q0 18 16 50q52 88 134 124q18 8 96 12l156 4h2q80 0 100 10q6 4 34 38l66 86q170 204 320 222q6 2 12 2q14 2 28 2q166 0 278 -154q100 -136 100 -306q0 -252 -216 -448q-156 -138 -292 -138q-160 0 -234 136q-20 42 -20 88q0 96 90 202q90 96 140 96h6 q14 0 14 -22q0 -24 -30 -64q-16 -26 -16 -28q-2 -14 -2 -28q0 -78 78 -134q62 -46 130 -46q32 0 64 10q26 10 32 16q12 12 26 48q28 68 28 140v12q0 172 -106 298q-56 68 -132 98q-56 26 -102 26q-32 0 -58 -14l-26 -26q-194 -280 -376 -318q-28 -6 -150 -8h-16 q-80 0 -118 -4h-46q-10 0 -10 18z" />
<glyph unicode="&#xa2;" horiz-adv-x="1260" d="M-318 754q0 26 42 84l2 2q4 4 6 8q62 70 114 86q20 6 64 6l246 4l524 -20q146 -14 238 -142q70 -98 70 -214q0 -178 -146 -348q-192 -218 -416 -218q-50 0 -100 14q-128 32 -196 136q-40 60 -40 124q0 92 82 190q48 56 92 80q22 20 50 20q20 0 20 -18q0 -26 -26 -64 l-14 -24q-2 -8 -2 -20q0 -16 4 -38q30 -114 156 -170q66 -30 134 -30q34 0 68 8q68 14 88 36q22 22 36 92q8 36 8 70q0 140 -120 248q-64 52 -140 66q-276 8 -566 22l-252 -8h-2q-24 0 -24 18z" />
<glyph unicode="&#xa3;" horiz-adv-x="936" d="M-1094 -882q0 84 110 168q44 36 72 36q10 0 14 -4q8 -6 8 -36v-6q0 -20 12 -42q40 -70 134 -70q92 0 154 60q56 52 110 152q60 110 142 358l82 250l-246 6h-18q-54 0 -80 2q-32 0 -36 8q-4 4 -4 16q0 14 18 46q58 98 140 126q12 4 74 4q50 0 154 -4h82q4 2 10 18l22 40 q218 384 526 478q86 22 132 22q70 0 116 -34q82 -64 82 -176q0 -100 -48 -190q-38 -76 -100 -138q-168 -182 -414 -212q-86 -14 -188 -14q-18 -2 -50 -2q-18 0 -20 -2l-116 -338q-158 -400 -440 -592q-124 -86 -236 -86q-136 0 -188 106q-10 26 -10 50zM-32 182 q280 0 382 22q40 8 74 20q52 20 62 30q28 24 28 116q0 80 -48 132q-40 40 -106 40q-128 0 -214 -70q-40 -34 -78 -94q-42 -60 -74 -132q-22 -46 -26 -64z" />
<glyph unicode="&#xa5;" horiz-adv-x="1260" d="M-822 -916q0 112 128 198q36 22 56 22t20 -28q0 -8 -2 -18q0 -96 110 -132q44 -14 86 -14q120 0 194 110q106 138 202 464q4 8 6 18q0 -2 -2 -2l72 232l22 68l-356 8h-110q-50 0 -54 4q-8 6 -8 16v4q0 20 18 48q32 54 86 94q54 36 100 36l68 -2q144 0 338 -4l12 20 q48 94 122 194q212 278 464 332q50 10 100 10h16q102 -2 152 -108q24 -56 24 -118q0 -124 -100 -254q-126 -168 -314 -234q-146 -50 -404 -50q-10 -46 -70 -234q-62 -194 -118 -310q-128 -266 -334 -426q-154 -116 -292 -116q-154 0 -214 106q-16 32 -18 66zM292 200 q192 0 256 6q210 20 262 66q30 24 30 116q0 104 -80 154q-30 18 -78 18q-34 0 -78 -10q-80 -16 -132 -60q-70 -56 -142 -204l10 22l-22 -44z" />
<glyph unicode="&#xa6;" horiz-adv-x="2296" d="M36 816q0 88 108 188q54 50 92 54h12q14 -2 14 -20q0 -22 -16 -46q-8 -12 -8 -20q0 -62 74 -76q62 -14 230 -18q234 0 282 2l146 6h2q0 110 20 250q44 342 180 532q78 114 166 172q38 28 60 28q20 0 20 -18q0 -20 -36 -76l-52 -60q-38 -60 -68 -168q-68 -246 -68 -670 v-24q-2 498 -2 566v12l4 -816q152 152 326 240q128 66 234 66q66 0 122 -26q144 -60 194 -216q18 -54 18 -112q0 -174 -146 -346q-136 -164 -310 -226q-58 -22 -108 -22q-88 0 -134 54q-36 40 -36 86q0 36 22 76q24 46 70 72q34 18 70 18q28 0 56 -12l52 -38q40 -22 88 -22 q40 0 84 14q34 6 42 36q26 60 26 118q0 80 -46 160q-44 82 -122 124h-2q-62 34 -132 34q-120 0 -258 -104q-40 -30 -60 -54q-44 -64 -50 -148q0 -112 -4 -246q-26 -612 -166 -876q-88 -168 -206 -270q-62 -52 -96 -52q-16 0 -16 20v8q8 34 62 96q106 120 162 482 q38 252 38 682q-270 -248 -562 -248q-32 0 -58 4q-150 28 -218 150q-48 78 -48 178q0 172 170 368q-70 0 -134 18q-58 12 -74 62q-10 26 -10 54zM312 500q0 -96 50 -166q16 -28 46 -54q82 -74 202 -74q66 0 146 24q124 36 182 94q30 40 30 170v214q-136 -30 -414 -30h-104 q-50 0 -60 -2q-30 -6 -48 -42q-30 -68 -30 -134z" />
<glyph unicode="&#xa7;" horiz-adv-x="2250" d="M30 314v36q14 266 300 472q144 106 266 106q72 0 120 -42q46 -42 46 -96q0 -30 -14 -64q-28 -68 -92 -94q-26 -10 -52 -10l-56 12q8 -4 -58 40q-36 18 -92 18q-44 0 -80 -14q-22 -4 -30 -14q-22 -32 -32 -114v-22q0 -144 104 -242q88 -78 204 -78q148 0 280 82 q46 28 56 46q24 56 24 168l-2 230v34q0 224 36 440q32 194 86 314q78 178 212 290q62 56 98 56h2q18 0 18 -20q0 -34 -72 -114l-2 -2q-70 -92 -114 -326q-38 -218 -38 -444l2 -348q312 304 564 304q20 0 38 -2q164 -24 246 -170q46 -84 46 -178q0 -178 -144 -348 q-144 -168 -312 -226q-58 -22 -108 -22q-88 0 -134 54q-34 40 -34 86q0 36 20 76q48 88 146 88l52 -10l52 -38q40 -22 88 -22q40 0 84 14q22 6 30 12l12 24q26 58 26 118q0 78 -46 158v4l-2 2q-90 154 -256 154q-118 0 -256 -104q-44 -32 -60 -54q-46 -64 -50 -148l-2 -58 v-2q0 -456 -68 -760q-44 -194 -100 -300q-86 -170 -208 -272q-62 -52 -94 -52q-18 0 -18 20v8q8 34 62 94q106 118 162 484q40 266 40 682q-144 -132 -296 -192q-136 -58 -248 -58q-132 0 -232 82q-112 92 -120 252z" />
<glyph unicode="&#xa8;" d="M-1020 -708q0 94 76 190q132 164 280 164q88 0 148 -74q44 -54 44 -120q0 -90 -76 -190q-130 -164 -278 -164q-94 0 -154 76q-40 52 -40 118zM-832 -542q0 -40 8 -60q38 -112 164 -112q0 122 -104 160l-2 2q-30 10 -66 10z" />
<glyph unicode="&#xa9;" d="M-750 -708q0 94 76 190q132 164 280 164q88 0 148 -74q44 -54 44 -120q0 -90 -76 -190q-130 -164 -278 -164q-94 0 -154 76q-40 52 -40 118zM-562 -542q0 -40 8 -60q38 -112 164 -112q0 122 -104 160q-32 12 -68 12z" />
<glyph unicode="&#xaa;" d="M-1356 1710q0 14 30 42l86 84q34 34 42 34q12 0 28 -16l112 -112q20 -20 20 -30q0 -16 -30 -40l-84 -86l-34 -30q-6 -2 -12 -2q-14 0 -26 16l-112 112q-20 16 -20 28zM-1176 1440q0 14 30 42l86 84q34 34 42 34q12 0 28 -16l112 -112q20 -20 20 -30q0 -16 -30 -40 l-84 -86l-34 -30q-6 -2 -12 -2q-14 0 -26 16l-112 112q-20 16 -20 28zM-996 1710q0 14 30 42l86 84q32 32 40 32h6h4q10 -4 20 -14l112 -112q20 -20 20 -30q0 -16 -30 -40l-84 -86l-34 -30q-6 -2 -12 -2q-14 0 -26 16l-112 112q-20 16 -20 28z" />
<glyph unicode="&#xab;" horiz-adv-x="720" d="M-112 1074q0 28 64 112q28 58 28 190l-2 96v2q0 60 2 68q18 62 106 136q66 56 98 56q20 0 20 -40q2 -86 2 -170q-2 -214 -168 -380q-86 -86 -132 -86q-18 0 -18 16zM158 1074q0 28 64 112q28 58 28 190l-2 96v2q0 60 2 68q18 62 106 136q66 56 98 56q20 0 20 -40 q2 -86 2 -170q-2 -214 -168 -380q-86 -86 -132 -86q-18 0 -18 16z" />
<glyph unicode="&#xac;" horiz-adv-x="900" d="M-92 190q2 14 20 46q52 76 144 130q66 42 158 42q66 0 156 -18q108 -24 160 -24t74 10l58 42q10 4 22 6h10q14 0 14 -20q0 -22 -20 -46q-44 -72 -136 -130q-76 -48 -162 -48q-82 0 -216 30q-72 14 -110 14q-46 0 -64 -10l-66 -44q-10 -6 -20 -6q-22 0 -22 26zM-92 514 q2 14 20 46q52 76 144 130q66 42 158 42q66 0 156 -18q108 -24 160 -24t74 10l58 42q10 4 22 6h10q14 0 14 -20q0 -22 -20 -46q-44 -72 -136 -130q-76 -48 -162 -48q-82 0 -216 30q-72 14 -110 14q-46 0 -64 -10l-70 -46q-8 -4 -16 -4q-22 0 -22 26z" />
<glyph unicode="&#xad;" d="M-1080 1710q0 14 30 42l86 86q30 30 40 30h4q12 0 26 -14l110 -110q20 -24 20 -30v-2q0 -18 -28 -40l-86 -86q-28 -32 -46 -32q-12 0 -24 16l-110 110q-22 18 -22 30zM-900 1440q0 14 30 42l86 86q30 30 40 30h4q12 0 26 -14l110 -110q20 -24 20 -30v-2q0 -18 -28 -40 l-86 -86q-28 -32 -46 -32q-12 0 -24 16l-110 110q-22 18 -22 30zM-720 1710q0 14 30 42l86 86q30 30 40 30h4q12 0 26 -14l110 -110q20 -24 20 -30v-2q0 -18 -28 -40l-86 -86q-28 -32 -46 -32q-12 0 -24 16l-110 110q-22 18 -22 30z" />
<glyph unicode="&#xae;" />
<glyph unicode="&#xaf;" d="M-978 1710q0 14 30 42l86 84q34 32 40 32h6h4q10 -4 20 -14l112 -112q20 -20 20 -30q0 -16 -30 -40l-84 -86l-34 -30q-6 -2 -12 -2q-14 0 -26 16l-112 112q-20 16 -20 28zM-798 1440q0 14 30 42l86 84q34 34 40 34l6 -2h4q10 -4 20 -14l112 -112q20 -20 20 -30 q0 -16 -30 -40l-84 -86l-34 -30q-6 -2 -12 -2q-14 0 -26 16l-112 112q-20 16 -20 28zM-618 1710q0 14 30 42l86 84q34 34 42 34q12 0 28 -16l112 -112q20 -20 20 -30q0 -16 -30 -40l-84 -86l-34 -30q-6 -2 -12 -2q-14 0 -26 16l-112 112q-20 16 -20 28z" />
<glyph unicode="&#xb0;" d="M-1424 258q6 24 28 54q72 100 182 146q66 32 150 32q86 0 216 -28q128 -28 194 -28q78 0 110 18l68 50q14 6 28 8q20 0 20 -16q0 -18 -22 -54v-2l-6 -8q-60 -86 -170 -144q-72 -36 -176 -36q-70 0 -154 16l-90 18q-100 22 -154 22q-70 0 -108 -18l-72 -54q-12 -6 -22 -6 q-22 0 -22 30z" />
<glyph unicode="&#xb1;" horiz-adv-x="540" d="M-26 1304q0 178 168 342q42 46 82 68q36 20 52 20t16 -18q0 -24 -28 -66l-42 -54q-24 -48 -24 -102q0 -68 38 -142q14 -28 32 -50q24 -28 24 -34v-4q0 -26 -30 -66q-46 -64 -110 -110q-42 -30 -64 -30q-18 0 -50 44q-64 86 -64 202z" />
<glyph unicode="&#xb2;" horiz-adv-x="540" d="M-22 1526q0 20 30 68q46 66 112 110q40 30 64 30q18 0 46 -40q68 -92 68 -202q0 -178 -168 -346q-88 -88 -132 -88q-18 0 -18 20q0 14 10 38l58 78q20 34 24 104q0 112 -76 200q-18 18 -18 28z" />
<glyph unicode="&#xb3;" horiz-adv-x="1296" d="M-56 -814q0 64 198 240l398 330l6 6q236 206 282 414q14 70 14 130q0 220 -184 342q-94 64 -210 64q-46 0 -92 -12q-54 -16 -64 -26q-18 -18 -24 -74q-6 -28 -6 -52q0 -36 12 -66l46 -72q14 -30 14 -60q0 -54 -44 -104q-50 -58 -114 -58q-74 0 -114 60q-40 44 -40 106 q0 78 60 192l12 24q104 186 284 290q136 78 262 78q112 0 216 -60q96 -60 142 -138q70 -110 70 -250q0 -284 -258 -590q-152 -176 -474 -436q-12 -8 -62 -48q40 4 84 4q92 0 208 -18q136 -26 206 -26q106 0 186 64l48 44l2 2q64 52 96 52q18 0 18 -18q0 -22 -28 -64 q-38 -58 -122 -126q-208 -180 -394 -180q-62 0 -226 28q-82 16 -170 16t-162 -14l-54 -12q-22 0 -22 18z" />
<glyph unicode="&#xb4;" d="M-1410 0q0 14 30 42l86 84q30 30 34 32h14q10 -2 22 -14l112 -112q20 -20 20 -30q0 -16 -30 -40l-84 -86l-34 -30q-6 -2 -12 -2q-14 0 -26 16l-112 112q-20 16 -20 28zM-1050 0q0 14 30 42l86 84q32 32 40 32t16 -4h2q4 -4 12 -10l112 -112q20 -20 20 -30q0 -16 -30 -40 l-84 -86l-34 -30q-6 -2 -12 -2q-14 0 -26 16l-112 112q-20 16 -20 28z" />
<glyph unicode="&#xb5;" d="M-708 1710q0 14 30 42l86 84q32 32 40 32h6h4q10 -4 20 -14l112 -112q20 -20 20 -30q0 -16 -30 -40l-84 -86l-34 -30q-6 -2 -12 -2q-14 0 -26 16l-112 112q-20 16 -20 28zM-528 1440q0 14 30 42l86 84q34 34 42 34q12 0 28 -16l112 -112q20 -20 20 -30q0 -16 -30 -40 l-84 -86l-34 -30q-6 -2 -12 -2q-14 0 -26 16l-112 112q-20 16 -20 28zM-348 1710q0 14 30 42l86 84q34 34 42 34q12 0 28 -16l112 -112q20 -20 20 -30q0 -16 -30 -40l-84 -86l-34 -30q-6 -2 -12 -2q-14 0 -26 16l-112 112q-20 16 -20 28z" />
<glyph unicode="&#xb7;" horiz-adv-x="540" d="M-32 450q0 14 30 42l86 84q34 34 42 34q12 0 28 -16l112 -112q20 -20 20 -30q0 -16 -30 -40l-84 -86l-34 -30q-6 -2 -12 -2q-14 0 -26 16l-112 112q-20 16 -20 28z" />
<glyph unicode="&#xb8;" d="M-1426 386q0 18 22 48q36 56 92 94q32 24 50 24q16 0 62 -16q56 -18 204 -18h30h338q74 0 136 20q32 14 48 14q18 0 18 -16q0 -20 -28 -58q-64 -92 -168 -124q-78 -24 -256 -24h-300q-112 0 -180 18q-68 14 -68 38z" />
<glyph unicode="&#xb9;" horiz-adv-x="540" d="M-22 170v6q0 20 30 68q46 66 112 110q46 30 64 30t46 -40q68 -92 68 -206q0 -162 -142 -316q-52 -56 -110 -96q-36 -18 -48 -18q-18 0 -18 20q0 14 10 38l58 78q20 34 24 106q0 122 -74 196z" />
<glyph unicode="&#xba;" horiz-adv-x="540" d="M-32 202q0 14 30 42l86 84q34 34 42 34q12 0 28 -16l112 -112q20 -20 20 -30q0 -16 -30 -40l-84 -86l-34 -30q-6 -2 -12 -2q-14 0 -26 16l-112 112q-20 16 -20 28z" />
<glyph unicode="&#xbb;" horiz-adv-x="720" d="M-112 -814q0 12 8 32l32 50q8 8 24 28q28 44 28 194l-2 90v4q0 60 2 68q18 62 106 136q66 56 98 56q20 0 20 -40q2 -86 2 -170q-2 -214 -168 -380q-86 -86 -132 -86q-18 0 -18 18zM158 -814q0 12 8 32l32 50q8 8 24 28q30 44 30 194l-4 90v4q0 60 2 68q18 62 106 136 q66 56 98 56q20 0 20 -40q2 -86 2 -170q-2 -214 -168 -380q-86 -86 -132 -86q-18 0 -18 18z" />
<glyph unicode="&#xbc;" horiz-adv-x="1314" d="M-40 626q20 70 124 166q140 116 260 116h8l58 -12q132 -24 304 -24q184 0 306 18q58 10 72 16l72 42q8 4 16 6q22 0 22 -20q0 -14 -16 -44q-38 -66 -110 -124q-68 -54 -126 -74q-114 -44 -376 -44h-118q0 -142 -2 -212q-8 -128 -30 -186q-26 -72 -80 -136 q-62 -78 -128 -116q-28 -16 -44 -16t-16 18q0 14 12 42l38 54q16 36 22 168v10q2 62 2 192q0 134 -16 172q-22 46 -66 46q-28 0 -60 -14l-68 -48q-28 -16 -44 -16t-16 20z" />
<glyph unicode="&#xbd;" horiz-adv-x="604" d="M44 4q2 20 36 68q12 16 16 28q26 60 26 368q0 434 4 516q18 366 132 590q70 136 180 232q66 62 106 62q18 0 18 -24q-8 -40 -66 -106l-2 -2q-18 -20 -28 -34q-120 -212 -120 -816v-98v6l2 -68q0 -340 -18 -418q-28 -146 -162 -266q-68 -58 -104 -60q-20 0 -20 22z" />
<glyph unicode="&#xbe;" horiz-adv-x="1260" d="M36 0q0 16 26 62q56 82 134 128q60 36 276 36h64q100 8 144 64q54 68 54 156q-4 60 -26 108q-14 28 -48 66q-88 90 -214 90q-106 0 -192 -48q-22 -12 -92 -70q-38 -32 -68 -44q-6 0 -14 -4h-10q-16 2 -16 18q0 62 142 182q220 192 430 192q180 0 276 -130q56 -76 56 -178 q0 -190 -226 -416q80 -4 96 -4q74 4 134 42q8 6 82 68l2 2q64 50 94 50q16 0 16 -16q0 -26 -24 -60q-46 -72 -166 -168q-150 -116 -274 -138q-28 -4 -75 -4t-115 4q-182 14 -230 14q-78 0 -180 -14q-32 -4 -42 -4h-4l-2 2q-8 4 -8 12v2z" />
<glyph unicode="&#xbf;" horiz-adv-x="1314" d="M20 1076q0 40 16 90q70 206 250 352q170 140 342 140q94 0 188 -42q164 -74 224 -250q26 -76 26 -162q0 -350 -438 -760l-6 -6l-78 -70l-170 -146q36 4 94 4q86 0 226 -10q8 -2 16 -2q56 -4 100 -4q120 0 190 54l96 82q38 24 58 24q18 0 20 -16q0 -58 -146 -190 q-172 -150 -318 -176q-32 -6 -84 -6l-320 18q-78 0 -230 -18q-22 0 -22 18q0 22 30 70q40 54 172 172l298 258q180 164 240 300q46 106 46 226q0 46 -8 86q-36 162 -174 254q-98 64 -210 64q-48 0 -100 -12q-50 -18 -58 -26q-12 -14 -22 -60q-8 -34 -8 -64q0 -36 12 -66 l46 -72q14 -30 14 -60q0 -52 -42 -102q-52 -60 -116 -60q-94 0 -142 102q-12 30 -12 66z" />
<glyph unicode="&#xc0;" horiz-adv-x="1260" d="M-112 1170q0 56 126 166q8 6 14 10q132 110 240 110q60 0 86 -42q28 -50 28 -108q160 160 334 160q72 0 130 -34q122 -76 122 -232q0 -208 -240 -448q76 -6 130 -60q72 -68 72 -174t-56 -212q-108 -210 -406 -412q-16 -10 -32 -22l-210 -138q-30 -20 -54 -42 q-12 -10 -72 -76q-50 -60 -96 -94q-56 -40 -80 -40q-20 0 -20 18q0 22 30 66l62 72q2 6 6 12q42 66 82 204q68 250 68 830l6 282q0 154 -6 186q-16 80 -70 80t-112 -58q-42 -26 -62 -26t-20 22zM264 -112l46 30l264 176q58 38 80 68q48 62 48 172q0 102 -80 160h-2 q-50 34 -114 34q-76 0 -98 -22q-8 -8 -24 -50q-18 -46 -30 -158q-24 -220 -90 -410zM372 602q116 90 242 172q128 94 128 232q0 40 -10 80q0 6 -2 10q-40 112 -156 136q-24 6 -50 6q-38 0 -76 -12q-18 -4 -26 -10q-10 -10 -20 -46q-20 -62 -20 -132q-6 -218 -10 -436z" />
<glyph unicode="&#xc1;" horiz-adv-x="540" d="M-36 890q0 120 34 214q68 186 222 310q62 50 94 50q16 0 16 -22q-8 -38 -62 -100l-2 -2q-24 -28 -34 -46q-44 -82 -44 -218q0 -114 44 -298l86 -348q28 -122 28 -236q0 -184 -98 -342q-78 -118 -164 -188q-60 -44 -86 -46q-20 0 -20 18q0 20 28 64l70 90q44 82 44 210 q0 42 -4 90q-12 110 -88 406q-64 258 -64 394z" />
<glyph unicode="&#xc2;" horiz-adv-x="1260" d="M-94 332q0 24 38 72q154 188 382 188q82 0 186 -22q244 -50 298 -50h22q80 0 128 26q4 2 26 24q60 42 78 42q20 0 20 -26q-4 -28 -34 -62q-148 -188 -384 -188q-82 0 -180 18q198 -38 202 -38l-334 66q-106 22 -188 22q-86 0 -134 -28l-80 -58q-14 -6 -24 -6 q-22 0 -22 20z" />
<glyph unicode="&#xc3;" horiz-adv-x="540" d="M-32 698q0 14 30 42l86 84q34 34 42 34q12 0 28 -16l112 -112q20 -20 20 -30q0 -16 -30 -40l-84 -86l-34 -30q-6 -2 -12 -2q-14 0 -26 16l-112 112q-20 16 -20 28zM-22 170v6q0 20 30 68q46 66 112 110q46 30 64 30t46 -40q68 -92 68 -206q0 -162 -142 -316 q-52 -56 -110 -96q-36 -18 -48 -18q-18 0 -18 20q0 14 10 38l58 78q20 34 24 106q0 122 -74 196z" />
<glyph unicode="&#xc4;" />
<glyph unicode="&#xc5;" horiz-adv-x="846" d="M-640 16q0 16 20 50q38 58 92 96q34 26 60 30l198 -6q144 0 330 10l128 6l146 2q46 8 50 12q8 8 8 22q6 24 6 48q0 138 -106 212q-62 44 -146 44q-18 0 -28 -2q-32 -6 -92 -58q-56 -48 -86 -48q-12 0 -18 8l-2 14q0 44 70 114q174 174 328 174q126 0 206 -86q4 -6 10 -12 q66 -82 66 -184q0 -124 -74 -232q-104 -152 -248 -204q-68 -26 -238 -26l-368 -16q-174 0 -224 4q-18 2 -54 2q-28 6 -30 10q-4 4 -4 16z" />
<glyph unicode="&#xc6;" horiz-adv-x="936" d="M-316 748v10q0 22 20 50q40 60 90 96q42 32 76 32l170 -6q162 0 390 14q22 2 72 2h4q40 0 62 2q40 0 52 10q2 2 8 28q4 20 4 44q0 152 -124 224q-54 32 -122 32q-30 0 -46 -6q-26 -8 -72 -50q-62 -52 -96 -52q-20 0 -20 20q0 38 70 114q180 176 340 176q104 0 192 -82 q82 -82 82 -202q0 -118 -70 -222q-102 -158 -254 -214q-64 -24 -232 -24l-426 -16q-44 0 -84 2l-52 4q-30 0 -32 12z" />
<glyph unicode="&#xc7;" horiz-adv-x="630" d="M-858 14q0 18 22 52q44 64 98 98q36 26 58 26q20 0 296 -118l644 -254q156 -70 210 -120q98 -88 98 -232q0 -116 -80 -244q-94 -148 -252 -242q-100 -58 -198 -58q-152 0 -230 106q-42 54 -42 126q0 56 30 104q52 76 118 110q24 14 40 14q22 0 22 -20l-8 -56 q8 -106 116 -158q54 -26 110 -26q30 0 60 8q52 14 70 32q14 16 28 62q14 44 14 88q0 110 -86 196q-44 38 -180 102l-924 372q-34 14 -34 32z" />
<glyph unicode="&#xc8;" d="M-1266 -540q0 14 30 42l86 84q34 34 42 34q12 0 28 -16l112 -112q20 -20 20 -30q0 -16 -30 -40l-84 -86l-34 -30q-6 -2 -12 -2q-14 0 -26 16l-112 112q-20 16 -20 28z" />
<glyph unicode="&#xc9;" d="M-990 -540q0 14 30 42l86 86q30 30 40 30h4q12 0 26 -14l110 -110q20 -24 20 -30v-2q0 -18 -28 -40l-86 -86q-28 -32 -46 -32q-12 0 -24 16l-110 110q-22 18 -22 30z" />
<glyph unicode="&#xca;" d="M-888 -540q0 14 30 42l86 84q34 34 42 34q12 0 28 -16l112 -112q20 -20 20 -30q0 -16 -30 -40l-84 -86l-34 -30q-6 -2 -12 -2q-14 0 -26 16l-112 112q-20 16 -20 28z" />
<glyph unicode="&#xcb;" d="M-618 -540q0 14 30 42l86 84q34 34 42 34q12 0 28 -16l112 -112q20 -20 20 -30q0 -16 -30 -40l-84 -86l-34 -30q-6 -2 -12 -2q-14 0 -26 16l-112 112q-20 16 -20 28z" />
<glyph unicode="&#xcc;" d="M-1446 -540q0 14 30 42l86 84q34 34 42 34q12 0 28 -16l112 -112q20 -20 20 -30q0 -16 -30 -40l-84 -86l-34 -30q-6 -2 -12 -2q-14 0 -26 16l-112 112q-20 16 -20 28zM-1086 -540q0 14 30 42l86 84q34 34 42 34q12 0 28 -16l112 -112q20 -20 20 -30q0 -16 -30 -40 l-84 -86l-34 -30q-6 -2 -12 -2q-14 0 -26 16l-112 112q-20 16 -20 28z" />
<glyph unicode="&#xcd;" d="M-1170 -540q0 14 30 42l86 86q30 30 40 30h4q12 0 26 -14l110 -110q20 -24 20 -30v-2q0 -18 -28 -40l-86 -86q-28 -32 -46 -32q-12 0 -24 16l-110 110q-22 18 -22 30zM-810 -540q0 14 30 42l86 86q30 30 40 30h4q12 0 26 -14l110 -110q20 -24 20 -30v-2q0 -18 -28 -40 l-86 -86q-28 -32 -46 -32q-12 0 -24 16l-110 110q-22 18 -22 30z" />
<glyph unicode="&#xce;" d="M-1068 -540q0 14 30 42l86 84q34 34 42 34q12 0 28 -16l112 -112q20 -20 20 -30q0 -16 -30 -40l-84 -86l-34 -30q-6 -2 -12 -2q-14 0 -26 16l-112 112q-20 16 -20 28zM-708 -540q0 14 30 42l86 84q34 34 42 34q12 0 28 -16l112 -112q20 -20 20 -30q0 -16 -30 -40l-84 -86 l-34 -30q-6 -2 -12 -2q-14 0 -26 16l-112 112q-20 16 -20 28z" />
<glyph unicode="&#xcf;" d="M-798 -540q0 14 30 42l86 84q34 34 42 34q12 0 28 -16l112 -112q20 -20 20 -30q0 -16 -30 -40l-84 -86l-34 -30q-6 -2 -12 -2q-14 0 -26 16l-112 112q-20 16 -20 28zM-438 -540q0 14 30 42l86 84q34 34 42 34q12 0 28 -16l112 -112q20 -20 20 -30q0 -16 -30 -40l-84 -86 l-34 -30q-6 -2 -12 -2q-14 0 -26 16l-112 112q-20 16 -20 28z" />
<glyph unicode="&#xd0;" d="M-1446 -540q0 14 30 42l86 84q34 34 42 34q12 0 28 -16l112 -112q20 -20 20 -30q0 -16 -30 -40l-84 -86l-34 -30q-6 -2 -12 -2q-14 0 -26 16l-112 112q-20 16 -20 28zM-1266 -810q0 14 30 42l86 84q34 34 42 34q12 0 28 -16l112 -112q20 -20 20 -30q0 -16 -30 -40 l-84 -86l-34 -30q-6 -2 -12 -2q-14 0 -26 16l-112 112q-20 16 -20 28zM-1086 -540q0 14 30 42l86 84q34 34 42 34q12 0 28 -16l112 -112q20 -20 20 -30q0 -16 -30 -40l-84 -86l-34 -30q-6 -2 -12 -2q-14 0 -26 16l-112 112q-20 16 -20 28z" />
<glyph unicode="&#xd1;" d="M-1170 -540q0 14 30 42l86 86q30 30 40 30h4q12 0 26 -14l110 -110q20 -24 20 -30v-2q0 -18 -28 -40l-86 -86q-28 -32 -46 -32q-12 0 -24 16l-110 110q-22 18 -22 30zM-990 -810q0 14 30 42l86 86q30 30 40 30h4q12 0 26 -14l110 -110q20 -24 20 -30v-2q0 -18 -28 -40 l-86 -86q-28 -32 -46 -32q-12 0 -24 16l-110 110q-22 18 -22 30zM-810 -540q0 14 30 42l86 86q30 30 40 30h4q12 0 26 -14l110 -110q20 -24 20 -30v-2q0 -18 -28 -40l-86 -86q-28 -32 -46 -32q-12 0 -24 16l-110 110q-22 18 -22 30z" />
<glyph unicode="&#xd2;" d="M-1068 -540q0 14 30 42l86 84q34 34 42 34q12 0 28 -16l112 -112q20 -20 20 -30q0 -16 -30 -40l-84 -86l-34 -30q-6 -2 -12 -2q-14 0 -26 16l-112 112q-20 16 -20 28zM-888 -810q0 14 30 42l86 84q34 34 42 34q12 0 28 -16l112 -112q20 -20 20 -30q0 -16 -30 -40l-84 -86 l-34 -30q-6 -2 -12 -2q-14 0 -26 16l-112 112q-20 16 -20 28zM-708 -540q0 14 30 42l86 84q34 34 42 34q12 0 28 -16l112 -112q20 -20 20 -30q0 -16 -30 -40l-84 -86l-34 -30q-6 -2 -12 -2q-14 0 -26 16l-112 112q-20 16 -20 28z" />
<glyph unicode="&#xd3;" d="M-798 -540q0 14 30 42l86 84q34 34 42 34q12 0 28 -16l112 -112q20 -20 20 -30q0 -16 -30 -40l-84 -86l-34 -30q-6 -2 -12 -2q-14 0 -26 16l-112 112q-20 16 -20 28zM-618 -810q0 14 30 42l86 84q32 32 40 32q16 0 30 -14l112 -112q20 -20 20 -30q0 -16 -30 -40l-84 -86 l-34 -30q-6 -2 -12 -2q-14 0 -26 16l-112 112q-20 16 -20 28zM-438 -540q0 14 30 42l86 84q34 34 42 34q12 0 28 -16l112 -112q20 -20 20 -30q0 -16 -30 -40l-84 -86l-34 -30q-6 -2 -12 -2q-14 0 -26 16l-112 112q-20 16 -20 28z" />
<glyph unicode="&#xd4;" d="M-1356 1440q0 14 30 42l86 84q34 34 42 34q12 0 28 -16l112 -112q20 -20 20 -30q0 -16 -30 -40l-84 -86l-34 -30q-6 -2 -12 -2q-14 0 -26 16l-112 112q-20 16 -20 28zM-996 1440q0 14 30 42l86 84q32 34 40 34l6 -2h4q10 -4 20 -14l112 -112q20 -20 20 -30q0 -16 -30 -40 l-84 -86l-34 -30q-6 -2 -12 -2q-14 0 -26 16l-112 112q-20 16 -20 28z" />
<glyph unicode="&#xd5;" d="M-1080 1440q0 14 30 42l86 86q30 30 40 30h4q12 0 26 -14l110 -110q20 -24 20 -30v-2q0 -18 -28 -40l-86 -86q-28 -32 -46 -32q-12 0 -24 16l-110 110q-22 18 -22 30zM-720 1440q0 14 30 42l86 86q30 30 40 30h4q12 0 26 -14l110 -110q20 -24 20 -30v-2q0 -18 -28 -40 l-86 -86q-28 -32 -46 -32q-12 0 -24 16l-110 110q-22 18 -22 30z" />
<glyph unicode="&#xd6;" d="M-978 1440q0 14 30 42l86 84q34 34 40 34l6 -2h4q10 -4 20 -14l112 -112q20 -20 20 -30q0 -16 -30 -40l-84 -86l-34 -30q-6 -2 -12 -2q-14 0 -26 16l-112 112q-20 16 -20 28zM-618 1440q0 14 30 42l86 84q34 34 42 34q12 0 28 -16l112 -112q20 -20 20 -30q0 -16 -30 -40 l-84 -86l-34 -30q-6 -2 -12 -2q-14 0 -26 16l-112 112q-20 16 -20 28z" />
<glyph unicode="&#xd7;" d="M-708 1440q0 14 30 42l86 84q32 34 40 34l6 -2h4q10 -4 20 -14l112 -112q20 -20 20 -30q0 -16 -30 -40l-84 -86l-34 -30q-6 -2 -12 -2q-14 0 -26 16l-112 112q-20 16 -20 28zM-348 1440q0 14 30 42l86 84q34 34 42 34q12 0 28 -16l112 -112q20 -20 20 -30q0 -16 -30 -40 l-84 -86l-34 -30q-6 -2 -12 -2q-14 0 -26 16l-112 112q-20 16 -20 28z" />
<glyph unicode="&#xd8;" d="M-1380 1634q0 18 20 50q38 58 96 96q26 24 48 24q6 0 12 -2q6 -4 22 -22l216 -288l104 138q72 98 104 126q38 34 70 44q8 4 16 4q20 0 20 -20q0 -22 -72 -116q-2 -6 -6 -10l-156 -208q-86 -114 -92 -118q-42 -48 -86 -68q-18 -8 -30 -8q-10 0 -28 26l-42 56l-152 204 l-46 60q-18 24 -18 32z" />
<glyph unicode="&#xd9;" d="M-1106 1634q0 22 22 52q36 56 94 96q34 22 52 22q6 0 10 -2l132 -170l-6 8l110 -148h2l172 230q16 18 34 34q58 48 86 48q20 0 20 -20q0 -28 -70 -116l-166 -220q-66 -92 -94 -120q-72 -72 -108 -72q-14 0 -32 26l-42 56l-198 266q-18 18 -18 30z" />
<glyph unicode="&#xda;" d="M-1002 1634q0 18 20 50q38 58 96 96q26 24 48 24q6 0 12 -2q4 -2 22 -22l216 -288l104 138q72 98 104 126q38 34 70 44q8 4 16 4q20 0 20 -20q0 -22 -72 -116q-2 -6 -6 -10l-156 -208q-86 -114 -92 -118q-42 -48 -86 -68q-18 -8 -30 -8q-10 0 -28 26l-42 56l-152 204 l-46 60q-18 24 -18 32z" />
<glyph unicode="&#xdb;" d="M-732 1634q0 18 20 50q38 58 96 96q26 24 48 24q6 0 12 -2q4 -2 22 -22l216 -288l104 138q72 98 104 126q38 34 70 44q8 4 16 4q20 0 20 -20q0 -22 -72 -116q-2 -6 -6 -10l-156 -208q-86 -114 -92 -118q-42 -48 -86 -68q-18 -8 -30 -8q-10 0 -28 26l-42 56l-152 204 l-46 60q-18 24 -18 32z" />
<glyph unicode="&#xdc;" d="M-1382 1276q0 26 70 116l256 338q42 46 86 66q18 8 30 8q4 0 8 -2q34 -38 64 -80l196 -262q18 -32 18 -34q0 -24 -18 -46q-36 -62 -98 -102q-36 -22 -54 -22q-8 0 -26 22l-42 58l-174 234q-8 -10 -126 -168q-56 -74 -82 -96q-64 -50 -88 -50h-6l-8 6q-6 6 -6 14z" />
<glyph unicode="&#xdd;" d="M-1106 1272q0 12 8 32q36 48 68 98l160 212q84 112 116 142q56 48 88 48q4 0 8 -2q34 -38 64 -80l196 -262q0 -2 10 -14q8 -10 8 -16v-4q0 -22 -18 -48q-34 -58 -96 -100q-34 -22 -52 -22q-12 0 -30 24l-46 60l-172 230l-26 -38l-50 -66q-90 -120 -106 -136l-26 -26 q-56 -50 -82 -50q-22 0 -22 18z" />
<glyph unicode="&#xde;" d="M-1004 1276q0 26 70 116q4 6 8 10l158 210q82 110 94 122q66 70 112 70q4 0 8 -2q34 -38 64 -80l196 -262q18 -32 18 -34q0 -24 -18 -46q-36 -62 -98 -102q-36 -22 -54 -22q-8 0 -26 22l-42 58l-174 234q-8 -10 -126 -168q-56 -74 -82 -96q-64 -50 -88 -50h-6l-4 4l-4 2 q-6 6 -6 14z" />
<glyph unicode="&#xdf;" d="M-734 1276q0 26 70 116q4 6 8 10l158 210q82 110 94 122q66 70 112 70q4 0 8 -2q34 -38 64 -80l196 -262q18 -32 18 -34q0 -24 -18 -46q-36 -62 -98 -102q-36 -22 -54 -22q-8 0 -26 22l-42 58l-174 234q-8 -10 -126 -168q-56 -74 -82 -96q-64 -50 -88 -50h-6l-4 4l-4 2 q-6 6 -6 14z" />
<glyph unicode="&#xe0;" d="M-1392 1348q0 26 38 74q44 54 96 82q20 12 34 12q10 0 28 -18l30 -30q14 -14 18 -14q8 0 30 28q44 46 90 88q4 6 4 12q0 4 -2 8q-38 60 -72 122q-14 30 -24 30q-8 0 -28 -20q-42 -32 -66 -32h-2q-18 0 -18 18q0 44 84 122q114 102 180 102q36 0 56 -44l262 -452 q4 -6 10 -6q10 0 30 16q36 34 66 34q20 0 20 -20q0 -28 -42 -78q-66 -74 -148 -122q-44 -22 -74 -22q-14 0 -26 6q-20 10 -52 76l-72 124q-30 48 -34 62l-180 -178q-84 -88 -120 -88q-22 0 -46 26l-40 42q-30 24 -30 40z" />
<glyph unicode="&#xe1;" d="M-1118 1350q0 26 36 68q38 50 94 84q22 14 36 14q10 0 30 -16l30 -30q10 -16 18 -16q6 0 32 28l92 92q2 2 2 4t-4 12l-86 148l-10 4q-6 0 -26 -20q-46 -32 -68 -32q-20 0 -20 18q0 52 100 136q98 88 162 88q14 0 24 -4q16 -6 36 -40q26 -52 190 -330q56 -100 70 -122 q4 -6 10 -6q10 0 30 16q38 36 68 36q16 0 18 -16v-10q-4 -30 -40 -70q-68 -86 -152 -126q-44 -22 -72 -22q-14 0 -26 6q-16 8 -46 64l-4 8l-108 190l-178 -178q-90 -90 -128 -90q-6 0 -8 2q-4 0 -24 20l-48 48q-30 30 -30 42z" />
<glyph unicode="&#xe2;" d="M-1014 1348q0 26 36 72q52 60 98 84q20 12 34 12q10 0 28 -18l30 -30q14 -14 18 -14q8 0 30 28q44 46 90 88q4 6 4 12q0 4 -2 8l-14 22l-58 100q-16 30 -24 30t-28 -20q-42 -32 -66 -32h-2q-18 0 -18 18q0 44 84 122q114 102 180 102q36 0 56 -44l262 -452q4 -6 10 -6 q10 0 30 16q36 34 66 34q20 0 20 -20q0 -28 -42 -78q-66 -74 -148 -122q-44 -22 -74 -22q-14 0 -26 6q-20 10 -52 76l-72 124q-30 48 -34 62l-180 -178q-84 -88 -120 -88q-22 0 -46 26l-40 42q-30 24 -30 40z" />
<glyph unicode="&#xe3;" d="M-754 1346q0 14 10 34l-2 -6l8 18q38 60 98 98q36 22 54 22h2q6 0 24 -16q18 -22 40 -40q4 6 30 38q28 32 56 68q32 32 32 40l-66 178q-2 2 -6 4q-4 0 -24 -16q-48 -40 -76 -40q-18 0 -18 18v4q0 26 46 82q66 76 152 122q40 20 66 20q24 0 38 -16q10 -10 20 -44l176 -482 q2 -6 8 -6t18 10q50 44 80 44q16 0 20 -14q0 -26 -40 -80q-74 -92 -168 -134q-34 -16 -58 -16q-14 0 -24 4q-18 8 -36 64l-74 204l-122 -146q-106 -124 -150 -124q-24 0 -52 32l-10 10l-38 40q-14 10 -14 26z" />
<glyph unicode="&#xe4;" d="M-1644 -840q0 80 66 174q118 160 510 308l130 52l62 26h4h8q28 0 28 -30q0 -20 -40 -42l-68 -40l-262 -142q-222 -138 -222 -222q0 -34 36 -60q40 -32 82 -32q20 0 42 8l70 46q14 6 26 6h6q16 0 16 -20q-10 -40 -46 -76q-128 -144 -272 -144q-86 0 -140 72 q-36 50 -36 116z" />
<glyph unicode="&#xe5;" d="M-1270 -872q0 180 222 344q88 66 250 156l110 62q48 30 64 30q26 0 26 -28q0 -8 -4 -16q-2 -4 -28 -30l-316 -250l-50 -48q-68 -72 -68 -122q0 -12 4 -22q18 -52 100 -56q46 0 82 20l2 2q12 12 60 44q10 6 18 6q18 0 18 -24q0 -26 -36 -78q-86 -126 -214 -162 q-34 -12 -66 -12q-68 0 -120 50q-54 54 -54 134z" />
<glyph unicode="&#xe6;" d="M-1176 -828q0 86 66 174q78 102 232 182q122 62 394 166l66 26h10q22 0 28 -22q2 -4 2 -8q0 -10 -8 -18q-16 -16 -84 -54l-268 -144q-218 -126 -218 -216q0 -10 2 -20q16 -54 90 -70q14 -2 30 -2l32 4l74 48q12 6 24 6q24 0 24 -16q0 -24 -46 -78q-126 -144 -272 -144 q-84 0 -138 68q-40 50 -40 118z" />
<glyph unicode="&#xe7;" d="M-858 -858q0 66 40 144q58 110 202 212q98 68 332 192l50 28q4 2 8 2h8q26 0 26 -30q0 -10 -32 -42l-250 -192q-62 -50 -108 -98q-68 -64 -68 -118q0 -46 52 -66q30 -14 62 -14l62 14q38 24 72 52q10 4 18 4q20 0 20 -20q0 -22 -32 -72q-92 -138 -232 -172q-28 -8 -54 -8 q-68 0 -118 50q-58 56 -58 134z" />
<glyph unicode="&#xe8;" d="M-1522 1552q0 86 102 188q64 58 100 58q16 0 16 -24l-30 -64q-2 -8 -2 -16q0 -52 58 -90q68 -38 258 -38l334 -4q24 0 46 -2q138 -16 176 -42q36 -24 36 -56q0 -58 -104 -154l-208 -160q-18 -12 -32 -12q-6 0 -10 2q-18 6 -18 22q0 24 34 58l46 48q24 26 74 76 q-70 30 -222 34l-400 6q-134 10 -178 38h-4q-72 44 -72 132z" />
<glyph unicode="&#xe9;" d="M-1122 1552q0 86 98 182q60 66 104 66q18 0 18 -24l-30 -66q-2 -8 -2 -16q0 -10 4 -22q18 -54 74 -80q28 -10 146 -22q6 -2 14 -2l330 -10q10 -2 18 -2q176 -16 176 -96q0 -62 -104 -152q-4 -4 -38 -26l-106 -86l-64 -48q-18 -12 -32 -12q-6 0 -10 2q-18 6 -18 22 q0 24 34 58l46 48q24 26 74 76q-60 26 -192 34l-296 8q-12 0 -24 2q-154 14 -190 76q-30 34 -30 90z" />
<glyph unicode="&#xea;" d="M-856 1550q0 66 56 140q20 26 44 48q66 60 98 60h6q14 0 14 -14q0 -20 -30 -72q-2 -8 -2 -18q0 -42 50 -82q28 -28 128 -38l250 -20q156 -22 156 -92q0 -32 -30 -72q-30 -44 -72 -80q-50 -34 -140 -110l-68 -50q-20 -14 -34 -14q-4 0 -8 2q-22 6 -22 22q0 20 18 38 l138 144q-72 30 -244 38q-232 8 -278 82q-30 42 -30 88z" />
<glyph unicode="&#xeb;" d="M-712 1550q0 66 56 140q20 26 44 48q66 60 98 60h6q14 0 14 -14q0 -20 -30 -72q-2 -8 -2 -16q0 -40 48 -84q4 -2 8 -6q26 -18 104 -32l130 -10l84 -12q138 -22 138 -90q0 -32 -30 -72q-30 -44 -72 -80q-50 -34 -140 -110l-68 -50q-20 -14 -34 -14q-4 0 -8 2q-22 6 -22 22 q0 20 18 38l138 144q-60 26 -214 38q-188 8 -236 82q-30 42 -30 88z" />
<glyph unicode="&#xec;" d="M-2748 1950q0 18 20 52q36 56 92 92q30 22 48 24q12 2 72 2h2586q40 0 44 -4q6 -6 6 -16q0 -26 -40 -76q-60 -72 -110 -88q-12 -4 -56 -4h-2612q-38 0 -44 4t-6 14z" />
<glyph unicode="&#xed;" d="M-2154 -958q2 14 20 46q34 50 94 94q32 20 52 22q2 0 34 -6q140 -28 242 -28h818q156 0 316 32q8 2 14 2q20 0 20 -20q0 -14 -14 -34q-30 -58 -96 -106q-34 -24 -124 -40q-112 -22 -248 -22h-766q-212 0 -330 32q-26 6 -28 10q-4 6 -4 18z" />
<glyph unicode="&#xee;" d="M-1668 1956q2 20 20 44q36 56 92 94q30 22 48 24q8 2 52 2h1840q30 0 36 -4q8 -6 8 -16q0 -12 -10 -28q-24 -50 -80 -96q-36 -32 -66 -42q-8 -2 -46 -2h-1854q-32 0 -36 6t-4 18z" />
<glyph unicode="&#xef;" d="M-1532 -964q0 20 20 52q34 50 94 94q32 20 58 20q10 0 20 -4q72 -24 148 -28h462q82 0 142 18q42 16 52 16h2h2q14 0 14 -18q0 -22 -32 -68q-48 -62 -102 -90q-26 -14 -98 -32q-58 -14 -222 -14h-300q-126 0 -188 16q-56 16 -62 20q-10 6 -10 18z" />
<glyph unicode="&#xf0;" horiz-adv-x="1188" d="M-8 548q0 52 110 156q148 142 334 192q34 8 150 22q18 2 34 2q144 0 254 -106q116 -112 116 -264q0 -180 -152 -346q-202 -224 -430 -224q-94 0 -172 42q-92 50 -92 132q0 12 2 24q22 90 100 126q30 14 60 14l64 -16l78 -58q74 -38 152 -38q50 0 104 16q32 10 38 20 q22 44 22 112q0 156 -122 258q-104 82 -236 82q-76 0 -162 -28q-58 -18 -100 -48l-84 -70q-28 -18 -52 -18q-16 0 -16 18z" />
<glyph unicode="&#xf1;" horiz-adv-x="1224" d="M18 872q0 92 118 194q52 46 90 46q18 0 18 -18v-4q0 -8 -18 -46q-6 -12 -6 -22t4 -18q12 -42 58 -54q72 -18 270 -18q324 0 410 34l68 42q14 6 24 6q14 0 18 -14v-8q0 -48 -94 -136q-60 -54 -128 -80q-100 -40 -326 -44h-162q-20 0 -28 -20q-44 -100 -44 -186 q0 -54 20 -112q54 -138 208 -186q62 -20 118 -20q92 0 172 50l32 24l94 80q34 26 62 26q16 0 16 -22q0 -32 -48 -86q-36 -48 -112 -112q-218 -186 -412 -186q-92 0 -170 38q-118 48 -176 170q-26 58 -26 138q0 192 116 362l30 44l2 2q-54 0 -112 16q-60 14 -74 62 q-12 28 -12 58z" />
<glyph unicode="&#xf2;" horiz-adv-x="1944" d="M20 872q0 88 106 186q64 54 98 54h2q14 0 14 -18t-14 -52q-4 -8 -4 -10q-2 -6 -2 -10q0 -26 24 -54q46 -22 198 -28q46 -4 270 -8h398q504 12 572 34l44 32q30 18 48 18q20 0 20 -26q0 -30 -36 -68q-66 -92 -178 -142q-78 -34 -368 -44l-146 -4q-12 -4 -34 -80 q-20 -72 -20 -134q0 -76 32 -136q68 -126 220 -164q44 -10 86 -10q120 0 210 72q68 60 68 62q54 46 86 46q18 0 18 -18q0 -58 -148 -192q-226 -198 -422 -198q-56 0 -108 16q-130 38 -198 126q-20 26 -28 44q-114 -112 -260 -164q-64 -22 -128 -22q-94 0 -186 48 q-188 94 -188 296q0 224 144 404q6 8 12 14q-152 8 -174 42q-28 28 -28 88zM292 524q0 -70 26 -130q58 -124 204 -170q56 -16 108 -16q72 0 164 50q-6 38 -6 78q0 178 116 352l28 44q-250 -2 -586 2l-22 -48q-32 -86 -32 -162z" />
<glyph unicode="&#xf3;" horiz-adv-x="2358" d="M20 874q0 90 108 184q54 54 96 54h2q18 0 18 -18t-18 -52l-4 -8v-8q0 -14 12 -40q6 -20 32 -26q120 -26 566 -26q942 0 1100 14q120 10 158 18q4 0 30 18q46 32 68 32q10 0 14 -6l2 -2l2 -12q0 -30 -30 -70q-70 -98 -182 -146q-34 -14 -140 -28l-316 -16q-36 0 -40 -4 q-2 0 -8 -14q-44 -78 -44 -198v-20q0 -42 16 -84q50 -136 200 -186q64 -22 124 -22q84 0 160 42q24 12 96 78l4 4q70 56 102 56q16 0 16 -16q0 -20 -26 -64q-46 -70 -150 -154q-212 -172 -404 -172q-158 0 -270 112q-24 -20 -80 -50q-112 -62 -222 -62q-74 0 -148 30 q-90 38 -126 82q-22 -20 -78 -50q-112 -62 -220 -62q-156 0 -268 102q-104 96 -104 246q0 188 126 376q26 36 28 40q-56 0 -126 14q-40 10 -48 22q-28 36 -28 92zM290 530q0 -194 176 -282q78 -38 168 -38h30q-20 48 -20 116q0 192 116 362l28 44l-412 4q-12 4 -19 4t-11 -4 l-16 -34q-40 -88 -40 -172zM870 512q0 -182 178 -266q78 -36 162 -36h30q-20 48 -20 116q0 144 68 282l78 126l-264 -2h-152q-26 0 -30 -4q-4 -2 -18 -36q-32 -88 -32 -180z" />
<glyph unicode="&#xf4;" horiz-adv-x="1296" d="M104 -288v946q0 512 72 754q56 186 188 336q54 62 102 94q48 26 60 26q18 0 18 -22t-32 -68l-68 -86q0 -2 -2 -4q-60 -110 -92 -344q-20 -170 -20 -566v-906q0 -114 4 -146q22 -186 180 -298q112 -80 258 -80q96 0 180 36q30 16 36 26q18 42 18 82q0 42 -20 82l-44 58 q-24 32 -24 72q0 16 4 34q18 84 100 118q30 12 60 12q46 0 86 -34q64 -56 64 -146q0 -68 -36 -152q-38 -88 -120 -174q-174 -190 -396 -230q-52 -10 -104 -10q-56 0 -110 12q-186 44 -288 202q-36 56 -54 118q-20 72 -20 258z" />
<glyph unicode="&#xf5;" horiz-adv-x="1764" d="M104 -448v1104q0 472 48 664q58 272 234 454q94 94 140 94q20 0 20 -20t-22 -50q-6 -10 -54 -68l-2 -2q-4 -4 -6 -8q-132 -190 -132 -780l174 -6q86 -2 260 -2q376 0 546 10l144 12l2 2q44 8 68 26q38 30 64 30h2q22 0 22 -20q0 -50 -86 -130q-72 -62 -132 -84 q-112 -44 -454 -44h-38q-20 -6 -22 -10q0 -8 -4 -10q-44 -96 -44 -184q0 -212 202 -294q70 -28 140 -28q118 0 204 72l90 78q42 30 64 30q20 0 20 -18q0 -38 -66 -112q-28 -34 -94 -90q-130 -108 -238 -150q16 -72 16 -150q0 -252 -186 -474q-92 -110 -212 -184 q-140 -88 -274 -88q-184 0 -296 148q-86 110 -98 282zM330 -240q8 -116 46 -198q60 -140 188 -192q54 -22 114 -22q52 0 106 16q54 12 78 34q22 20 46 86q36 96 36 198t-36 212q-16 36 -28 76l-2 24l-32 12q-238 86 -238 324q0 188 116 358l28 44l-422 2v-974z" />
<glyph unicode="&#xf6;" horiz-adv-x="2340" d="M104 -448v1112q0 456 44 644q30 136 78 238q58 120 158 226q96 96 142 96q20 0 20 -20t-22 -50q-6 -10 -54 -68l-2 -2q-4 -4 -6 -8q-132 -190 -132 -776q2 0 122 -6q176 -4 266 -4q248 -2 434 -2q802 0 928 36l46 30q26 16 42 16q12 0 18 -10l2 -10q0 -24 -28 -66 q-74 -102 -192 -150q-48 -18 -150 -26q-158 -14 -306 -14l-30 -2h-2q-20 0 -26 -18q-46 -96 -46 -190q0 -202 190 -288q74 -34 150 -34l94 14q62 18 112 60l90 80q40 28 66 28q18 0 18 -20q-6 -66 -158 -198q-216 -188 -408 -188q-88 0 -158 30q-90 38 -126 82 q-14 -14 -82 -52q-44 -26 -60 -28q20 -66 20 -158q0 -290 -232 -522q-76 -78 -170 -134q-134 -80 -260 -80q-238 0 -346 244q-38 84 -44 188zM330 -234q6 -116 42 -198q58 -136 170 -190q64 -30 136 -30q48 0 102 14q60 20 76 34q10 10 18 30q58 104 58 232q0 140 -66 276 l-24 48v2q0 4 4 22q-96 28 -172 120q-68 88 -68 204q0 164 116 356q16 24 32 46q-336 2 -424 4v-970zM834 512q0 -182 178 -266q78 -36 162 -36h30q-20 48 -20 116q0 202 148 408q-164 -2 -446 -4l-2 -2q-4 -2 -18 -36q-32 -88 -32 -180z" />
<glyph unicode="&#xf7;" horiz-adv-x="1206" d="M-148 -504q0 52 20 98q52 134 188 246q54 48 92 48q16 0 16 -20q0 -12 -12 -36q-4 -10 -50 -68q-28 -38 -28 -74q0 -182 198 -288q110 -56 220 -56q100 0 172 36q24 10 32 18q10 8 20 36q32 88 32 240v972q0 414 38 618q4 14 6 28q26 140 80 254q50 104 138 204 q52 56 102 90q34 26 60 26q18 0 18 -22q0 -30 -66 -106l-2 -2q-68 -76 -106 -270q-38 -182 -40 -360q-2 -322 -2 -964v-270q0 -168 -22 -242q-40 -130 -156 -260q-226 -252 -498 -252q-168 0 -304 104q-94 70 -126 164q-20 56 -20 108z" />
<glyph unicode="&#xf8;" horiz-adv-x="2232" d="M-148 -506q0 144 178 318q38 40 84 64q20 12 34 12q20 0 20 -20q-4 -38 -56 -98q-20 -20 -22 -26q-14 -26 -14 -58q0 -36 16 -82q52 -162 246 -228q84 -28 166 -28q80 0 144 24q38 14 52 28q8 8 16 28q36 66 36 234v980q0 406 32 594q36 204 92 312q52 106 152 218 q46 52 100 84q32 18 50 18q16 0 16 -22q-2 -22 -20 -46l-54 -70q-36 -36 -68 -138q-54 -160 -70 -436q-4 -90 -4 -542q152 152 330 242q134 62 232 62q178 0 274 -154q46 -74 46 -174q0 -138 -100 -286q-18 -26 -86 -108q168 0 250 38q8 4 72 54q38 28 64 28q22 0 22 -26 q-4 -26 -30 -60q-68 -94 -196 -164q-108 -60 -250 -70q-188 -2 -364 8q-154 0 -198 -4l-40 -2h-4q-14 0 -20 -2q-2 -2 -2 -22v-64q0 -194 -16 -250q-38 -152 -162 -288q-224 -250 -494 -250q-164 0 -296 92q-114 78 -146 198q-12 48 -12 76v6zM978 182q20 4 126 14 q140 10 256 10l148 -4l80 40q8 6 16 26q34 62 34 128q0 62 -30 128q-52 110 -156 148q-50 20 -104 20q-106 0 -224 -78q-88 -58 -114 -110q-32 -66 -32 -188v-134z" />
<glyph unicode="&#xf9;" horiz-adv-x="2880" d="M-148 -512q0 122 120 268q124 132 174 132q22 0 22 -16q0 -30 -54 -98q-24 -32 -26 -32q-10 -22 -10 -70q12 -174 190 -266q110 -56 232 -56q148 0 200 52t52 280v1012q0 466 60 676q66 248 234 416q52 52 98 74q18 10 30 10q18 0 18 -18q0 -20 -24 -60l-60 -74 q-108 -164 -126 -582q-4 -112 -4 -502q146 136 222 184q154 102 276 102q62 0 114 -26q20 -10 60 -38q96 -88 118 -208q132 144 298 226q94 46 176 46q72 0 134 -36q76 -44 118 -134q36 -72 36 -150q0 -126 -90 -270q-18 -30 -40 -58q-32 -46 -60 -74q162 0 244 44l46 38 q48 38 80 38q20 0 20 -20q0 -10 -4 -20q-18 -44 -54 -80q-128 -140 -310 -184q-74 -16 -210 -16l-682 8q-154 0 -238 -4l-158 -6q-64 -4 -96 -4v-154q0 -118 -14 -176q-58 -226 -286 -402q-4 -4 -8 -6q-158 -116 -300 -128l-62 -2q-166 0 -298 92q-130 88 -154 230 q-4 22 -4 42zM978 182l446 22h2q48 0 56 2q40 8 58 92q12 44 12 86q0 84 -46 166q-50 88 -134 126q-42 18 -86 18q-84 0 -174 -64q-48 -34 -70 -62q-32 -42 -52 -106q-12 -46 -12 -136v-144zM1624 208l428 -6h6l122 -2q20 14 66 34l4 2q6 6 22 38q32 66 32 134t-32 136 q-46 96 -134 132l-2 2q-22 4 -40 12l-46 6q-50 0 -104 -26q-56 -28 -88 -60q-48 -50 -106 -186q-34 -88 -92 -172z" />
<glyph unicode="&#xfa;" horiz-adv-x="1332" d="M-4 312q0 78 50 162q36 60 116 148q106 106 150 116q10 6 18 6q6 0 10 -4q10 -6 10 -18q0 -32 -66 -104l-2 -4q-28 -28 -60 -106q0 -20 4 -42q24 -148 194 -226q108 -52 222 -52q122 0 196 40q28 16 30 20q28 48 28 122q0 118 -80 262q-62 114 -246 344l-84 110 q-202 254 -202 406q0 126 132 274q46 50 90 78q36 22 54 24q22 0 22 -20q-2 -20 -18 -44l-46 -68q-8 -18 -8 -50q0 -116 146 -322l264 -342l2 -2q198 -266 198 -462q0 -172 -148 -336q-192 -222 -440 -254q-24 -4 -50 -4h-28q-182 0 -316 94q-116 84 -138 212q-4 22 -4 42z " />
<glyph unicode="&#xfb;" horiz-adv-x="1332" d="M-4 316q0 84 64 180q88 130 196 212q44 34 70 34q22 0 22 -18q0 -46 -112 -158q-16 -22 -16 -58q0 -26 8 -58q42 -164 246 -232q84 -28 208 -28q74 6 132 28q38 14 50 26q18 18 30 86q2 20 2 42q0 100 -60 224q-66 130 -250 362q-68 84 -100 128q-202 250 -202 406 q0 126 134 276q96 100 148 100q16 0 16 -22q-2 -24 -44 -76l-2 -2q-26 -34 -26 -84q0 -60 36 -138q54 -120 222 -330l12 -14l82 -104q190 -236 238 -394q22 -74 22 -142q0 -58 -16 -114q-50 -158 -184 -278l-20 -20v-2q0 -6 22 -32q196 -256 196 -448q0 -176 -140 -336 q-206 -242 -470 -266q-14 -2 -28 -2h-28q-172 0 -306 88q-152 102 -152 262q0 90 72 192q62 92 154 174q40 36 78 54q16 10 28 10q16 0 20 -24q-2 -24 -20 -44q-18 -34 -52 -68l-40 -44q-14 -24 -14 -58q0 -156 166 -248q120 -68 254 -68q112 0 200 40q20 10 24 14 q10 14 14 34q16 44 16 94q0 62 -24 136q-38 116 -178 310l-56 72q-2 0 -74 -18q-56 -8 -106 -8q-34 0 -66 4q-206 24 -318 146q-78 84 -78 202z" />
<glyph unicode="&#xfc;" d="M-1372 -1040q0 16 14 44q8 14 58 76q6 8 12 14q12 12 38 66q82 174 114 484q10 64 16 74q40 78 124 138q44 34 72 34q18 0 18 -20l-4 -42q-42 -362 -138 -556q-52 -102 -134 -198q-58 -68 -112 -104q-34 -26 -60 -26q-18 0 -18 16z" />
<glyph unicode="&#xfd;" d="M-1100 -1038q0 14 16 42q8 16 70 90q20 26 38 68q80 164 114 480q4 58 14 76q40 76 126 138q50 34 70 34q18 0 20 -22q0 -54 -34 -240q-44 -228 -110 -356q-50 -108 -134 -200q-56 -66 -112 -104q-38 -24 -58 -24q-20 2 -20 18z" />
<glyph unicode="&#xfe;" d="M-994 -1040q0 16 14 44q8 14 58 76q6 8 12 14q12 12 38 66q82 174 114 484q10 64 16 74q40 78 124 138q44 34 72 34q18 0 18 -20l-4 -42q-42 -362 -138 -556q-52 -102 -134 -198q-62 -72 -112 -106q-44 -24 -60 -24q-18 0 -18 16z" />
<glyph unicode="&#xff;" d="M-724 -1040q0 16 14 44q8 14 58 76q6 8 12 14q12 12 38 66q82 174 114 484q10 64 16 74q40 78 124 138q44 34 72 34q18 0 18 -20l-4 -42q-42 -362 -138 -556q-52 -102 -134 -198q-62 -72 -112 -106q-44 -24 -60 -24q-18 0 -18 16z" />
<glyph unicode="&#x152;" horiz-adv-x="720" d="M-36 360q0 274 118 542q62 142 156 270q110 152 198 228q76 64 110 64q12 0 16 -14q0 -30 -26 -64q-14 -24 -80 -94q-46 -52 -88 -116q-178 -278 -178 -618q0 -302 124 -556q72 -144 156 -244q10 -12 66 -74l24 -28q2 -2 2 -4v-8q0 -22 -28 -64q-42 -58 -104 -106 q-50 -34 -70 -34q-16 0 -38 24q-194 194 -288 474q-70 212 -70 422z" />
<glyph unicode="&#x153;" horiz-adv-x="720" d="M-112 -542q0 22 32 68q4 6 74 84q58 58 112 156q156 270 156 584q0 454 -282 796l-64 74q-28 24 -28 40q0 54 110 150q68 54 96 54q14 0 32 -22q62 -68 64 -70q296 -364 296 -840q0 -392 -232 -744q-132 -190 -244 -290q-66 -60 -104 -60q-18 2 -18 20z" />
<glyph unicode="&#x178;" d="M-674 -762q0 26 18 52q20 28 98 114q98 116 172 192q22 20 62 64q28 28 50 32q48 0 48 -32q0 -22 -30 -66q-116 -166 -246 -318l-56 -68q-30 -28 -60 -30q-56 0 -56 60z" />
<glyph unicode="&#x2c6;" horiz-adv-x="540" d="M-32 66q0 14 30 42l86 84q34 34 42 34q12 0 28 -16l112 -112q20 -20 20 -30q0 -16 -30 -40l-84 -86l-34 -30q-6 -2 -12 -2q-14 0 -26 16l-112 112q-20 16 -20 28zM-32 450q0 12 30 40l86 86q32 32 42 32q12 0 28 -16l112 -112q20 -20 20 -28q0 -14 -30 -42l-84 -84 q-34 -34 -44 -34q-12 0 -28 16l-112 112q-20 20 -20 30zM-32 832q0 14 30 42l86 84q34 34 42 34q12 0 28 -16l112 -112q20 -20 20 -30q0 -16 -30 -40l-84 -86l-34 -30q-6 -2 -12 -2q-14 0 -26 16l-112 112q-20 16 -20 28z" />
<glyph unicode="&#x2dc;" d="M-1398 -708q0 94 76 190q132 164 280 164q88 0 148 -74q44 -54 44 -120q0 -90 -76 -190q-130 -164 -278 -164q-94 0 -154 76q-40 52 -40 118zM-1210 -542q0 -40 8 -60q38 -112 164 -112q0 122 -104 160q-32 12 -68 12z" />
<glyph unicode="&#x2000;" horiz-adv-x="1060" />
<glyph unicode="&#x2001;" horiz-adv-x="2120" />
<glyph unicode="&#x2002;" horiz-adv-x="1060" />
<glyph unicode="&#x2003;" horiz-adv-x="2120" />
<glyph unicode="&#x2004;" horiz-adv-x="706" />
<glyph unicode="&#x2005;" horiz-adv-x="530" />
<glyph unicode="&#x2006;" horiz-adv-x="353" />
<glyph unicode="&#x2007;" horiz-adv-x="353" />
<glyph unicode="&#x2008;" horiz-adv-x="265" />
<glyph unicode="&#x2009;" horiz-adv-x="424" />
<glyph unicode="&#x200a;" horiz-adv-x="117" />
<glyph unicode="&#x2010;" horiz-adv-x="540" d="M-32 202q0 14 30 42l86 84q34 34 42 34q12 0 28 -16l112 -112q20 -20 20 -30q0 -16 -30 -40l-84 -86l-34 -30q-6 -2 -12 -2q-14 0 -26 16l-112 112q-20 16 -20 28zM-32 698q0 14 30 42l86 84q34 34 42 34q12 0 28 -16l112 -112q20 -20 20 -30q0 -16 -30 -40l-84 -86 l-34 -30q-6 -2 -12 -2q-14 0 -26 16l-112 112q-20 16 -20 28z" />
<glyph unicode="&#x2011;" horiz-adv-x="540" d="M-32 202q0 14 30 42l86 84q34 34 42 34q12 0 28 -16l112 -112q20 -20 20 -30q0 -16 -30 -40l-84 -86l-34 -30q-6 -2 -12 -2q-14 0 -26 16l-112 112q-20 16 -20 28zM-32 698q0 14 30 42l86 84q34 34 42 34q12 0 28 -16l112 -112q20 -20 20 -30q0 -16 -30 -40l-84 -86 l-34 -30q-6 -2 -12 -2q-14 0 -26 16l-112 112q-20 16 -20 28z" />
<glyph unicode="&#x2012;" horiz-adv-x="540" d="M-32 202q0 14 30 42l86 84q34 34 42 34q12 0 28 -16l112 -112q20 -20 20 -30q0 -16 -30 -40l-84 -86l-34 -30q-6 -2 -12 -2q-14 0 -26 16l-112 112q-20 16 -20 28zM-32 698q0 14 30 42l86 84q34 34 42 34q12 0 28 -16l112 -112q20 -20 20 -30q0 -16 -30 -40l-84 -86 l-34 -30q-6 -2 -12 -2q-14 0 -26 16l-112 112q-20 16 -20 28z" />
<glyph unicode="&#x2013;" horiz-adv-x="2124" d="M46 462q0 118 38 258q76 276 308 522q394 416 1046 560l42 8q220 44 464 56l108 2h2q32 0 36 -10q2 -6 2 -12q0 -26 -80 -122q-22 -28 -42 -78q-36 -78 -58 -208q-22 -122 -40 -462q-22 -370 -22 -500q0 -160 28 -254q6 -34 6 -36q-2 -26 -32 -68q-50 -64 -110 -108 q-50 -30 -62 -30h-2q-16 2 -22 26l-8 40q-20 90 -24 184q-168 -168 -396 -226q-82 -22 -146 -22q-136 0 -222 72q-16 12 -26 26q-84 -72 -226 -92q-46 -6 -138 -6q-96 0 -150 18q-112 36 -180 140q-94 134 -94 322zM272 666q0 -236 130 -366q36 -36 72 -54q66 -38 204 -38 l34 2h42q-22 84 -22 130q0 198 198 396q100 100 194 142q100 50 176 50q72 0 122 -48l10 -10q34 -34 34 -78q0 -32 -18 -70q-26 -58 -82 -84q-30 -14 -66 -14t-68 20l-48 34h-2q-38 14 -78 14q-30 0 -64 -8q-34 -4 -48 -16q-18 -18 -30 -88q-4 -30 -4 -58q0 -136 96 -230 l2 -2q86 -82 210 -82q142 0 284 82q34 24 42 38q28 42 36 154l20 352q20 408 78 588q22 78 56 142l46 78q-178 0 -380 -32q-350 -54 -608 -172q-368 -166 -480 -408q-88 -186 -88 -364z" />
<glyph unicode="&#x2014;" horiz-adv-x="1206" d="M-22 582q0 14 24 58q38 54 100 106q176 154 356 154h18q18 0 172 -26q52 -10 92 -10h118q34 0 60 8l54 34q20 14 32 14q22 0 22 -20q0 -30 -36 -74l-20 -30q-14 -62 -14 -182v-32q0 -558 -38 -834q-38 -260 -102 -416q-88 -204 -222 -324q-68 -62 -106 -62q-22 0 -22 22 q0 32 64 102l2 2q156 190 190 828l8 528q0 148 26 224q-36 -14 -126 -14q-124 0 -168 8q-164 26 -172 26h-24q-60 0 -106 -16q-28 -8 -82 -54q-54 -40 -80 -40q-20 0 -20 20z" />
<glyph unicode="&#x2018;" d="M-1690 -718q0 124 174 236q82 48 130 48q24 0 24 -16q0 -26 -48 -62h-2q-18 -14 -26 -22q-30 -38 -30 -82q0 -84 64 -100q12 -4 22 -4l22 4q52 12 146 80q70 54 262 236l96 88q40 34 58 34q24 0 24 -28q0 -14 -8 -24t-46 -54l-86 -102q-146 -176 -252 -272 q-164 -148 -322 -148q-60 0 -104 22q-98 52 -98 166z" />
<glyph unicode="&#x2019;" d="M-1356 -762q0 10 2 20q20 110 140 206q68 62 114 62q18 0 20 -20q-2 -24 -40 -62t-38 -88q0 -36 20 -70q24 -42 60 -42q18 0 44 8q40 14 114 88q54 54 188 234q52 70 90 112q26 38 52 38q20 0 22 -26q0 -14 -6 -26q-4 -8 -102 -180q-82 -142 -140 -220 q-174 -234 -358 -234q-90 0 -146 68l-2 2q-34 44 -34 112v18z" />
<glyph unicode="&#x201a;" d="M-1482 62q0 28 64 86h2q80 80 292 268l62 52q44 38 80 38q34 0 48 -34q4 -8 4 -18q0 -40 -54 -84l-6 -6q-244 -204 -318 -258l-80 -60q-36 -24 -56 -24q-38 2 -38 40zM-1230 -100q0 28 64 86h2q80 80 292 268l62 52q44 38 80 38q34 0 48 -34q4 -8 4 -18q0 -40 -54 -84 l-6 -6q-244 -204 -318 -258l-80 -60q-36 -24 -56 -24q-38 2 -38 40z" />
<glyph unicode="&#x201c;" d="M-1224 -744q0 142 180 250q78 48 124 48q26 0 26 -18q0 -24 -56 -66h-2l-18 -16q-28 -36 -28 -80l6 -46q20 -58 74 -58q14 0 30 2q46 10 144 82q68 52 248 224q150 146 180 146q22 0 22 -30q0 -12 -8 -24l-44 -54l-92 -108q-156 -184 -244 -264q-176 -162 -342 -162 q-112 0 -168 82q-32 42 -32 92z" />
<glyph unicode="&#x201d;" d="M-962 -796q0 128 142 244q74 62 116 62q20 0 20 -16q0 -28 -42 -70q-36 -36 -36 -82q0 -34 20 -70q22 -42 64 -42q66 0 168 110q60 66 192 244q26 34 82 102q32 38 52 38t22 -26q0 -14 -6 -26q-4 -10 -98 -172q-4 -6 -6 -10q-168 -286 -272 -370q-118 -96 -234 -96 q-88 0 -144 66l-2 2q-38 46 -38 112z" />
<glyph unicode="&#x201e;" d="M-1270 -734q0 10 2 18q14 40 370 350q80 80 126 80q34 0 48 -32q4 -10 4 -20v-4q0 -38 -56 -82l-6 -6l-70 -60q-160 -132 -244 -196l-80 -60q-36 -24 -56 -24q-36 2 -38 36zM-982 -914q0 10 2 18q14 40 370 350l2 2q24 22 44 40q44 38 80 38q34 0 48 -32q4 -10 4 -20v-4 q0 -38 -56 -82l-6 -6l-70 -60q-160 -132 -244 -196l-80 -60q-36 -24 -56 -24q-36 2 -38 36z" />
<glyph unicode="&#x2022;" horiz-adv-x="1152" d="M-200 -652q0 100 54 214q56 124 176 254q44 48 68 70l28 26q2 2 2 6q8 108 10 334l2 566q8 394 76 608q4 8 6 16q62 192 214 344q82 82 128 82q20 0 20 -16q0 -32 -78 -122l-2 -2q-22 -22 -52 -100q-82 -212 -86 -650v-224q136 112 286 150q56 14 102 14q118 0 176 -112 q32 -66 32 -138q0 -80 -38 -170q-106 -262 -476 -478l-174 -108q-42 -36 -88 -68l-2 -2q-158 -138 -158 -312q0 -108 80 -194q82 -84 188 -84q66 0 102 20q90 68 114 68l4 -2h4l2 -2q8 0 8 -16q0 -52 -110 -154q-156 -140 -304 -140q-184 0 -280 174q-34 70 -34 148zM352 68 q42 22 170 104q136 98 162 138q52 72 52 160q0 32 -6 64q-30 160 -176 160q-72 0 -160 -48l-24 -16l-2 -2q-2 -2 -2 -20q-8 -270 -14 -540z" />
<glyph unicode="&#x2026;" d="M-1168 -730q0 28 64 86h2q80 80 292 268l62 52q44 38 80 38q34 0 48 -34q4 -8 4 -18q0 -40 -54 -84l-6 -6q-244 -204 -318 -258l-80 -60q-36 -24 -56 -24q-38 2 -38 40zM-880 -910q0 28 64 86h2q80 80 292 268l62 52q44 38 80 38q34 0 48 -34q4 -8 4 -18q0 -40 -54 -84 l-6 -6q-244 -204 -318 -258l-80 -60q-36 -24 -56 -24q-38 2 -38 40z" />
<glyph unicode="&#x202f;" horiz-adv-x="424" />
<glyph unicode="&#x2039;" d="M-1050 -742q0 16 10 36q0 20 124 116q162 140 316 250q36 32 64 32q4 0 8 -2q30 -6 30 -34q0 -26 -16 -42l-98 -98q-166 -158 -306 -272q-42 -38 -76 -38q-10 0 -22 4q-34 16 -34 48z" />
<glyph unicode="&#x203a;" horiz-adv-x="900" d="M-204 -610q0 104 132 264q60 68 62 68q10 12 38 62q82 174 110 518v8q16 298 16 550q0 64 4 196q0 160 -8 196l-2 4q-18 66 -68 66q-40 0 -92 -42l-26 -20q-36 -22 -54 -22q-22 0 -22 18q0 32 70 114q126 138 260 170q28 8 52 8q58 0 84 -42q14 -24 26 -72q120 78 206 78 q68 0 92 -82q14 -64 14 -186v-32v-72q0 -644 -94 -898q-32 -80 -98 -172q-94 -124 -306 -298q-76 -60 -110 -90q-46 -40 -54 -66q-8 -20 -8 -40q0 -48 50 -84q36 -28 80 -28h6q22 0 38 8l72 48q10 6 20 8q26 0 26 -18q0 -46 -88 -134q-138 -138 -264 -140q-58 0 -104 34 q-60 44 -60 120zM250 -56q72 48 110 112q34 56 60 220q44 254 44 668v156q0 160 -54 182q-8 4 -26 4q0 -82 -10 -492q-12 -402 -46 -582q-20 -104 -44 -176z" />
<glyph unicode="&#x205f;" horiz-adv-x="530" />
<glyph unicode="&#x2122;" d="M-1124 -708q0 94 76 190q132 164 280 164q88 0 148 -74q44 -54 44 -120q0 -90 -76 -190q-130 -164 -278 -164q-94 0 -154 76q-40 52 -40 118zM-936 -542q0 -40 8 -60q38 -112 164 -112q0 122 -104 160l-2 2q-30 10 -66 10z" />
<glyph unicode="&#x25fc;" horiz-adv-x="1060" d="M0 0v1060h1060v-1060h-1060z" />
</font>
</defs>
</svg>
