<?xml version="1.0" standalone="no"?>
<!DOCTYPE svg PUBLIC "-//W3C//DTD SVG 1.1//EN" "http://www.w3.org/Graphics/SVG/1.1/DTD/svg11.dtd" >
<svg xmlns="http://www.w3.org/2000/svg" xmlns:xlink="http://www.w3.org/1999/xlink" version="1.1">
<metadata></metadata>
<defs>
<font id="tengwar_annatarbold_italic" horiz-adv-x="0" >
<font-face units-per-em="2048" ascent="1638" descent="-410" />
<missing-glyph horiz-adv-x="630" />
<glyph />
<glyph />
<glyph unicode="&#xd;" horiz-adv-x="666" />
<glyph unicode=" "  horiz-adv-x="630" />
<glyph unicode="&#x09;" horiz-adv-x="630" />
<glyph unicode="&#xa0;" horiz-adv-x="630" />
<glyph unicode="!" horiz-adv-x="1368" d="M-1640 -2246q0 38 106 134l8 8q40 40 82 76q754 724 1410 1928q142 252 310 752q164 492 248 680q154 346 350 576q172 194 260 238q24 16 40 16q12 0 18 -8q4 -6 4 -12t-4 -16q-14 -44 -88 -112l-4 -4q-20 -16 -30 -28q-234 -244 -428 -784q-2 -4 -2 -8l-48 -136 l-142 -412l92 74l2 2q266 202 442 202q118 0 208 -74q114 -104 114 -250q0 -242 -246 -448q-78 -66 -168 -112q-132 -66 -222 -66q-82 0 -128 56q-4 2 -6 6q-30 36 -30 78q0 38 24 80q48 86 134 86q42 0 78 -22l50 -38l2 -2q34 -16 84 -16q120 0 150 54q44 76 44 154 q0 56 -22 114q-32 88 -110 138q-76 46 -156 46q-92 0 -220 -88q-126 -90 -198 -212q-10 -16 -104 -228q-30 -62 -166 -312q-484 -868 -1066 -1530q-234 -266 -478 -486q-120 -114 -172 -114q-22 0 -22 20z" />
<glyph unicode="&#x22;" d="M-2174 -338q0 14 18 40q26 42 76 68q20 14 42 16q2 0 32 -6q160 -32 508 -32l170 2h384q204 0 234 2q102 6 200 24l58 10q16 -4 16 -16v-6q0 -24 -32 -56q-52 -58 -116 -68q-6 -2 -12 -2q-110 -26 -200 -26q-112 -6 -560 -6h-288q-336 0 -496 32q-24 6 -28 8q-6 6 -6 16z " />
<glyph unicode="#" d="M-1002 1632q0 42 38 58q20 6 28 6q46 0 80 -76q34 -78 34 -180q0 -44 -6 -94q-12 -86 -22 -102q-12 -14 -26 -14q-26 0 -34 56l-6 48q-18 108 -44 176l-38 92zM-790 1376v4q0 10 4 32q4 18 8 54q26 206 44 276q26 90 92 90q46 0 60 -54q4 -16 4 -34q0 -50 -114 -298 l-30 -74q-18 -26 -38 -26q-24 0 -30 30zM-742 1250q0 20 36 86q62 112 144 200q52 58 92 64q70 0 70 -60l-2 -20q-8 -32 -76 -92l-10 -10q-98 -82 -184 -168q-24 -28 -42 -28q-28 0 -28 28z" />
<glyph unicode="$" d="M-1066 1156q0 22 18 40q30 30 170 140q196 152 528 384l138 96q68 46 98 46q32 0 46 -32l6 -28q-4 -42 -74 -88l-4 -4q-16 -8 -22 -14l-150 -104q-432 -302 -652 -428q-50 -32 -72 -32q-30 0 -30 24z" />
<glyph unicode="%" d="M-798 1338v2q0 16 20 70l66 210q42 116 100 122q76 0 76 -74q0 -42 -46 -118l-146 -228q-8 -10 -16 -16h-2q-8 -4 -14 -4h-4q-28 0 -34 36z" />
<glyph unicode="&#x26;" d="M-1410 776q0 22 40 66q26 28 102 68q2 0 486 266q242 130 368 224l46 36q142 124 142 228q0 112 -104 164q-46 24 -92 24q-110 0 -110 -80q0 -74 48 -108q24 -20 46 -20q8 0 16 2l48 24l8 2q10 0 16 -6q6 -4 6 -14q0 -16 -26 -50q-84 -100 -180 -100q-88 0 -122 82 q-16 34 -16 72t18 80q60 142 210 214q84 44 170 44q96 0 166 -76v-2q54 -58 54 -134q0 -98 -80 -220q-152 -218 -614 -472l-316 -172l-290 -158q-14 -2 -22 -2q-18 0 -18 18z" />
<glyph unicode="'" d="M-1494 -314q0 16 16 40q60 84 114 84q16 0 70 -18q58 -16 218 -16h38h360q82 0 150 22q30 14 46 14t16 -18q0 -12 -10 -30q-30 -54 -90 -84q-106 -48 -306 -48h-376q-116 0 -182 20q-46 10 -58 20q-6 6 -6 14z" />
<glyph unicode="(" d="M-1426 -762q0 36 46 116q74 110 142 224q16 20 34 22q40 0 40 -38q0 -16 -8 -38l2 6l-82 -256l-12 -28q-34 -80 -86 -86q-76 0 -76 78z" />
<glyph unicode=")" d="M-1030 1918l4 16v2l4 8q18 36 60 66q136 120 304 156q70 14 160 14q138 0 322 -34q332 -62 448 -62q168 0 266 48q48 30 60 38q56 52 92 52q18 0 18 -16q0 -44 -82 -106q-194 -160 -460 -160q-88 0 -188 16l-414 70q-92 12 -172 12q-162 0 -266 -56q-10 -6 -68 -50 q-34 -26 -62 -32q-26 0 -26 18z" />
<glyph unicode="*" horiz-adv-x="936" d="M144 356q0 248 374 742q344 452 892 962q108 100 154 100q22 0 22 -20q0 -30 -50 -84q-10 -12 -98 -94q-82 -74 -178 -170q-296 -296 -494 -546q-348 -438 -382 -652q-4 -28 -4 -56q0 -52 14 -104q34 -138 152 -202q62 -36 144 -36q182 0 298 84l78 60q30 18 58 18 q4 2 8 2q10 0 10 -14q0 -52 -82 -124q-238 -214 -532 -240h-40q-60 0 -102 14q-148 44 -212 204q-30 76 -30 156z" />
<glyph unicode="+" horiz-adv-x="990" d="M-646 36q0 22 34 68q12 16 22 26q68 64 114 78q24 6 148 8l158 2l536 -20q134 -16 232 -140q68 -100 68 -214q0 -104 -52 -210q-36 -74 -102 -142q-186 -206 -412 -206q-54 0 -104 14q-128 34 -198 136q-40 58 -40 122q0 86 88 188q40 44 92 74q30 20 56 20q22 0 22 -18 q0 -16 -18 -46q-4 0 -4 -4q0 -2 -2 -2q-2 -6 -6 -10q-16 -20 -16 -24q-2 -8 -2 -18q0 -22 8 -52q36 -106 158 -160q64 -28 130 -28q30 0 62 6q64 16 80 30q26 26 44 102q8 38 8 72q0 114 -78 210q-6 8 -14 16q-74 76 -180 92q-276 8 -550 20h-4q-70 0 -206 -4q-32 -4 -46 -4 q-26 0 -26 18z" />
<glyph unicode="," horiz-adv-x="802" d="M-1058 -1790q0 26 52 90q54 56 204 150l76 52q516 362 796 726q212 276 212 478q0 116 -72 194q-62 68 -160 68q-42 0 -70 -14l-80 -52q-22 -10 -34 -10q-16 0 -20 16v10q6 44 108 134q70 60 142 94l118 44q80 30 144 66q84 46 116 82q36 44 36 110t-30 120 q-76 136 -250 136q-124 0 -204 -26q-44 -16 -152 -106q-58 -48 -98 -48q-20 0 -20 20q0 52 152 176q142 120 272 164q98 36 246 36q208 0 290 -164q30 -60 30 -122q0 -76 -42 -158q-86 -152 -280 -298q-38 -26 -40 -30q48 -22 94 -98q38 -70 38 -160q0 -298 -378 -738 q-394 -464 -1058 -900q-88 -60 -120 -60q-18 0 -18 18z" />
<glyph unicode="-" horiz-adv-x="720" d="M24 150q0 20 6 40q26 88 112 88q40 0 70 -22q50 -36 50 -88q0 -20 -6 -40q-20 -70 -88 -86q-6 -2 -14 -2q-6 -2 -14 -2q-32 0 -66 24q-50 36 -50 88zM202 732q0 20 8 42q28 86 112 86q36 0 70 -22q52 -36 52 -92q0 -94 -90 -118q-26 -6 -36 -6q-34 0 -64 22 q-52 36 -52 88z" />
<glyph unicode="." horiz-adv-x="1170" d="M144 308q0 208 184 386q144 144 300 196q50 16 146 28h16q58 0 126 -26q136 -70 160 -250q4 -30 4 -60q0 -174 -148 -340q-204 -228 -444 -256q-12 -2 -24 -2q-18 -2 -36 -2q-164 0 -242 150q-42 84 -42 176zM378 490q0 -76 36 -150q70 -144 216 -144q62 0 134 26 q28 10 36 18q44 56 44 168q0 124 -76 216q-68 78 -168 78q-72 0 -134 -22q-38 -16 -42 -20q-12 -12 -20 -38q-26 -66 -26 -132z" />
<glyph unicode="/" d="M-3000 -2252q0 22 34 60q126 140 322 140q82 0 186 -20q-38 6 -38 8q2 0 98 -18q114 -22 182 -22q82 0 130 24l68 46q22 6 32 6q16 0 16 -14q0 -36 -42 -72q-128 -132 -312 -132q-84 0 -200 22q-152 30 -230 30h-18q-70 0 -112 -24l-52 -36q-28 -16 -44 -16q-20 0 -20 18 z" />
<glyph unicode="0" d="M-370 1958v2q0 20 32 58q126 140 326 140q80 0 180 -18q178 -34 242 -34q88 0 132 24l72 46q16 6 24 6q18 0 18 -22q0 -28 -40 -64q-128 -132 -312 -132q-84 0 -200 22q-158 30 -238 30h-10q-70 0 -112 -24l-52 -38q-28 -12 -44 -12q-18 0 -18 16z" />
<glyph unicode="1" horiz-adv-x="1368" d="M-1638 -2246q0 40 118 148l12 12q812 740 1512 2058q132 244 200 432q44 118 44 184q0 58 -38 96q-32 36 -104 36q-80 0 -128 -22l-38 -26q-46 -32 -72 -32l-14 4q-6 6 -6 14v2q0 20 26 56q36 52 106 104q78 58 138 80q90 38 208 38q116 0 150 -122q8 -26 8 -52 q0 -48 -20 -118q184 152 324 222q104 52 200 52q122 0 212 -74q114 -94 114 -246v-16v-8q-8 -206 -214 -400q-96 -90 -198 -140q-128 -64 -224 -64q-98 0 -144 76q-18 30 -18 66q0 88 80 136q40 24 82 24l58 -12l44 -34l14 -10q38 -22 88 -22q48 0 108 20q32 12 40 26 q50 74 50 160q0 46 -14 94q-22 76 -74 126q-86 82 -192 82q-54 0 -104 -18q-30 -10 -100 -54q-132 -92 -218 -232q-6 -10 -94 -186q-56 -116 -152 -288q-700 -1272 -1582 -2082q-124 -110 -170 -110q-18 0 -18 20z" />
<glyph unicode="2" horiz-adv-x="2040" d="M-1638 -2248q0 48 136 166l12 12q248 226 518 550q514 618 986 1512q232 436 232 590v14q0 10 -2 20q-14 74 -74 98q-18 8 -62 8q-86 -4 -130 -24l-38 -26q-42 -32 -70 -32q-22 0 -22 16v4q0 26 26 56q36 52 106 104q118 98 282 114q16 2 32 2q60 0 72 -2q70 -16 104 -94 q12 -30 12 -60v-12q0 -34 -10 -96l70 60q234 188 384 188q52 0 100 -18q154 -64 194 -250q110 110 240 190q122 76 226 76h20q32 0 74 -14q130 -42 184 -182q22 -60 22 -124q0 -240 -238 -448q-54 -50 -116 -88q-142 -88 -250 -88q-76 0 -120 44q-42 36 -42 88q0 26 10 56 q28 80 108 106q22 6 44 6q36 0 66 -16l46 -36q34 -26 88 -26q30 0 66 8q2 0 2 2q6 0 10 2q30 10 36 20q58 78 58 174q0 42 -12 88q-38 142 -158 194q-44 20 -92 20q-134 0 -246 -182l-48 -86q-66 -116 -80 -136q-130 -188 -324 -278q-104 -50 -180 -50q-64 0 -106 36 q-52 38 -52 98q0 20 6 44q22 86 110 116q24 8 48 8q38 0 72 -22l46 -38q42 -18 86 -18q38 0 78 14q22 12 24 12q10 10 30 48q34 70 34 142q0 66 -30 134q-6 8 -10 18q-54 100 -162 132q-30 8 -60 8q-42 0 -82 -18q-42 -18 -112 -80q-106 -98 -214 -318q-30 -74 -204 -392 q-510 -926 -1096 -1574q-238 -264 -474 -482q-118 -106 -164 -106q-20 0 -20 18z" />
<glyph unicode="3" horiz-adv-x="1356" d="M-8 -2q0 16 10 34q-2 -6 60 78q24 36 60 116q42 92 70 178l232 686q148 410 332 668q152 206 300 334q80 68 120 68q22 0 22 -18q0 -40 -132 -166q-260 -260 -474 -902l-136 -424q160 138 284 200q124 68 218 68h20q116 0 202 -68q120 -92 120 -258v-10q0 -50 -14 -98 q-38 -138 -156 -262q-122 -134 -276 -202q-108 -50 -186 -50q-106 0 -152 84q-16 32 -16 62q0 48 38 96q48 64 128 64q40 0 74 -24l48 -38l2 -2q34 -14 78 -14q38 0 86 12q62 14 76 56q38 72 38 144q0 62 -28 124q-38 84 -118 130q-68 40 -148 40l-346 -224q-38 -48 -68 -98 l-100 -184q-104 -148 -198 -198q-32 -16 -48 -16h-8q-14 0 -14 14z" />
<glyph unicode="4" horiz-adv-x="2034" d="M-8 4q4 26 64 98q24 28 54 100q38 78 82 200l148 450q196 608 428 922q134 184 292 320q70 66 118 66q20 0 20 -18q0 -42 -132 -164q-246 -260 -448 -832l-30 -86l-122 -380l70 60q226 180 378 180q52 0 102 -20q90 -38 140 -116q28 -44 50 -130q108 108 242 190 q124 74 224 74q162 0 248 -138q52 -82 52 -178q0 -254 -254 -466q-72 -60 -152 -104q-116 -60 -198 -60q-56 0 -98 28q-22 10 -38 34q-28 38 -28 78t26 82q50 80 138 80q34 0 64 -16l48 -38q38 -24 86 -24l66 8l2 2l14 4q28 12 32 16q30 34 44 94q14 48 14 92q0 84 -46 164 q-76 128 -218 128q-136 -4 -246 -190l-94 -170q-110 -186 -304 -296q-136 -76 -230 -76q-110 0 -150 92q-12 28 -12 54q0 54 44 102q52 58 114 58q50 0 88 -30l34 -30q34 -20 96 -20q34 0 66 10q26 10 30 14q6 4 22 30q42 78 42 158q0 58 -22 118q-46 118 -158 162 q-40 14 -78 14q-182 0 -368 -344q-98 -182 -126 -214q-80 -100 -158 -144q-32 -18 -48 -18q-4 -2 -8 -2q-16 0 -16 22z" />
<glyph unicode="5" horiz-adv-x="2030" d="M-152 662q0 14 12 32q28 52 104 112q156 130 350 130q50 0 76 -10q94 -42 94 -174v-6q0 -32 -8 -64q262 236 448 236q56 0 112 -24q128 -54 170 -212q4 -16 6 -30q104 104 238 188q126 78 230 78h20q32 0 78 -14q136 -46 184 -194q18 -56 18 -114q0 -156 -116 -314 q-160 -212 -372 -286q-64 -24 -116 -24q-76 0 -130 54q-36 40 -36 84q0 36 22 76q48 88 142 88q36 0 70 -18l60 -44q36 -16 76 -16q32 0 68 12q24 4 36 14q4 2 20 30q44 70 44 152q0 50 -18 106q-38 120 -144 170q-50 24 -98 24q-74 0 -144 -54l-18 -14l-10 -10 q-30 -28 -96 -138l-98 -172q0 -6 -8 -14q-122 -174 -298 -266q-118 -62 -204 -62q-92 0 -138 62q-28 36 -28 76t26 82q50 80 138 80q40 0 74 -20l48 -38l2 -2q30 -16 74 -16q104 0 128 48q44 82 44 166q0 90 -46 168l-24 32q-80 92 -188 92q-150 0 -294 -230l-156 -260 q-104 -152 -200 -208q-40 -24 -60 -24t-20 18q0 28 72 112q84 104 152 310q32 108 32 168q0 82 -62 116q-28 16 -66 16q-98 0 -144 -26l-62 -40q-30 -16 -46 -16q-18 0 -20 22z" />
<glyph unicode="6" horiz-adv-x="1358" d="M-154 660q0 16 16 38q28 50 102 108q166 132 356 132q134 0 160 -140q4 -20 4 -40q0 -44 -14 -104l80 68q258 198 432 198q88 0 166 -44q40 -22 70 -54q90 -82 90 -230q0 -168 -146 -342q-114 -132 -256 -208q-136 -70 -230 -70q-106 0 -148 76q-18 32 -18 66q0 44 32 90 q48 72 122 72q36 0 64 -14l48 -36l10 -8q40 -24 92 -24q48 0 104 22q28 12 34 16q28 28 44 90q14 48 14 94q0 86 -52 162v2q-16 24 -36 42q-82 82 -202 82q-230 0 -460 -404q-102 -196 -242 -288q-42 -28 -70 -28q-20 0 -20 16q0 12 14 40q6 10 58 72q18 20 48 76 q58 104 104 236q32 92 32 148v10q0 80 -56 122q-24 18 -72 18q-96 0 -144 -26l-86 -52q-12 -6 -22 -6q-22 0 -22 22z" />
<glyph unicode="7" horiz-adv-x="1116" d="M-936 -1816q0 20 30 64q20 24 86 86l92 82q362 332 716 758q264 318 518 736q-12 6 -44 44q-46 58 -78 134q-28 66 -82 286l-28 100q-40 132 -100 190q-46 38 -122 38q-56 0 -84 -12l-76 -46q-12 -4 -24 -4q-20 0 -20 16v2q0 20 24 56q100 136 264 186q60 18 122 18 q112 0 172 -80l30 -48q22 22 90 58q152 88 288 88q152 0 184 -108q8 -26 8 -78q-4 -218 -328 -754q-266 -444 -600 -840q-246 -296 -572 -618q-216 -212 -332 -310q-70 -64 -112 -64h-2h-2q-18 4 -18 20zM500 692l52 -188q48 -208 112 -306q12 20 62 130q68 164 68 258 t-66 120q-40 20 -88 20q-62 0 -140 -34z" />
<glyph unicode="8" horiz-adv-x="1224" d="M144 360q0 242 374 740q338 444 892 960q108 100 154 100q22 0 22 -18v-4q0 -32 -52 -84l-98 -94l-186 -178q-280 -280 -486 -538q-376 -476 -384 -696v-26q0 -136 100 -238q90 -90 220 -90q92 0 190 46q18 8 30 16q22 18 36 82q6 34 6 66q0 54 -18 106l-46 74 q-16 30 -16 62q0 42 30 88q4 2 6 6q50 62 124 62q54 0 88 -28q68 -56 68 -194q0 -178 -174 -352q-246 -246 -536 -246q-212 0 -304 198q-40 86 -40 180z" />
<glyph unicode="9" horiz-adv-x="1044" d="M-386 102v6q0 32 56 94q102 102 156 102h8q8 0 30 -24q58 -58 144 -58q64 0 118 34q36 22 80 86q92 128 98 290q0 12 -12 152q-4 54 -4 104q0 90 12 164q76 462 612 962q144 146 206 146q20 0 20 -18q0 -48 -138 -170q-20 -18 -32 -30q-398 -380 -440 -770 q-4 -64 -4 -118q0 -194 56 -332q42 -110 162 -284l76 -110q52 -84 102 -102q26 -10 54 -10q78 0 142 40l70 52l2 2q42 32 68 32q6 0 12 -2h2q8 -6 8 -14q0 -46 -96 -136q-156 -134 -296 -172q-58 -18 -108 -18q-16 0 -32 2q-82 10 -158 122q-144 208 -192 294 q-34 -56 -112 -138q-258 -274 -474 -274q-78 0 -142 42q-20 16 -40 34z" />
<glyph unicode=":" d="M-2174 -466q0 12 10 28q18 36 60 66q138 118 302 154q70 14 160 14q142 0 330 -34q202 -36 226 -40q128 -22 216 -22q212 0 324 86q58 52 92 52q18 0 18 -16q0 -38 -80 -106q-194 -158 -450 -158q-92 0 -208 16l-418 70q-86 10 -160 10q-164 0 -268 -56q-22 -12 -74 -56 q-38 -24 -54 -26q-26 0 -26 18z" />
<glyph unicode=";" d="M-1494 -408q0 22 34 62q68 78 184 118q60 20 142 20q78 0 178 -18q176 -32 236 -34q90 0 136 22l70 48q22 6 32 6q16 0 16 -14q0 -36 -42 -72q-128 -132 -312 -132q-84 0 -200 22q-154 30 -232 30h-18q-68 0 -110 -24l-52 -36q-28 -16 -44 -16q-18 0 -18 18z" />
<glyph unicode="&#x3c;" horiz-adv-x="1134" d="M-860 -1836q0 44 74 110l106 98l232 222q480 476 808 900q282 366 400 612q4 4 6 10q94 208 94 336q0 68 -24 128q-50 122 -190 122q-70 0 -116 -18l-66 -42q-26 -12 -42 -12q-18 0 -18 20q0 26 44 78q134 152 322 184l134 14q214 44 318 180q64 86 64 190q0 114 -94 204 q-102 102 -276 102q-110 0 -194 -32q-28 -6 -34 -14l-6 -16q-8 -32 -8 -62q0 -56 26 -110l36 -54q18 -28 18 -66q0 -104 -100 -148q-32 -14 -62 -14q-34 0 -66 18q-86 50 -88 186q0 42 10 84q22 92 120 202q170 190 428 232q54 10 108 10q160 0 270 -76q88 -60 126 -158 q22 -58 22 -118q0 -198 -230 -428q-142 -142 -258 -200q34 -54 42 -78q22 -60 22 -130q0 -196 -172 -502q-168 -308 -502 -718q-492 -602 -1104 -1160q-110 -104 -162 -104q-18 0 -18 18z" />
<glyph unicode="=" horiz-adv-x="720" d="M116 458q0 62 54 94q30 18 64 18q16 0 32 -4q84 -24 84 -122q0 -60 -54 -94q-30 -18 -64 -18q-16 0 -32 4q-84 24 -84 122z" />
<glyph unicode="&#x3e;" d="M-968 -640q0 30 16 52q8 12 72 70q168 146 182 168q24 30 48 30q20 0 24 -24v-10q0 -18 -32 -74q-68 -122 -148 -206q-58 -62 -96 -64q-10 0 -22 2q-44 14 -44 56zM-790 -844q0 28 34 120l110 246q14 32 38 32q22 0 30 -26v-4l-46 -314q-24 -142 -100 -142q-46 0 -62 54 q-4 16 -4 34zM-546 -538q0 46 6 96q12 82 14 86q14 28 30 28q12 0 26 -14q0 -4 4 -8q2 -6 14 -78q12 -96 42 -178l40 -92l4 -32q0 -44 -38 -58l-2 -2q-4 -2 -8 -2q-8 -2 -14 -2q-48 0 -84 74q-34 78 -34 182z" />
<glyph unicode="?" d="M-3622 -2284q0 12 10 28q18 36 60 66q198 170 464 170q140 0 328 -36l-124 24q0 -2 250 -48q210 -38 316 -38q212 0 324 86q58 52 92 52q16 0 16 -18l-4 -20q-16 -36 -72 -82q-194 -160 -462 -160q-142 0 -336 36q-330 60 -440 60q-164 0 -268 -56l-94 -70 q-18 -8 -34 -12q-26 0 -26 18z" />
<glyph unicode="@" horiz-adv-x="2040" d="M-1638 -2250q0 46 112 148l86 78q84 78 192 194q234 248 480 568q278 364 560 852l174 310q72 132 102 200q106 246 254 688q158 464 266 680q122 248 286 440q174 196 258 238q28 16 46 16t18 -20q0 -40 -94 -128q-20 -18 -30 -30q-230 -240 -422 -764l-102 -296 l-88 -256q50 46 78 66q232 186 380 186q56 0 108 -22q138 -58 180 -216q4 -14 6 -30q122 122 258 200q114 66 212 66h16q140 0 238 -148q46 -82 46 -172q0 -148 -106 -296q-136 -194 -334 -286q-98 -40 -170 -40t-116 40t-44 94q0 30 14 64q36 80 116 98q14 4 30 4 q32 0 64 -16q2 -2 44 -34l2 -2q4 -2 6 -4q38 -24 86 -24q38 0 82 14q24 6 36 24q54 82 54 176q0 58 -18 108q-42 116 -150 166q-44 20 -90 20l-74 -14q-82 -28 -146 -126q-12 -18 -106 -184l-22 -36q-118 -198 -326 -308q-6 -2 -12 -6q-104 -58 -186 -58q-88 0 -132 52 q-38 34 -38 94q0 54 44 102q52 54 122 54q44 0 76 -24l44 -36q52 -18 80 -18q32 0 64 10q30 4 44 16q10 10 22 34q40 76 40 154q0 94 -54 178q-78 116 -208 116q-54 0 -104 -30q-156 -92 -254 -278q-2 -4 -78 -180q-88 -176 -198 -372q-510 -908 -1066 -1524 q-218 -242 -470 -478q-120 -108 -172 -108q-16 0 -16 16z" />
<glyph unicode="A" horiz-adv-x="1332" d="M-850 -2098q0 48 90 124q966 878 1524 1882q102 188 142 298q-268 -224 -464 -224q-132 0 -228 86q-100 92 -100 232l4 60q30 224 272 416q68 56 136 88q134 64 224 64q76 0 118 -42q46 -42 46 -96q0 -90 -80 -140q-42 -24 -82 -24q-36 0 -72 20l-50 40q-36 18 -84 18 q-34 0 -72 -10q-54 -10 -70 -28q-36 -38 -48 -114q-8 -36 -8 -68q0 -108 76 -192q88 -94 212 -94q94 0 194 68q80 56 130 128q46 70 90 204q182 528 198 570q158 416 342 680q144 206 314 352q72 62 118 68h6q16 -2 16 -20q0 -24 -30 -60q-12 -16 -116 -120l-2 -2 q-8 -10 -16 -18q-182 -198 -330 -554q-72 -172 -252 -696l-96 -266q-88 -238 -136 -340q-98 -206 -284 -500q-472 -750 -1142 -1412l-234 -224q-140 -128 -176 -150q-32 -20 -52 -22q-28 0 -28 18z" />
<glyph unicode="B" d="M-168 1338v2q0 16 20 70l66 210q42 116 100 122q76 0 76 -74q0 -42 -46 -118l-146 -228q-16 -20 -36 -20q-28 0 -34 36z" />
<glyph unicode="C" d="M-372 1632q0 42 38 58q20 6 28 6q46 0 80 -76q34 -78 34 -180q0 -44 -6 -94q-12 -92 -28 -108q-10 -8 -20 -8q-26 0 -34 56l-6 48q-18 108 -44 176l-38 92zM-160 1376v-3q1 0 12 93q26 206 44 276q26 90 92 90q46 0 60 -54q4 -16 4 -34q0 -50 -114 -298l-30 -74 q-18 -26 -38 -26q-24 0 -30 30zM-112 1250q0 20 36 86q62 112 144 200q52 58 92 64q70 0 70 -60l-2 -20q-8 -32 -76 -92l-10 -10q-98 -82 -184 -168q-24 -28 -42 -28q-28 0 -28 28z" />
<glyph unicode="D" d="M-498 1632q0 42 38 58q20 6 28 6q46 0 80 -76q34 -78 34 -180q0 -44 -6 -94q-12 -92 -28 -108l-4 -4l-16 -4q-26 0 -34 56l-6 48q-18 108 -44 176l-38 92zM-286 1376v4q0 10 4 32q4 18 8 54q26 206 44 276q26 90 92 90q46 0 60 -54q4 -16 4 -34q0 -50 -114 -298l-30 -74 l-2 -2q-16 -24 -36 -24q-24 0 -30 30zM-238 1250q0 20 36 86q62 112 144 200q52 58 92 64q70 0 70 -60l-2 -20q-8 -32 -76 -92l-10 -10q-98 -82 -184 -168q-24 -28 -42 -28q-28 0 -28 28z" />
<glyph unicode="E" d="M-660 1632q0 42 38 58q20 6 28 6q46 0 80 -76q34 -78 34 -180q0 -44 -6 -94q-12 -92 -28 -108l-4 -4l-16 -4q-26 0 -34 56l-6 48q-18 108 -44 176l-38 92zM-448 1376v-3q1 0 12 93q26 206 44 276q26 90 92 90q46 0 60 -54q4 -16 4 -34q0 -50 -114 -298l-30 -74 q-12 -10 -38 -26q-24 0 -30 30zM-400 1250q0 20 36 86q62 112 144 200q52 58 92 64q70 0 70 -60l-2 -20q-8 -32 -76 -92l-10 -10q-98 -82 -184 -168q-24 -28 -42 -28q-28 0 -28 28z" />
<glyph unicode="F" d="M-562 1160q0 16 8 28q6 8 42 44q220 220 468 428l92 80q54 42 86 42q34 0 48 -32q4 -10 4 -20q0 -46 -68 -96l-118 -102q-486 -392 -524 -400q-38 0 -38 28z" />
<glyph unicode="G" d="M-294 1338v2q0 16 20 70l66 210q42 116 100 122q76 0 76 -74q0 -42 -46 -118l-146 -228q-16 -20 -36 -20q-28 0 -34 36z" />
<glyph unicode="H" d="M-976 776q0 16 44 74l494 598q372 424 638 452h22q102 0 168 -82q48 -62 48 -138q0 -26 -6 -54q-30 -156 -196 -270q-88 -58 -170 -58q-80 0 -128 62v2q-24 34 -24 74q0 70 68 148q60 64 104 64q20 0 20 -16q0 -12 -34 -62q-6 -12 -6 -24q0 -26 20 -54q38 -52 96 -52 q100 0 100 134q0 58 -36 110q-58 72 -144 72q-144 0 -350 -210l-16 -16q-44 -48 -208 -244l-224 -272l-178 -214q-54 -44 -82 -44q-20 0 -20 20z" />
<glyph unicode="I" horiz-adv-x="864" d="M-998 -1836q0 42 76 112l150 140l206 210q226 234 472 550q280 356 448 662q186 326 186 520q0 196 -144 296q-72 50 -164 50q-188 0 -296 -80l-86 -62q-36 -24 -54 -24q-20 0 -20 20v2q0 52 122 152q168 142 366 186q20 4 146 20q16 2 34 2q154 0 256 -138 q74 -104 74 -236q0 -144 -78 -330q-148 -360 -512 -850q-198 -266 -436 -536q-144 -166 -242 -264q-262 -262 -340 -332q-100 -88 -146 -88q-18 0 -18 18z" />
<glyph unicode="J" d="M-976 774q0 56 120 126l10 6l122 70l370 214q244 144 340 226q166 146 166 256q0 122 -118 170q-40 16 -78 16q-42 0 -84 -20q-14 -6 -24 -44q-4 -18 -4 -34q0 -52 42 -86q26 -26 54 -26q6 0 12 2q4 0 16 8q28 16 46 18q20 0 20 -16v-6q0 -18 -16 -34q-10 -16 -22 -28 q-80 -86 -178 -86q-54 0 -86 40q-42 42 -42 98v10q0 74 58 160q122 168 312 186h20q108 0 184 -86q44 -58 44 -130q0 -210 -350 -484q-110 -84 -346 -224q-464 -268 -490 -284l-60 -32q-12 -2 -20 -2q-18 0 -18 16z" />
<glyph unicode="K" horiz-adv-x="882" d="M98 264q0 224 332 478q40 28 42 30q-22 10 -56 44q-68 62 -68 162q0 242 398 628q322 310 808 618q58 34 74 40q12 4 20 4q22 0 22 -18q0 -20 -36 -68q-50 -62 -184 -148l-4 -2q-10 -8 -18 -12q-162 -102 -320 -224q-484 -364 -522 -600q-2 -8 -2 -18v-20q0 -98 92 -164 q64 -48 138 -48q14 0 30 2q22 2 80 38q32 22 56 22q18 0 18 -18v-2q0 -44 -88 -122q-80 -74 -164 -110l-102 -30q-68 -20 -138 -58q-84 -44 -122 -84q-50 -54 -50 -132q0 -156 150 -228q58 -28 138 -28q126 0 208 32q36 14 114 80h2q32 32 122 70q20 0 20 -22 q0 -46 -150 -174q-150 -124 -272 -166q-96 -30 -208 -34q-82 0 -104 4q-140 20 -214 136q-42 68 -42 142z" />
<glyph unicode="L" d="M-1156 -178q0 36 46 116q74 110 142 224q16 20 34 22q40 0 40 -38q0 -16 -8 -38l-6 -18l-74 -232l-12 -28q-34 -80 -86 -86q-76 0 -76 78z" />
<glyph unicode="M" d="M-590 780q2 22 26 46q24 32 84 70l304 208q178 130 278 258q84 106 84 198q0 46 -22 88q-50 90 -154 96q-86 0 -106 -28q-24 -24 -24 -78q0 -50 38 -86q28 -26 64 -26q8 0 14 2l58 28h10q18 0 18 -24q-8 -32 -62 -82q-80 -68 -152 -68q-60 0 -110 50q-36 42 -36 98 q0 62 38 124q82 146 238 206q72 28 130 28q96 0 162 -78q52 -60 52 -138q0 -158 -190 -372q-108 -120 -228 -214q-60 -48 -342 -240l-84 -58q-52 -32 -66 -32h-4q-4 2 -6 2q-12 2 -12 22z" />
<glyph unicode="N" d="M-632 774q0 20 28 70l136 268q176 352 368 532q174 164 332 164q52 0 96 -24q114 -60 114 -212q0 -174 -190 -308q-86 -58 -164 -58t-124 60q-26 32 -26 72q0 92 94 164q44 32 70 32q16 0 18 -14v-4l-26 -54q-2 -6 -2 -14q0 -22 18 -50q38 -50 92 -50q42 0 54 12 q8 8 16 32q20 38 20 78q0 66 -38 116q-56 80 -150 80q-110 0 -240 -172q-2 -4 -6 -8q-82 -110 -218 -382l-60 -114l-68 -134q-24 -40 -54 -64q-46 -36 -74 -36q-16 0 -16 18z" />
<glyph unicode="O" d="M-1084 -762q0 36 46 116q74 110 142 224q16 20 34 22q40 0 40 -38q0 -16 -8 -38l-6 -18l-74 -232l-12 -28q-34 -80 -86 -86q-76 0 -76 78z" />
<glyph unicode="P" d="M-1630 952q0 34 68 96q138 120 304 154q72 14 162 14q144 0 336 -34l184 -34l-28 4h4q144 -32 270 -32q224 0 328 86q64 52 92 52q18 0 18 -16v-4q0 -36 -78 -100q-200 -162 -456 -162q-116 0 -266 26l-340 58q-90 12 -166 14h-56q-128 -4 -222 -58q-8 -4 -68 -50 q-34 -28 -60 -30q-26 0 -26 16z" />
<glyph unicode="Q" horiz-adv-x="1368" d="M-1638 -2242q4 20 24 48q28 38 132 132q16 14 28 26q176 170 234 236q638 680 1186 1700q76 140 102 198q102 238 254 690q160 472 262 674q128 256 292 448q76 88 120 126q90 86 138 110q24 16 40 16q24 0 24 -18q0 -8 -6 -20q-14 -34 -44 -64l-96 -98 q-220 -230 -420 -790v1l-42 -121l-140 -412q46 42 150 118q212 148 358 160h46q128 0 216 -88q46 -42 70 -122q10 -36 10 -74q0 -164 -168 -352l-74 -74l104 -6h28q132 0 222 34q18 6 82 52q44 34 74 34q14 0 20 -14v-12q0 -32 -44 -76q-178 -208 -534 -208q-78 0 -168 8 q-292 26 -352 26q-150 0 -286 -30q-22 -6 -24 -6l-12 -16q-8 -14 -90 -166q-556 -980 -1178 -1638q-160 -172 -374 -368q-58 -54 -104 -76q-22 -14 -38 -14q-22 0 -22 26zM272 190l142 28q114 20 238 20h42t148 -10q12 0 44 -4h22q10 2 46 22q110 58 110 210q0 72 -38 130 q-78 120 -234 120q-56 0 -112 -24q-34 -14 -94 -54q-128 -86 -200 -194q-34 -54 -106 -226q-4 -10 -8 -18zM448 638l2 2z" />
<glyph unicode="R" d="M-726 1160l2 14q8 22 58 52q186 136 518 332l112 68q62 36 90 36l32 -12q24 -16 24 -40q0 -30 -26 -56q-6 -6 -66 -44l-114 -66l-398 -220l-138 -70q-46 -22 -64 -22q-30 0 -30 28z" />
<glyph unicode="S" horiz-adv-x="1988" d="M-194 -2098q0 42 88 124q170 152 384 366q540 542 956 1202q114 178 208 358q54 94 80 160q16 30 26 60q-180 -140 -284 -174q-54 -18 -105 -18t-97 18q-140 58 -180 190q-6 14 -8 28q-96 -90 -242 -172q-120 -64 -220 -64q-58 0 -108 22q-136 56 -178 212q-12 46 -12 92 q0 226 236 442q200 178 366 178q88 0 136 -54q32 -40 32 -84q0 -38 -24 -78q-48 -82 -140 -82q-52 0 -102 46q-32 32 -98 32q-38 0 -80 -14q-26 -8 -34 -18q-58 -76 -58 -172q0 -40 10 -84q42 -174 200 -214q28 -6 56 -6l92 18q62 24 96 60q42 42 82 160q22 66 42 100 q110 202 320 320q144 72 230 72q18 0 34 -4h2q70 -14 100 -68q20 -34 20 -68q0 -46 -34 -92q-50 -68 -134 -68q-40 0 -72 22l-40 34q-40 20 -88 20q-36 0 -76 -12q-26 -10 -32 -16q-24 -26 -46 -98q-14 -48 -14 -94q0 -90 54 -170q48 -72 128 -102q34 -14 74 -14h4 q72 0 148 58q108 82 186 292l6 18l148 434q200 570 412 860q144 204 308 342q78 66 116 66q20 0 20 -20t-28 -58q-18 -22 -100 -104q-18 -16 -30 -30q-196 -218 -336 -562q-72 -172 -252 -696l-96 -266q-88 -238 -136 -340q-98 -206 -284 -500q-306 -488 -708 -950 q-272 -312 -670 -688q-170 -164 -226 -170q-28 0 -28 18z" />
<glyph unicode="T" d="M-456 1338v2q0 16 20 70l66 210q42 116 100 122q76 0 76 -74q0 -42 -46 -118l-146 -228q-16 -20 -36 -20q-28 0 -34 36z" />
<glyph unicode="U" d="M-1156 774q0 56 120 126l10 6l492 284q288 174 340 226q166 146 166 256q0 122 -118 170q-40 16 -78 16q-42 0 -84 -20q-14 -6 -24 -44q-4 -18 -4 -34q0 -52 42 -86q26 -26 54 -26q6 0 12 2q4 0 16 8q28 16 46 18q20 0 20 -16v-6q0 -18 -16 -34q-10 -16 -22 -28 q-82 -86 -166 -86l-34 4q-88 22 -104 114q-2 10 -2 20v10q0 74 58 160q122 168 312 186h20q108 0 184 -86q44 -58 44 -130q0 -210 -350 -484q-110 -84 -346 -224q-464 -268 -490 -284l-60 -32q-12 -2 -20 -2q-18 0 -18 16z" />
<glyph unicode="V" d="M-434 1164q0 6 4 18q2 4 30 44l56 78q116 158 308 394q34 38 64 76q36 44 68 50q14 2 28 2q40 -10 40 -50l-4 -30q-6 -16 -14 -28q-22 -32 -132 -156q-182 -216 -364 -398q-34 -34 -54 -34q-30 0 -30 34z" />
<glyph unicode="W" horiz-adv-x="2040" d="M-1638 -2242q6 46 150 174l6 6q4 2 6 4l240 240q246 262 438 516q392 520 764 1202q62 112 100 196q88 198 264 712q142 416 252 648q150 322 408 576q140 130 186 130q14 0 18 -10l2 -10q0 -34 -38 -70q-6 -8 -86 -88q-60 -62 -114 -136q-170 -236 -328 -680l-172 -502 l74 62l2 2q184 144 298 176q48 14 94 14q50 0 100 -18q112 -38 164 -150q18 -42 22 -88q54 54 140 116q184 138 318 138q202 0 270 -174q24 -58 24 -120q0 -192 -226 -418q214 0 272 10h2q84 16 140 62q56 42 84 42q12 0 18 -6q8 -6 8 -18q0 -28 -58 -88 q-116 -122 -290 -170q-96 -26 -260 -26q-400 14 -794 34q-136 0 -202 -4q-326 -22 -448 -38l-38 -6q-4 -4 -10 -16l-20 -36q-188 -340 -326 -556q-422 -668 -918 -1202q-142 -154 -372 -366q-58 -54 -104 -76q-22 -14 -38 -14q-22 0 -22 26zM268 182l134 18h2q154 22 308 30 q124 6 126 6q24 0 36 2q18 0 22 2q8 6 28 30q54 80 54 170q0 150 -114 224q-64 40 -132 40q-44 0 -108 -26q-22 -12 -82 -58q-112 -94 -178 -220zM1026 238q134 0 402 -16l104 -6l56 -2l34 16q58 30 88 118q20 52 20 102q0 72 -40 136q-22 38 -58 66q-72 52 -146 52h-4 q-102 0 -184 -84q-42 -42 -124 -178q-58 -100 -110 -160q-32 -32 -38 -44z" />
<glyph unicode="X" horiz-adv-x="1952" d="M-232 -2094q0 42 122 148q864 786 1394 1682q158 260 230 440q-28 -24 -84 -64q-178 -128 -320 -128q-48 0 -92 14q-86 32 -130 94q-50 66 -52 118q-270 -228 -460 -228q-144 0 -232 110q-58 76 -58 172q0 98 60 218q52 98 202 244q-216 0 -298 -20q-50 -12 -92 -32 l-100 -68q-30 -14 -48 -14q-20 0 -20 18l8 34q22 40 66 78q148 136 348 178q92 18 250 18l214 -6l556 -32q68 -2 130 -2q256 0 376 10q26 0 30 2q6 6 22 60l58 162q120 328 250 560q154 266 382 488q68 68 124 94q22 16 38 16q22 0 22 -26q-4 -36 -136 -166q-16 -14 -26 -26 q-224 -242 -422 -786l-258 -734q-78 -216 -144 -358q-34 -70 -110 -202q-110 -202 -246 -404q-242 -372 -532 -712q-168 -200 -262 -296q-320 -342 -548 -546q-104 -94 -142 -114q-30 -16 -48 -16q-22 0 -22 22zM324 468q0 -154 106 -226q64 -44 138 -44q56 0 118 24 q58 24 96 62q34 36 80 148q42 100 126 198l54 58q-86 0 -334 18l-102 8l-52 2l-34 -16q-86 -28 -94 -32q-18 -10 -32 -24q-70 -70 -70 -176zM1062 454q0 -74 42 -140q70 -116 212 -116q72 0 154 60q112 84 188 302l12 36q28 72 38 110q-172 -20 -362 -20q-32 -2 -94 -2h-64 q-12 -2 -30 -16q-48 -28 -76 -108q-20 -54 -20 -106z" />
<glyph unicode="Y" d="M-1156 776q0 16 44 74l494 598q396 452 660 452q102 0 168 -82q48 -62 48 -138q0 -26 -6 -54q-30 -156 -196 -270q-88 -58 -170 -58q-80 0 -128 62v2q-24 34 -24 74q0 70 68 148q60 64 104 64q20 0 20 -16q0 -12 -34 -62q-6 -12 -6 -24q0 -26 20 -54q38 -52 96 -52 q100 0 100 134q0 58 -36 110q-58 72 -144 72q-144 0 -350 -210l-16 -16q-44 -48 -208 -244l-224 -272l-178 -214q-54 -44 -82 -44q-20 0 -20 20z" />
<glyph unicode="Z" horiz-adv-x="1332" d="M-852 -2096q0 42 132 160l112 102l254 252q644 666 1052 1376q148 256 208 414q-48 -40 -138 -102q-198 -126 -334 -126q-60 0 -120 22q-104 32 -152 122q-40 56 -40 146q0 144 136 310q40 56 140 142l-124 6q-24 2 -48 2q-184 0 -294 -70l-66 -50q-2 0 -4 -2 q-38 -16 -56 -16t-18 18q0 26 42 78q90 102 234 166q158 68 348 68q72 0 400 -36q96 -6 194 -6h48q46 0 68 2q28 0 34 24l82 232q0 4 2 6q126 346 284 604q146 236 354 428q58 56 112 82q20 10 34 10q20 0 20 -24q-4 -38 -132 -160q-12 -12 -20 -22l-2 -2q-2 0 -2 -2l-6 -6 q-210 -230 -398 -720q-16 -40 -226 -648l-68 -188q-88 -230 -132 -322q-26 -56 -86 -160q-388 -710 -1060 -1450q-252 -278 -552 -550q-104 -94 -142 -114q-30 -16 -48 -16q-22 0 -22 20zM358 458q0 -108 68 -180q78 -80 200 -80q94 0 192 62q94 60 148 144q40 62 86 194 q34 94 36 104l-120 -12q-66 -4 -132 -4q-104 0 -206 10l-54 4q-18 -6 -34 -14q-90 -30 -120 -64q-64 -70 -64 -164zM906 208l2 2z" />
<glyph unicode="[" d="M-940 1110q0 14 16 38q26 38 70 66q28 18 44 18q14 0 60 -16h2q4 -2 6 -2q60 -16 222 -16h38h358q86 0 150 24q42 12 44 12q16 -4 16 -18q0 -12 -10 -32q-30 -52 -88 -82q-106 -48 -306 -48h-378q-124 0 -220 32q-24 6 -24 24z" />
<glyph unicode="\" horiz-adv-x="720" d="M-30 366q0 18 20 50q54 68 142 104q56 26 136 26q54 0 120 -12q132 -24 178 -24h22q40 0 64 12l58 38q8 2 18 4h10q14 -2 14 -14v-6q0 -18 -18 -40q-100 -134 -282 -134q-62 0 -138 14q-104 20 -170 20q-50 0 -72 -12l-70 -42q-6 -2 -12 -2q-20 0 -20 18z" />
<glyph unicode="]" horiz-adv-x="1044" d="M126 330q0 110 56 212q52 98 146 182q184 176 402 194h64q82 -10 104 -16q94 -30 128 -108q10 -26 10 -52q0 -94 -88 -140q-36 -18 -72 -18q-24 0 -48 8q-22 8 -70 50q-16 14 -30 22q-78 40 -164 40q-38 0 -78 -8q-60 -12 -80 -26t-40 -96q-6 -32 -6 -62q0 -132 114 -230 q116 -102 294 -102q170 0 280 46q38 12 118 70q58 46 98 46q14 0 14 -18q0 -32 -58 -96q-120 -126 -290 -196q-154 -66 -336 -66q-120 0 -192 22q-136 44 -214 150q-62 88 -62 192z" />
<glyph unicode="^" d="M-1428 774q0 18 48 78l524 588q148 160 276 262q228 188 412 188q94 0 158 -80q50 -60 50 -138q0 -30 -8 -62q-32 -152 -186 -260q-14 -8 -26 -16q-78 -46 -162 -46q-80 0 -124 62q-24 38 -24 78q0 58 48 122q46 60 104 86q14 6 24 6q20 0 20 -20q0 -4 -2 -10l-34 -52 q-6 -12 -6 -26q0 -26 20 -54q36 -50 96 -50q10 0 22 2q28 0 44 14q14 10 30 58q10 32 10 62q0 70 -54 124q-54 56 -132 56q-96 0 -214 -86q-128 -92 -324 -312l-32 -34l-382 -432q-98 -124 -156 -124q-20 0 -20 16z" />
<glyph unicode="_" horiz-adv-x="1170" d="M-466 36q0 22 34 68q12 16 22 26q68 64 114 78q24 6 148 8l158 2l536 -20q134 -16 232 -140q68 -100 68 -214q0 -104 -52 -210q-36 -74 -102 -142q-186 -206 -412 -206q-54 0 -104 14q-128 34 -198 136q-40 58 -40 122q0 86 88 188q40 44 92 74q30 20 56 20q22 0 22 -18 q0 -28 -30 -62q-16 -20 -16 -24q-2 -8 -2 -18q0 -22 8 -52q36 -106 158 -160q64 -28 130 -28q30 0 62 6q64 16 80 30q26 26 44 102q8 38 8 72q0 114 -78 210q-6 8 -14 16q-74 76 -180 92q-276 8 -550 20h-4q-70 0 -206 -4q-32 -4 -46 -4q-26 0 -26 18z" />
<glyph unicode="`" horiz-adv-x="550" d="M-154 658q0 10 10 26q20 42 72 90q178 164 396 164q120 0 152 -118q8 -28 8 -58q0 -12 -2 -24q0 -90 -82 -286q-142 -332 -328 -448q-44 -22 -62 -22t-18 14q0 32 82 128q36 50 76 134q52 108 82 220q16 54 16 98q0 70 -44 114q-30 30 -96 30q-24 0 -52 -4 q-62 -10 -82 -22l-78 -48q-2 -2 -4 -2q-14 -6 -24 -6q-22 0 -22 20z" />
<glyph unicode="a" horiz-adv-x="1350" d="M-832 -2096q0 38 100 132l406 380q110 104 272 276q586 632 856 1236q78 178 104 280q-130 -114 -270 -178q-110 -50 -200 -50q-122 0 -216 84q-78 66 -96 166q-10 38 -10 78q0 236 258 452q90 76 180 116q112 56 192 56q66 0 112 -36q58 -44 58 -106q0 -28 -12 -58 l-2 -4v-2q-26 -64 -84 -86q-34 -14 -64 -14q-38 0 -72 22l-54 40l-2 2q-34 14 -78 14q-36 0 -78 -10q-50 -14 -60 -24q-6 -4 -22 -32q-36 -76 -36 -148q0 -70 34 -138q44 -88 134 -128q60 -28 120 -28q84 0 182 64q84 50 174 208q44 80 52 92q38 64 104 140q86 98 160 138 q28 16 48 16t20 -16q0 -40 -68 -106q-90 -82 -164 -342q-68 -228 -172 -438q-348 -714 -1090 -1458q-196 -196 -522 -496q-126 -114 -174 -114q-20 0 -20 20z" />
<glyph unicode="b" horiz-adv-x="1962" d="M-214 612q0 32 62 96q126 126 312 178q118 34 316 34q70 0 148 -4l62 -4q580 -32 694 -34h72q134 0 406 16h2l108 8q22 0 22 -20q0 -26 -52 -88q-8 -10 -12 -14q-14 -22 -44 -108q-82 -236 -104 -448q-4 -56 -14 -74q-44 -86 -150 -148q-36 -18 -50 -20q-26 0 -26 16 q0 4 2 10q0 44 30 212l-60 -50q-240 -188 -388 -188q-74 0 -142 36q-78 36 -120 120q-18 38 -20 72q-270 -228 -460 -228q-144 0 -232 110q-58 76 -58 172q0 98 60 218q52 98 202 244q-294 0 -408 -58l-102 -70q-24 -6 -36 -6q-20 0 -20 20zM328 468q0 -154 106 -226 q64 -44 138 -44q56 0 118 24q58 24 96 62q34 36 80 148q42 100 126 198l54 58q-86 0 -324 18l-162 10l-36 -16q-86 -28 -94 -32q-18 -10 -32 -24q-70 -70 -70 -176zM1066 456q0 -74 44 -144q24 -40 64 -68q60 -46 140 -46h4q74 0 152 58q98 74 158 206l84 202l22 40 q-8 0 -166 -12q-164 -8 -334 -8h-42q-12 -4 -40 -22q-36 -22 -66 -102q-20 -54 -20 -104z" />
<glyph unicode="c" horiz-adv-x="1344" d="M-214 612q0 46 114 142q214 168 498 168q94 0 354 -30q114 -12 192 -14l182 4q16 0 22 22q72 216 84 248q134 356 312 622q144 216 352 408q90 84 142 84q18 0 18 -16q0 -38 -72 -110q-68 -64 -100 -98q-332 -360 -548 -1128q-62 -220 -144 -572q-14 -58 -26 -118 q-10 -56 -18 -72q-26 -56 -106 -120q-78 -50 -102 -50q-18 0 -18 20l54 252q-148 -124 -264 -190q-146 -82 -270 -82q-34 0 -66 6q-162 34 -216 164q-26 58 -26 120q0 164 178 356l66 64q20 20 32 28l-134 8h-46q-158 0 -266 -50q-12 -6 -76 -52q-54 -36 -78 -36t-24 22z M372 460q0 -132 92 -204q76 -60 172 -60q106 0 216 78q120 86 146 138q28 50 62 180l30 112q-74 -18 -252 -18q-50 0 -102 2l-152 10l-32 -12q-84 -28 -118 -64q-62 -70 -62 -162z" />
<glyph unicode="d" horiz-adv-x="1332" d="M114 314q0 236 264 452q6 4 12 10q72 56 134 86q136 68 226 68q66 0 110 -36q54 -48 54 -106q0 -78 -72 -130q-44 -34 -88 -34q-36 0 -74 22l-56 42q-42 18 -86 18q-54 0 -110 -26q-48 -20 -72 -124q-8 -36 -8 -72q0 -116 86 -202t196 -86q92 0 204 72q124 84 166 176 q22 44 46 148l48 174q270 972 808 1432q76 70 122 70q20 0 20 -18q0 -44 -76 -112l-108 -108q-100 -114 -188 -256q-286 -464 -490 -1426q-18 -72 -28 -122q-16 -70 -18 -74q-28 -60 -106 -118q-62 -52 -102 -52q-18 0 -18 14v6q0 20 54 250q-134 -118 -296 -206 q-120 -64 -226 -64q-84 0 -158 38q-130 60 -162 214q-8 38 -8 80z" />
<glyph unicode="e" horiz-adv-x="1350" d="M-8 4q0 26 52 86q82 88 270 678q196 648 452 1002q136 190 296 328q82 64 114 64q20 0 20 -18q0 -44 -104 -142l-4 -4q-14 -12 -24 -22q-244 -254 -442 -818l-38 -110l-128 -398q196 154 302 208q116 60 220 60h18q174 0 266 -152q32 -80 32 -138q0 -196 -244 -420 q64 -4 118 -4q176 0 258 44l80 56q22 16 44 16t22 -20q0 -26 -36 -72q-186 -218 -550 -218q-62 0 -130 6l-326 28h-64q-194 0 -366 -44q-80 -18 -86 -18q-22 0 -22 22zM256 194q166 44 366 44q38 0 78 -2q80 0 176 -12q6 -2 12 -2q20 0 52 20l2 2h2l4 2q108 58 108 206 q0 84 -46 148q-80 104 -228 104q-144 0 -282 -138q-84 -80 -186 -270l-10 -18zM456 648v2v-2z" />
<glyph unicode="f" horiz-adv-x="1980" d="M106 310q0 234 248 448q192 168 360 168q78 0 128 -54q34 -40 34 -90t-42 -98q-58 -58 -120 -58q-52 0 -104 48q-32 32 -96 32q-36 0 -80 -14q-28 -8 -36 -18q-58 -76 -58 -172q0 -40 10 -84q34 -144 156 -200q56 -20 98 -20q48 0 98 20q64 28 92 58q42 42 82 160 q22 68 42 102q116 206 328 322q136 68 222 68q50 0 88 -24q68 -48 68 -122q0 -58 -52 -110l-2 -2q-48 -44 -106 -44q-48 0 -80 24l-40 34l-2 2q-40 20 -88 20q-86 0 -112 -38q-54 -80 -54 -170q0 -50 16 -100q30 -104 116 -160q60 -42 126 -42q78 0 164 70q82 64 130 156 q28 54 72 236q198 762 528 1204q148 198 312 338q74 68 120 68q20 0 20 -18q0 -44 -76 -112l-116 -116q-318 -366 -526 -1092q-90 -318 -172 -706q-18 -68 -18 -70q-26 -62 -108 -122q-64 -50 -98 -50q-20 0 -20 24q0 14 6 38q32 124 42 184q-30 -28 -94 -80 q-214 -166 -364 -166q-52 0 -98 18q-150 62 -184 216q-102 -100 -240 -170q-126 -64 -224 -64q-60 0 -106 22q-140 56 -180 216q-10 44 -10 90zM1606 228v2v-2z" />
<glyph unicode="g" horiz-adv-x="1998" d="M106 308q0 268 310 500q156 118 300 118q26 0 48 -6q106 -26 106 -138q0 -62 -46 -108q-50 -48 -112 -48q-54 0 -86 32l-34 26q-36 20 -84 20q-74 0 -104 -24q-42 -42 -60 -146q-4 -24 -4 -46q0 -106 70 -194q74 -98 184 -98q22 0 44 4q102 16 156 76q42 44 82 164 q0 4 2 8q96 256 360 408q16 10 52 26q98 46 170 46q96 0 142 -70q22 -36 22 -72q0 -44 -32 -88l-2 -2q-50 -70 -132 -70q-40 0 -72 22l-48 38l-2 2q-36 16 -80 16q-26 0 -54 -6q-40 -10 -50 -18l-20 -28q-44 -76 -44 -156q0 -58 22 -116q32 -92 112 -144q60 -40 124 -40 q94 0 170 76q38 40 106 166q96 168 158 244q100 112 168 150q36 22 54 22q22 0 22 -17t-22 -53q-8 -12 -70 -78q-114 -124 -132 -384v-24l6 -114q0 -24 -4 -32q-12 -26 -48 -66q-88 -88 -152 -104q-28 0 -32 22l2 -20v2l-6 114q0 38 2 96q-30 -28 -90 -72 q-188 -140 -332 -140q-146 0 -228 120q-44 58 -52 114q-88 -84 -214 -158q-136 -78 -246 -78q-62 0 -108 20q-140 58 -180 214q-12 46 -12 92z" />
<glyph unicode="h" horiz-adv-x="1350" d="M112 312l2 44q30 230 280 424q196 148 356 148q82 0 130 -56q30 -38 30 -78v-8q0 -56 -36 -98q-48 -60 -120 -60q-42 0 -62 12l-70 48q-54 18 -88 18q-58 0 -118 -30q-14 -6 -34 -40q-36 -72 -36 -143t36 -141q54 -104 158 -138q44 -16 90 -16h14q82 0 174 62 q40 28 52 40q54 54 144 212l40 66q28 44 74 100q104 116 170 154q36 22 54 22q24 0 24 -16q0 -34 -94 -132q-104 -122 -128 -322q-4 -32 -4 -62l8 -132q0 -30 -6 -40q-42 -84 -150 -148q-32 -16 -48 -20q-28 0 -30 24q-10 56 -10 112q0 52 8 104l-68 -56l-2 -2 q-238 -184 -412 -184q-132 0 -226 88q-102 94 -102 244z" />
<glyph unicode="i" horiz-adv-x="1242" d="M-602 -1836q0 42 76 112l150 140l206 210q242 254 494 576q468 608 584 988q26 92 26 170q0 50 -10 92q-32 142 -146 212q-70 40 -162 40q-102 0 -200 -48q-20 -10 -24 -14q-40 -48 -40 -134q0 -58 18 -112q4 -10 40 -66q22 -34 22 -78q0 -64 -58 -114q-44 -42 -106 -42 q-70 0 -116 66q-34 46 -34 144q0 212 198 390q240 224 526 224q150 0 248 -130l16 -22q64 -108 64 -224q0 -142 -78 -328q-148 -360 -512 -850q-198 -266 -436 -536q-144 -166 -242 -264q-262 -262 -340 -332q-100 -88 -146 -88q-18 0 -18 18z" />
<glyph unicode="j" horiz-adv-x="1854" d="M-152 658q0 30 50 86q108 122 260 174q78 26 190 26q92 0 206 -18h4l4 -2l452 -74q138 -18 244 -18q210 0 344 72l110 80q22 14 44 20q10 6 18 6q18 0 18 -22q0 -36 -72 -108q-270 -264 -638 -264q-28 0 -58 2q-60 0 -118 6l-70 8q-32 -4 -128 -32q-256 -78 -356 -230 q-82 -126 -82 -272q0 -138 60 -250q64 -124 192 -208q168 -110 376 -110q194 0 340 86q84 48 136 156q34 64 34 120q0 46 -24 88l-36 52v2q-12 28 -12 54q0 54 44 102q48 56 124 56q62 0 104 -52q34 -46 34 -114q0 -116 -90 -258q-152 -244 -410 -386q-214 -120 -434 -120 q-50 0 -100 6q-284 34 -448 232q-126 160 -126 350q0 228 174 454q136 172 362 316q-282 56 -420 56q-68 0 -118 -12q-36 -8 -48 -16l-92 -58q-14 -6 -24 -6t-16 8q-4 6 -4 12z" />
<glyph unicode="k" horiz-adv-x="1134" d="M-386 -564q0 170 170 364q90 100 268 232q46 28 50 30q-22 34 -24 36q-40 72 -40 160q0 154 114 366l28 52q138 236 366 516q360 448 850 890q52 50 102 70q16 10 28 10q22 0 22 -18q0 -32 -56 -94l-274 -260q-630 -630 -854 -1056q-92 -168 -92 -288q0 -116 70 -192 q38 -42 90 -54q8 -2 60 -2q82 4 114 18l24 18q56 36 82 36q14 0 18 -12v-14q-8 -32 -44 -72q-134 -152 -320 -184l-136 -16q-214 -42 -318 -178q-62 -82 -62 -190q0 -128 114 -220q104 -88 256 -88q104 0 194 34q38 8 38 32q8 30 8 62q0 54 -26 110l-34 50q-18 32 -18 70 q0 102 98 146q32 14 64 14q62 0 104 -52q50 -58 50 -144q0 -42 -12 -92q-22 -92 -120 -202q-170 -188 -426 -232q-54 -10 -110 -10q-160 0 -272 78q-144 110 -144 276z" />
<glyph unicode="l" horiz-adv-x="1044" d="M-384 110q0 12 8 30q44 80 144 142q40 24 60 24q4 0 8 -2q4 0 20 -16q66 -66 156 -66q98 0 196 108l2 2l12 14q112 118 112 204q0 98 -96 148q-20 10 -40 16t-78 6q-78 -4 -130 -20q-14 -4 -68 -40q-28 -20 -56 -20q-20 0 -20 18q0 26 50 84q172 196 438 196q36 0 62 -6 q114 -24 206 -180q32 -52 134 -272q8 -16 14 -30q62 -132 114 -186q48 -48 106 -48q80 0 142 38q6 2 64 48q48 38 78 38h6q18 0 18 -18q0 -22 -24 -54q-36 -48 -86 -88q-210 -180 -394 -180q-114 0 -186 122q-34 54 -98 190q-54 112 -58 126l-70 -82l-116 -118 q-248 -232 -436 -232q-76 0 -138 40q-24 14 -42 36q-14 10 -14 28z" />
<glyph unicode="m" horiz-adv-x="1854" d="M-528 -786q0 178 200 338q72 52 102 52q20 0 20 -18q0 -30 -44 -80l-26 -28q-20 -40 -20 -84q0 -76 58 -166l14 -20q164 -218 482 -218q106 0 198 20q164 40 240 108q60 60 90 170q18 68 18 132q0 148 -90 288q-66 100 -164 166q-48 34 -226 120q-14 6 -26 12 q-160 80 -214 176q-36 66 -36 146q0 168 172 328q38 32 78 62q-112 12 -176 12q-74 0 -132 -24q-10 -4 -36 -26q-58 -40 -90 -40q-18 0 -18 18q0 30 58 94q178 192 430 192q112 0 266 -28h6q8 -2 18 -4l442 -86h4q126 -16 230 -16q182 0 308 62l110 80l2 2q28 16 50 16h6 q14 0 14 -18q0 -34 -50 -84q-48 -54 -144 -124q-98 -70 -198 -104q-128 -46 -298 -46t-386 44q-92 18 -172 18q-116 0 -208 -38q-24 -10 -30 -16t-18 -56q-4 -22 -4 -44q0 -118 110 -208q68 -52 240 -132q94 -44 148 -82q148 -104 218 -272q42 -104 42 -208 q0 -180 -122 -364q-56 -86 -136 -162q-290 -276 -662 -300h-44q-362 0 -530 232q-74 102 -74 208z" />
<glyph unicode="n" horiz-adv-x="1350" d="M-214 610q0 24 40 76l6 6q206 226 598 226q80 0 170 -8q2 0 184 -18q132 -14 280 -14q96 0 236 18q44 4 54 4q24 0 24 -20q0 -24 -46 -76q-14 -18 -18 -24q-10 -16 -46 -110q-80 -242 -102 -446q-4 -56 -14 -74q-16 -32 -48 -64q-44 -50 -102 -84q-36 -18 -50 -20 q-26 0 -26 18q0 4 2 10q0 48 28 206q4 14 6 30q-44 -42 -144 -114q-222 -150 -376 -150h-4q-36 0 -72 8q-118 26 -172 104q-24 26 -36 60q-24 58 -24 118q0 166 178 356q30 34 64 64q20 20 32 28l-164 8q-216 0 -310 -66l-82 -58q-22 -14 -40 -14q-26 0 -26 20zM372 454 q0 -108 66 -174q78 -82 202 -82h16q84 0 180 66q60 40 86 66q52 50 88 124q2 4 54 132q22 56 58 114l-96 -8q-72 -8 -146 -8l-58 2q-86 0 -152 8l-72 6h-8l-36 -14q-80 -28 -112 -56q-70 -58 -70 -176z" />
<glyph unicode="o" horiz-adv-x="1494" d="M144 308q0 260 284 474q96 64 136 82q124 56 224 56q80 0 144 -36q34 -20 78 -68q204 578 402 896q138 222 330 414q152 144 196 144q24 0 24 -20q0 -44 -72 -110l-96 -94q-98 -110 -174 -230q-180 -280 -364 -798l-132 -378q-80 -226 -136 -358q22 -2 70 -24 q88 -44 126 -54q26 -8 70 -8q216 0 324 70l82 60q28 16 46 16q22 0 22 -18q0 -26 -52 -90q-236 -252 -624 -252q-50 0 -72 6q-46 12 -140 58q-64 26 -96 26q-14 0 -54 -22q-138 -70 -248 -70q-120 0 -198 78q-100 90 -100 250zM376 490q0 -76 38 -150q70 -144 220 -144 q60 0 130 26q28 10 36 18q2 2 16 36q30 80 30 140q0 114 -70 202q-68 84 -176 84q-70 0 -134 -22q-38 -16 -42 -20q-12 -12 -20 -38q-28 -66 -28 -132z" />
<glyph unicode="p" d="M-940 1014q0 22 34 62q122 138 326 138q78 0 178 -18q174 -32 236 -34q92 0 138 24l68 46q22 6 28 6q18 0 18 -22q0 -28 -42 -66q-124 -130 -310 -130q-84 0 -200 22q-154 30 -232 30h-18q-66 0 -110 -22l-52 -38l-2 -2q-28 -12 -44 -12t-16 16z" />
<glyph unicode="q" horiz-adv-x="1368" d="M-1638 -2248q0 42 116 148q248 232 464 478q572 656 1062 1594q242 456 242 616q0 134 -138 134q-86 -4 -130 -24q-8 -4 -34 -24q-52 -34 -78 -34q-10 0 -16 8q-4 2 -2 10q0 20 30 64q72 92 206 164q106 52 240 52q118 0 152 -116l6 -46q0 -42 -14 -112l-4 -20 q44 42 140 110q226 164 386 164h20q160 0 248 -126q50 -72 50 -162q0 -196 -244 -422l136 -8q124 0 214 36q14 6 80 52q48 32 74 32q16 0 20 -16v-10q0 -30 -44 -74q-178 -208 -534 -208q-78 0 -168 8q-292 26 -352 26q-150 0 -286 -30q-22 -6 -24 -6l-12 -16 q-8 -22 -18 -36q-450 -826 -958 -1436q-106 -132 -294 -334q-180 -196 -376 -370q-92 -84 -142 -84q-18 0 -18 18zM272 190q228 48 398 48q118 0 226 -14h22q68 32 90 56q62 70 62 162q0 84 -40 146q-72 116 -230 116q-102 0 -214 -80q-76 -56 -106 -88q-80 -84 -176 -282 q-22 -46 -32 -64z" />
<glyph unicode="r" horiz-adv-x="2028" d="M-8 0q0 12 10 32l68 92q80 136 176 438q164 518 256 730q198 462 504 754q82 74 104 88q38 26 68 26q20 0 20 -16q0 -22 -24 -54q-18 -28 -102 -106q-222 -222 -388 -658q-70 -176 -150 -432l-68 -216l78 64q220 176 380 176q48 0 100 -18q156 -56 182 -236 q50 50 138 116q190 138 322 138q196 0 268 -172q24 -56 24 -118q0 -194 -228 -422q214 0 272 10h2q66 12 108 38l32 24q54 42 86 42q24 0 24 -22q0 -30 -62 -94q-130 -130 -302 -170q-96 -22 -250 -22q-84 0 -182 6l-44 2q-468 24 -658 24q-84 0 -204 -6q-296 -16 -518 -56 q-32 0 -38 6q-4 4 -4 12zM250 184q172 34 588 52l46 2q2 2 6 4q14 6 30 32q52 74 52 160q0 144 -102 220q-70 50 -150 50q-192 0 -386 -370l-30 -58l-52 -90zM1018 238l562 -24l4 2q134 48 136 228q0 82 -36 144q-66 104 -194 116h-14q-102 0 -184 -82q-44 -44 -126 -180 q-58 -100 -110 -160q-36 -44 -38 -44z" />
<glyph unicode="s" horiz-adv-x="1998" d="M-184 -2098q0 48 96 130q424 380 736 720q534 582 798 1166q62 134 98 256l-60 -46l-2 -2q-192 -142 -334 -142t-228 118q-42 58 -54 116q-94 -92 -242 -174q-116 -64 -214 -64q-66 0 -118 26q-136 58 -174 212q-12 44 -12 88q0 232 246 450q70 62 160 112q132 60 208 60 q80 0 130 -62q26 -38 26 -78t-28 -84q-50 -78 -138 -78q-42 0 -72 24l-42 34l-2 2q-40 20 -84 20q-36 0 -76 -14q-26 -8 -34 -18q-30 -34 -44 -94q-14 -48 -14 -94q0 -86 48 -166q54 -86 148 -114q32 -8 60 -8h10q34 0 80 14q70 26 106 64q40 38 78 148q0 10 8 26 q14 44 40 88q110 196 310 312q130 80 226 80q38 0 72 -12h2q44 -20 68 -52q28 -36 28 -76t-28 -84q-50 -78 -132 -78q-48 0 -84 24l-36 30q-42 26 -90 26q-34 0 -72 -14q-2 0 -2 -2q-12 -4 -24 -10q-8 -4 -24 -26q-44 -82 -44 -164q0 -58 22 -116q34 -96 120 -146 q56 -34 116 -34q66 0 134 48q62 44 132 174l6 10l10 18q98 174 168 254q86 98 160 138q28 16 48 16t20 -16v-4q0 -28 -86 -118l-18 -22q-60 -82 -118 -270q-60 -192 -82 -250q-116 -292 -324 -620q-324 -518 -870 -1064q-194 -194 -518 -492q-128 -114 -176 -114 q-18 0 -18 18z" />
<glyph unicode="t" horiz-adv-x="2030" d="M-152 660q0 44 94 128q168 150 366 150q80 0 118 -36q58 -52 58 -146l-8 -78q28 28 96 80q208 160 362 160q92 0 174 -60q92 -76 104 -194q62 58 148 122q182 132 318 132l82 -10q128 -32 182 -162q24 -56 24 -118q0 -194 -228 -422q192 0 234 6q54 8 100 24q24 8 88 52 q46 32 70 32q22 0 20 -36q-16 -50 -94 -114q-146 -122 -324 -148q-66 -10 -172 -10q-124 0 -344 14q-318 16 -546 16q-332 0 -640 -44q-86 -14 -102 -16q-36 0 -36 20q0 14 16 42q12 16 56 66q106 142 168 364q16 58 16 102q0 100 -74 138q-18 8 -66 8q-86 -4 -128 -24 q-4 -2 -26 -18q-58 -40 -84 -40q-10 0 -16 4l-2 2q-4 6 -4 14zM254 186l148 18q282 32 442 32l50 2q0 2 4 2l2 2q16 12 26 34q54 72 54 158q0 38 -10 78q-36 134 -162 178q-36 14 -76 14q-116 0 -224 -122q-70 -80 -188 -290zM474 678h2h-2zM1026 238q116 0 512 -22 q20 -4 33 -4t21 4q48 22 66 40q28 28 50 84q22 58 22 110q0 70 -38 134v4q-24 38 -62 66q-62 50 -144 50h-6q-130 0 -242 -162l4 6q0 -2 -88 -140q-46 -72 -90 -126q-32 -32 -38 -44z" />
<glyph unicode="u" horiz-adv-x="1116" d="M-938 -1816q0 20 32 62q30 38 150 146q14 12 24 22q276 258 480 482l236 272q-80 52 -80 170q0 156 128 354q42 66 216 300l72 98q38 58 38 62q0 8 -4 22q-14 38 -62 236q-62 254 -178 290q-14 4 -42 4q-74 0 -104 -14l-62 -38q-26 -12 -42 -12t-16 18q0 20 24 54 q36 52 106 104q132 102 280 102q112 0 172 -80l30 -48q22 22 92 60q154 88 288 88q192 0 192 -170q0 -140 -108 -360q-98 -210 -266 -484q-476 -782 -1318 -1568q-126 -116 -144 -130q-78 -62 -112 -62q-22 0 -22 20zM140 -470q0 -70 32 -118q6 4 34 42l68 96 q76 108 156 238q62 96 76 122q-48 36 -94 120l-148 -196q-124 -184 -124 -304zM500 692l52 -188q48 -208 112 -306q12 20 62 130q68 164 68 258t-66 120q-40 20 -88 20q-62 0 -140 -34z" />
<glyph unicode="v" horiz-adv-x="1956" d="M-210 610l8 34q16 30 64 78q150 134 344 176q98 22 266 22q84 0 186 -6l538 -34q82 -2 156 -2q94 0 290 4q52 4 78 4l34 4q2 2 8 20q10 42 78 232q118 320 284 582q144 230 374 450q64 60 116 84q20 10 34 10q22 0 22 -20q0 -34 -76 -110q-74 -70 -108 -108 q-280 -306 -474 -904q-138 -432 -232 -900q-14 -64 -20 -74q-48 -98 -178 -164q-18 -6 -30 -6q-16 0 -16 22q0 16 6 40l42 188q-50 -46 -92 -78q-220 -170 -380 -170q-74 0 -138 38q-84 46 -120 134q-12 28 -14 54q-262 -228 -460 -228q-50 0 -92 14q-90 28 -138 96 q-60 78 -60 176q0 106 60 214q58 106 204 244q-214 0 -288 -16q-60 -12 -108 -36l-100 -68q-30 -14 -48 -14q-20 0 -20 18zM328 466q0 -150 108 -224q64 -46 138 -46q80 0 144 40q46 22 68 48q36 36 80 146q38 94 126 200q44 44 54 58q-82 0 -326 18l-162 10l-34 -16 q-86 -28 -94 -32q-18 -10 -32 -24q-70 -70 -70 -178zM1066 456q0 -74 42 -142q30 -48 78 -78q66 -40 130 -40l82 16q148 74 214 202q22 40 52 150l38 140v2q-264 -22 -460 -22h-50q-68 -22 -106 -124q-20 -54 -20 -104z" />
<glyph unicode="w" horiz-adv-x="2040" d="M-1636 -2250q0 14 12 42q26 40 108 114q230 208 478 496q552 644 1042 1570q130 240 200 434q42 114 42 182q0 134 -138 134q-86 -4 -130 -24q-8 -4 -34 -24q-52 -34 -78 -34q-10 0 -16 8q-4 2 -2 10q0 20 24 58q150 188 370 216q26 4 52 4q60 0 72 -2q70 -16 104 -94 q12 -30 12 -60v-16q0 -36 -12 -96q10 10 100 84q218 166 370 166q58 0 110 -22q130 -54 164 -202q4 -14 6 -30q48 50 142 118q190 136 324 136q86 0 154 -42q130 -80 130 -248q0 -196 -226 -422q196 0 246 8q58 8 106 28q36 22 80 54h2q32 22 58 22h8q16 0 16 -16 q0 -22 -18 -48q-26 -42 -74 -80q-190 -162 -518 -162l-712 32q-64 2 -126 2q-306 0 -602 -42l-36 -6q-8 -4 -20 -32l-48 -88l-182 -316q-598 -992 -1318 -1666q-116 -112 -166 -142q-36 -18 -52 -20q-24 0 -24 16zM268 182l154 22h2q132 16 302 26l134 6l40 2q4 2 6 4 q46 38 66 116q14 48 14 92q0 88 -56 160q-74 94 -202 94q-90 -4 -196 -100q-94 -86 -176 -240zM1032 238l562 -24l4 2q136 48 136 232q0 80 -36 140q-66 104 -194 116h-14q-102 0 -184 -82q-52 -52 -144 -206q-52 -88 -90 -132z" />
<glyph unicode="x" horiz-adv-x="1962" d="M-220 -2098q0 40 102 136l404 378q110 104 272 276q632 682 904 1346l56 140q-28 -26 -80 -62q-180 -132 -324 -132q-46 0 -90 14q-84 28 -132 92q-48 60 -54 120q-262 -228 -460 -228q-50 0 -92 14q-90 28 -138 96q-60 78 -60 176q0 106 60 214q58 106 204 244 q-216 0 -300 -20q-48 -10 -90 -30l-114 -74q-24 -10 -38 -10q-22 0 -22 18q0 14 14 38q32 54 108 112q90 72 204 112q130 48 362 48q36 0 72 -2l692 -38q60 -2 116 -2h80q238 0 478 20q22 2 38 2h14q26 0 26 -20q0 -16 -56 -90q-12 -14 -18 -28q-18 -40 -148 -376 q-12 -34 -24 -62q-134 -340 -266 -574q-332 -592 -928 -1198q-288 -296 -564 -542q-100 -86 -130 -104q-48 -24 -58 -24q-20 0 -20 20zM326 466q0 -150 108 -224q64 -46 138 -46q80 0 144 40q46 22 68 48q36 38 84 152q34 88 124 196q46 46 54 56q-82 0 -324 18l-162 10 l-36 -16q-88 -28 -90 -28l-30 -20l-8 -8q-70 -70 -70 -178zM1066 454q0 -84 50 -152q34 -48 84 -74q56 -30 116 -30q74 0 156 60q98 76 180 266l-28 -64q0 2 64 152l48 92q-24 0 -84 -6h-4q-38 -4 -62 -4q-86 -6 -260 -10h-136q-74 -20 -110 -138q-14 -48 -14 -92z" />
<glyph unicode="y" horiz-adv-x="1358" d="M-152 660v4q0 4 4 12q18 56 102 122q146 126 322 138h80q18 -2 40 -12q88 -44 88 -170q0 -50 -16 -102l66 54q60 50 128 92q186 120 330 120h10q146 0 232 -102q68 -80 68 -184q0 -134 -122 -292q-44 -60 -122 -132q90 -6 94 -6h30q136 0 226 34q16 6 80 52l4 4l20 12 q24 14 44 14h4q20 0 20 -14q2 -4 2 -8q0 -32 -50 -82q-174 -204 -528 -204q-96 0 -216 12q-216 24 -328 24q-30 0 -52 -2q-186 -14 -314 -46q-58 -14 -82 -14q-20 0 -20 18q0 14 16 42q12 16 56 66q102 136 164 356q20 64 20 112q0 28 -8 52q-18 62 -66 84q-18 8 -66 8 q-106 -4 -156 -42q-52 -40 -82 -40q-22 0 -22 20zM260 194q214 46 370 46q58 0 208 -12l48 -4q8 -2 14 -2t10 2q68 30 92 56q62 68 62 158q0 108 -64 182q-76 84 -206 84q-134 0 -272 -126q-84 -80 -192 -268z" />
<glyph unicode="z" horiz-adv-x="1350" d="M-832 -2102q0 56 104 140l404 380q922 900 1242 1790q-200 -152 -318 -196q-80 -30 -156 -30q-38 0 -76 8q-152 32 -212 164q-24 58 -24 118q0 168 184 362q28 30 60 58q20 20 32 28q-80 6 -150 6q-224 0 -324 -64l-76 -58q-24 -14 -44 -14q-24 0 -24 18v8q0 20 22 50 q40 54 128 116q68 48 134 76q142 62 358 62q74 0 156 -8h-2l200 -20q116 -14 296 -14q118 4 204 16q66 6 68 6q26 0 26 -18q0 -10 -8 -26l-2 -2l-62 -92q-8 -8 -162 -408q-134 -342 -258 -568q-236 -430 -608 -864q-192 -220 -294 -324q-358 -362 -598 -576 q-126 -108 -152 -122q-28 -16 -46 -16q-22 0 -22 14zM370 448q0 -84 48 -146q76 -106 218 -106q104 0 198 68q50 32 80 60q48 44 92 124q14 22 74 174q8 16 44 80q-88 -18 -264 -18q-104 0 -212 12q-36 4 -52 4h-8q-6 0 -30 -12q-56 -18 -82 -34q-106 -62 -106 -206z" />
<glyph unicode="{" d="M-1630 1078q0 16 16 42q54 76 112 84q6 0 42 -4q144 -26 286 -30h800q292 0 420 28q26 4 40 4q22 0 22 -16q0 -26 -34 -60q-32 -40 -76 -58q-126 -42 -600 -42h-626q-174 0 -296 20l-72 12q-26 6 -28 8q-6 4 -6 12z" />
<glyph unicode="|" d="M-1592 -818q0 54 34 124q6 16 16 32l28 40q54 78 238 238l386 350l134 124q70 62 116 68h10q16 -2 16 -18q0 -46 -134 -166q-8 -8 -16 -14l-482 -440l-68 -62q-66 -50 -66 -114q0 -28 12 -54l2 -2q12 -30 38 -42q20 -14 44 -14q40 0 84 38l-38 -32l92 80l2 2q56 46 94 46 q20 0 20 -20q0 -40 -68 -106q-218 -202 -352 -202q-56 0 -92 36q-50 42 -50 108z" />
<glyph unicode="}" d="M-1340 -818q0 54 34 124q6 16 16 32l28 40q54 78 238 238l386 350l134 124q70 62 116 68h10q16 -2 16 -18q0 -46 -134 -166q-8 -8 -16 -14l-482 -440l-68 -62q-66 -50 -66 -114q0 -28 12 -54l2 -2q12 -30 38 -42q20 -12 44 -12q40 0 88 40q76 64 84 70q36 22 62 22 q20 0 20 -20q0 -40 -68 -106q-222 -202 -354 -202q-54 0 -90 36q-50 42 -50 108z" />
<glyph unicode="~" horiz-adv-x="550" d="M-1636 -2250q0 50 96 134q792 710 1474 1958q144 258 226 454q88 206 88 266q2 12 2 24q0 66 -50 110q-14 12 -32 20q-16 6 -62 6q-86 -4 -128 -24q-2 0 -28 -20q-50 -36 -84 -36q-18 0 -18 14v6q0 42 84 118q118 104 234 136q36 12 134 20q16 2 30 2q94 0 136 -90 q18 -40 18 -86q0 -152 -226 -600q-110 -222 -308 -556q-460 -774 -1010 -1374q-194 -212 -396 -394q-120 -104 -162 -104q-18 0 -18 16z" />
<glyph unicode="&#xa0;" />
<glyph unicode="&#xa1;" horiz-adv-x="1080" d="M-644 42q0 18 22 48q28 44 88 86q46 36 104 36l76 4l104 2h2q92 0 110 2q136 20 312 136l122 78q246 144 410 144q74 0 130 -30q148 -80 148 -296q0 -40 -8 -80q-42 -230 -264 -408q-184 -150 -354 -150q-44 0 -88 12q-122 32 -180 134q-28 50 -28 104q0 94 102 198 q78 84 134 84q22 0 22 -20q0 -4 -2 -10q0 -16 -28 -52q-14 -20 -16 -26q-2 -14 -2 -30q0 -80 84 -142q80 -60 168 -60q54 0 96 18q36 12 60 32q94 84 94 252q0 154 -102 234q-58 44 -136 44q-130 0 -322 -122q-216 -136 -288 -170q-80 -36 -154 -54q-70 -16 -238 -16 q-62 -2 -164 -6q-14 4 -14 24z" />
<glyph unicode="&#xa2;" horiz-adv-x="1242" d="M-158 726q0 38 56 94q62 62 112 78q24 6 150 8l158 2l534 -20q136 -18 226 -132q2 -4 6 -8q70 -100 70 -216q0 -190 -154 -350q-192 -206 -410 -206q-54 0 -106 14q-132 34 -202 138q-38 58 -38 118q0 90 90 190q90 94 146 94q20 0 20 -22q0 -20 -26 -58q-16 -20 -16 -24 q-2 -10 -2 -24q0 -20 8 -46q36 -108 158 -160q64 -28 128 -28q32 0 62 6q64 14 80 30q12 12 18 28q34 64 34 134q0 66 -28 136q-70 168 -242 194q-272 8 -556 20l-202 -4l-52 -4q-22 0 -22 18z" />
<glyph unicode="&#xa3;" horiz-adv-x="954" d="M-1384 -1172q0 104 106 210q80 84 138 84q20 0 20 -18q0 -24 -32 -66l-18 -22q-4 -10 -4 -30v-4q0 -50 40 -114q96 -128 246 -128h14q86 0 148 42q36 24 82 84q196 234 434 826q100 250 128 318l-256 6h-4q-52 0 -78 2q-30 0 -34 2q-12 6 -12 20q0 18 22 48 q60 90 144 118q12 4 74 4q50 0 150 -4h84q2 0 34 58q42 74 86 132q216 290 468 352q56 14 102 14q96 0 148 -60q56 -60 56 -164q0 -144 -144 -300q-176 -194 -466 -220q-76 -8 -112 -10q-38 0 -56 -2h-38q-14 0 -16 -2l-166 -408q-360 -838 -770 -1012q-96 -40 -182 -40 q-94 0 -178 48q-48 26 -84 66q-74 74 -74 170zM154 200q266 0 354 16q48 8 86 22q46 14 62 28q36 36 36 124q0 86 -52 138q-38 42 -106 42q-104 0 -170 -52q-84 -60 -182 -256q-24 -48 -28 -62z" />
<glyph unicode="&#xa5;" horiz-adv-x="1080" d="M-1240 -1172q0 104 108 212q84 84 134 84q18 0 22 -20q0 -32 -32 -66l-18 -22q-4 -10 -4 -30v-12q0 -50 40 -104q90 -132 262 -132q80 0 148 44q32 22 80 82q208 262 426 808q106 268 136 338l-360 8h-108q-44 0 -48 2q-12 6 -12 20q0 18 22 48q64 94 148 120q18 2 62 2 l274 -2l80 -2h2q28 0 32 2l32 56q38 70 84 130q144 198 326 296q118 72 252 72q138 0 182 -130q16 -48 16 -96q0 -134 -124 -276q-128 -146 -302 -206q-108 -36 -296 -46q-38 0 -56 -2h-38q-14 0 -16 -2l-168 -410q-174 -414 -384 -686q-184 -240 -386 -324 q-90 -40 -176 -40q-170 0 -278 128q-62 70 -62 156zM298 200q176 0 266 6q110 8 180 34q44 16 56 26q20 18 30 74q6 28 6 54q0 72 -44 126l-2 2q-38 48 -108 48q-108 0 -174 -52q-84 -60 -182 -256q-24 -48 -28 -62z" />
<glyph unicode="&#xa6;" horiz-adv-x="2150" d="M-850 -2098q0 44 108 140q158 144 402 392q138 136 356 392q462 548 772 1128q88 166 118 254q-48 -40 -138 -102q-198 -126 -334 -126q-60 0 -120 22q-104 32 -152 122q-40 56 -40 146q0 144 136 310q40 56 140 142l-124 6q-24 2 -46 2q-148 0 -248 -46q-18 -8 -90 -58 q-6 -2 -10 -6q-42 -28 -70 -28q-20 0 -20 18v4q0 24 38 72q58 70 162 128q180 108 426 108q52 0 360 -32q118 -14 210 -14l144 6l20 6l44 128q184 516 382 810q124 178 276 326q52 52 90 78q56 40 82 40q20 0 20 -20q0 -30 -46 -82l-90 -88q-74 -80 -132 -164 q-184 -262 -348 -734q66 192 68 192l-252 -732l94 76q260 200 438 200q124 0 218 -80q72 -58 94 -152q14 -46 14 -88q0 -218 -218 -424q-92 -86 -194 -138q-132 -64 -226 -64h-6q-90 0 -134 70q-22 32 -22 70q0 88 76 136q42 26 84 26q36 0 72 -20l60 -44q34 -14 76 -14 q54 0 120 24q20 10 24 16q52 72 52 168q0 84 -34 146q-60 118 -196 146q-30 6 -60 6l-68 -8q-58 -14 -136 -70q-140 -96 -214 -226q-20 -36 -100 -224q-24 -48 -112 -208q-482 -862 -1322 -1702l-294 -278q-108 -102 -160 -102q-20 0 -20 18zM358 458q0 -108 68 -180 q78 -80 200 -80q94 0 192 62q94 60 148 144q40 62 86 194q34 94 36 104l-120 -12q-66 -4 -132 -4q-104 0 -206 10l-54 4q-18 -6 -34 -14q-90 -30 -120 -64q-64 -70 -64 -164zM906 208l2 2zM1242 640l2 2z" />
<glyph unicode="&#xa7;" horiz-adv-x="2150" d="M-850 -2098q0 48 106 140q138 124 402 388q128 128 328 362q450 524 778 1116q102 188 142 298q-268 -224 -464 -224q-132 0 -228 86q-100 92 -100 232l4 60q30 224 272 416q68 56 136 88q134 66 224 66q52 0 90 -22l2 -2q72 -40 72 -114q0 -28 -12 -58q-20 -52 -66 -82 q-42 -26 -84 -26q-36 0 -72 20l-56 42q-42 18 -86 18q-54 0 -110 -26q-48 -20 -72 -124q-8 -36 -8 -72q0 -116 86 -202t196 -86q86 0 180 58q68 42 100 78q82 88 152 296l-30 -92q0 2 46 144q2 6 4 10q172 502 248 678q222 520 572 830q52 46 96 62q14 8 26 8q20 0 20 -18 q0 -30 -48 -84l-88 -88q-236 -246 -422 -740l-242 -696l94 76q260 200 438 200q124 0 218 -80q72 -58 94 -152q14 -46 14 -88q0 -218 -218 -424q-92 -86 -194 -138q-132 -64 -226 -64h-6q-90 0 -134 70q-22 32 -22 70q0 88 76 136q42 26 84 26q36 0 72 -20l60 -44 q34 -14 76 -14q54 0 120 24q20 10 24 16q52 72 52 168q0 84 -34 146q-60 118 -196 146q-30 6 -60 6l-68 -8q-58 -14 -136 -70q-140 -96 -214 -226q-20 -36 -100 -224q-24 -48 -112 -208q-482 -862 -1322 -1702l-294 -278q-108 -102 -160 -102q-20 0 -20 18zM1242 640l2 2z " />
<glyph unicode="&#xa8;" d="M-1232 -676q0 100 86 194q116 126 246 126q50 0 104 -30q82 -54 82 -164q0 -102 -70 -186q-114 -146 -258 -146l-42 8q-102 24 -136 128q-12 34 -12 70zM-1078 -576q0 -72 60 -124h2q44 -38 94 -38q8 0 18 2q24 0 30 22l8 60q0 72 -60 120q-44 34 -94 34h-14 q-30 0 -36 -20q-8 -18 -8 -56z" />
<glyph unicode="&#xa9;" d="M-1016 -676q0 100 86 194q116 126 246 126q50 0 104 -30q82 -54 82 -164q0 -102 -70 -186q-114 -146 -258 -146l-42 8q-102 24 -136 128q-12 34 -12 70zM-862 -576q0 -72 60 -124q44 -38 96 -38q8 0 18 2q24 0 30 22l8 60q0 72 -60 120q-44 34 -94 34h-14q-30 0 -36 -20 l-4 -14q-4 -22 -4 -42z" />
<glyph unicode="&#xaa;" d="M-1022 1574q0 30 16 52q8 12 72 70q168 146 182 168q24 30 48 30q20 0 24 -24v-10q0 -18 -32 -74q-68 -122 -148 -206q-58 -62 -96 -64q-10 0 -22 2q-44 14 -44 56zM-844 1368q0 30 34 122l110 246q14 32 38 32h10q0 -2 4 -2l2 -2q14 -8 14 -26l-46 -314 q-24 -142 -100 -142q-46 0 -62 54q-4 16 -4 32zM-600 1676q0 46 6 96q12 82 14 86q14 28 30 28q6 0 14 -4l2 -2q8 -4 14 -16q2 -6 14 -78q12 -96 42 -178l40 -92l4 -32q0 -44 -38 -58l-2 -2q-4 -2 -8 -2q-8 -2 -14 -2q-50 0 -84 74q-34 78 -34 182z" />
<glyph unicode="&#xab;" horiz-adv-x="900" d="M-28 1078q0 14 12 36q8 16 60 74q16 16 36 56q32 76 68 268l10 42q30 62 106 120q70 54 100 54l6 -2q16 0 16 -22q0 -26 -36 -188q-54 -214 -218 -370q-92 -84 -140 -84q-20 0 -20 16zM242 1078q0 14 12 36q8 16 60 74q58 58 96 282l8 42l10 42q30 62 106 120 q70 54 100 54l6 -2q16 0 16 -22q0 -26 -36 -188q-54 -214 -218 -370q-92 -84 -140 -84q-20 0 -20 16z" />
<glyph unicode="&#xac;" horiz-adv-x="900" d="M-70 206q0 16 24 48q48 64 140 104q56 26 138 26q54 0 120 -12q130 -24 176 -24h22q42 0 66 12l58 38q8 2 18 4h10q14 -2 14 -20q-4 -22 -18 -40q-44 -62 -130 -104q-62 -30 -156 -30q-86 0 -160 18q-120 18 -146 18q-6 -2 -12 -2q-46 -4 -60 -12l-64 -40q-10 -4 -18 -4 q-22 0 -22 20zM182 530q0 16 24 48q48 66 140 104q56 26 138 26q54 0 120 -12q130 -24 176 -24h22q42 0 66 12l58 38q8 2 18 4h10q14 -2 14 -20q-4 -22 -18 -40q-44 -62 -130 -104q-62 -30 -156 -30q-86 0 -160 18q-118 18 -140 18q-10 -2 -18 -2q-46 -4 -60 -12l-64 -40 q-10 -4 -18 -4q-22 0 -22 20z" />
<glyph unicode="&#xad;" d="M-680 1574q0 30 16 52q8 12 72 70q168 146 182 168q24 30 48 30q20 0 24 -24v-10q0 -18 -32 -74q-68 -122 -148 -206q-58 -62 -96 -64q-10 0 -22 2q-44 14 -44 56zM-504 1364q0 32 36 126l110 246q14 32 38 32q22 0 30 -26v-4l-46 -314q-24 -142 -100 -142q-44 0 -62 50 q-6 16 -6 32zM-258 1676q0 46 6 96q12 82 14 86q14 28 30 28q20 0 30 -22q2 -6 14 -78q12 -96 42 -178l40 -92l4 -32q0 -46 -48 -62q-8 -2 -14 -2q-48 0 -84 74q-34 78 -34 182z" />
<glyph unicode="&#xae;" />
<glyph unicode="&#xaf;" d="M-518 1574q0 30 16 52q8 12 72 70q168 146 182 168q24 30 48 30q20 0 24 -24v-10q0 -18 -32 -74q-68 -122 -148 -206q-58 -62 -96 -64q-10 0 -22 2q-44 14 -44 56zM-342 1364q0 32 36 126l110 246q14 32 38 32q22 0 30 -26v-4l-46 -314q-24 -142 -100 -142q-44 0 -62 50 q-6 16 -6 32zM-96 1676q0 46 6 96q12 82 14 86q14 28 30 28q20 0 30 -22q2 -6 14 -78q12 -96 42 -178l40 -92l4 -32q0 -46 -48 -62q-8 -2 -14 -2q-50 0 -84 74q-34 78 -34 182z" />
<glyph unicode="&#xb0;" d="M-1238 268q0 24 30 60q116 136 312 136q74 0 170 -18q164 -30 228 -30q76 0 114 22l64 44q14 6 28 6q18 0 18 -18q0 -16 -26 -54q-118 -140 -316 -140q-68 0 -152 14q-192 34 -254 34q-12 -2 -24 -2q-52 -4 -84 -22l-48 -34q-28 -12 -44 -12t-16 14z" />
<glyph unicode="&#xb1;" horiz-adv-x="720" d="M240 1112v6q0 288 252 520q50 46 88 68q40 22 52 22q4 0 8 -2q18 0 18 -14q0 -16 -24 -52q-4 -4 -6 -8q-4 -8 -52 -58q-94 -94 -100 -274l-2 -70q-4 -22 -34 -60q-46 -58 -108 -98q-40 -28 -68 -30q-24 10 -24 50z" />
<glyph unicode="&#xb2;" horiz-adv-x="720" d="M152 1078q0 38 74 112l2 2q16 14 24 26q74 98 82 256l-2 60l2 2v4q6 24 36 62q42 52 108 96q46 30 70 30q18 0 22 -30v-22q0 -286 -254 -526q-94 -88 -144 -88q-20 0 -20 16z" />
<glyph unicode="&#xb3;" horiz-adv-x="954" d="M-692 -986q0 8 6 20q24 54 118 134q8 6 12 10q154 134 516 374l212 144q228 164 322 282q162 204 162 478v22q-22 168 -182 242q-86 38 -172 38q-202 0 -300 -44q-8 -4 -68 -46q-40 -28 -68 -28q-18 0 -18 18q0 30 40 76q52 62 148 126q170 112 448 112q230 0 342 -144 q66 -86 66 -220q0 -392 -400 -770q-144 -144 -538 -408l-276 -188q74 10 149 10t151 -10l224 -30q26 -2 48 -2q104 0 192 44q24 12 104 78h2q72 58 110 58q18 0 18 -18q0 -66 -184 -206q-232 -172 -424 -172q-78 0 -252 26q-98 16 -160 16q-144 0 -264 -28l-60 -14 q-24 0 -24 20z" />
<glyph unicode="&#xb4;" d="M-1318 -178q0 36 46 116q74 110 142 224q16 20 34 22q40 0 40 -38q0 -16 -8 -38l2 6l-82 -256l-12 -28q-34 -80 -86 -86q-76 0 -76 78zM-994 -178q0 36 46 116q74 110 142 224q16 20 34 22q40 0 40 -38q0 -16 -8 -38l-6 -18l-74 -232l-12 -28q-34 -80 -86 -86 q-76 0 -76 78z" />
<glyph unicode="&#xb5;" d="M-392 1574q0 30 16 52q8 12 72 70q168 146 182 168q24 30 48 30q20 0 24 -24v-10q0 -18 -32 -74q-68 -122 -148 -206q-58 -62 -96 -64q-10 0 -22 2q-44 14 -44 56zM-216 1364q0 32 36 126l110 246q14 32 38 32q22 0 30 -26v-4l-46 -314q-24 -142 -100 -142q-44 0 -62 50 q-6 16 -6 32zM30 1676q0 46 6 96q12 82 14 86q14 28 30 28q20 0 30 -22q2 -6 14 -78q12 -96 42 -178l40 -92l4 -32q0 -46 -48 -62q-8 -2 -14 -2q-48 0 -84 74q-34 78 -34 182z" />
<glyph unicode="&#xb7;" horiz-adv-x="720" d="M116 458q0 62 54 94q30 18 64 18q16 0 32 -4q84 -24 84 -122q0 -60 -54 -94q-30 -18 -64 -18q-16 0 -32 4q-84 24 -84 122z" />
<glyph unicode="&#xb8;" d="M-1238 404q0 16 16 42q26 38 70 66q28 18 44 18q14 0 60 -16q76 -18 268 -18h310q80 0 138 24q38 12 40 12h4l2 -2q4 0 8 -4q6 -6 6 -14q0 -14 -14 -30q-32 -56 -94 -86q-106 -44 -304 -44h-320q-102 0 -172 20q-48 12 -56 20q-6 4 -6 12z" />
<glyph unicode="&#xb9;" horiz-adv-x="720" d="M-116 -270q0 34 58 98q40 40 44 46q78 108 78 258v18q0 40 4 50q8 20 38 60q46 52 100 86q46 32 72 32q18 0 22 -22v-28q0 -282 -254 -528q-90 -86 -146 -86q-16 0 -16 16z" />
<glyph unicode="&#xba;" horiz-adv-x="720" d="M24 150q0 20 6 40q26 88 112 88q40 0 70 -22q50 -36 50 -88q0 -20 -6 -40q-20 -70 -88 -86q-6 -2 -14 -2q-6 -2 -14 -2q-32 0 -66 24q-50 36 -50 88z" />
<glyph unicode="&#xbb;" horiz-adv-x="900" d="M-566 -808q0 30 62 98q66 66 108 300q10 60 14 74q24 54 104 118q58 50 98 56h10q16 0 16 -24q0 -12 -2 -26q-20 -108 -34 -160q-52 -214 -216 -370q-98 -84 -138 -84q-22 0 -22 18zM-296 -808q0 30 62 98l2 2l20 24q44 56 80 240l18 100q0 4 2 8q30 62 104 118 q62 50 98 56h10q16 0 16 -24q0 -12 -2 -26q-20 -108 -34 -160q-54 -218 -216 -370q-92 -84 -138 -84q-22 0 -22 18z" />
<glyph unicode="&#xbc;" horiz-adv-x="1134" d="M-152 660q0 8 2 12q24 68 144 156q144 110 322 110q96 0 198 -32l280 -98q106 -28 158 -28q42 0 74 12l68 46q28 16 48 16q22 0 22 -16t-20 -46q-36 -56 -106 -112q-154 -114 -294 -114q-78 0 -216 46l-64 24q-4 -32 -58 -170q-96 -234 -218 -362q-70 -76 -136 -110 q-28 -12 -42 -12q-18 0 -18 16q0 30 64 102q4 6 8 10t34 50q84 140 130 302q20 64 20 114q0 26 -6 48q-28 96 -116 96q-90 0 -146 -22l-74 -48q-24 -12 -40 -12q-18 0 -18 22z" />
<glyph unicode="&#xbd;" horiz-adv-x="550" d="M-8 0q0 18 46 84q88 98 212 488q164 516 258 732q212 484 530 770q42 42 80 62q38 24 60 24q20 0 20 -22v-4q-2 0 -2 -4q-8 -28 -36 -60l-96 -96q-66 -70 -126 -154q-184 -262 -340 -734l-170 -516q-16 -50 -34 -94q-106 -274 -234 -400q-44 -48 -94 -74q-32 -20 -54 -20 q-20 0 -20 18z" />
<glyph unicode="&#xbe;" horiz-adv-x="954" d="M-152 660q0 12 12 32q30 54 118 126q102 78 198 110q108 40 270 44q130 0 186 -16q68 -22 124 -60q136 -108 136 -264q0 -214 -250 -428q116 -22 184 -22q80 0 136 26q24 12 102 78h2l42 32q36 24 60 24q20 0 20 -16q0 -20 -26 -62q-52 -70 -178 -160 q-194 -140 -332 -140q-62 0 -226 26q-84 12 -140 12q-34 0 -158 -28q-40 -10 -60 -10l-2 2q-12 2 -12 16q0 20 28 58q60 82 146 126q40 20 172 44q6 2 10 2q88 22 182 74q26 18 26 20q40 50 40 150q0 80 -46 144q-86 130 -240 152q-24 4 -144 4q-128 -8 -200 -32 q-24 -8 -88 -52q-36 -26 -64 -32q-28 0 -28 20z" />
<glyph unicode="&#xbf;" horiz-adv-x="1674" d="M142 268q0 178 182 344q186 172 360 172q126 0 232 -90q74 -68 184 -242l26 48q72 118 172 352l198 462q120 262 246 436q146 200 282 308q70 60 110 60q16 0 16 -16v-4q0 -38 -84 -122q-96 -86 -190 -232q-114 -178 -250 -508q-174 -414 -244 -548q-92 -174 -202 -312 l-14 -20v-2q0 -4 20 -30q84 -100 172 -132q40 -14 94 -14q156 0 282 70l94 70q38 24 60 24q18 0 20 -20q-6 -68 -194 -208q-216 -150 -464 -150q-142 0 -246 104q-46 46 -60 72l-88 -60q-184 -116 -358 -116q-192 0 -294 132q-62 78 -62 172zM378 448q0 -122 112 -202 q94 -68 208 -68q94 0 188 44l-48 74q-106 162 -182 218q-76 54 -162 54t-96 -22q-20 -36 -20 -98z" />
<glyph unicode="&#xc0;" horiz-adv-x="1350" d="M-1152 -1530q0 48 94 130q224 210 408 446q312 404 684 1110l188 364q186 362 202 398q130 280 130 384q0 88 -64 126q-26 14 -78 14q-102 -4 -150 -38q-56 -42 -88 -42q-22 0 -22 16q0 18 22 50q32 48 102 104q150 126 354 126q36 0 58 -8q102 -40 102 -180 q230 184 458 184q158 0 220 -172q20 -62 20 -130q0 -398 -606 -758l-64 -34q24 -10 46 -36q76 -70 76 -212q0 -214 -130 -414q-180 -274 -590 -502q-108 -60 -310 -158q-248 -124 -330 -172q-128 -76 -184 -126q-8 -8 -44 -48l-82 -92q-92 -100 -246 -248q-110 -98 -156 -98 q-20 0 -20 16zM-400 -798q4 2 74 44q154 84 156 84l454 228q106 58 186 114q236 158 236 470q0 152 -116 212q-38 20 -90 20q-104 0 -180 -60q-62 -48 -140 -170l-74 -132q-176 -330 -378 -626zM340 448q10 6 44 30q90 54 372 186q278 128 370 208q130 116 130 296 q0 152 -96 230q-54 40 -130 40t-158 -34q-52 -24 -72 -46q-40 -42 -90 -162l-78 -176q-54 -114 -206 -404z" />
<glyph unicode="&#xc1;" horiz-adv-x="720" d="M-386 -632q0 34 60 100q78 78 104 112q108 142 180 394q54 188 114 618q60 438 140 658q116 332 374 570q90 88 144 88q18 0 18 -20l-2 -12q-10 -34 -44 -68l-66 -66q-36 -40 -52 -62q-162 -214 -244 -682q0 4 2 4q0 -14 -68 -454q-16 -108 -32 -188q-66 -368 -210 -606 q-98 -166 -258 -316q-50 -48 -94 -70q-28 -16 -46 -16q-20 0 -20 16z" />
<glyph unicode="&#xc2;" horiz-adv-x="1080" d="M-34 354q0 22 42 64q138 144 350 144q88 0 202 -20q198 -38 270 -38h22q82 0 134 26l80 52q16 8 30 8q16 0 18 -18q0 -32 -46 -72q-140 -138 -332 -138q-106 0 -336 42q-94 16 -164 16q-92 0 -146 -28l-76 -52q-14 -8 -24 -8q-24 0 -24 22z" />
<glyph unicode="&#xc3;" horiz-adv-x="720" d="M-116 -270q0 34 58 98q40 40 44 46q78 108 78 258v18q0 40 4 50q8 20 38 60q46 52 100 86q46 32 72 32q18 0 22 -22v-28q0 -282 -254 -528q-90 -86 -146 -86q-16 0 -16 16zM206 734q0 20 6 40q26 88 112 88q40 0 70 -22q50 -36 50 -88q0 -20 -6 -40q-20 -70 -88 -86 q-6 -2 -14 -2q-6 -2 -14 -2q-32 0 -66 24q-50 36 -50 88z" />
<glyph unicode="&#xc4;" />
<glyph unicode="&#xc5;" horiz-adv-x="810" d="M-644 22q0 20 26 56q46 62 106 94q32 20 56 20l122 -4q52 -4 112 -4l606 20h4q92 0 124 18q6 4 18 32q18 46 18 88q0 76 -54 144q-68 86 -178 86q-2 -14 -2 -26q0 -26 6 -44l18 -48v-8q-2 -22 -28 -52q-42 -56 -104 -94q-32 -18 -52 -18t-28 20q-24 50 -24 94 q0 102 102 214q146 156 294 156q60 0 114 -30q86 -50 118 -126q6 -10 20 -60q6 -32 6 -64q0 -158 -152 -308l-44 -40q-118 -98 -246 -120q-12 -2 -122 -8l-460 -16q-74 0 -146 -2h-4q-2 0 -98 4h-34q-22 0 -66 4q-28 0 -28 22z" />
<glyph unicode="&#xc6;" horiz-adv-x="900" d="M-158 728q0 20 26 56q38 54 100 92q32 20 54 24l68 -4q46 -2 138 -2l374 14l156 6h4q42 4 58 16q6 4 18 32q14 46 14 88q0 82 -56 150l-28 28q-64 52 -146 52q-2 -12 -2 -24l8 -50l16 -42v-6q0 -20 -26 -58q-48 -60 -106 -92q-34 -20 -54 -20q-26 0 -42 66q-6 22 -6 46 q0 106 104 220q140 152 290 152q52 0 98 -20q160 -80 160 -258q0 -148 -132 -290q-76 -82 -172 -132q-76 -42 -156 -50l-138 -6l-468 -14h-64l-74 6h-2q-14 4 -14 20z" />
<glyph unicode="&#xc7;" horiz-adv-x="1260" d="M-788 18q0 44 82 112q68 56 100 56q22 0 38 -28q106 -144 306 -440l276 -420l94 -152q54 -88 72 -128q38 -100 38 -200q0 -160 -96 -318q-58 -94 -144 -176q-172 -156 -332 -156q-136 0 -234 100q-78 80 -78 178q0 108 112 220q88 82 134 82q20 0 20 -22q0 -24 -34 -66 l-2 -2q-20 -24 -20 -54v-6q0 -40 22 -82q54 -106 174 -142q38 -12 78 -12q56 0 88 22q8 6 34 42q70 108 70 236q0 106 -42 196q-16 36 -60 104l-74 120l-418 634v-2l-182 260l-20 30q-2 6 -2 14z" />
<glyph unicode="&#xc8;" d="M-1426 -762q0 36 46 116q74 110 142 224q16 20 34 22q40 0 40 -38q0 -16 -8 -38l2 6l-82 -256l-12 -28q-34 -80 -86 -86q-76 0 -76 78z" />
<glyph unicode="&#xc9;" d="M-1084 -762q0 36 46 116q74 110 142 224q16 20 34 22q40 0 40 -38q0 -16 -8 -38l-6 -18l-74 -232l-12 -28q-34 -80 -86 -86q-76 0 -76 78z" />
<glyph unicode="&#xca;" d="M-1102 -762q0 36 46 116q74 110 142 224q16 20 34 22q40 0 40 -38q0 -16 -8 -38l-6 -18l-74 -232l-12 -28q-34 -80 -86 -86q-76 0 -76 78z" />
<glyph unicode="&#xcb;" d="M-796 -762q0 36 46 116q74 110 142 224q16 20 34 22q40 0 40 -38q0 -16 -8 -38l-6 -18l-74 -232l-12 -28q-34 -80 -86 -86q-76 0 -76 78z" />
<glyph unicode="&#xcc;" d="M-1588 -762q0 36 46 116q74 110 142 224q16 20 34 22q40 0 40 -38q0 -16 -8 -38l2 6l-82 -256l-12 -28q-34 -80 -86 -86q-76 0 -76 78zM-1264 -762q0 36 46 116q74 110 142 224q16 20 34 22q40 0 40 -38q0 -16 -8 -38l-6 -18l-74 -232l-12 -28q-34 -80 -86 -86 q-76 0 -76 78z" />
<glyph unicode="&#xcd;" d="M-1246 -762q0 36 46 116q74 110 142 224q16 20 34 22q40 0 40 -38q0 -16 -8 -38l-6 -18l-74 -232l-12 -28q-34 -80 -86 -86q-76 0 -76 78zM-922 -762q0 36 46 116q74 110 142 224q16 20 34 22q40 0 40 -38q0 -16 -8 -38l-6 -18l-74 -232l-12 -28q-34 -80 -86 -86 q-76 0 -76 78z" />
<glyph unicode="&#xce;" d="M-1084 -762q0 36 46 116q74 110 142 224q16 20 34 22q40 0 40 -38q0 -16 -8 -38l-6 -18l-74 -232l-12 -28q-34 -80 -86 -86q-76 0 -76 78zM-760 -762q0 36 46 116q74 110 142 224q16 20 34 22q40 0 40 -38q0 -16 -8 -38l-6 -18l-74 -232l-12 -28q-34 -80 -86 -86 q-76 0 -76 78z" />
<glyph unicode="&#xcf;" d="M-958 -762q0 36 46 116q74 110 142 224q16 20 34 22q40 0 40 -38q0 -16 -8 -38l-6 -18l-74 -232l-12 -28q-34 -80 -86 -86q-76 0 -76 78zM-634 -762q0 36 46 116q74 110 142 224q16 20 34 22q40 0 40 -38q0 -16 -8 -38l2 6l-82 -256l-12 -28q-34 -80 -86 -86 q-76 0 -76 78z" />
<glyph unicode="&#xd0;" d="M-1598 -640q0 30 16 52q8 12 72 70q168 146 182 168q24 30 48 30q20 0 24 -24v-10q0 -18 -32 -74q-68 -122 -148 -206q-58 -62 -96 -64q-10 0 -22 2q-44 14 -44 56zM-1422 -850q0 32 36 126l110 246q14 32 38 32q22 0 30 -26v-4l-46 -314q-24 -142 -100 -142 q-44 0 -62 50q-6 16 -6 32zM-1176 -538q0 46 6 96q12 82 14 86q14 28 30 28q20 0 30 -22q2 -6 14 -78q12 -96 42 -178l40 -92l4 -32q0 -44 -38 -58l-2 -2l-22 -4q-50 0 -84 74q-34 78 -34 182z" />
<glyph unicode="&#xd1;" d="M-1256 -640q0 30 16 52q8 12 72 70q168 146 182 168q24 30 48 30q20 0 24 -24v-10q0 -18 -32 -74q-68 -122 -148 -206q-58 -62 -96 -64q-10 0 -22 2q-44 14 -44 56zM-1080 -850q0 32 36 126l110 246q14 32 38 32q22 0 30 -26v-4l-46 -314q-24 -142 -100 -142 q-44 0 -62 50q-6 16 -6 32zM-834 -538q0 46 6 96q12 82 14 86q14 28 30 28q18 0 30 -22q2 -6 14 -78q12 -96 42 -178l40 -92l4 -32q0 -46 -48 -62q-8 -2 -14 -2q-48 0 -84 74q-34 78 -34 182z" />
<glyph unicode="&#xd2;" d="M-1094 -640q0 30 16 52q8 12 72 70q168 146 182 168q24 30 48 30q20 0 24 -24v-10q0 -18 -32 -74q-68 -122 -148 -206q-58 -62 -96 -64q-10 0 -22 2q-44 14 -44 56zM-916 -844q0 28 34 120l110 246q14 32 38 32q22 0 30 -26v-4l-46 -314q-24 -142 -100 -142q-46 0 -62 54 q-4 16 -4 34zM-672 -538q0 46 6 96q12 82 14 86q14 28 30 28q18 0 30 -22q2 -6 14 -78q12 -96 42 -178l40 -92l4 -32q0 -46 -48 -62q-8 -2 -14 -2q-50 0 -84 74q-34 78 -34 182z" />
<glyph unicode="&#xd3;" d="M-968 -640q0 30 16 52q8 12 72 70q168 146 182 168q24 30 48 30q20 0 24 -24v-10q0 -18 -32 -74q-68 -122 -148 -206q-58 -62 -96 -64q-10 0 -22 2q-44 14 -44 56zM-790 -844q0 28 34 120l110 246q14 32 38 32q22 0 30 -26v-4l-46 -314q-24 -142 -100 -142q-46 0 -62 54 q-4 16 -4 34zM-546 -538q0 46 6 96q12 82 14 86q14 28 30 28q12 0 26 -14q0 -4 4 -8q2 -6 14 -78q12 -96 42 -178l40 -92l4 -32q0 -44 -38 -58l-2 -2q-4 -2 -8 -2q-8 -2 -14 -2q-48 0 -84 74q-34 78 -34 182z" />
<glyph unicode="&#xd4;" d="M-960 1338v2q0 16 20 70l66 210q42 116 100 122q76 0 76 -74q0 -42 -46 -118l-146 -228q-8 -10 -16 -16h-2q-8 -4 -14 -4h-4q-28 0 -34 36zM-636 1338v2q0 16 20 70l66 210q42 116 100 122q76 0 76 -74q0 -42 -46 -118l-146 -228q-8 -10 -16 -16h-2q-8 -4 -14 -4h-4 q-28 0 -34 36z" />
<glyph unicode="&#xd5;" d="M-618 1338v2q0 16 20 70l66 210q42 116 100 122q76 0 76 -74q0 -42 -46 -118l-146 -228q-8 -10 -16 -16h-2q-8 -4 -14 -4h-4q-28 0 -34 36zM-294 1338v2q0 16 20 70l66 210q42 116 100 122q76 0 76 -74q0 -42 -46 -118l-146 -228q-16 -20 -36 -20q-28 0 -34 36z" />
<glyph unicode="&#xd6;" d="M-456 1338v2q0 16 20 70l66 210q42 116 100 122q76 0 76 -74q0 -42 -46 -118l-146 -228q-16 -20 -36 -20q-28 0 -34 36zM-132 1338v2q0 16 20 70l66 210q42 116 100 122q76 0 76 -74q0 -42 -46 -118l-146 -228q-16 -20 -36 -20q-28 0 -34 36z" />
<glyph unicode="&#xd7;" d="M-330 1338v2q0 16 20 70l66 210q42 116 100 122q76 0 76 -74q0 -42 -46 -118l-146 -228q-16 -20 -36 -20q-28 0 -34 36zM-6 1338v2q0 16 20 70l66 210q42 116 100 122q76 0 76 -74q0 -42 -46 -118l-146 -228q-16 -20 -36 -20q-28 0 -34 36z" />
<glyph unicode="&#xd8;" d="M-1010 1714q0 18 16 38q32 46 78 70q24 14 40 14q6 0 10 -2q6 -4 34 -38q74 -90 120 -218l20 -60l28 32q116 128 238 234q54 54 86 54q22 0 22 -20q0 -32 -92 -118q-146 -134 -294 -312q-34 -42 -80 -66q-24 -8 -34 -8q-16 0 -16 30l-18 70q-48 160 -142 266 q-16 16 -16 34z" />
<glyph unicode="&#xd9;" d="M-668 1714q0 18 16 38q32 46 78 70q24 14 40 14q6 0 10 -2q6 -4 34 -38q80 -96 122 -222l18 -56q76 88 264 266q64 52 90 52q10 0 16 -8q6 -6 6 -14q0 -26 -94 -114q-146 -134 -294 -312q-34 -42 -80 -66q-24 -8 -34 -8q-16 0 -16 30l-18 70q-48 160 -142 266 q-16 16 -16 34z" />
<glyph unicode="&#xda;" d="M-506 1714q0 18 16 38q32 46 78 70q24 14 40 14q6 0 10 -2q6 -4 34 -38q74 -90 120 -218l20 -60l28 32q116 128 238 234q54 54 86 54l12 -4l8 -6q2 -4 2 -10q0 -32 -92 -118q-146 -134 -294 -312q-34 -42 -80 -66q-24 -8 -34 -8q-16 0 -16 30l-18 70q-48 160 -142 266 q-16 16 -16 34z" />
<glyph unicode="&#xdb;" d="M-380 1714q0 18 16 38q32 46 78 70q24 14 40 14q6 0 10 -2q6 -4 34 -38q74 -90 120 -218l20 -60l28 32q116 128 238 234q48 48 86 52h2q12 0 16 -8q6 -6 6 -14q0 -26 -94 -114q-146 -134 -294 -312q-34 -42 -80 -66q-24 -8 -34 -8q-16 0 -16 30l-18 70q-48 160 -142 266 q-16 16 -16 34z" />
<glyph unicode="&#xdc;" d="M-1014 1334q0 32 96 116q142 130 290 312q36 42 80 64q20 10 32 10q4 0 8 -2q10 -4 16 -42q34 -180 158 -324q16 -22 16 -26q0 -22 -16 -42q-38 -50 -80 -72q-24 -14 -40 -14q-6 0 -10 2q-6 2 -36 40q-80 102 -118 218l-20 60l-28 -34q-82 -90 -236 -234q-66 -54 -92 -54 q-10 0 -14 8q-6 6 -6 14z" />
<glyph unicode="&#xdd;" d="M-672 1334q0 32 96 116q142 130 290 312q36 42 80 64q20 10 32 10q4 0 8 -2q10 -4 16 -42q36 -182 158 -324q16 -22 16 -26q0 -22 -18 -44q-30 -42 -76 -70q-24 -14 -40 -14q-6 0 -12 2t-36 40q-82 106 -120 218q-18 58 -18 60l-28 -34q-82 -90 -236 -234 q-66 -54 -92 -54q-10 0 -14 8q-6 6 -6 14z" />
<glyph unicode="&#xde;" d="M-510 1334q0 32 96 116q142 130 290 312q36 42 80 64q20 10 32 10q4 0 8 -2q10 -4 16 -42q36 -182 158 -324q16 -22 16 -26q0 -22 -16 -42q-38 -50 -80 -72q-24 -14 -40 -14q-6 0 -10 2q-6 2 -36 40q-80 102 -118 218l-20 60l-28 -34q-82 -90 -236 -234q-66 -54 -92 -54 q-10 0 -14 8q-6 6 -6 14z" />
<glyph unicode="&#xdf;" d="M-384 1334q0 32 96 116q142 130 290 312q36 42 80 64q20 10 32 10q4 0 8 -2q10 -4 16 -42q36 -182 158 -324q16 -22 16 -26q0 -22 -18 -44q-30 -42 -76 -70q-24 -14 -40 -14q-6 0 -12 2t-36 40q-82 106 -120 218q-18 58 -18 60l-28 -34q-82 -90 -236 -234 q-66 -54 -92 -54q-10 0 -14 8q-6 6 -6 14z" />
<glyph unicode="&#xe0;" d="M-1208 1378v12q16 64 98 108q22 12 38 12t22 -38q20 -52 76 -52q98 0 182 40q86 38 86 122q0 26 -8 58q-30 108 -124 108q-22 0 -72 -46q-50 -44 -86 -44h-4q-12 0 -12 16q0 34 68 96q6 4 8 6q128 116 224 116q142 0 168 -222l-16 132q0 -4 24 -214q26 -164 126 -168 q16 0 30 6q10 6 64 52q38 34 68 34q22 0 22 -14t-18 -40v-4l-6 -6q-16 -24 -78 -76q-112 -94 -200 -94q-36 0 -68 16q-80 54 -88 150l-98 -76q-126 -78 -294 -90h-14q-72 0 -106 54q-12 22 -12 46z" />
<glyph unicode="&#xe1;" d="M-866 1378v12q16 64 98 108q20 12 38 12q16 0 22 -38q20 -52 76 -52q98 0 182 40q86 38 86 122q0 26 -8 58q-30 108 -124 108q-22 0 -72 -46q-50 -44 -86 -44h-4q-12 0 -12 16q0 34 68 96q6 4 8 6q128 116 224 116q142 0 168 -222l-16 132q0 -4 24 -214q26 -164 126 -168 q16 0 30 6q12 6 64 52q44 36 70 36q18 0 18 -18q0 -40 -100 -124q-112 -94 -200 -94q-36 0 -68 16q-80 54 -88 150l-98 -76q-126 -78 -294 -90h-14q-72 0 -106 54q-12 22 -12 46z" />
<glyph unicode="&#xe2;" d="M-520 1374q0 52 76 108q30 26 54 26h10q12 -2 18 -36q14 -34 42 -46q10 -6 40 -6q94 0 140 44q52 46 52 158q0 98 -64 134q-14 14 -48 14q-14 0 -24 -6q-6 -2 -42 -32q-60 -54 -90 -54q-22 0 -22 22q0 32 76 96q130 116 220 116q24 0 52 -8q80 -26 94 -138l8 -166 q4 -118 56 -160q30 -22 58 -22q26 0 58 32q66 60 102 60h6q14 0 14 -20q-6 -22 -22 -42q-12 -18 -76 -76q-114 -94 -202 -94q-78 0 -116 64q-14 20 -26 80l-66 -54l-2 -2q-134 -90 -252 -90q-90 0 -116 66q-8 16 -8 32z" />
<glyph unicode="&#xe3;" d="M-526 1376q0 22 18 50q36 50 84 72q18 10 32 10h8q10 -2 16 -34q6 -26 30 -42q24 -18 54 -18q34 0 78 22q96 44 96 212q0 124 -86 140h-14h-14q-16 -4 -38 -26q-68 -56 -88 -64h-2q-8 -2 -16 -2q-22 0 -22 16q0 46 128 146q94 74 166 74q94 0 128 -90q12 -24 12 -72 l-10 -204q0 -112 64 -138q22 -8 38 -8q10 0 18 2l34 24q64 64 104 64h6q12 0 12 -16v-10q-8 -32 -70 -88q-142 -120 -226 -120q-46 0 -84 30q-48 42 -48 102q-140 -126 -296 -132q-66 0 -100 54q-12 20 -12 46z" />
<glyph unicode="&#xe4;" d="M-2052 -874q2 118 116 258q106 130 314 270q122 82 490 280q26 16 50 28l228 124q88 50 90 50q16 8 28 8q22 0 22 -18v-2q0 -4 -2 -8q-16 -60 -136 -124l-520 -284q-258 -144 -378 -242q-146 -122 -146 -232q0 -30 10 -58q36 -98 142 -120q22 -6 46 -6q12 0 24 2 q54 10 66 24q18 22 18 72q0 48 -40 82q-26 24 -50 24q-14 0 -50 -16q-14 -8 -26 -8q-20 0 -20 18q0 40 64 90q74 62 138 62t106 -50q36 -44 36 -100q0 -44 -30 -104q-72 -138 -212 -204q-70 -34 -150 -34q-128 0 -194 102q-34 54 -34 116z" />
<glyph unicode="&#xe5;" d="M-1924 -888q0 220 352 490q148 112 500 314l18 10l64 36l276 160q38 22 56 22q16 0 16 -16v-4q0 -50 -128 -130l-108 -62l-386 -222q-260 -152 -372 -256q-132 -120 -132 -228q0 -34 12 -66q52 -116 184 -116q68 0 92 26q20 28 20 60q0 30 -18 64q-26 48 -72 56h-2 q-16 0 -54 -18q-18 -8 -28 -8q-18 0 -18 20q0 36 60 84q74 66 146 66q56 0 94 -38q46 -42 46 -106q0 -104 -92 -202q-100 -110 -230 -140q-36 -8 -70 -8q-86 0 -152 54l-2 2q-42 36 -60 90q-12 26 -12 62v4z" />
<glyph unicode="&#xe6;" d="M-1558 -968q0 102 84 226q88 134 236 268q134 122 458 354l14 10q36 24 62 44l204 148q66 50 84 56l26 6q16 0 16 -20q0 -48 -104 -118l-4 -4q-66 -44 -128 -92l-312 -226q-480 -344 -480 -546q0 -46 22 -86q38 -78 134 -96q18 -4 36 -4l36 4q52 14 62 34q18 32 18 64 q0 34 -20 66q-22 46 -76 50q-14 0 -56 -22h-2q-16 -10 -32 -10q-18 0 -18 20q2 34 58 84q84 72 156 72q54 0 90 -30q54 -44 54 -116q0 -104 -94 -208q-134 -152 -300 -152q-66 0 -118 34q-52 26 -82 86q-24 48 -24 104z" />
<glyph unicode="&#xe7;" d="M-1358 -766q0 156 188 366q120 132 254 234l220 152q52 38 160 110q58 44 84 48h10q16 -2 16 -16q0 -54 -162 -160l-290 -198q-176 -130 -266 -262q-60 -90 -60 -166q0 -60 42 -116q58 -70 146 -70q68 0 96 28q24 30 24 68q0 26 -12 56q-26 66 -92 66q-12 0 -52 -22 q-14 -8 -28 -8q-20 0 -20 16q0 34 56 84q82 76 160 76q44 0 80 -24q62 -42 62 -122q0 -106 -96 -210q-134 -150 -296 -150q-100 0 -172 72q-52 58 -52 148z" />
<glyph unicode="&#xe8;" d="M-908 1938v16q0 124 116 232l2 2q96 96 204 96q74 0 126 -52q40 -40 40 -90q0 -62 -70 -130q-2 -4 -6 -6q-50 -46 -86 -46h-2q-16 0 -16 14q0 12 12 36l10 18q2 6 2 18q-14 58 -80 84q-22 10 -44 10l-16 -2q-22 0 -26 -18v2q0 -2 -2 -14q-8 -28 -8 -54q0 -106 132 -188 q126 -76 382 -78h42q200 0 384 14q12 2 20 2q28 0 28 -16q0 -14 -18 -44q-12 -28 -76 -70q-36 -20 -76 -46q-510 -330 -782 -470q-30 -16 -48 -16q-14 0 -20 10q-4 6 -4 14q0 16 24 34l128 92q244 170 556 358q-170 -6 -268 -6q-232 0 -362 58q-180 80 -196 222q-2 4 -2 14z " />
<glyph unicode="&#xe9;" d="M-608 1860q0 28 6 58q30 134 154 220q84 60 162 60q58 0 106 -36q16 -10 28 -24q30 -44 30 -82q0 -68 -76 -138q-54 -44 -86 -44h-2q-18 0 -18 14q0 8 18 42q10 8 10 18q0 58 -72 92q-28 12 -54 12h-12q-24 0 -28 -16l2 8l-4 -20q-10 -30 -10 -58q0 -94 104 -166 q106 -74 326 -90q12 -2 24 -2q50 -2 98 -2q112 0 216 10q10 2 18 2q24 0 24 -16t-20 -44q-12 -28 -50 -54q-516 -360 -668 -448q-24 -16 -40 -16q-12 0 -18 8q-8 8 -8 18q0 12 14 26q22 22 94 76q198 158 406 298q-32 -4 -84 -4q-292 0 -434 76q-156 84 -156 222z" />
<glyph unicode="&#xea;" d="M-286 1166q0 12 14 24q8 8 84 62q2 2 6 4q102 74 244 164l142 92q-208 0 -342 110q-54 38 -76 88q-22 40 -22 90q0 26 6 56q32 160 204 256q54 28 108 28q40 0 80 -16q54 -22 78 -72q12 -26 12 -52q0 -68 -78 -138q-46 -46 -82 -46q-22 0 -22 22q2 12 20 40q6 12 6 14v6 q0 46 -66 82q-34 16 -62 16h-10q-30 0 -34 -40l-4 -44q0 -66 52 -124q120 -134 404 -134q40 0 116 8q20 0 20 -14v-4q0 -18 -16 -42q-14 -24 -16 -26q-8 -8 -38 -28l-68 -44q-300 -188 -452 -274l-142 -78q-24 -10 -40 -10q-12 0 -18 8q-8 8 -8 16z" />
<glyph unicode="&#xeb;" d="M-158 1164q0 10 8 22t70 60q110 88 206 156l108 78q-14 2 -70 28q-176 82 -176 234q0 110 100 214q28 32 62 56q80 60 162 60q86 0 136 -62q28 -36 28 -76q0 -72 -84 -146q-46 -38 -76 -38q-20 0 -20 16q0 14 16 40q8 8 8 18v6q0 58 -76 86q-32 14 -60 14q-10 0 -18 -4 q-6 -6 -12 -26q-10 -34 -10 -64q0 -148 244 -224q26 -8 52 -14q28 -6 28 -18v-2q0 -14 -18 -42q-14 -24 -18 -28q-10 -12 -66 -52q-320 -218 -370 -248l-96 -56q-18 -12 -32 -12q-10 0 -18 6q-8 8 -8 18z" />
<glyph unicode="&#xec;" d="M-2112 2260q0 16 18 40q26 38 70 66q24 16 42 18q14 2 80 2h2744q36 0 40 -4q6 -6 6 -14q0 -14 -14 -36q-46 -74 -110 -88q-8 -2 -50 -2h-2774q-40 0 -44 4q-8 6 -8 14z" />
<glyph unicode="&#xed;" d="M-3624 -2156q0 14 20 38q28 44 76 70q20 14 42 14l34 -6q138 -28 466 -28h44h678q168 0 302 24q46 10 60 10q18 0 18 -14q-14 -62 -110 -122q-70 -24 -250 -38q-88 -4 -394 -4h-606q-168 0 -344 32q-26 6 -28 8q-8 6 -8 16z" />
<glyph unicode="&#xee;" d="M-1000 2268q0 16 16 40q54 76 112 84q8 2 56 2h1882q40 0 42 -16q0 -24 -24 -52q-42 -56 -98 -74q-8 -2 -50 -2h-1896q-28 0 -34 4q-6 6 -6 14z" />
<glyph unicode="&#xef;" d="M-2998 -2160q0 14 16 42q32 44 76 68q24 16 44 16q6 0 58 -16q86 -18 284 -18h342q84 0 160 26q20 10 30 10q18 0 18 -22q0 -24 -34 -58q-92 -100 -344 -100h-386q-120 0 -190 16q-56 16 -66 22q-8 4 -8 14z" />
<glyph unicode="&#xf0;" horiz-adv-x="954" d="M-180 576q0 50 116 148q168 142 342 188q84 24 166 24q118 0 228 -52q140 -66 190 -192q22 -58 22 -122q0 -176 -158 -350q-222 -240 -484 -240q-184 0 -248 110q-22 34 -22 70t22 74q52 82 142 82q36 0 70 -18l74 -60q2 0 4 -2q78 -42 162 -42q64 0 130 24q32 16 36 22 q38 60 38 148q0 112 -90 208q-36 38 -82 64q-8 4 -14 8q-98 52 -210 52q-156 0 -272 -76l-80 -64q-38 -22 -62 -22q-20 0 -20 18z" />
<glyph unicode="&#xf1;" horiz-adv-x="1134" d="M-212 618q4 28 44 72q50 60 160 134q252 166 490 166q30 0 60 -2q44 -4 214 -46q86 -22 144 -22q48 0 78 16q10 4 68 52q40 34 78 38q24 0 24 -20q0 -18 -20 -48q-36 -54 -122 -120q-126 -92 -216 -106q-28 -4 -60 -4q-58 0 -260 50q-24 6 -26 6l-28 -12q-48 -18 -62 -30 q-74 -74 -74 -226q0 -50 12 -90q0 -4 2 -8q42 -128 176 -188q74 -34 144 -34q78 0 152 42q10 4 18 10l96 78q60 50 98 50q18 0 20 -24q-8 -62 -200 -212q-208 -156 -384 -156q-76 0 -142 26q-98 32 -162 118q-68 86 -68 202q0 118 62 242q66 128 174 224q-156 -6 -290 -94 l-106 -80q-44 -30 -72 -30q-22 0 -22 26z" />
<glyph unicode="&#xf2;" horiz-adv-x="1800" d="M-212 612v6q0 42 86 112q292 260 632 260q76 0 176 -8l486 -56q74 -6 140 -6h62q204 0 294 36l88 60q22 10 40 10q24 0 24 -20t-28 -58q-52 -70 -154 -132q-102 -58 -210 -76q-86 -14 -208 -14l-152 2q-8 -4 -20 -30q-46 -82 -46 -174q0 -86 32 -146q62 -124 208 -166 q52 -16 102 -16q78 0 146 40q16 10 102 80q72 60 112 60h6q12 0 12 -14v-4q0 -58 -188 -210q-216 -166 -398 -166q-132 0 -234 80q-64 46 -90 102q-170 -132 -276 -164q-58 -18 -116 -18q-64 0 -130 22q-118 42 -180 130q-66 90 -66 200q0 106 64 234q68 136 174 228 q-156 -6 -290 -94q-10 -6 -88 -68l-32 -22q-36 -22 -56 -22q-12 0 -18 6zM278 522q0 -74 32 -146q62 -118 200 -164q52 -16 102 -16q86 0 160 56q-8 36 -8 76q0 152 88 292q4 8 90 120q-124 16 -364 44q-112 8 -102 8h-8l-104 -40q-10 -6 -38 -48q-48 -92 -48 -182z" />
<glyph unicode="&#xf3;" horiz-adv-x="2214" d="M-214 612q0 42 94 124q194 172 426 230q92 24 232 24q92 0 646 -48q164 -16 284 -20l338 -6h78q140 8 202 44q6 2 32 24q54 42 90 42q22 0 22 -20q0 -18 -22 -48q-44 -66 -142 -130q-158 -106 -420 -106l-116 2q-18 2 -38 2q-32 -56 -62 -214q0 -168 154 -262 q90 -52 178 -52q104 0 186 58l106 86q44 34 78 34q18 0 18 -16v-4q0 -50 -118 -150l-4 -2q-6 -6 -20 -18q-246 -204 -440 -204q-20 0 -38 2q-10 0 -18 2q-116 18 -198 88q-16 16 -22 18l-22 -14q-162 -96 -274 -96q-136 0 -254 88q-20 20 -26 22q-4 0 -36 -24 q-54 -32 -104 -54q-80 -32 -160 -32q-74 0 -148 28q-104 42 -170 136q-56 84 -56 188q0 150 102 306q70 102 134 156q-192 -26 -302 -102l-108 -82q-36 -22 -60 -22q-22 0 -22 22zM278 516q0 -186 170 -276q40 -20 82 -32q38 -10 116 -10q-26 86 -26 142q0 146 96 292 q24 36 72 96q26 26 38 40q-118 12 -308 24h-4q-20 2 -34 2h-12l-34 -16q-66 -24 -80 -36q-16 -12 -26 -38q-50 -88 -50 -188zM854 520q0 -188 170 -280q40 -20 82 -32q38 -10 116 -10q-26 86 -26 138q0 132 80 272l88 120q-114 0 -378 24h-18q-26 0 -36 -8q-16 -12 -28 -40 q-50 -86 -50 -184z" />
<glyph unicode="&#xf4;" horiz-adv-x="774" d="M-244 -1066q0 264 160 678q130 338 144 382l250 768q170 536 330 834q160 300 386 524q148 148 204 148q20 0 20 -18v-4q0 -40 -72 -106q-106 -106 -134 -138q-224 -276 -416 -824q-14 -38 -154 -466q-156 -492 -202 -622l-184 -486q-96 -278 -96 -472q0 -140 48 -230 q54 -102 142 -158q112 -78 260 -78q152 0 304 68q44 24 52 38q40 64 40 128l-8 60q-8 26 -50 86q-22 38 -22 74q0 46 36 90q52 66 128 66q34 0 62 -14q90 -46 90 -162q0 -196 -208 -396q-186 -170 -408 -222q-120 -28 -220 -28q-278 0 -414 222q-32 56 -52 118 q-16 62 -16 140z" />
<glyph unicode="&#xf5;" horiz-adv-x="1728" d="M-174 -1074q0 204 66 482q72 292 292 970l60 182q170 526 240 698q228 578 572 892q132 120 170 120q26 0 26 -20q0 -42 -116 -148l-26 -26q-256 -266 -458 -828l-104 -310l730 -18q118 0 176 6q92 8 150 38l32 24q52 38 90 38q16 0 16 -18q-2 -8 -2 -16 q-18 -54 -106 -124q-166 -132 -396 -138q-98 -2 -148 -2h-38h-42q-18 0 -20 -2l-10 -12q-54 -94 -54 -192q0 -58 16 -102q42 -130 178 -190q72 -32 142 -32q44 0 86 12q54 14 142 90q94 78 138 78q20 0 20 -16q0 -38 -70 -108q-138 -138 -294 -216q-24 -12 -38 -16 q4 -6 38 -74q78 -186 78 -374q0 -382 -284 -704q-152 -172 -350 -282q-238 -134 -504 -134q-398 0 -398 472zM62 -890q0 -264 114 -358q88 -82 258 -82q544 0 670 522q24 104 24 206q0 278 -172 516q-28 40 -32 44q-14 14 -16 22q0 4 10 32q-116 44 -176 142q-52 80 -52 178 q0 164 134 354q34 40 38 46q-120 4 -344 10q-12 2 -20 2t-12 -2l-12 -30q-28 -98 -132 -410q-240 -708 -272 -1046q-8 -78 -8 -146z" />
<glyph unicode="&#xf6;" horiz-adv-x="2286" d="M-174 -1066q0 346 250 1106l158 486q170 526 222 664q238 618 596 956q128 122 180 122q20 0 20 -18q0 -42 -116 -148l-26 -26q-256 -266 -458 -828l-104 -310q306 0 740 -14l606 -8q168 0 248 36q8 4 68 48q38 28 70 28q20 0 20 -18q0 -16 -14 -44l-2 -2 q-30 -46 -90 -94q-96 -80 -202 -112q-98 -32 -236 -36l-140 2q-24 0 -34 2q-24 0 -34 -28q-6 -2 -8 -16q-38 -84 -38 -164q0 -74 28 -130q60 -126 204 -172q56 -18 108 -18q74 0 142 36q24 12 106 82l4 4q64 52 102 58q26 0 26 -20q0 -56 -178 -200q-224 -174 -398 -174 q-144 0 -260 90q-18 18 -22 18l-118 -66q44 -94 46 -98q70 -170 70 -350q0 -412 -324 -748q-106 -112 -236 -198q-266 -178 -574 -178q-402 0 -402 480zM60 -890q0 -252 114 -358q88 -84 264 -84q50 0 108 10q204 28 334 126q160 120 220 376q26 112 26 218q0 160 -58 312 q-42 112 -142 246q-16 16 -18 24q0 4 10 32q-114 38 -182 150q-46 78 -46 172q0 98 52 216q14 34 34 66q10 16 86 114q2 4 6 8l-382 6l-106 -324q-210 -656 -254 -846q-66 -294 -66 -464zM928 512q0 -182 172 -272q2 -2 4 -2q78 -38 162 -38h28q-24 88 -24 90q-2 20 -2 42 q0 132 76 270q18 30 58 86q30 36 32 40q-146 0 -220 2q-130 0 -186 4q-34 0 -36 -2q-4 -2 -22 -36q-42 -82 -42 -184z" />
<glyph unicode="&#xf7;" horiz-adv-x="954" d="M-1428 -1192q0 142 132 282q100 100 164 118h12q18 0 18 -18q0 -30 -46 -82q-24 -24 -28 -32q-18 -44 -18 -92q0 -78 52 -160l2 -4l2 -2q0 -2 2 -2q102 -148 300 -148q68 0 146 18q124 28 202 92q112 90 234 340q106 220 256 686q14 46 22 70l258 802q166 514 268 738 q186 412 470 702q144 144 202 152h12q18 0 18 -16q0 -44 -104 -140q-278 -260 -484 -834q-46 -126 -190 -570l-204 -632q-156 -496 -242 -694q-64 -150 -134 -274q-206 -360 -506 -532q-214 -122 -424 -122q-110 0 -194 40q-138 70 -184 218q-14 48 -14 96z" />
<glyph unicode="&#xf8;" horiz-adv-x="1368" d="M-1428 -1194q0 160 162 314q94 88 142 88q22 0 22 -16q0 -14 -14 -40q-4 -8 -48 -60l-2 -2q-30 -30 -30 -98q0 -34 12 -76q38 -140 172 -208q78 -38 172 -38q206 0 342 98q68 50 150 180q102 162 196 404q66 176 220 662l214 662q154 482 238 676l48 102q190 400 450 660 q154 154 214 154q18 0 18 -18q0 -30 -40 -76q-8 -10 -90 -88l-10 -10q-282 -296 -510 -978l-154 -476q82 72 188 144q214 150 368 152h20q146 0 234 -104q18 -20 32 -48q34 -60 34 -130q0 -162 -172 -354q-26 -34 -74 -74q64 -4 118 -4q126 0 210 28q22 8 94 58l2 2l18 10 q28 16 50 16t22 -18q0 -24 -36 -72l-6 -6q-86 -100 -234 -162q-120 -50 -304 -50q-72 0 -156 8q-282 26 -296 26h-22q-78 0 -260 -20q-22 -6 -24 -6l-46 -140q0 -4 -2 -8q-50 -164 -122 -356q-210 -548 -520 -814q-4 -2 -8 -6q-280 -240 -584 -240q-220 0 -326 146 q-72 92 -72 206zM306 188q182 50 368 50q124 0 234 -14q8 -2 13 -2t9 2q56 18 88 54q18 16 44 68q24 56 24 108q0 68 -38 130q-28 44 -74 74q-74 46 -156 46q-102 0 -210 -74q-128 -88 -178 -150q-54 -66 -100 -210z" />
<glyph unicode="&#xf9;" horiz-adv-x="2040" d="M-1428 -1192q0 164 176 324q84 76 132 76q20 0 20 -16q0 -14 -16 -40q-4 -8 -48 -60l-2 -2q-28 -28 -28 -98q0 -176 158 -272q84 -50 188 -50q212 0 348 98q68 50 152 178q108 174 188 388q74 194 228 680l214 662q162 512 274 750q2 8 6 14q194 412 454 672 q102 98 136 120q10 6 18 12q38 24 62 24q20 0 20 -16q0 -24 -42 -76q-18 -22 -100 -100q-254 -264 -446 -794q-52 -140 -154 -466l-56 -172q300 274 498 274q52 0 98 -18q108 -36 160 -150q18 -42 22 -86q54 54 140 116q184 138 318 138q202 0 270 -174q24 -58 24 -120 q0 -192 -226 -418h54q210 0 304 46l36 26q54 42 86 42q24 0 24 -22q0 -28 -56 -88q-116 -122 -284 -170q-102 -30 -272 -30q-72 0 -158 6l-54 4q-20 2 -34 2q-356 20 -426 22h-250q-190 0 -444 -34q-34 -6 -36 -8q-4 -2 -14 -38q-20 -68 -32 -102q-162 -484 -286 -714 q-164 -298 -398 -484q-268 -210 -546 -210q-188 0 -298 112q-102 92 -102 242zM304 182l148 20q268 34 408 34h34l22 4q12 8 26 28q56 70 56 166q0 122 -76 198q-66 72 -176 72q-48 0 -90 -20q-36 -16 -94 -66q-118 -94 -174 -198q-26 -48 -58 -152l-26 -84v-2zM1046 238 l502 -22l6 -2h14q38 0 42 2q52 24 66 38q26 26 48 78q26 60 26 118q0 68 -36 130q-26 46 -66 76q-68 48 -142 48h-4q-102 0 -184 -84q-50 -50 -136 -198q-56 -92 -98 -138z" />
<glyph unicode="&#xfa;" horiz-adv-x="1188" d="M26 316q0 68 38 142q82 142 216 238q38 30 70 38q10 6 16 6q22 0 22 -22q0 -36 -70 -106q-40 -40 -46 -54l-2 -8q-8 -24 -8 -50q0 -172 188 -266q112 -56 226 -56q94 0 182 34q26 8 32 22q36 60 36 176q0 188 -74 550q-66 372 -66 538q0 178 46 308q72 208 270 386 q86 76 130 76q20 0 20 -20v-2l-2 -2v-4q-8 -28 -34 -58l-70 -74q-124 -138 -124 -442q0 -136 34 -346l80 -448q24 -198 24 -288q0 -88 -16 -144q-66 -206 -296 -362q-172 -114 -386 -114q-210 12 -334 130q-102 94 -102 222z" />
<glyph unicode="&#xfb;" horiz-adv-x="1188" d="M-260 -576q0 114 140 270q90 90 124 112q48 30 80 30q18 0 18 -18q0 -32 -68 -102q-48 -48 -56 -78q-2 -18 -2 -38q0 -170 190 -264q114 -56 232 -56q96 0 170 30q24 10 30 16q10 10 24 48q16 52 16 138q0 124 -48 418q-2 22 -10 38l-84 -4q-220 0 -360 124 q-104 94 -108 226q0 44 10 76q24 90 146 220q20 22 68 62q68 66 118 66q18 0 18 -20q0 -36 -104 -140q-24 -30 -24 -74q0 -36 16 -80q46 -148 232 -214q80 -30 172 -30q146 0 206 46q38 46 42 146q0 138 -32 344l-88 504q-20 168 -20 266q0 316 156 532q88 120 180 192 q74 58 110 58q18 0 18 -20v-4l-2 -8q-12 -36 -74 -98l-2 -2q-18 -18 -28 -30q-106 -116 -124 -364v-42q0 -166 38 -394l82 -470q20 -152 20 -238q0 -120 -32 -198q-72 -172 -264 -310q-30 -16 -32 -24q0 -2 6 -40q34 -262 34 -362q0 -170 -134 -326q-184 -216 -416 -262 q-44 -12 -110 -12q-220 0 -358 118q-116 98 -116 242z" />
<glyph unicode="&#xfc;" d="M-2816 -2250q0 38 64 102q10 12 106 100h2l10 10q672 630 1276 1674q66 116 108 158q90 90 142 90q18 0 18 -16q0 -32 -54 -116q-406 -710 -872 -1268l-240 -270l-120 -126q-102 -110 -288 -278q-90 -76 -134 -76q-18 0 -18 16z" />
<glyph unicode="&#xfd;" d="M-2474 -2250q0 38 64 102q10 12 106 100h2l198 196q544 554 1062 1444q14 22 26 44q66 116 108 158q90 90 142 90q18 0 18 -16q0 -32 -54 -116q-512 -896 -1112 -1538l-120 -126q-104 -110 -288 -276q-84 -78 -132 -78q-20 0 -20 16z" />
<glyph unicode="&#xfe;" d="M-2312 -2250q0 38 64 102q10 12 106 100h2l10 10q672 630 1276 1674q66 116 108 158q90 90 142 90q18 0 18 -16q0 -32 -54 -116q-512 -896 -1112 -1538l-120 -126q-104 -110 -288 -276q-84 -78 -132 -78q-20 0 -20 16z" />
<glyph unicode="&#xff;" d="M-2186 -2250q0 38 64 102q10 12 106 100h2l198 196q544 554 1062 1444q14 22 26 44q66 116 108 158q90 90 142 90q18 0 18 -16q0 -32 -54 -116q-512 -896 -1112 -1538l-120 -126q-104 -110 -288 -276q-84 -78 -132 -78q-20 0 -20 16z" />
<glyph unicode="&#x152;" horiz-adv-x="720" d="M-108 -280q0 128 16 258q80 740 588 1332q106 124 234 242q94 86 142 86q20 0 20 -18q0 -28 -34 -66q-24 -30 -100 -102q-40 -34 -104 -108q-362 -414 -480 -978q-44 -212 -44 -424v-42q0 -196 34 -392q8 -36 8 -48q0 -22 -30 -62q-44 -60 -110 -102q-46 -32 -72 -32 q-20 0 -26 30l-2 10q-40 208 -40 416z" />
<glyph unicode="&#x153;" horiz-adv-x="720" d="M-422 -720q0 28 48 86l94 90q88 88 160 180q362 464 442 1062q20 144 20 288q0 202 -40 428q-4 22 -4 32q0 16 30 58q38 48 84 82q48 44 92 52q22 0 26 -8q4 -6 10 -42q36 -204 36 -410q0 -1060 -850 -1840q-84 -74 -132 -74q-16 0 -16 16z" />
<glyph unicode="&#x178;" d="M-956 -865q0 9 2 19q8 22 56 80l354 398l98 102q38 38 62 38q26 0 26 -30q0 -24 -26 -54l-48 -68q-148 -206 -390 -492q-40 -52 -80 -52q-38 0 -52 40q-2 10 -2 19z" />
<glyph unicode="&#x2c6;" horiz-adv-x="900" d="M24 78q0 20 6 40q26 88 112 88q40 0 70 -22q50 -36 50 -88q0 -20 -6 -40q-20 -70 -88 -86q-6 -2 -14 -2q-6 -2 -14 -2q-32 0 -66 24q-50 36 -50 88zM116 458q0 60 54 94q28 18 60 18q18 0 36 -6q86 -26 86 -120q0 -64 -56 -96q-30 -16 -62 -16q-16 0 -34 4 q-84 24 -84 122zM202 804q0 20 8 42q28 86 112 86q36 0 70 -22q52 -36 52 -92q0 -94 -90 -118q-26 -6 -36 -6q-34 0 -64 22q-52 36 -52 88z" />
<glyph unicode="&#x2dc;" d="M-1646 -676q0 100 86 194q116 126 246 126q50 0 104 -30q82 -54 82 -164q0 -102 -70 -186q-114 -146 -258 -146l-42 8q-102 24 -136 128q-12 34 -12 70zM-1492 -576q0 -72 60 -124h2q44 -38 94 -38q8 0 18 2q24 0 30 22l8 60q0 72 -60 120q-44 34 -94 34h-14 q-30 0 -36 -20q-8 -18 -8 -56z" />
<glyph unicode="&#x2000;" horiz-adv-x="1197" />
<glyph unicode="&#x2001;" horiz-adv-x="2394" />
<glyph unicode="&#x2002;" horiz-adv-x="1197" />
<glyph unicode="&#x2003;" horiz-adv-x="2394" />
<glyph unicode="&#x2004;" horiz-adv-x="798" />
<glyph unicode="&#x2005;" horiz-adv-x="598" />
<glyph unicode="&#x2006;" horiz-adv-x="399" />
<glyph unicode="&#x2007;" horiz-adv-x="399" />
<glyph unicode="&#x2008;" horiz-adv-x="299" />
<glyph unicode="&#x2009;" horiz-adv-x="478" />
<glyph unicode="&#x200a;" horiz-adv-x="133" />
<glyph unicode="&#x2010;" horiz-adv-x="720" d="M24 150q0 20 6 40q26 88 112 88q40 0 70 -22q50 -36 50 -88q0 -20 -6 -40q-20 -70 -88 -86q-6 -2 -14 -2q-6 -2 -14 -2q-32 0 -66 24q-50 36 -50 88zM202 732q0 20 8 42q28 86 112 86q36 0 70 -22q52 -36 52 -92q0 -94 -90 -118q-26 -6 -36 -6q-34 0 -64 22 q-52 36 -52 88z" />
<glyph unicode="&#x2011;" horiz-adv-x="720" d="M24 150q0 20 6 40q26 88 112 88q40 0 70 -22q50 -36 50 -88q0 -20 -6 -40q-20 -70 -88 -86q-6 -2 -14 -2q-6 -2 -14 -2q-32 0 -66 24q-50 36 -50 88zM202 732q0 20 8 42q28 86 112 86q36 0 70 -22q52 -36 52 -92q0 -94 -90 -118q-26 -6 -36 -6q-34 0 -64 22 q-52 36 -52 88z" />
<glyph unicode="&#x2012;" horiz-adv-x="720" d="M24 150q0 20 6 40q26 88 112 88q40 0 70 -22q50 -36 50 -88q0 -20 -6 -40q-20 -70 -88 -86q-6 -2 -14 -2q-6 -2 -14 -2q-32 0 -66 24q-50 36 -50 88zM202 732q0 20 8 42q28 86 112 86q36 0 70 -22q52 -36 52 -92q0 -94 -90 -118q-26 -6 -36 -6q-34 0 -64 22 q-52 36 -52 88z" />
<glyph unicode="&#x2013;" horiz-adv-x="1980" d="M118 382q0 238 108 484q130 300 424 588q496 480 1200 692q290 88 634 116q76 6 154 6q44 0 50 -8q4 -6 4 -12q0 -12 -10 -28q-26 -48 -72 -88q-352 -316 -584 -1036q-100 -312 -198 -750l-44 -194q-26 -56 -106 -120q-72 -50 -102 -50q-18 0 -18 14v6q0 20 54 250 q-56 -48 -114 -90q-248 -180 -406 -180q-64 0 -124 22q-116 44 -158 130l-58 -48q-122 -98 -294 -104q-96 0 -132 12q-162 54 -200 274q-8 54 -8 114zM354 566q0 -250 144 -338q46 -30 142 -30q76 0 134 22q-10 62 -10 108v26q26 228 276 422q80 66 186 112q94 42 166 42 t122 -42q48 -38 48 -96q0 -24 -10 -52q-28 -84 -110 -108h-2q-30 -4 -40 -4q-44 0 -78 24l-40 32q-40 20 -90 20q-46 0 -98 -16q-28 -8 -42 -20q-24 -20 -36 -72q-20 -54 -20 -108q0 -126 86 -206q84 -86 198 -86q38 0 90 14q48 16 136 74q84 64 114 108q48 72 92 268 q198 718 470 1118q50 76 138 184l80 90q-136 0 -352 -34q-506 -78 -952 -338q-668 -396 -738 -1022q-4 -48 -4 -92z" />
<glyph unicode="&#x2014;" horiz-adv-x="1044" d="M-1136 -2100q0 42 104 142l446 418q156 152 340 358q426 478 672 962q120 236 312 756q2 6 6 14q42 106 70 148q-52 -10 -124 -10q-100 0 -236 20q-152 26 -244 26q-190 0 -276 -74l-84 -58q-24 -12 -40 -12q-20 0 -20 22q0 26 34 68q52 62 146 124q188 120 426 120 q60 0 302 -34q60 -12 136 -12l216 22q24 0 24 -18q0 -14 -18 -42l-44 -56l-18 -36l-168 -430q-144 -362 -296 -624q-354 -610 -1040 -1286l-434 -410q-126 -114 -174 -114q-18 0 -18 16z" />
<glyph unicode="&#x2018;" d="M-2108 -766q0 30 6 60q36 154 198 262q80 56 162 58q96 0 140 -66q24 -36 24 -76q0 -60 -56 -130q-44 -54 -98 -78q-14 -6 -22 -6q-20 0 -20 18q0 14 28 56q14 14 14 36q0 24 -22 54q-36 48 -94 48q-52 0 -66 -14q-18 -14 -32 -62q-8 -30 -8 -58q0 -74 58 -130l2 -2 q48 -48 124 -48q168 0 426 274q116 122 390 438l174 196q76 80 116 80q20 0 20 -26q-6 -22 -36 -56l-212 -240l-236 -266q-222 -252 -380 -374q-218 -166 -376 -170q-142 0 -200 116q-24 52 -24 106z" />
<glyph unicode="&#x2019;" d="M-1966 -780q0 34 8 70q42 162 210 264q78 48 154 48q80 0 128 -62q24 -34 24 -76q0 -74 -70 -148q-60 -66 -104 -64q-18 0 -18 16q0 20 34 64q6 10 6 24q0 24 -24 56q-40 48 -94 48q-44 0 -62 -16q-20 -16 -30 -64q-8 -30 -8 -58q0 -86 74 -142q48 -36 110 -36 q108 0 228 102q72 58 164 156q52 58 388 468l158 190q68 84 120 84q16 0 16 -20q0 -26 -34 -62l-200 -242l-206 -252q-458 -560 -740 -568q-154 0 -212 122q-20 44 -20 98z" />
<glyph unicode="&#x201a;" d="M-1618 -34q0 18 14 32q12 12 44 32q158 116 520 334l116 68q48 30 74 34q30 0 44 -10q24 -16 24 -40q0 -18 -12 -38l-14 -18q-10 -10 -62 -42l-116 -68q-242 -140 -406 -224l-132 -66q-46 -22 -64 -22q-30 0 -30 28zM-1330 -106q0 18 14 32q12 12 44 32q158 116 520 334 l116 68q48 30 74 34q30 0 44 -10q24 -16 24 -40q0 -30 -26 -56q-10 -10 -62 -42l-116 -68q-242 -140 -406 -224l-132 -66q-46 -22 -64 -22q-30 0 -30 28z" />
<glyph unicode="&#x201c;" d="M-1564 -998q0 24 4 48q28 152 176 258q96 64 176 64q68 0 112 -50l2 -2q2 0 2 -2q30 -34 30 -88q-6 -58 -54 -110q-64 -70 -110 -70q-18 0 -18 16q0 4 2 10l24 46q2 6 2 12q0 20 -24 52q-38 42 -90 42q-38 0 -50 -14q-30 -32 -30 -112q0 -90 72 -150h2q54 -42 116 -42 q88 0 174 116q60 70 114 164q80 132 246 492l138 298q38 78 54 100q56 64 106 64q16 0 16 -16v-4q0 -8 -32 -78l-142 -304q-168 -364 -240 -486q-192 -326 -398 -440q-82 -46 -164 -46l-52 4q-114 30 -152 150q-12 38 -12 78z" />
<glyph unicode="&#x201d;" d="M-1450 -680q0 182 180 308q6 6 14 10q80 56 158 56t126 -54q28 -34 28 -78q0 -66 -58 -128q-62 -68 -108 -68q-18 0 -18 18q0 16 22 46q10 14 10 26q0 20 -22 48q-38 48 -96 48q-34 0 -50 -12q-32 -32 -32 -90q0 -82 36 -134q54 -80 146 -80q44 0 80 18q70 34 166 160 l6 6q98 132 246 438l14 26l56 108q40 80 72 108q48 44 82 44q18 0 18 -20q0 -6 -26 -62l-134 -262q-190 -382 -398 -566q-162 -138 -288 -142q-156 0 -210 128q-20 46 -20 100z" />
<glyph unicode="&#x201e;" d="M-1672 -842l2 14q8 20 56 50q158 116 520 334l116 68q48 30 74 34q30 0 44 -10q24 -16 24 -40q0 -18 -12 -38l-14 -18q-10 -10 -62 -42l-116 -68q-242 -140 -406 -224l-132 -66q-46 -22 -64 -22q-30 0 -30 28zM-1384 -914l2 14q8 20 56 50q158 116 520 334l116 68 q48 30 74 34q30 0 44 -10q24 -16 24 -40q0 -18 -12 -38l-14 -18q-10 -10 -62 -42l-116 -68q-242 -140 -406 -224l-132 -66q-46 -22 -64 -22q-30 0 -30 28z" />
<glyph unicode="&#x2022;" horiz-adv-x="918" d="M-1118 -1926q0 48 118 152q776 710 1298 1630q78 136 78 140q0 6 -20 22q-162 148 -242 366q-64 174 -64 356q0 490 462 1036q146 172 280 296l140 130q22 20 44 34q50 32 76 32q20 0 20 -16q0 -22 -34 -68q-18 -22 -96 -96q-36 -32 -106 -102q-84 -80 -184 -196 q-364 -446 -364 -860l8 -130q190 138 340 138q76 0 132 -42l2 -2l14 -12q58 -58 58 -132v-6q0 -176 -244 -620q-538 -998 -1398 -1834l-130 -124l-94 -78q-48 -28 -66 -30q-28 0 -28 16zM314 692q44 -204 184 -376q20 -24 26 -28q62 154 70 184q14 54 14 86v8q0 52 -40 100 q-48 58 -124 58q-58 0 -130 -32z" />
<glyph unicode="&#x2026;" d="M-1426 -962q0 16 8 28q6 8 42 44q212 212 466 428l94 80q48 42 84 42q34 0 48 -34q4 -10 4 -20v-4q0 -36 -60 -84q-12 -10 -16 -14l-108 -92q-196 -164 -472 -372q-38 -30 -60 -30q-30 0 -30 28zM-1138 -1034q0 16 8 28q6 8 42 44q212 212 466 428l94 80q48 42 84 42 q34 0 48 -34q4 -10 4 -20v-4q0 -36 -60 -84q-12 -10 -16 -14l-108 -92q-196 -164 -472 -372q-38 -30 -60 -30q-30 0 -30 28z" />
<glyph unicode="&#x202f;" horiz-adv-x="478" />
<glyph unicode="&#x2039;" d="M-1318 -820q0 12 6 24q12 26 72 76q8 6 14 10q314 270 558 444q48 36 68 36q28 0 28 -32q0 -24 -32 -50q-192 -192 -484 -448l-96 -80q-48 -40 -78 -40q-56 0 -56 60z" />
<glyph unicode="&#x203a;" horiz-adv-x="900" d="M-1152 -1530q0 50 116 150l94 92q330 330 680 912q160 268 408 748l228 440q180 374 180 494q0 12 -2 24q-14 80 -78 106q-14 6 -60 6q-86 -4 -130 -24l-44 -30q-48 -28 -70 -28q-18 0 -18 20q2 24 32 62q50 66 134 120q112 80 256 92l36 4l38 34q158 144 374 144 q122 0 156 -112q8 -30 8 -62q0 -158 -262 -670q-348 -674 -574 -1016q-82 -122 -164 -232q-268 -362 -710 -780l-434 -396q-128 -114 -174 -114q-20 0 -20 16zM-368 -754q14 12 100 106l22 22q148 164 260 318q226 304 514 840l234 444q190 388 190 506q0 66 -42 108l-2 2 q-30 30 -76 30l-92 -6q32 -48 34 -52q14 -34 14 -80q0 -160 -194 -540l-236 -458q-350 -676 -564 -1002l-66 -98z" />
<glyph unicode="&#x205f;" horiz-adv-x="598" />
<glyph unicode="&#x2122;" d="M-1304 -676q0 100 86 194q116 126 246 126q50 0 104 -30q82 -54 82 -164q0 -102 -70 -186q-114 -146 -258 -146l-42 8q-102 24 -136 128q-12 34 -12 70zM-1150 -576q0 -72 60 -124h2q44 -38 94 -38q8 0 18 2q24 0 30 22l8 60q0 72 -60 120q-44 34 -94 34h-14 q-30 0 -36 -20q-8 -18 -8 -56z" />
<glyph unicode="&#x25fc;" horiz-adv-x="920" d="M0 0v920h920v-920h-920z" />
</font>
</defs>
</svg>
